<?xml version="1.0" encoding="utf-8"?>
<!-- Generator: Adobe Illustrator 22.1.0, SVG Export Plug-In . SVG Version: 6.00 Build 0)  -->
<svg version="1.1" id="Layer_1" xmlns="http://www.w3.org/2000/svg" xmlns:xlink="http://www.w3.org/1999/xlink" x="0px" y="0px"
	 viewBox="0 0 24.8 24.9" style="enable-background:new 0 0 24.8 24.9;" xml:space="preserve">
<style type="text/css">
	.st0{fill:#00B6DD;}
</style>
<g>
	<g>
		<path class="st0" d="M13.8,12.5L24.5,1.7c0.4-0.4,0.4-1,0-1.4c-0.4-0.4-1-0.4-1.4,0L12.4,11L1.7,0.3c-0.4-0.4-1-0.4-1.4,0
			c-0.4,0.4-0.4,1,0,1.4L11,12.5L0.3,23.2c-0.4,0.4-0.4,1,0,1.4c0.2,0.2,0.4,0.3,0.7,0.3c0.3,0,0.5-0.1,0.7-0.3l10.7-10.8l10.7,10.8
			c0.2,0.2,0.4,0.3,0.7,0.3c0.3,0,0.5-0.1,0.7-0.3c0.4-0.4,0.4-1,0-1.4L13.8,12.5z"/>
	</g>
</g>
</svg>
