<?xml version="1.0" encoding="utf-8"?>
<!-- Generator: Adobe Illustrator 22.1.0, SVG Export Plug-In . SVG Version: 6.00 Build 0)  -->
<svg version="1.1" id="Layer_1" xmlns="http://www.w3.org/2000/svg" xmlns:xlink="http://www.w3.org/1999/xlink" x="0px" y="0px"
	 viewBox="0 0 40 40" style="enable-background:new 0 0 40 40;" xml:space="preserve">
<style type="text/css">
	.st0{fill:#E30A17;}
	.st1{fill:#FFFFFF;}
</style>
<g>
	<g>
		<g>
			<path class="st0" d="M20,0C11.3,0,3.9,5.5,1.2,13.3C0.4,15.4,0,17.6,0,20c0,2.4,0.4,4.6,1.2,6.7C3.9,34.5,11.3,40,20,40
				c8.7,0,16.1-5.5,18.8-13.3c0.8-2.1,1.2-4.4,1.2-6.7c0-2.4-0.4-4.6-1.2-6.7C36.1,5.5,28.7,0,20,0z M18.1,30.3
				c-4.5,0-8.2-2.8-9.7-6.8c-0.4-1.1-0.6-2.2-0.6-3.5s0.2-2.4,0.6-3.5c1.4-4,5.2-6.8,9.7-6.8c3.8,0,7.1,2.1,8.9,5.1
				c-1.5-1.8-3.7-2.9-6.2-2.9c-3.5,0-6.5,2.2-7.6,5.3c-0.3,0.8-0.5,1.8-0.5,2.7s0.2,1.9,0.5,2.7c1.1,3.1,4.1,5.3,7.6,5.3
				c2.5,0,4.7-1.1,6.2-2.9C25.2,28.2,21.9,30.3,18.1,30.3z M30.9,22l-2,3l-0.2-3.6l-3.5-0.9l3.4-1.3l-0.2-3.6l2.3,2.8l3.4-1.3l-2,3
				l2.3,2.8L30.9,22z"/>
			<path class="st1" d="M20.8,28.1c-3.5,0-6.5-2.2-7.6-5.3c-0.3-0.8-0.5-1.8-0.5-2.7s0.2-1.9,0.5-2.7c1.1-3.1,4.1-5.3,7.6-5.3
				c2.5,0,4.7,1.1,6.2,2.9c-1.8-3.1-5.1-5.1-8.9-5.1c-4.5,0-8.2,2.8-9.7,6.8c-0.4,1.1-0.6,2.2-0.6,3.5s0.2,2.4,0.6,3.5
				c1.4,4,5.2,6.8,9.7,6.8c3.8,0,7.1-2.1,8.9-5.1C25.5,26.9,23.3,28.1,20.8,28.1z"/>
			<polygon class="st1" points="34.1,17.1 30.7,18.4 28.4,15.6 28.6,19.2 25.2,20.5 28.7,21.4 28.9,25.1 30.9,22 34.4,22.9 
				32.1,20.1 			"/>
		</g>
	</g>
</g>
</svg>
