<?xml version="1.0" encoding="utf-8"?>
<!-- Generator: Adobe Illustrator 22.1.0, SVG Export Plug-In . SVG Version: 6.00 Build 0)  -->
<svg version="1.1" id="Layer_1" xmlns="http://www.w3.org/2000/svg" xmlns:xlink="http://www.w3.org/1999/xlink" x="0px" y="0px"
	 viewBox="0 0 56 56" style="enable-background:new 0 0 56 56;" xml:space="preserve">
<style type="text/css">
	.st0{fill:#1A1A1A;}
</style>
<g>
	<path class="st0" d="M28,0C12.6,0,0,12.6,0,28s12.6,28,28,28c10.3,0,14.1-3.9,15.5-7.2c1-2.4,0.9-5,0.3-6.7l0.5-0.5
		c1-1,1.6-2.3,1.7-3.7c0.1-1.4-0.4-2.8-1.4-3.7L41,30.6c-2-2-5.3-1.9-7.4,0.3L33.4,31c-3-2.5-5.9-5.4-8.4-8.4l0.2-0.2
		c2.1-2.1,2.2-5.4,0.3-7.4l-3.5-3.5c-1-1-2.3-1.5-3.7-1.4c-1.4,0.1-2.7,0.7-3.7,1.7l-2.2,2.2c-2.4,2.4-2.9,6.1-1.3,8.8
		c5.6,8.9,13.3,16.6,22.2,22.2c1.1,0.7,2.3,1,3.5,1c1.4,0,2.8-0.4,4-1.2c0,1-0.1,2.2-0.8,3.3c-1.6,3-5.8,4.5-12,4.5
		c-13.6,0-24.6-11-24.6-24.6c0-13.5,11-24.6,24.6-24.6c13.6,0,24.6,11,24.6,24.6c0,5-1.5,9.8-4.3,13.9l2.8,1.9
		C54.3,39.2,56,33.7,56,28C56,12.6,43.5,0,28,0z M35.1,42C26.6,36.7,19.3,29.4,14,20.9c-0.8-1.3-0.5-3.3,0.8-4.6l2.2-2.2
		c0.4-0.4,0.9-0.6,1.4-0.7c0,0,0.1,0,0.1,0c0.3,0,0.7,0.1,1,0.4l3.5,3.5c0.6,0.6,0.5,1.8-0.3,2.6l-2.4,2.4l1,1.2
		c3.2,4,7.1,7.9,11.1,11.1l1.2,1l2.4-2.4c0.8-0.8,1.9-0.9,2.6-0.3l3.5,3.5c0.4,0.4,0.4,0.9,0.4,1.1c0,0.5-0.3,1-0.7,1.4l-2.2,2.2
		C38.4,42.6,36.5,42.9,35.1,42z"/>
</g>
</svg>
