<?xml version="1.0" encoding="utf-8"?>
<!-- Generator: Adobe Illustrator 22.1.0, SVG Export Plug-In . SVG Version: 6.00 Build 0)  -->
<svg version="1.1" id="Layer_1" xmlns="http://www.w3.org/2000/svg" xmlns:xlink="http://www.w3.org/1999/xlink" x="0px" y="0px"
	 viewBox="0 0 34 34" style="enable-background:new 0 0 34 34;" xml:space="preserve">
<style type="text/css">
	.st0{fill:#00B6DD;}
</style>
<g>
	<g>
		<path class="st0" d="M31.6,8.3h-0.3V3.8c0-0.3-0.1-0.6-0.4-0.8l-3.5-2.8C27.2,0.1,26.9,0,26.7,0H16.3c-0.6,0-1,0.5-1,1v7.3h-0.7V8
			c0-2.1-1.7-3.8-3.8-3.8H7.6V1c0-0.6-0.5-1-1-1c-0.6,0-1,0.5-1,1v3.3C4,4.8,2.8,6.2,2.8,8v0.3H2.4C1.1,8.3,0,9.4,0,10.8v18
			c0,1.3,1.1,2.4,2.4,2.4h0.5C3.4,32.8,4.8,34,6.6,34h4.2c1.7,0,3.2-1.2,3.7-2.8h17.2c1.3,0,2.4-1.1,2.4-2.4v-18
			C34,9.4,32.9,8.3,31.6,8.3z M2.8,29.1H2.4c-0.2,0-0.3-0.2-0.3-0.3v-18c0-0.2,0.2-0.3,0.3-0.3h0.3L2.8,29.1L2.8,29.1z M12.5,30.2
			c0,1-0.8,1.7-1.7,1.7H6.6c-1,0-1.7-0.8-1.7-1.7V8c0-1,0.8-1.7,1.7-1.7h4.2c1,0,1.7,0.8,1.7,1.7C12.5,8,12.5,30.2,12.5,30.2z
			 M17.3,2.1h9l2.8,2.2v4H17.3V2.1z M31.9,28.8c0,0.2-0.2,0.3-0.3,0.3h-17V10.4h17c0.2,0,0.3,0.2,0.3,0.3V28.8z M18.4,19.8h1.4v-1.4
			h-1.4V19.8z M22.5,19.8h1.4v-1.4h-1.4V19.8z M26.7,19.8h1.4v-1.4h-1.4V19.8z M18.4,22.5h1.4v-1.4h-1.4V22.5z M22.5,22.5h1.4v-1.4
			h-1.4V22.5z M26.7,22.5h1.4v-1.4h-1.4V22.5z M18.4,25.3h1.4v-1.4h-1.4V25.3z M22.5,25.3h1.4v-1.4h-1.4V25.3z M26.7,25.3h1.4v-1.4
			h-1.4V25.3z"/>
	</g>
</g>
</svg>
