<?xml version="1.0" encoding="utf-8"?>
<!-- Generator: Adobe Illustrator 22.1.0, SVG Export Plug-In . SVG Version: 6.00 Build 0)  -->
<svg version="1.1" id="Layer_1" xmlns="http://www.w3.org/2000/svg" xmlns:xlink="http://www.w3.org/1999/xlink" x="0px" y="0px"
	 viewBox="0 0 32 22" style="enable-background:new 0 0 32 22;" xml:space="preserve">
<style type="text/css">
	.st0{fill:#00B6DD;}
</style>
<g>
	<g>
		<path class="st0" d="M28.8,0H3.2C1.4,0,0,1.4,0,3.2v15.6C0,20.6,1.4,22,3.2,22h25.6c1.8,0,3.2-1.4,3.2-3.2V3.2
			C32,1.4,30.6,0,28.8,0z M28.1,2.1L16,11.8L3.9,2.1H28.1z M28.8,19.9H3.2c-0.6,0-1.1-0.5-1.1-1.1V3.4L15.3,14
			c0.2,0.2,0.4,0.2,0.7,0.2c0.3,0,0.5-0.1,0.7-0.2L29.9,3.4v15.4C29.9,19.4,29.4,19.9,28.8,19.9z"/>
	</g>
</g>
</svg>
