<?xml version="1.0" encoding="utf-8"?>
<!-- Generator: Adobe Illustrator 22.1.0, SVG Export Plug-In . SVG Version: 6.00 Build 0)  -->
<svg version="1.1" id="Layer_1" xmlns="http://www.w3.org/2000/svg" xmlns:xlink="http://www.w3.org/1999/xlink" x="0px" y="0px"
	 viewBox="0 0 21 18" style="enable-background:new 0 0 21 18;" xml:space="preserve">
<path d="M21,2.2c-0.4,0.2-1.4,0.6-2.4,0.7c0.6-0.4,1.6-1.5,1.8-2.5c-0.6,0.4-2,1-2.7,1c0,0,0,0,0,0C16.9,0.5,15.8,0,14.6,0
	c-2.4,0-4.3,2-4.3,4.6c0,0.4,0,0.7,0.1,1h0c-3.2-0.1-7-1.8-9.2-4.7c-1.3,2.4-0.2,5.1,1.3,6C2,6.9,1,6.8,0.6,6.4
	c0,1.6,0.7,3.7,3.3,4.5C3.4,11.1,2.5,11,2.1,11C2.3,12.3,4,14.1,6,14.1c-0.7,0.8-3.1,2.4-6,1.9c2,1.3,4.3,2,6.8,2
	c7,0,12.4-6,12.1-13.3c0,0,0,0,0,0c0,0,0,0,0-0.1c0,0,0,0,0-0.1C19.5,4,20.4,3.2,21,2.2z"/>
</svg>
