<svg width="8" height="6" viewBox="0 0 8 6" fill="none" xmlns="http://www.w3.org/2000/svg">
<path d="M7.917 1.40154L4.25567 5.55854C4.22251 5.59314 4.18268 5.62066 4.1386 5.63947C4.09452 5.65827 4.04709 5.66797 3.99917 5.66797C3.95125 5.66797 3.90382 5.65827 3.85974 5.63947C3.81566 5.62066 3.77584 5.59314 3.74267 5.55854L0.0830043 1.40154C0.0537343 1.36856 0.0313917 1.33004 0.0173043 1.28826C0.0032168 1.24647 -0.00232811 1.20229 0.000998998 1.15832C0.00432611 1.11435 0.0164574 1.0715 0.0366719 1.03231C0.0568864 0.993128 0.0847718 0.958404 0.118671 0.930207L0.735338 0.411207C0.804103 0.353233 0.892906 0.32462 0.982582 0.331542C1.07226 0.338464 1.15562 0.380367 1.21467 0.448207L3.93634 3.59921C3.94416 3.6083 3.95385 3.61559 3.96476 3.6206C3.97566 3.6256 3.98751 3.62819 3.9995 3.62819C4.0115 3.62819 4.02335 3.6256 4.03425 3.6206C4.04515 3.61559 4.05485 3.6083 4.06267 3.59921L6.78534 0.449207C6.81468 0.415432 6.85038 0.387773 6.89042 0.367811C6.93046 0.347849 6.97404 0.335977 7.01867 0.332874C7.06305 0.328917 7.10778 0.333899 7.15021 0.347526C7.19263 0.361152 7.23189 0.383146 7.26567 0.412208L7.88267 0.931541C7.91649 0.959792 7.9443 0.994536 7.96447 1.03372C7.98463 1.0729 7.99673 1.11573 8.00005 1.15967C8.00338 1.20362 7.99786 1.24778 7.98382 1.28955C7.96979 1.33132 7.94752 1.36986 7.91834 1.40287L7.917 1.40154Z" fill="#1A9DD9"/>
</svg>
