<svg width="24" height="24" viewBox="0 0 24 24" fill="none" xmlns="http://www.w3.org/2000/svg">
<path d="M9.92811 3.93164C7.36024 4.00519 4.92618 5.09343 3.15907 6.95801C1.39195 8.8226 0.435824 11.3115 0.500115 13.8796V15.1226C0.499917 16.1002 0.789617 17.0558 1.33258 17.8686C1.87553 18.6815 2.64736 19.3151 3.55043 19.6893C4.4535 20.0634 5.44726 20.1614 6.40601 19.9707C7.36475 19.7801 8.24542 19.3094 8.93664 18.6182C9.62785 17.9269 10.0985 17.0463 10.2892 16.0875C10.4799 15.1288 10.3819 14.135 10.0077 13.232C9.63356 12.3289 8.99998 11.5571 8.18712 11.0141C7.37426 10.4711 6.41864 10.1814 5.44111 10.1816C5.06513 10.1827 4.69068 10.2297 4.32612 10.3216C4.27844 10.3336 4.2283 10.3312 4.18196 10.3148C4.13563 10.2984 4.09515 10.2688 4.06559 10.2295C4.03603 10.1902 4.01871 10.1431 4.01578 10.094C4.01284 10.045 4.02444 9.99615 4.04911 9.95364C4.63203 8.90081 5.48271 8.02063 6.51506 7.40217C7.54741 6.78371 8.72481 6.44891 9.92811 6.43164C10.2596 6.43164 10.5776 6.29994 10.812 6.06552C11.0464 5.8311 11.1781 5.51316 11.1781 5.18164C11.1781 4.85012 11.0464 4.53218 10.812 4.29776C10.5776 4.06334 10.2596 3.93164 9.92811 3.93164Z" fill="#1E2D40"/>
<path d="M22.2504 6.43164C22.5819 6.43164 22.8998 6.29994 23.1342 6.06552C23.3687 5.8311 23.5004 5.51316 23.5004 5.18164C23.5004 4.85012 23.3687 4.53218 23.1342 4.29776C22.8998 4.06334 22.5819 3.93164 22.2504 3.93164C19.6826 4.00545 17.2487 5.09377 15.4816 6.9583C13.7145 8.82282 12.7583 11.3116 12.8224 13.8796V15.1226C12.8222 16.1001 13.1118 17.0557 13.6547 17.8685C14.1977 18.6814 14.9694 19.315 15.8724 19.6892C16.7755 20.0634 17.7692 20.1614 18.7279 19.9708C19.6866 19.7802 20.5673 19.3096 21.2585 18.6185C21.9498 17.9274 22.4206 17.0468 22.6113 16.0881C22.8021 15.1295 22.7043 14.1357 22.3303 13.2326C21.9562 12.3296 21.3228 11.5577 20.5101 11.0146C19.6974 10.4715 18.7418 10.1816 17.7644 10.1816C17.388 10.1826 17.0133 10.2296 16.6484 10.3216C16.6008 10.3336 16.5507 10.3313 16.5045 10.3149C16.4582 10.2986 16.4178 10.2689 16.3884 10.2296C16.3589 10.1903 16.3416 10.1432 16.3386 10.0942C16.3356 10.0451 16.347 9.99629 16.3714 9.95364C16.9543 8.90081 17.8049 8.02063 18.8373 7.40217C19.8697 6.78371 21.047 6.44891 22.2504 6.43164Z" fill="#1E2D40"/>
</svg>
