<svg width="16" height="16" viewBox="0 0 16 16" fill="none" xmlns="http://www.w3.org/2000/svg">
<path d="M15.5891 14.4143L11.2364 10.0617C12.1865 8.81275 12.6267 7.24959 12.468 5.68842C12.3093 4.12725 11.5636 2.68465 10.3816 1.65245C9.19968 0.620262 7.66979 0.0755539 6.10147 0.128532C4.53316 0.181509 3.04351 0.828217 1.93391 1.93782C0.824311 3.04742 0.177603 4.53706 0.124625 6.10538C0.0716477 7.6737 0.616356 9.20359 1.64855 10.3855C2.68074 11.5675 4.12335 12.3132 5.68451 12.4719C7.24568 12.6306 8.80885 12.1904 10.0578 11.2403L14.4104 15.593C14.5681 15.7468 14.7795 15.8328 14.9998 15.8328C15.22 15.8328 15.4315 15.7468 15.5891 15.593C15.7453 15.4366 15.833 15.2247 15.833 15.0037C15.833 14.7827 15.7453 14.5707 15.5891 14.4143ZM1.83309 6.335C1.83309 5.44498 2.09701 4.57495 2.59148 3.83493C3.08594 3.09491 3.78875 2.51813 4.61101 2.17754C5.43328 1.83694 6.33808 1.74783 7.211 1.92146C8.08391 2.0951 8.88573 2.52368 9.51507 3.15302C10.1444 3.78235 10.573 4.58418 10.7466 5.45709C10.9203 6.33 10.8311 7.2348 10.4905 8.05707C10.15 8.87934 9.57318 9.58214 8.83316 10.0766C8.09313 10.5711 7.22311 10.835 6.33309 10.835C5.14005 10.8336 3.99628 10.359 3.15267 9.51542C2.30906 8.67181 1.8345 7.52804 1.83309 6.335Z" fill="white"/>
</svg>
