<svg aria-hidden="true" style="position: absolute; width: 0; height: 0; overflow: hidden; display:none;" version="1.1" xmlns="http://www.w3.org/2000/svg"
  xmlns:xlink="http://www.w3.org/1999/xlink">
  <defs>

    <symbol id="icon-file" viewBox="0 0 36 48">
    <g>
    	<g>
    		<path class="st0" d="M35.9,12.6c-0.1-0.1-0.1-0.2-0.2-0.3l-12-12c-0.1-0.1-0.2-0.2-0.3-0.2C23.3,0,23.1,0,23,0H1C0.4,0,0,0.4,0,1
    			v46c0,0.6,0.4,1,1,1h34c0.6,0,1-0.4,1-1V13C36,12.9,36,12.7,35.9,12.6z M24,3.4l8.6,8.6H24V3.4z M34,46H2V2h20v11c0,0.6,0.4,1,1,1
    			h11V46z M9,16h9c0.6,0,1-0.4,1-1c0-0.6-0.4-1-1-1H9c-0.6,0-1,0.4-1,1C8,15.6,8.4,16,9,16z M8,21c0,0.6,0.4,1,1,1h18
    			c0.6,0,1-0.4,1-1c0-0.6-0.4-1-1-1H9C8.4,20,8,20.4,8,21z M27,26H9c-0.6,0-1,0.4-1,1c0,0.6,0.4,1,1,1h18c0.6,0,1-0.4,1-1
    			C28,26.4,27.6,26,27,26z M27,32H9c-0.6,0-1,0.4-1,1c0,0.6,0.4,1,1,1h18c0.6,0,1-0.4,1-1C28,32.4,27.6,32,27,32z M27,38H9
    			c-0.6,0-1,0.4-1,1c0,0.6,0.4,1,1,1h18c0.6,0,1-0.4,1-1C28,38.4,27.6,38,27,38z"/>
    	</g>
    </g>
  </symbol>


    <symbol id="icon-refresh" viewBox="0 0 11.5 11.5">
      <path d="M1,5.8C1,3.1,3.1,1,5.8,1C7,1,8.2,1.5,9.1,2.4l-1,0c-0.3,0-0.5,0.2-0.5,0.5c0,0.3,0.2,0.5,0.5,0.5l2,0c0,0,0,0,0,0
    		c0.1,0,0.3,0,0.3-0.1c0.1-0.1,0.2-0.2,0.2-0.4l0-2c0-0.3-0.2-0.5-0.5-0.5c0,0,0,0,0,0c-0.3,0-0.5,0.2-0.5,0.5l0,0.7
    		C8.6,0.6,7.2,0,5.8,0C2.6,0,0,2.6,0,5.8C0,6,0.2,6.2,0.5,6.2S1,6,1,5.8z"/>
    	<path d="M11,5.2c-0.3,0-0.5,0.2-0.5,0.5c0,2.6-2.1,4.8-4.8,4.8c-1.3,0-2.5-0.5-3.3-1.4l1,0c0.3,0,0.5-0.2,0.5-0.5
    		c0-0.3-0.2-0.5-0.5-0.5l-2,0c-0.1,0-0.3,0-0.4,0.1C0.9,8.3,0.9,8.5,0.9,8.6l0,2c0,0.3,0.2,0.5,0.5,0.5c0,0,0,0,0,0
    		c0.3,0,0.5-0.2,0.5-0.5l0-0.7c1.1,1,2.4,1.5,3.9,1.5c3.2,0,5.8-2.6,5.8-5.8C11.5,5.5,11.3,5.2,11,5.2z"/>
    </symbol>

    <symbol id="icon_map_view" viewBox="0 0 26 37">
      <path d="M13,0C5.8,0,0,5.8,0,13c0,7.2,13,24,13,24s13-16.8,13-24C26,5.8,20.2,0,13,0z M13.4,17.2c-2.9,0-5.3-2.4-5.3-5.3
    	c0-2.9,2.4-5.3,5.3-5.3c2.9,0,5.3,2.4,5.3,5.3C18.8,14.9,16.4,17.2,13.4,17.2z"/>
    </symbol>


    <symbol id="icon_grid_view2" viewBox="0 0 29 24">
      <g>
      	<path d="M13,4.2h16V0H13V4.2z"/>
      	<path d="M13,14.1h16V9.9H13V14.1z"/>
      	<path d="M13,24h16v-4.2H13V24z"/>
      	<path d="M0,4.2h7V0H0V4.2z"/>
      	<path d="M0,14.1h7V9.9H0V14.1z"/>
      	<path d="M0,24h7v-4.2H0V24z"/>
      </g>
    </symbol>

    <symbol id="icon-youtube" viewBox="0 0 176 124">
    <path d="M172.3,19.4c-2-7.6-8-13.6-15.6-15.7C143,0,88,0,88,0S33,0,19.2,3.7c-7.6,2-13.5,8-15.6,15.7C0,33.2,0,62,0,62
      s0,28.8,3.7,42.6c2,7.6,8,13.6,15.6,15.7C33,124,88,124,88,124s55,0,68.8-3.7c7.6-2,13.5-8,15.6-15.7C176,90.8,176,62,176,62
      S176,33.2,172.3,19.4z M70,88.2V35.8L116,62L70,88.2z"/>
    </symbol>


  <symbol id="icon-twitter" viewBox="0 0 21 18">
    <path d="M21,2.2c-0.4,0.2-1.4,0.6-2.4,0.7c0.6-0.4,1.6-1.5,1.8-2.5c-0.6,0.4-2,1-2.7,1c0,0,0,0,0,0C16.9,0.5,15.8,0,14.6,0
    	c-2.4,0-4.3,2-4.3,4.6c0,0.4,0,0.7,0.1,1h0c-3.2-0.1-7-1.8-9.2-4.7c-1.3,2.4-0.2,5.1,1.3,6C2,6.9,1,6.8,0.6,6.4
    	c0,1.6,0.7,3.7,3.3,4.5C3.4,11.1,2.5,11,2.1,11C2.3,12.3,4,14.1,6,14.1c-0.7,0.8-3.1,2.4-6,1.9c2,1.3,4.3,2,6.8,2
    	c7,0,12.4-6,12.1-13.3c0,0,0,0,0,0c0,0,0,0,0-0.1c0,0,0,0,0-0.1C19.5,4,20.4,3.2,21,2.2z"/>
  </symbol>


  <symbol id="icon-print" viewBox="0 0 23 21">
  <g>
  	<g>
  		<path d="M16.8,12.9H6.4c-0.5,0-1,0.4-1,1v6.2c0,0.5,0.4,1,1,1h10.4c0.5,0,1-0.4,1-1v-6.2C17.8,13.3,17.4,12.9,16.8,12.9z
  			 M20.9,3.1h-0.4v-1c0-1.1-0.9-2.1-2.1-2.1H4.7C3.5,0,2.6,0.9,2.6,2.1v1H2.1C0.9,3.1,0,4,0,5.2v9.3c0,1.1,0.9,2.1,2.1,2.1h1.8v-3.7
  			c0-0.7,0.6-1.2,1.2-1.2h13c0.7,0,1.2,0.5,1.2,1.2v3.7h1.5c1.2,0,2.1-0.9,2.1-2.1V5.2C23,4,22.1,3.1,20.9,3.1z M18.2,9.2
  			c-0.9,0-1.7-0.7-1.7-1.6c0-0.9,0.7-1.6,1.7-1.6c0.9,0,1.7,0.7,1.7,1.6C19.9,8.5,19.2,9.2,18.2,9.2z"/>
  	</g>
  </g>
</symbol>

  <symbol id="icon-email" viewBox="0 0 25 16">
    <g>
    	<g>
    		<path d="M24,0L24,0L0.9,0l0,0l11.6,9L24,0z M12.5,10.5L0,0.8v13.6C0.1,14.9,0.4,16,1.7,16h21.6c1.2,0,1.6-1,1.7-1.5V0.8L12.5,10.5
    			z"/>
    	</g>
    </g>
  </symbol>

  <symbol id="icon-linkedin" viewBox="0 0 21 21">
    <g>
    	<g>
    		<path class="st0" d="M0,21h3.9V5.2H0V21z M15.8,5.2c-3.4,0.1-5,2.5-5.3,2.6V5.2H6.6V21h3.9v-9.2c0-0.3,0.8-3,3.9-2.6
    			c1.7,0.1,2.6,2.3,2.6,2.6V21l3.9,0V10.1C20.9,8.5,20.1,5.3,15.8,5.2z M2,0C0.9,0,0,0.9,0,2c0,1.1,0.9,2,2,2c1.1,0,2-0.9,2-2
    			C3.9,0.9,3.1,0,2,0z"/>
    	</g>
    </g>
  </symbol>
    <symbol id="icon-googleplus" viewBox="0 0 27 18">
    <g>
    	<g>
    		<path d="M8.6,7.7c0,1,0,2,0,3.1c1.6,0.1,3.3,0,4.9,0.1c-0.7,3.8-5.7,5-8.3,2.6c-2.7-2.2-2.6-7,0.2-9c1.9-1.6,4.7-1.2,6.7,0.2
    			c0.8-0.7,1.5-1.5,2.2-2.4C12.7,0.9,10.7-0.1,8.6,0C4.2-0.1,0.1,3.9,0,8.6c-0.3,3.8,2.1,7.5,5.4,8.9c3.3,1.4,7.6,0.4,9.8-2.7
    			c1.4-2,1.7-4.6,1.5-7C14,7.7,11.3,7.7,8.6,7.7z M24.6,7.7c0-0.9,0-1.7,0-2.6h-2.4c0,0.9,0,1.7,0,2.6c-0.8,0-1.6,0-2.4,0v2.6
    			c0.8,0,1.6,0,2.4,0c0,0.9,0,1.7,0,2.6h2.4c0-0.9,0-1.7,0-2.6c0.8,0,1.6,0,2.4,0V7.7C26.2,7.7,25.4,7.7,24.6,7.7z"/>
    	</g>
    </g>
  </symbol>

    <symbol id="icon-facebook" viewBox="0 0 10 21">
      <path class="st0" d="M10,7.3H6.3V4.6c0-0.8,0.8-1,1.2-1c0.4,0,2.4,0,2.4,0V0L7.2,0C3.5,0,2.7,2.7,2.7,4.4v2.9H0V11h2.7
    	c0,4.8,0,10,0,10h3.7c0,0,0-5.3,0-10h3.1L10,7.3z"/>
    </symbol>

    <symbol id="icon-facebook-alt" viewBox="0 0 42.66 42.67">
    <path class="st0" d="M40.31,0H2.35C1.05,0,0,1.05,0,2.35v37.96c0,1.3,1.05,2.35,2.35,2.35h20.44V26.13h-5.58v-6.42h5.58v-4.75
      c0-5.51,3.36-8.5,8.28-8.5c2.35,0,4.38,0.16,4.97,0.24v5.76l-3.41,0c-2.67,0-3.17,1.27-3.17,3.14v4.11h6.36l-0.83,6.42h-5.53v16.54
      h10.85c1.3,0,2.35-1.05,2.35-2.35V2.35C42.66,1.05,41.61,0,40.31,0z"/>
    </symbol>

    <symbol id="icon-buttonarrow-left" viewBox="0 0 24 19">
      <g>
        <path class="st0" d="M24,10.7H1.8L0,8.9l1.8-0.6H24V10.7z" />
        <path class="st0" d="M9.2,19l-7.9-7.9L0,9.5l2.5-0.6L12.3,19H9.2z" />
        <path class="st0" d="M9.2,0L1.3,7.9L0,9.5l2.5,0.6L12.3,0L9.2,0z" />
      </g>
    </symbol>
    <symbol id="icon-buttonarrow" viewBox="0 0 40 32">
      <title>buttonarrow</title>
      <path d="M0 13.979h37.389l3.032 3.032-3.032 1.011h-37.389v-4.042z"></path>
      <path d="M24.926 0l13.305 13.305 2.189 2.695-4.211 1.011-16.505-17.011h5.221z"></path>
      <path d="M24.926 32l13.305-13.305 2.189-2.695-4.211-1.011-16.505 17.011h5.221z"></path>
    </symbol>
    <symbol id="icon-icon_connect" viewBox="0 0 32 32">
      <title>icon_connect</title>
      <path d="M16 0c-8.832 0-16 7.168-16 16s7.168 16 16 16c8.832 0 16-7.168 16-16s-7.168-16-16-16zM16 29.312c-7.36 0-13.312-5.952-13.312-13.312s5.952-13.312 13.312-13.312c7.36 0 13.312 5.952 13.312 13.312s-5.952 13.312-13.312 13.312z"></path>
      <path d="M17.344 8h-2.688v6.656h-6.656v2.688h6.656v6.656h2.688v-6.656h6.656v-2.688h-6.656v-6.656z"></path>
    </symbol>
    <symbol id="icon-icon_contact_us" viewBox="0 0 32 32">
      <title>icon_contact_us</title>
      <path d="M16 0c-8.8 0-16 7.2-16 16s7.2 16 16 16c5.886 0 8.057-2.229 8.857-4.114 0.571-1.371 0.514-2.857 0.171-3.829l0.286-0.286c0.571-0.571 0.914-1.314 0.971-2.114s-0.229-1.6-0.8-2.114l-2.057-2.057c-1.143-1.143-3.029-1.086-4.229 0.171l-0.114 0.057c-1.714-1.429-3.371-3.086-4.8-4.8l0.114-0.114c1.2-1.2 1.257-3.086 0.171-4.229l-2-2c-0.571-0.571-1.314-0.857-2.114-0.8s-1.543 0.4-2.114 0.971l-1.257 1.257c-1.371 1.371-1.657 3.486-0.743 5.029 3.2 5.086 7.6 9.486 12.686 12.686 0.629 0.4 1.314 0.571 2 0.571 0.8 0 1.6-0.229 2.286-0.686 0 0.571-0.057 1.257-0.457 1.886-0.914 1.714-3.314 2.571-6.857 2.571-7.771 0-14.057-6.286-14.057-14.057 0-7.714 6.286-14.057 14.057-14.057s14.057 6.286 14.057 14.057c0 2.857-0.857 5.6-2.457 7.943l1.6 1.086c1.829-2.629 2.8-5.771 2.8-9.029 0-8.8-7.143-16-16-16zM20.057 24c-4.857-3.029-9.029-7.2-12.057-12.057-0.457-0.743-0.286-1.886 0.457-2.629l1.257-1.257c0.229-0.229 0.514-0.343 0.8-0.4 0 0 0.057 0 0.057 0 0.171 0 0.4 0.057 0.571 0.229l2 2c0.343 0.343 0.286 1.029-0.171 1.486l-1.371 1.371 0.571 0.686c1.829 2.286 4.057 4.514 6.343 6.343l0.686 0.571 1.371-1.371c0.457-0.457 1.086-0.514 1.486-0.171l2 2c0.229 0.229 0.229 0.514 0.229 0.629 0 0.286-0.171 0.571-0.4 0.8l-1.257 1.257c-0.686 0.857-1.771 1.029-2.571 0.514z"></path>
    </symbol>
    <symbol id="icon-icon_grid_view" viewBox="0 0 31 32">
      <title>icon_grid_view</title>
      <path d="M0 0h13.333v13.333h-13.333v-13.333z"></path>
      <path d="M17.333 0h13.333v13.333h-13.333v-13.333z"></path>
      <path d="M0 18.667h13.333v13.333h-13.333v-13.333z"></path>
      <path d="M17.333 18.667h13.333v13.333h-13.333v-13.333z"></path>
    </symbol>
    <symbol id="icon-icon_home" viewBox="0 0 38 32">
      <title>icon_home</title>
      <path d="M15.17 32v-11.259h7.585v11.259h9.481v-15.052h5.689l-18.963-16.948-18.963 16.948h5.689v15.052h9.481z"></path>
    </symbol>
    <symbol id="icon-icon_more_services" viewBox="0 0 39 32">
      <title>icon_more_services</title>
      <path d="M0 5.619h38.667v-5.619h-38.667v5.619z"></path>
      <path d="M0 18.857h38.667v-5.619h-38.667v5.619z"></path>
      <path d="M0 32h38.667v-5.619h-38.667v5.619z"></path>
    </symbol>
    <symbol id="icon-icon_right_arrow_pagination" viewBox="0 0 19 32">
      <title>icon_right_arrow_pagination</title>
      <path d="M3.413 32l-3.413-3.413 12.373-12.587-12.373-12.587 3.413-3.413 15.787 16-15.787 16z"></path>
    </symbol>
    <symbol id="icon-icon_search" viewBox="0 0 30 32">
      <title>icon_search</title>
      <path d="M29.689 28.889l-7.289-7.289c0 0-0.089-0.089-0.178-0.089 2.133-2.311 3.467-5.333 3.467-8.711 0-7.022-5.778-12.8-12.889-12.8-7.022 0-12.8 5.778-12.8 12.8s5.778 12.8 12.8 12.8c2.4 0 4.711-0.711 6.667-1.867 0.089 0.178 0.178 0.267 0.267 0.444l7.289 7.289c0.356 0.356 0.8 0.533 1.333 0.533 0.444 0 0.978-0.178 1.333-0.533 0.711-0.711 0.711-1.867 0-2.578zM2.844 12.8c0-5.511 4.444-9.956 9.956-9.956s9.956 4.444 9.956 9.956c0 5.511-4.444 9.956-9.956 9.956s-9.956-4.444-9.956-9.956z"></path>
    </symbol>
    <symbol id="icon-Logo" viewBox="0 0 73 32">
      <title>Logo</title>
      <path fill="#00537f" style="fill: var(--color1, #00537f)" d="M9.6 5.879c-1.488 0.558-2.828 1.34-3.944 2.419l-0.074 0.037v0.074c-0.074 1.898 0.186 3.646 0.707 5.209l0.074 0.186 0.149-0.112c0.558-0.372 1.154-0.633 1.823-0.781l0.112-0.037v-0.112c0.037-0.781 0.112-1.563 0.223-2.344 0.223-1.451 0.595-2.94 1.079-4.354l0.112-0.298-0.26 0.112z"></path>
      <path fill="#00537f" style="fill: var(--color1, #00537f)" d="M4.577 9.451c-1.079 1.451-1.898 3.014-2.381 4.688v0.074l0.037 0.074c0.223 0.372 0.484 0.744 0.781 1.079 0.335 0.372 0.707 0.744 1.079 1.079l0.149 0.112 0.074-0.186c0.335-0.744 0.781-1.414 1.377-1.972l0.074-0.074-0.037-0.186-0.074-0.186c-0.484-1.34-0.744-2.828-0.819-4.428v-0.447l-0.26 0.372z"></path>
      <path fill="#00537f" style="fill: var(--color1, #00537f)" d="M1.86 15.516c-0.149 0.744-0.223 1.526-0.223 2.27 0 0.335 0 0.707 0.037 1.042v0.112l0.112 0.037c0.595 0.223 1.228 0.372 1.86 0.447l0.186 0.037-0.037-0.67c0-0.447 0.037-0.893 0.149-1.34l0.037-0.112-0.074-0.074c-0.521-0.409-1.042-0.856-1.451-1.377l-0.521-0.633-0.074 0.26z"></path>
      <path fill="#00537f" style="fill: var(--color1, #00537f)" d="M1.86 20.019c0.112 0.633 0.298 1.265 0.521 1.86l0.037 0.149 0.149-0.074c0.521-0.223 1.042-0.447 1.526-0.67l0.112-0.074-0.037-0.149c-0.074-0.26-0.149-0.521-0.223-0.819l-0.037-0.112h-0.112c-0.595-0.074-1.191-0.186-1.786-0.335l-0.26-0.074 0.112 0.298z"></path>
      <path fill="#00537f" style="fill: var(--color1, #00537f)" d="M17.488 5.619c-1.6 1.786-3.014 3.609-4.167 5.433-0.447 0.707-0.856 1.414-1.228 2.121l-0.074 0.149 0.149 0.074c0.558 0.298 1.079 0.67 1.526 1.153l0.112 0.112 0.112-0.074c1.674-1.34 3.386-2.642 5.098-3.907 1.191-0.856 2.419-1.712 3.646-2.53l0.186-0.112-0.186-0.112c-1.526-1.079-3.237-1.86-5.023-2.307l-0.074-0.037-0.074 0.037z"></path>
      <path fill="#00537f" style="fill: var(--color1, #00537f)" d="M13.47 5.135c-0.893 0.037-1.749 0.149-2.605 0.372h-0.074l-0.037 0.074c-0.633 1.637-1.079 3.274-1.34 4.912-0.112 0.707-0.186 1.414-0.223 2.121v0.149h0.409c0.521 0 1.079 0.074 1.6 0.223l0.112 0.037 0.074-0.112c0.409-0.744 0.819-1.488 1.302-2.233 1.079-1.712 2.381-3.46 3.87-5.135l0.186-0.223-0.26-0.037c-1.042-0.149-2.046-0.186-3.014-0.149z"></path>
      <path fill="#00537f" style="fill: var(--color1, #00537f)" d="M4.391 22.028c-0.484 0.223-1.005 0.447-1.526 0.633l-0.149 0.074 0.074 0.149c0.26 0.521 0.558 1.005 0.856 1.488l0.112 0.186 0.149-0.186c0.335-0.484 0.707-0.93 1.116-1.377l0.074-0.074-0.074-0.112c-0.149-0.223-0.298-0.484-0.409-0.707l-0.074-0.149-0.149 0.074z"></path>
      <path fill="#00537f" style="fill: var(--color1, #00537f)" d="M9.526 26.233c0.112 0.633 0.223 1.265 0.372 1.898l0.186 0.707h0.112c1.377 0.26 2.753 0.223 4.093-0.074l0.223-0.037-0.149-0.186c-0.558-0.744-1.116-1.526-1.637-2.307l-0.037-0.074h-0.112c-0.409 0.074-0.856 0.074-1.34 0.074-0.521 0-1.042-0.037-1.563-0.149l-0.223-0.037 0.074 0.186z"></path>
      <path fill="#00537f" style="fill: var(--color1, #00537f)" d="M6.995 25.116c-0.186 0.67-0.335 1.377-0.447 2.121v0.112l0.074 0.074c0.26 0.186 0.484 0.335 0.744 0.521v0 0c0.521 0.26 1.079 0.484 1.637 0.633l0.26 0.074-0.112-0.409c-0.186-0.781-0.335-1.6-0.447-2.381v-0.074l-0.074-0.037c-0.484-0.186-0.967-0.409-1.377-0.707l-0.186-0.112-0.074 0.186z"></path>
      <path fill="#00537f" style="fill: var(--color1, #00537f)" d="M5.433 23.665c-0.372 0.447-0.744 0.93-1.116 1.414l-0.074 0.112 0.074 0.112c0.409 0.484 0.856 0.93 1.34 1.377l0.186 0.186 0.037-0.26c0.112-0.67 0.298-1.34 0.447-1.972 0 0 0-0.037 0-0.037l0.037-0.112-0.074-0.074-0.372-0.335-0.447-0.484-0.037 0.074z"></path>
      <path fill="#00537f" style="fill: var(--color1, #00537f)" d="M21.135 0.447c-0.707 0.633-1.34 1.228-1.972 1.86-0.67 0.67-1.34 1.34-1.972 2.046-1.265-0.26-2.53-0.372-3.758-0.335-0.558 0.037-1.116 0.074-1.674 0.186 0.298-0.67 0.633-1.34 1.005-1.972s0.744-1.302 1.191-1.935c2.307-0.447 4.8-0.372 7.181 0.149z"></path>
      <path fill="#00537f" style="fill: var(--color1, #00537f)" d="M4.837 5.209c0 0 0.037-0.037 0.037-0.037-0.112 0.558-0.186 1.154-0.26 1.712-0.037 0.298-0.074 0.633-0.074 0.967-0.223 0.223-0.409 0.409-0.595 0.633v0c0 0 0 0 0 0-0.967 1.191-1.712 2.456-2.27 3.833-0.149-0.409-0.26-0.819-0.372-1.265 0.819-2.084 2.009-4.056 3.535-5.842z"></path>
      <path fill="#00537f" style="fill: var(--color1, #00537f)" d="M0.558 13.358c0.149 0.335 0.298 0.67 0.446 0.967-0.298 1.153-0.447 2.307-0.447 3.46 0 0.074 0 0.149 0 0.223-0.186-0.112-0.372-0.223-0.558-0.372 0-1.414 0.186-2.865 0.558-4.279z"></path>
      <path fill="#00537f" style="fill: var(--color1, #00537f)" d="M11.907 0.781c-0.149 0.26-0.298 0.521-0.447 0.744-0.558 1.005-1.042 2.009-1.488 3.051-1.414 0.409-2.716 1.042-3.87 1.898 0.149-0.967 0.335-1.972 0.633-3.014 1.526-1.228 3.274-2.121 5.172-2.679z"></path>
      <path fill="#00537f" style="fill: var(--color1, #00537f)" d="M1.86 23.442c0.298 0.595 0.633 1.191 1.042 1.749-0.186 0.223-0.335 0.484-0.484 0.707-0.446-0.707-0.856-1.451-1.191-2.195 0.186-0.074 0.447-0.186 0.633-0.26z"></path>
      <path fill="#00537f" style="fill: var(--color1, #00537f)" d="M0.112 19.423c0.186 0.112 0.409 0.223 0.595 0.298 0 0.112 0.037 0.26 0.037 0.26v0c0.112 0.707 0.298 1.414 0.558 2.121-0.186 0.074-0.409 0.149-0.595 0.223-0.298-0.93-0.484-1.935-0.595-2.902z"></path>
      <path fill="#00537f" style="fill: var(--color1, #00537f)" d="M20.205 3.312c0.819-0.819 1.712-1.6 2.642-2.419 2.158 0.67 4.13 1.749 5.916 3.126-1.712 0.967-3.46 2.009-5.209 3.126-1.451-1.079-3.051-1.86-4.763-2.419 0.447-0.484 0.93-0.967 1.414-1.414z"></path>
      <path fill="#00537f" style="fill: var(--color1, #00537f)" d="M12.242 30.14c0.893-0.037 1.786-0.149 2.679-0.409 0.112 0.149 0.595 0.707 0.595 0.707 0.335 0.372 0.67 0.744 1.005 1.116-1.637 0.447-3.312 0.558-4.986 0.335-0.26-0.595-0.484-1.228-0.707-1.823 0.484 0.074 0.93 0.074 1.414 0.074z"></path>
      <path fill="#00537f" style="fill: var(--color1, #00537f)" d="M6.698 28.8c0.074 0.037 0.149 0.112 0.149 0.112s0.037 0 0.037 0h0.037c0.744 0.372 1.563 0.67 2.344 0.893 0.186 0.595 0.409 1.191 0.633 1.786-0.967-0.26-1.898-0.595-2.828-1.079 0 0-0.372-0.26-0.484-0.335 0-0.484 0.037-0.93 0.112-1.377z"></path>
      <path fill="#00537f" style="fill: var(--color1, #00537f)" d="M3.833 26.381c0.484 0.521 0.967 1.005 1.526 1.451-0.074 0.409-0.112 0.856-0.149 1.302-0.707-0.595-1.34-1.265-1.935-1.972 0.186-0.26 0.372-0.521 0.558-0.781z"></path>
      <path fill="#00537f" style="fill: var(--color1, #00537f)" d="M39.702 28.763c1.377 0 2.047-0.149 2.047-1.228 0-1.005-0.633-1.34-2.047-1.34h-3.907v2.567h3.907zM35.795 21.842v2.27h3.46c1.377 0 2.047-0.223 2.047-1.191 0-0.893-0.633-1.116-2.047-1.116l-3.46 0.037zM32.856 19.46h7.553c2.605 0 3.944 0.967 3.944 2.902 0 1.116-0.558 2.009-1.6 2.567 1.34 0.447 2.047 1.414 2.047 2.865 0 2.009-1.377 3.349-3.795 3.349h-8.149v-11.684z"></path>
      <path fill="#00537f" style="fill: var(--color1, #00537f)" d="M45.991 19.46h3.795l3.758 8.372 3.87-8.372h3.758v11.684h-2.828v-7.814l-3.609 7.814h-2.456l-3.46-7.926v7.926h-2.828v-11.684z"></path>
      <path fill="#00537f" style="fill: var(--color1, #00537f)" d="M69.284 31.144h-2.902v-9.302h-3.981v-2.381h10.902v2.381h-3.981v9.302z"></path>
      <path fill="#24b8c9" style="fill: var(--color1, #24b8c9)" d="M17.34 22.772c-0.781 1.637-1.972 2.679-3.646 3.163l-0.223 0.074 0.112 0.186c0.521 0.744 1.042 1.488 1.6 2.233l0.074 0.074 0.112-0.037c0.409-0.149 0.819-0.335 1.191-0.521 2.046-1.079 3.535-2.791 4.093-4.763l0.037-0.186h-0.186c-1.079-0.037-2.084-0.149-3.051-0.26h-0.112v0.037z"></path>
      <path fill="#24b8c9" style="fill: var(--color2, #24b8c9)" d="M23.405 8.558c-1.34 0.856-2.642 1.786-3.944 2.716-1.712 1.228-3.386 2.53-5.060 3.87l-0.112 0.074 0.074 0.112c0.409 0.633 0.707 1.302 0.893 2.047l0.037 0.149 0.149-0.037c1.712-0.298 3.46-0.67 5.246-1.079 2.27-0.521 4.614-1.153 6.958-1.86l0.149-0.037-0.074-0.149c-0.67-1.786-1.637-3.349-2.902-4.688-0.372-0.409-0.819-0.781-1.228-1.116l-0.074-0.074-0.112 0.074z"></path>
      <path fill="#24b8c9" style="fill: var(--color2, #24b8c9)" d="M27.87 15.293c-2.381 0.707-4.8 1.34-7.070 1.898-1.786 0.409-3.572 0.781-5.284 1.116l-0.149 0.037v0.484c0 0.707-0.186 1.563-0.484 2.419l-0.074 0.149 0.149 0.037c0.558 0.149 1.154 0.26 1.786 0.372 3.163 0.521 7.107 0.558 11.758 0.074h0.112v-0.149c0.037-0.447 0.037-0.93 0.037-1.414 0-1.749-0.223-3.386-0.67-4.949l0.037-0.112-0.149 0.037z"></path>
      <path fill="#24b8c9" style="fill: var(--color1, #24b8c9)" d="M25.377 23.33c-0.819 3.423-3.609 6.4-7.33 7.814-0.484-0.521-0.967-1.042-1.414-1.563 0 0-0.149-0.186-0.26-0.335 0.26-0.112 0.484-0.223 0.707-0.335 2.344-1.228 4.056-3.237 4.651-5.507 0.781 0 2.121-0.037 3.646-0.074z"></path>
      <path fill="#24b8c9" style="fill: var(--color2, #24b8c9)" d="M29.953 5.023c0.112 0.112 0.372 0.335 0.372 0.335 1.86 1.823 3.237 4.056 4.167 6.623-1.935 0.67-3.87 1.302-5.767 1.898-0.707-1.898-1.749-3.572-3.126-4.986v0c-0.26-0.26-0.558-0.521-0.819-0.781 1.712-1.116 3.46-2.158 5.172-3.088z"></path>
    </symbol>
    <symbol id="icon-Logo-white" viewBox="0 0 73 32">
      <title>Logo</title>
      <path fill="#00537f" style="fill: white" d="M9.6 5.879c-1.488 0.558-2.828 1.34-3.944 2.419l-0.074 0.037v0.074c-0.074 1.898 0.186 3.646 0.707 5.209l0.074 0.186 0.149-0.112c0.558-0.372 1.154-0.633 1.823-0.781l0.112-0.037v-0.112c0.037-0.781 0.112-1.563 0.223-2.344 0.223-1.451 0.595-2.94 1.079-4.354l0.112-0.298-0.26 0.112z"></path>
      <path fill="#00537f" style="fill: white" d="M4.577 9.451c-1.079 1.451-1.898 3.014-2.381 4.688v0.074l0.037 0.074c0.223 0.372 0.484 0.744 0.781 1.079 0.335 0.372 0.707 0.744 1.079 1.079l0.149 0.112 0.074-0.186c0.335-0.744 0.781-1.414 1.377-1.972l0.074-0.074-0.037-0.186-0.074-0.186c-0.484-1.34-0.744-2.828-0.819-4.428v-0.447l-0.26 0.372z"></path>
      <path fill="#00537f" style="fill: white" d="M1.86 15.516c-0.149 0.744-0.223 1.526-0.223 2.27 0 0.335 0 0.707 0.037 1.042v0.112l0.112 0.037c0.595 0.223 1.228 0.372 1.86 0.447l0.186 0.037-0.037-0.67c0-0.447 0.037-0.893 0.149-1.34l0.037-0.112-0.074-0.074c-0.521-0.409-1.042-0.856-1.451-1.377l-0.521-0.633-0.074 0.26z"></path>
      <path fill="#00537f" style="fill: white" d="M1.86 20.019c0.112 0.633 0.298 1.265 0.521 1.86l0.037 0.149 0.149-0.074c0.521-0.223 1.042-0.447 1.526-0.67l0.112-0.074-0.037-0.149c-0.074-0.26-0.149-0.521-0.223-0.819l-0.037-0.112h-0.112c-0.595-0.074-1.191-0.186-1.786-0.335l-0.26-0.074 0.112 0.298z"></path>
      <path fill="#00537f" style="fill: white" d="M17.488 5.619c-1.6 1.786-3.014 3.609-4.167 5.433-0.447 0.707-0.856 1.414-1.228 2.121l-0.074 0.149 0.149 0.074c0.558 0.298 1.079 0.67 1.526 1.153l0.112 0.112 0.112-0.074c1.674-1.34 3.386-2.642 5.098-3.907 1.191-0.856 2.419-1.712 3.646-2.53l0.186-0.112-0.186-0.112c-1.526-1.079-3.237-1.86-5.023-2.307l-0.074-0.037-0.074 0.037z"></path>
      <path fill="#00537f" style="fill: white" d="M13.47 5.135c-0.893 0.037-1.749 0.149-2.605 0.372h-0.074l-0.037 0.074c-0.633 1.637-1.079 3.274-1.34 4.912-0.112 0.707-0.186 1.414-0.223 2.121v0.149h0.409c0.521 0 1.079 0.074 1.6 0.223l0.112 0.037 0.074-0.112c0.409-0.744 0.819-1.488 1.302-2.233 1.079-1.712 2.381-3.46 3.87-5.135l0.186-0.223-0.26-0.037c-1.042-0.149-2.046-0.186-3.014-0.149z"></path>
      <path fill="#00537f" style="fill: white" d="M4.391 22.028c-0.484 0.223-1.005 0.447-1.526 0.633l-0.149 0.074 0.074 0.149c0.26 0.521 0.558 1.005 0.856 1.488l0.112 0.186 0.149-0.186c0.335-0.484 0.707-0.93 1.116-1.377l0.074-0.074-0.074-0.112c-0.149-0.223-0.298-0.484-0.409-0.707l-0.074-0.149-0.149 0.074z"></path>
      <path fill="#00537f" style="fill: white" d="M9.526 26.233c0.112 0.633 0.223 1.265 0.372 1.898l0.186 0.707h0.112c1.377 0.26 2.753 0.223 4.093-0.074l0.223-0.037-0.149-0.186c-0.558-0.744-1.116-1.526-1.637-2.307l-0.037-0.074h-0.112c-0.409 0.074-0.856 0.074-1.34 0.074-0.521 0-1.042-0.037-1.563-0.149l-0.223-0.037 0.074 0.186z"></path>
      <path fill="#00537f" style="fill: white" d="M6.995 25.116c-0.186 0.67-0.335 1.377-0.447 2.121v0.112l0.074 0.074c0.26 0.186 0.484 0.335 0.744 0.521v0 0c0.521 0.26 1.079 0.484 1.637 0.633l0.26 0.074-0.112-0.409c-0.186-0.781-0.335-1.6-0.447-2.381v-0.074l-0.074-0.037c-0.484-0.186-0.967-0.409-1.377-0.707l-0.186-0.112-0.074 0.186z"></path>
      <path fill="#00537f" style="fill: white" d="M5.433 23.665c-0.372 0.447-0.744 0.93-1.116 1.414l-0.074 0.112 0.074 0.112c0.409 0.484 0.856 0.93 1.34 1.377l0.186 0.186 0.037-0.26c0.112-0.67 0.298-1.34 0.447-1.972 0 0 0-0.037 0-0.037l0.037-0.112-0.074-0.074-0.372-0.335-0.447-0.484-0.037 0.074z"></path>
      <path fill="#00537f" style="fill: white" d="M21.135 0.447c-0.707 0.633-1.34 1.228-1.972 1.86-0.67 0.67-1.34 1.34-1.972 2.046-1.265-0.26-2.53-0.372-3.758-0.335-0.558 0.037-1.116 0.074-1.674 0.186 0.298-0.67 0.633-1.34 1.005-1.972s0.744-1.302 1.191-1.935c2.307-0.447 4.8-0.372 7.181 0.149z"></path>
      <path fill="#00537f" style="fill: white" d="M4.837 5.209c0 0 0.037-0.037 0.037-0.037-0.112 0.558-0.186 1.154-0.26 1.712-0.037 0.298-0.074 0.633-0.074 0.967-0.223 0.223-0.409 0.409-0.595 0.633v0c0 0 0 0 0 0-0.967 1.191-1.712 2.456-2.27 3.833-0.149-0.409-0.26-0.819-0.372-1.265 0.819-2.084 2.009-4.056 3.535-5.842z"></path>
      <path fill="#00537f" style="fill: white" d="M0.558 13.358c0.149 0.335 0.298 0.67 0.446 0.967-0.298 1.153-0.447 2.307-0.447 3.46 0 0.074 0 0.149 0 0.223-0.186-0.112-0.372-0.223-0.558-0.372 0-1.414 0.186-2.865 0.558-4.279z"></path>
      <path fill="#00537f" style="fill: white" d="M11.907 0.781c-0.149 0.26-0.298 0.521-0.447 0.744-0.558 1.005-1.042 2.009-1.488 3.051-1.414 0.409-2.716 1.042-3.87 1.898 0.149-0.967 0.335-1.972 0.633-3.014 1.526-1.228 3.274-2.121 5.172-2.679z"></path>
      <path fill="#00537f" style="fill: white" d="M1.86 23.442c0.298 0.595 0.633 1.191 1.042 1.749-0.186 0.223-0.335 0.484-0.484 0.707-0.446-0.707-0.856-1.451-1.191-2.195 0.186-0.074 0.447-0.186 0.633-0.26z"></path>
      <path fill="#00537f" style="fill: white" d="M0.112 19.423c0.186 0.112 0.409 0.223 0.595 0.298 0 0.112 0.037 0.26 0.037 0.26v0c0.112 0.707 0.298 1.414 0.558 2.121-0.186 0.074-0.409 0.149-0.595 0.223-0.298-0.93-0.484-1.935-0.595-2.902z"></path>
      <path fill="#00537f" style="fill: white" d="M20.205 3.312c0.819-0.819 1.712-1.6 2.642-2.419 2.158 0.67 4.13 1.749 5.916 3.126-1.712 0.967-3.46 2.009-5.209 3.126-1.451-1.079-3.051-1.86-4.763-2.419 0.447-0.484 0.93-0.967 1.414-1.414z"></path>
      <path fill="#00537f" style="fill: white" d="M12.242 30.14c0.893-0.037 1.786-0.149 2.679-0.409 0.112 0.149 0.595 0.707 0.595 0.707 0.335 0.372 0.67 0.744 1.005 1.116-1.637 0.447-3.312 0.558-4.986 0.335-0.26-0.595-0.484-1.228-0.707-1.823 0.484 0.074 0.93 0.074 1.414 0.074z"></path>
      <path fill="#00537f" style="fill: white" d="M6.698 28.8c0.074 0.037 0.149 0.112 0.149 0.112s0.037 0 0.037 0h0.037c0.744 0.372 1.563 0.67 2.344 0.893 0.186 0.595 0.409 1.191 0.633 1.786-0.967-0.26-1.898-0.595-2.828-1.079 0 0-0.372-0.26-0.484-0.335 0-0.484 0.037-0.93 0.112-1.377z"></path>
      <path fill="#00537f" style="fill: white" d="M3.833 26.381c0.484 0.521 0.967 1.005 1.526 1.451-0.074 0.409-0.112 0.856-0.149 1.302-0.707-0.595-1.34-1.265-1.935-1.972 0.186-0.26 0.372-0.521 0.558-0.781z"></path>
      <path fill="#00537f" style="fill: white" d="M39.702 28.763c1.377 0 2.047-0.149 2.047-1.228 0-1.005-0.633-1.34-2.047-1.34h-3.907v2.567h3.907zM35.795 21.842v2.27h3.46c1.377 0 2.047-0.223 2.047-1.191 0-0.893-0.633-1.116-2.047-1.116l-3.46 0.037zM32.856 19.46h7.553c2.605 0 3.944 0.967 3.944 2.902 0 1.116-0.558 2.009-1.6 2.567 1.34 0.447 2.047 1.414 2.047 2.865 0 2.009-1.377 3.349-3.795 3.349h-8.149v-11.684z"></path>
      <path fill="#00537f" style="fill: white" d="M45.991 19.46h3.795l3.758 8.372 3.87-8.372h3.758v11.684h-2.828v-7.814l-3.609 7.814h-2.456l-3.46-7.926v7.926h-2.828v-11.684z"></path>
      <path fill="#00537f" style="fill: white" d="M69.284 31.144h-2.902v-9.302h-3.981v-2.381h10.902v2.381h-3.981v9.302z"></path>
      <path fill="#24b8c9" style="fill: var(--color2, #24b8c9)"  d="M17.34 22.772c-0.781 1.637-1.972 2.679-3.646 3.163l-0.223 0.074 0.112 0.186c0.521 0.744 1.042 1.488 1.6 2.233l0.074 0.074 0.112-0.037c0.409-0.149 0.819-0.335 1.191-0.521 2.046-1.079 3.535-2.791 4.093-4.763l0.037-0.186h-0.186c-1.079-0.037-2.084-0.149-3.051-0.26h-0.112v0.037z"></path>
      <path fill="#24b8c9" style="fill: var(--color2, #24b8c9)" d="M23.405 8.558c-1.34 0.856-2.642 1.786-3.944 2.716-1.712 1.228-3.386 2.53-5.060 3.87l-0.112 0.074 0.074 0.112c0.409 0.633 0.707 1.302 0.893 2.047l0.037 0.149 0.149-0.037c1.712-0.298 3.46-0.67 5.246-1.079 2.27-0.521 4.614-1.153 6.958-1.86l0.149-0.037-0.074-0.149c-0.67-1.786-1.637-3.349-2.902-4.688-0.372-0.409-0.819-0.781-1.228-1.116l-0.074-0.074-0.112 0.074z"></path>
      <path fill="#24b8c9" style="fill: var(--color2, #24b8c9)" d="M27.87 15.293c-2.381 0.707-4.8 1.34-7.070 1.898-1.786 0.409-3.572 0.781-5.284 1.116l-0.149 0.037v0.484c0 0.707-0.186 1.563-0.484 2.419l-0.074 0.149 0.149 0.037c0.558 0.149 1.154 0.26 1.786 0.372 3.163 0.521 7.107 0.558 11.758 0.074h0.112v-0.149c0.037-0.447 0.037-0.93 0.037-1.414 0-1.749-0.223-3.386-0.67-4.949l0.037-0.112-0.149 0.037z"></path>
      <path fill="#24b8c9" style="fill: var(--color2, #24b8c9)"  d="M25.377 23.33c-0.819 3.423-3.609 6.4-7.33 7.814-0.484-0.521-0.967-1.042-1.414-1.563 0 0-0.149-0.186-0.26-0.335 0.26-0.112 0.484-0.223 0.707-0.335 2.344-1.228 4.056-3.237 4.651-5.507 0.781 0 2.121-0.037 3.646-0.074z"></path>
      <path fill="#24b8c9" style="fill: var(--color2, #24b8c9)" d="M29.953 5.023c0.112 0.112 0.372 0.335 0.372 0.335 1.86 1.823 3.237 4.056 4.167 6.623-1.935 0.67-3.87 1.302-5.767 1.898-0.707-1.898-1.749-3.572-3.126-4.986v0c-0.26-0.26-0.558-0.521-0.819-0.781 1.712-1.116 3.46-2.158 5.172-3.088z"></path>
    </symbol>
    <symbol id="icon-menu_arrow_down" viewBox="0 0 56 32">
      <title>menu_arrow_down</title>
      <path d="M28 32c-0.8 0-1.6-0.4-2-0.8l-25.2-26c-1.2-1.2-1.2-3.2 0-4.4s3.2-1.2 4 0l22.8 24 22.8-24c1.2-1.2 3.2-1.2 4 0 1.2 1.2 1.2 3.2 0 4.4l-24.4 26c-0.4 0.4-1.2 0.8-2 0.8z"></path>
    </symbol>
    <symbol id="icon-menu_arrow_up" viewBox="0 0 56 32">
      <title>menu_arrow_up</title>
      <path d="M28 0c0.8 0 1.6 0.4 2 0.8l25.2 26c1.2 1.2 1.2 3.2 0 4.4s-3.2 1.2-4 0l-23.2-24-22.8 24c-1.2 1.2-3.2 1.2-4 0-1.2-1.2-1.2-3.2 0-4.4l25.2-26c0-0.4 0.8-0.8 1.6-0.8z"></path>
    </symbol>
    <symbol id="icon-right_arrow" viewBox="0 0 18 32">
      <title>right_arrow</title>
      <path d="M1.693 32c-0.508 0-0.847-0.169-1.185-0.508-0.677-0.677-0.677-1.693 0-2.37l13.545-13.206-13.545-13.206c-0.677-0.677-0.677-1.693 0-2.37s1.693-0.677 2.37 0l14.73 14.392c0.677 0.677 0.677 1.693 0 2.37l-14.73 14.392c-0.339 0.339-0.677 0.508-1.185 0.508z"></path>
    </symbol>

    <symbol id="icon-icon_tick" viewBox="0 0 26.6 26.8">
      <path d="M25.8,0.4c-0.9-0.6-2.1-0.4-2.7,0.5L8.1,21.7l-4.8-4.8c-0.8-0.8-2-0.8-2.8,0c-0.8,0.8-0.8,2,0,2.8L7,26.2
    	c0.4,0.4,0.9,0.6,1.4,0.6l0.2,0c0.6,0,1.1-0.3,1.4-0.8L26.2,3.1C26.8,2.2,26.6,1,25.8,0.4z"/>
    </symbol>

    <symbol id='bmt-mark' viewBox="0 0 4043.3 3749">
      <path class="st0" d="M449.9,3088.2c54.9,61.1,115.5,118.8,180.5,171.6c-7.1,49.4-13.2,100-18.4,150.9
    	c-82.5-70.8-158.3-148-225.3-230.6C407.2,3149.3,428.4,3118.6,449.9,3088.2z M785.5,3371.3c7.7,5.1,16.8,11,16.8,11
    	c0.1,0,3.2,1.9,3.2,1.9l3.3,1.6c88.7,44.7,181.6,79.2,275.7,103.3c21.2,68.9,45.9,138.2,72.5,207.1
    	c-112.9-29.5-223.7-71.1-329.8-125.2c-1.5-1.1-42.5-28.7-57.6-38.8C773.9,3477.4,779.2,3423.7,785.5,3371.3z M1435.2,3529.9
    	c105.7-2.2,210.9-17.8,313.4-45.8c14.4,17.5,70.2,84.6,70.2,84.6c37.2,43.9,76.6,88.1,116.9,132c-191.1,47.9-386.6,59.6-581.9,34.3
    	c-30.2-70.5-57.2-141.7-81.5-212.6C1326.3,3528.1,1380.9,3531,1435.2,3529.9z M2367.9,388.3c96-94.2,199.6-189.1,307.5-282.4
    	c251.8,80.2,485.1,202.8,694.7,364.2c-201.3,112.5-406.5,235.8-611,367.7c-170.9-124.4-357.8-218.9-556.4-281.8
    	C2257,498.9,2312.2,442.4,2367.9,388.3z M12.7,2273.5c23.7,12.8,47.5,24.9,71.3,35.8c1.9,12.4,4.9,31,4.9,31v-0.2
    	c14.2,84.4,35.9,167.6,64.2,248c-20.8,7.8-47.5,17.9-69.8,26.2C49,2504.8,25.4,2390.5,12.7,2273.5z M219.5,2747
    	c34.4,70.6,74.8,138.8,120.3,203.3c-20,28-39.4,56.1-58.7,84.3c-53.4-82.1-99.8-168.7-138.3-258.9
    	C166.5,2766.9,198.6,2754.8,219.5,2747z M1396.4,90.9c-17.6,29.5-34.8,58.9-50.9,87.6C1280.2,295,1222.1,415,1172.2,535.4
    	C1006.3,584.3,853.6,658.6,717.4,757c16.1-113.8,41-232.3,74.8-353.5C971.3,263.9,1174.2,159.3,1396.4,90.9z M65.1,1566
    	c16.5,39.1,34.3,77.5,54.1,114.1c-33.9,134-51.3,269.7-51.3,404.1c0,8.2,0.2,16.3,0.4,24.5c-22.7-13.1-45.1-27.1-67.3-42.2
    	C1.2,1900.5,22.7,1732.5,65.1,1566z M567.6,610.2c1.6-1.6,3.3-3.4,4.8-5c-12.8,67.4-23.1,133.9-30.3,198.3
    	c-4.3,36.9-7.3,74.5-9.8,112.1c-24,24.4-47.2,49.6-68.8,74.9l-0.9,0.8c-0.3,0.5-1.2,1.6-1.2,1.6
    	c-110.1,139.2-198.8,290.7-264.5,451.1c-17.1-47-32.1-96.4-44.6-147.9C249.6,1049.8,389.2,819,567.6,610.2z M2477.8,53.3
    	c-81.2,72.5-158.9,144.9-231.3,215.8c-79.2,77.6-156.6,157.6-230.4,237.9c-146.7-30.4-295.3-43.1-442.1-37.2
    	c-66.6,2.7-132.8,10.3-197.9,20.5c36.1-78,75-155.8,117.4-231.1c42.2-75,89-150.9,138.9-225.9C1906.6-15.9,2197.6-8.6,2477.8,53.3z
    	 M637.9,2773.2c-44.1,54-87.5,109.3-129.1,164.6l-8.7,11.5l9.2,11.1c47.5,56.9,100.3,111,157.2,160.7l23.8,20.9l5.9-31.3
    	c15-79.8,32.7-158.1,52.6-232.6c0,0.1,1-3.4,1-3.4l4-14.2l-8.5-7.8l-41.5-39l-52.3-56.1L637.9,2773.2z M821.1,2942.3
    	c-19.8,78.9-37.2,162.5-51.6,248.7l-1.9,11.1l9.2,6.6c29,20.9,58.7,40.8,88.1,59.1l0.7,0.5l0.7,0.4c61,30.5,125.2,56.2,190.9,76.2
    	l30.7,9.4l-11.8-46.8c-22.5-92.7-40.1-186.1-52.5-277.8l-1.4-10.7l-10.3-3.8c-57-21.8-112.1-49.9-163.4-83.6l-21.4-13.8
    	L821.1,2942.3z M1117.1,3073.3c11.6,73.6,26.6,148.4,44.9,222.1l21.1,81l11.5,1.9c161.5,29.4,323.3,25.7,480.8-10.7l27.5-6.4
    	l-17.1-22.3c-66.9-87.7-130.9-178-190.2-268.5l-6.1-9.5l-11.4,1.5c-49.3,6.6-102.2,9.9-157,9.9c-61.1,0-122.5-6.5-182.2-19.3
    	l-25.8-5.6L1117.1,3073.3z M516.8,2580.1c-57.9,25.9-117.9,51.6-178.3,76.2l-17.8,7.2l8.4,17.5c29.3,60.7,63.3,119.6,101,174.8
    	l14.2,20.9l15.3-20c41.4-54.5,84.7-109,128.7-162.4l8.5-10.3l-7.5-11.1c-17.9-27.4-34.3-55.8-48.9-84.4l-7.7-15.3L516.8,2580.1z
    	 M1579,601.2c-104,4.1-206.6,18.4-305,42.4l-9.2,2.2l-3.4,8.9c-73.4,190-125.6,383.2-155,574.2c-12.8,82.8-21.4,166.6-25.7,249
    	l-1,19.6l46.9-1.2c63.1,0,126.2,9.3,187.2,27.5l14.1,4.3l7-13.1c46-86,97.1-173.4,152.1-260.1c127.6-201.1,279.9-403.5,452.2-601.3
    	l21.3-24.4l-32-5.4C1812.3,604.1,1694.6,596.5,1579,601.2z M2051.7,659c-187.6,209.8-351.7,424.1-487.8,637.2
    	c-52.5,82.2-101.5,165.6-145.7,247.8l-8.8,16.2l16.5,8.5c66.9,34.3,127.6,79.4,180.3,134.1l11.5,12l12.8-10.5
    	c195.9-157.4,397.2-310.8,598.5-455.8c140-100.7,283.7-200,427.1-294.9l22.3-14.8l-21.9-15.3c-180.1-125.8-377.5-216.6-586.7-270.1
    	l-10.6-2.7L2051.7,659z M218.7,2345.7c13.9,74.1,34.2,147,59.9,216.7l6.5,17.7l17.4-7c61.3-25.2,121.9-51.1,180-77.1l15-6.7
    	l-5.2-15.7c-10.4-30.6-19.1-62.3-26-94l-2.7-12.8l-13.3-1.4c-70.8-6.8-141.1-20.5-208.6-40.5l-28.5-8.4L218.7,2345.7z M218.5,1818.4
    	c-16.1,88.4-24.2,177.9-24.2,265.8c0,40.1,1.7,80.6,5.1,120.4l1,11.7l11,3.8c69.2,24.8,142.2,42,216.9,51.2l20.9,2.5l-2.6-78.6
    	c0-53,6.1-106.4,18-158.8l2.6-11.4l-9.3-7.1c-62.9-47.5-120.7-102.3-171.8-163l-60.2-75.7L218.5,1818.4z M536.7,1105.6
    	C409,1273.9,315.1,1458.4,257.5,1654l-2.2,7.7l4.1,6.8c27.3,44.5,57.5,86.6,89.6,124.9c38.5,45.7,81.3,87.9,127.9,125.9l18.6,15.1
    	l9.5-22c38.3-88.8,93.2-167.2,162.9-232.9l8.8-8.3l-5.1-13.5l-8.7-23.2c-56.6-158.6-88.1-333.2-93.7-518.9l-1.4-51.3L536.7,1105.6z
    	 M1125.1,688.4c-175.3,63.2-331.3,157.9-463.7,281.5l-5.5,5.1l-0.2,7.5c-8.2,221.5,20.2,426.9,84.4,610.7l7.6,21.7l19.3-12.4
    	c65.7-42.3,137.2-72.4,212.6-89.7l13.4-3l0.6-13.8c3.9-90.2,12.9-182.1,26.7-273.2c25.6-170,68.6-342,127.9-511.3l12.6-36
    	L1125.1,688.4z M3510.9,587.4c14.7,13.5,44.3,40.8,44.3,40.8C3771.8,843,3935.4,1104.6,4042,1405
    	c-224.9,79.4-452.1,154.2-676.5,222.6c-83.7-221.9-207-418.8-367.1-585.4l-1.1-1c-30.7-30.9-63.7-61.2-97.4-90.6
    	C3105.7,819.3,3311,697.2,3510.9,587.4z M2976.2,2730.7c-96.7,400.1-422.9,747.4-860.6,914.2c-58.7-62.1-114.4-123.6-165.3-183.2
    	c0,0-16.5-19.6-31.4-37.2c28.8-12.5,57.1-25.6,83.7-39.4c276.2-144.6,474-379.3,545.5-645.8
    	C2638,2739.5,2796.8,2738.2,2976.2,2730.7z M3268.5,1793.7c-281.2,83.1-560.7,157.2-830.4,220.3c-210.1,49-418.1,92.3-618.2,128.7
    	l-15.4,2.8l1.7,57.8c0,81-20.9,184.6-57.4,284.5l-6.9,18.9l19.5,4.9c65.8,16.6,136.2,31,209.2,43c370.9,61,834.4,64.1,1377.1,9.4
    	l15.2-1.5l1.1-15.3c3.8-54.3,5.8-109.7,5.8-164.1c0-203.4-26.4-397.6-78.6-577.3l-5.1-17.3L3268.5,1793.7z M2742.3,1003.5
    	c-155,101.8-311,209-463.4,318.8c-199.2,143.5-398.7,295.3-592.6,451.1l-13.1,10.4l9.5,14c49.6,73.4,84.7,154.6,104.7,241.3l3.9,17
    	l17-3.2c199-36.1,405.6-79.2,614.3-128.2c265.4-62,540.2-134.8,816.5-216.4l18.6-5.5l-6.7-18.2c-77.5-208.8-192.6-393.6-342.2-549
    	c-45.7-45.9-94.6-89.9-145.1-130.9l-10.4-8.3L2742.3,1003.5z M2032.3,2667.6c-90.1,191.6-229.2,312-425.6,368.2l-24.1,6.9l13.9,20.6
    	c58.9,87.9,122.2,175.4,188.2,260l7.9,10.4l12.4-4.5c48.6-17.5,96-38.2,140.5-61.5c239.7-125.5,414.3-328.3,478.7-556.6l6.2-22
    	l-22.8-1.1c-125.6-5.4-245.6-15.7-356.7-30.5l-13.2-1.9L2032.3,2667.6z"/>
    </symbol>


  </defs>
</svg>
