<svg width="766" height="392" viewBox="0 0 766 392" fill="none" xmlns="http://www.w3.org/2000/svg">
<g style="mix-blend-mode:multiply">
<path d="M430.849 19.5891C434.353 20.66 444.887 16.5587 453.601 18.1536C456.855 16.6726 449.506 13.8928 450.757 9.60919C455.74 13.6422 467.343 11.1586 473.509 13.8928V21.0017C471.846 22.2026 469.785 22.7166 467.753 22.4372C475.238 27.2905 482.269 32.6449 484.954 42.3058C486.977 39.2967 488.42 35.935 489.208 32.3943C491.484 32.7589 490.027 36.0627 490.619 38.0906C492.712 44.9261 499.925 47.2046 499.219 56.5465C494.965 58.4377 491.939 57.9592 489.208 55.111V63.6554C487.07 65.3187 483.338 65.387 482.041 67.8706C479.379 65.5921 480.972 61.582 480.631 59.3946C478.014 40.8248 466.82 29.6145 450.643 28.1335C426.662 25.855 410.417 46.8628 390.645 49.4147C388.694 49.1468 386.856 48.3399 385.336 47.0842C383.817 45.8286 382.678 44.1738 382.045 42.3058C376.835 42.8298 376.721 48.4122 372.034 49.4147C351.557 48.2299 336.677 26.4702 312.036 28.1335C293.379 29.3639 280.046 41.9412 280.638 67.8706C277.68 66.5719 274.95 65.0225 272.038 63.6554V56.5465C270.809 54.587 266.304 60.2832 262.026 56.5465C260.798 44.4476 272.697 45.3818 270.627 32.3943C272.049 33.6349 273.187 35.1696 273.96 36.8924C274.734 38.6152 275.126 40.4853 275.109 42.3742C280.638 35.5387 283.414 26.0601 293.72 23.9183C293.47 21.3208 288.852 23.0297 287.964 21.0702V13.9612C294.244 11.227 305.87 13.7106 310.83 9.67761C310.83 14.0068 307.827 15.2144 306.576 18.222C314.971 18.4043 324.777 17.2195 329.328 21.0702C330.511 19.9537 329.328 15.2144 332.172 12.5257C342.706 12.0017 342.365 22.255 353.605 21.0702C352.785 25.0576 348.03 25.0576 345.027 26.7665C352.49 33.0551 362.433 36.8602 372.148 40.9387C374.036 40.483 374.423 38.4552 376.425 38.159C375.288 34.5362 370.555 34.5362 367.893 32.4627C364.685 26.6525 361.955 19.179 364.981 11.1131C368.303 6.82948 374.286 5.23452 376.357 -0.27948C375.037 -4.15295 373.74 3.50284 369.235 1.13319C368.348 0.162708 367.856 -1.10556 367.856 -2.42142C367.856 -3.73729 368.348 -5.00528 369.235 -5.97576C364.025 -7.70743 363.616 0.859764 363.547 -7.41124C362.478 -8.77834 356.722 -6.45426 354.97 -10.2594C355.675 -13.9961 359.52 -18.2569 363.547 -14.5202C363.547 -22.176 363.365 -18.5532 367.825 -17.3683C370.555 -17.505 365.55 -22.6544 369.235 -24.4317C373.786 -25.6848 373.672 -22.1531 376.357 -21.5835C376.653 -25.138 374.082 -26.1405 372.079 -27.2798C372.33 -28.9431 374.696 -28.533 376.357 -28.7153C379.133 -28.8748 374.082 -33.9786 377.836 -35.8242H383.524C387.187 -32.3153 380.202 -26.938 389.257 -28.7153C388.78 -25.7988 385.344 -25.9127 384.935 -23.019C386.231 -19.1455 387.596 -26.8013 392.101 -24.4317C392.991 -23.4711 393.485 -22.2099 393.485 -20.9001C393.485 -19.5904 392.991 -18.3289 392.101 -17.3683C397.312 -15.5911 397.676 -24.2039 397.79 -15.9557C399.337 -15.181 405.321 -16.3658 406.39 -11.672C405.616 -8.29984 400.861 -5.74791 397.79 -8.8239C397.79 -1.19088 397.972 -4.74536 393.535 -5.97576C390.736 -5.97576 395.81 -0.71241 392.101 1.13319C387.551 2.31801 387.551 -1.14532 384.935 -1.71495C385.822 5.46236 393.171 6.237 396.311 11.0447C399.314 19.1106 396.606 26.5841 393.467 32.3943C390.554 33.7614 387.779 35.3108 384.866 36.6095C385.412 38.5007 387.414 38.888 387.71 40.8703C398.973 38.3867 406.481 32.0298 416.333 28.1335C415.309 24.3967 409.621 25.2854 407.732 22.4372C415.377 20.5233 419.586 15.3055 426.344 12.4573C430.121 11.6371 433.556 18.3359 430.598 19.5891" fill="#F8FAFC"/>
<path d="M187.967 57.9144C182.575 52.5826 182.802 48.413 176.591 48.0029C168.719 47.4788 164.578 62.0157 153.839 59.3955C154.43 63.9525 160.664 63.0182 163.85 65.0233C164.214 69.5803 162.917 75.4817 159.595 72.1551C159.185 74.4336 160.96 74.5703 161.006 76.4159C165.556 77.1222 166.057 73.8639 171.017 75.0032C172.086 69.6487 165.579 71.9044 165.283 67.8715C164.987 61.879 170.721 61.9473 171.017 56.4789C174.439 58.6533 177.35 61.5453 179.549 64.9552C182.643 60.8766 188.854 60.0336 191.061 54.9981C193.587 59.145 190.88 70.0135 189.56 74.9351C190.743 78.0111 193.291 79.7883 192.404 84.8922C191.175 85.4846 189.856 86.1453 189.56 87.6719C162.849 85.7351 145.739 93.3681 129.562 101.913C128.39 100.627 126.922 99.6492 125.285 99.0644C126.9 85.6668 117.23 83.4111 115.296 73.4996C119.255 75.3452 122.327 77.0085 126.672 74.9351C127.954 76.2148 128.888 77.801 129.386 79.5435C129.883 81.2861 129.928 83.1273 129.516 84.8922C128.304 83.9264 126.787 83.4254 125.239 83.4795C124.829 85.758 126.604 85.8946 126.672 87.6719C132.133 87.9225 133.498 84.1175 138.049 83.4795C137.025 79.7427 131.223 80.6769 129.448 77.7832C130.272 73.7786 131.731 69.9323 133.771 66.3906C137.321 67.5755 139.345 70.3097 143.737 70.6514C144.601 75.7553 142.076 77.487 140.87 80.6313C142.895 81.2238 153.429 80.4491 152.246 73.4996C149.288 72.497 149.971 75.573 150.813 74.9351C147.559 77.2136 146.262 75.5275 145.079 70.6514C145.739 65.6159 150.289 64.4311 152.246 60.6944C150.699 58.4158 149.47 61.6967 146.558 62.1752C140.688 62.5896 134.803 61.6139 129.38 59.327C128.142 60.2387 126.639 60.7191 125.103 60.6944C121.985 63.2463 119.892 66.9147 120.78 73.4996C117.048 73.9097 114.682 72.9755 115.114 69.2388C114.752 69.6323 114.312 69.9463 113.823 70.1611C113.333 70.3759 112.805 70.4868 112.27 70.4868C111.736 70.4868 111.207 70.3759 110.718 70.1611C110.228 69.9463 109.788 69.6323 109.426 69.2388C107.765 65.0919 116.252 63.9524 112.27 62.1752C114.545 59.5549 116.821 63.1321 119.437 59.327C118.777 57.0485 114.887 58.0738 116.525 53.6308C118.664 50.851 122.577 56.1143 123.692 50.7826C127.241 51.0105 124.101 55.5903 123.692 56.4789C125.497 56.2544 127.175 55.4333 128.461 54.1456C129.746 52.8579 130.566 51.1772 130.791 49.3699C133.817 51.8535 135.068 52.5598 139.391 50.7826C138.617 52.8561 137.252 54.3371 136.547 56.4789H146.558C137.616 51.7396 145.602 38.7976 136.547 35.1292C136.843 28.2937 139.982 26.8127 143.668 22.3696C147.036 24.4431 146.33 25.3317 150.813 23.7823C152.36 25.1038 151.245 29.0001 155.09 28.0659C154.544 31.7343 154.385 35.8356 152.246 37.9774C157.82 40.8255 158.935 48.3446 155.09 53.6308C159.481 53.2206 161.552 50.5548 165.101 49.3699C164.851 47.7066 162.485 48.1851 160.824 47.9345C159.777 43.0812 166.648 46.0889 165.101 40.8255C169.652 39.5723 168.059 44.4939 170.835 45.0863C171.972 44.7901 172.268 43.6737 173.679 43.6737C175.817 43.0812 173.087 41.8281 173.679 39.39C179.207 40.985 178.775 34.4001 182.279 37.9774C182.871 40.9394 181.278 41.7597 180.8 43.6737C182.507 43.423 183.394 43.9699 183.69 45.0863C186.375 46.8636 185.965 42.3521 186.534 42.2382C187.899 42.0103 189.924 46.7952 193.701 46.5218C193.109 51.6257 187.376 51.6257 187.967 57.9144ZM175.112 73.5677C176.113 74.1601 186.488 75.4817 186.488 70.7196C186.192 69.0107 184.896 69.8993 183.644 70.7196C182.12 69.4208 183.189 65.5018 179.321 66.4588C179.321 70.2411 174.771 69.5348 175.067 73.5677" fill="#F8FAFC"/>
<path d="M385.116 76.4151C387.778 73.3164 389.553 69.4201 392.283 66.4581C413.557 62.5846 407.618 90.9523 393.717 90.5877C395.674 88.8105 395.127 84.4813 395.127 80.6762C384.821 79.1952 386.846 88.2865 387.96 92.0688C389.326 94.5068 392.511 95.1675 396.561 94.8713C396.083 96.7625 394.058 97.1498 393.717 99.1321C396.72 102.983 404.251 99.1321 406.572 97.7195C407.277 93.1624 402.181 94.5068 403.728 89.2207C404.22 88.1221 405.019 87.1893 406.028 86.5349C407.037 85.8806 408.214 85.5325 409.416 85.5325C410.618 85.5325 411.795 85.8806 412.804 86.5349C413.813 87.1893 414.612 88.1221 415.104 89.2207C416.355 94.6891 411.623 94.2789 410.781 97.7195C414.581 104.714 425.365 104.008 430.803 99.1321C427.914 96.3523 419.791 98.7221 420.792 92.0688C423.522 94.6891 424.41 92.0688 427.959 92.0688V86.3725C427.618 84.8459 425.115 85.4383 425.047 83.5244C421.088 83.775 419.017 85.9623 419.381 90.5877C416.537 89.5168 414.217 85.6662 416.537 83.5244C416.287 79.4914 409.712 81.7469 410.781 76.4151C415.514 75.4582 417.288 71.4936 417.948 66.4581C422.931 66.2758 420.223 73.6809 425.047 73.567C429.597 74.2278 429.597 70.5366 429.392 66.4581C429.142 63.8378 424.523 65.6151 423.636 63.6555C423.864 60.5112 427.254 60.5795 430.803 60.8074C434.83 60.5112 432.578 53.9719 437.902 55.1111C438.629 56.1324 439.137 57.2931 439.395 58.5203C439.654 59.7474 439.657 61.0146 439.404 62.2429C444.728 61.6505 447.754 63.3593 447.981 67.8707C445.251 65.2504 444.363 67.8707 440.814 67.8707V73.567C441.178 75.1164 443.658 74.5696 443.658 76.4151C447.685 76.1873 449.756 73.9318 449.414 69.2837C451.485 69.7622 455.512 75.2759 452.236 76.4151C454.477 78.4743 456.856 80.3775 459.357 82.1114C455.512 84.8456 450.757 86.8052 450.825 93.504C445.842 93.7546 448.55 86.3267 443.658 86.4407C439.108 85.8027 439.108 89.471 439.404 93.504C439.563 96.1698 444.25 94.3926 445.092 96.3521C444.91 100.453 439.153 98.9724 435.126 99.2003C436.309 105.785 447.458 106.036 453.669 103.484C452.486 100.385 449.938 98.6079 450.825 93.504C452.668 93.0255 453.1 91.0204 455.103 90.6558C460.017 90.0634 459.357 94.9395 462.201 96.3521C460.54 98.4939 461.018 102.709 456.513 102.048C459.175 106.97 463.202 110.593 472.258 109.158C470.555 107.476 468.625 106.041 466.524 104.897C466.706 101.752 472.576 104.304 475.125 103.484C475.83 98.1977 476.649 96.6483 475.125 90.6558C468.413 89.2887 467.116 93.1394 467.935 99.2003C461.792 94.8711 457.992 80.6305 465.114 75.0481C474.215 74.0456 478.97 77.3722 479.379 85.028C483.111 80.471 477.9 76.0734 480.79 70.7873C486.774 69.648 490.05 65.7974 496.489 65.1594C492.348 76.3697 488.276 83.3874 486.546 96.3521C486.546 96.3521 485.136 96.6483 485.136 97.7876C485.136 98.5395 486.364 99.7471 486.546 99.2003C486.069 100.978 484.408 101.684 483.634 103.484C481.973 107.517 481.518 113.965 480.79 120.55C423.227 105.558 338.338 105.558 280.82 120.55C279.864 114.558 280.41 109.34 277.907 103.484C277.498 102.527 275.2 101.046 275.063 100.636C274.927 100.226 276.611 98.0154 276.497 96.3521C276.497 96.3521 275.359 93.2762 275.063 92.1369C272.993 82.8862 268.443 74.8203 265.052 65.1594C271.514 65.7974 274.768 69.7164 280.82 70.7873C282.595 76.8937 280.82 77.8507 280.82 85.028C283.846 79.514 285.962 73.0886 296.519 75.0481C297.452 77.6 300.25 78.7393 300.774 82.1799C301.547 87.147 297.998 96.8306 293.675 97.7876C294.266 92.9116 293.197 89.7217 287.919 90.6558C283.778 93.6179 286.098 98.9724 286.508 102.048C286.917 105.124 292.537 102.641 295.086 103.484C293.857 105.557 292.97 108.041 289.352 107.745C295.04 112.302 301.957 106.081 305.097 103.484C302.976 101.809 301.053 99.8976 299.363 97.7876C300.774 94.985 301.843 91.7268 305.097 90.6558C308.942 89.6533 307.941 93.504 310.785 93.504C311.08 97.6053 310.443 100.75 307.941 102.048C311.444 107.335 324.231 105.124 326.484 100.636C326.734 96.6483 317.724 101.821 317.952 97.7876C317.246 94.7572 319.977 95.099 322.229 94.9395C322.229 91.2027 323.003 86.5774 319.385 86.4407C312.992 85.8482 314.835 92.5014 313.629 93.504C307.713 92.7977 310.489 83.4102 303.618 83.5925C303.578 82.828 303.699 82.0638 303.975 81.3499C304.251 80.636 304.675 79.9886 305.219 79.4505C305.763 78.9124 306.414 78.4957 307.13 78.2278C307.847 77.9599 308.611 77.8469 309.374 77.8962C306.28 75.0025 309.783 72.2683 310.785 69.3518C313.287 71.1974 312.559 76.1874 316.473 76.4836C317.707 75.5236 319.233 75.0168 320.796 75.0481V69.3518C319.567 67.2784 317.178 66.3442 313.629 66.5265C314.926 64.0885 316.291 61.5822 320.796 62.3113C323.753 61.8784 321.16 56.0226 323.64 55.1795C328.19 54.5416 327.667 58.7568 329.328 60.8758C332.877 60.6935 336.153 60.648 337.928 62.3113C337.632 64.7949 335.494 65.5012 332.24 65.1594C332.24 68.8962 331.398 73.5215 335.084 73.6354C341.546 74.8886 338.451 66.5265 343.662 66.5265C344.322 71.562 345.937 75.6405 350.783 76.4836C351.489 81.0406 347.234 80.5165 345.095 82.1799C346.802 86.3951 345.436 86.9874 343.662 90.6558C341.182 88.8786 341.887 83.8204 337.928 83.5925C336.701 84.5332 335.196 85.0382 333.651 85.028V90.6558C334.015 91.9774 338.997 95.4636 339.407 92.1369C343.252 95.1674 336.267 99.3142 330.807 97.7876C334.538 104.783 345.323 104.076 350.783 99.2003C351.375 93.9141 345.027 95.5319 346.506 89.2888C350.487 79.8102 363.342 90.2457 355.106 96.3521C356.63 100.499 361.932 100.909 367.961 100.636C368.078 99.699 367.855 98.7514 367.333 97.9653C366.811 97.1792 366.025 96.6068 365.117 96.3521C366.528 94.0736 371.146 94.8027 373.649 93.504C373.991 88.514 377.676 80.6988 367.961 80.7444C365.686 80.5165 365.686 89.5394 367.961 89.2888C355.925 94.2787 346.756 61.7188 369.372 66.5037C371.033 70.0582 375.06 71.2885 375.06 76.4608C378.495 71.9037 371.101 66.3214 372.216 59.4403C373.581 53.6301 378.86 51.7845 380.816 46.6123C383.524 50.5313 386.322 54.382 389.348 58.0049C390.054 66.2531 385.594 69.3974 385.071 76.4608M352.194 99.2459C350.783 104.464 343.912 104.281 339.407 106.355C335.78 104.149 331.975 102.251 328.031 100.681C326.074 109.203 311.968 109.043 305.279 104.942C302.685 113.783 291.491 112.302 283.846 109.203C284.665 111.709 282.117 117.52 285.257 117.747C313.174 110.411 345.095 107.13 379.565 106.355C378.45 102.755 378.154 98.2889 375.242 96.3977C372.694 105.512 358.61 104.236 352.376 99.2459M382.409 106.355C414.633 106.666 446.728 110.486 478.128 117.747V109.203C472.144 108.497 471.848 113.373 465.296 112.051C460.358 110.752 458.242 106.788 453.919 104.942C449.119 110.707 434.853 107.494 433.897 100.681C429.165 102.094 426.071 105.238 421.042 106.355C416.492 104.35 411.327 102.755 408.187 99.2459C402.567 105.899 390.122 103.279 385.435 97.8332C384.109 100.533 383.152 103.399 382.591 106.355" fill="#F8FAFC"/>
<path d="M609.41 59.3504C611.988 62.9086 614.865 66.2397 618.01 69.3075C617.168 72.2696 614.984 73.8646 613.732 76.4393C612.253 75.4823 612.254 73.1582 609.41 73.5683C609.114 80.0393 615.575 79.8115 620.786 80.7001C621.013 76.1431 616.986 75.9608 617.942 70.743C622.97 70.5607 624.335 66.71 629.318 66.4594C629.568 71.0164 632.571 72.7481 632.162 77.852C630.023 79.5153 626.36 79.6292 625.063 82.1128C628.612 83.7761 630.569 87.0346 636.439 86.3282C637.44 83.3662 634.3 84.0495 635.028 84.9609C632.48 81.8166 633.891 81.9989 633.55 76.4393C636.803 73.9329 644.334 75.7785 647.883 73.5683C642.537 81.5887 636.507 88.8346 635.028 100.569C625.927 100.865 618.306 93.3916 609.25 90.6118C601.283 88.548 593.165 87.1156 584.973 86.3282C579.467 85.8042 573.597 88.6065 569.274 84.9609C572.3 75.3684 571.823 65.7531 569.274 55.1353C572.892 58.1429 578.102 59.6922 580.651 63.6113C580.127 68.1683 577.329 73.0443 574.917 67.8721C574.075 77.5557 582.129 70.4923 586.293 73.5683C586.998 69.0113 582.516 69.8316 582.038 66.4594C582.266 61.0137 587.84 60.8771 589.205 56.5479C590.993 57.6382 592.542 59.0778 593.761 60.7806C594.981 62.4835 595.846 64.4147 596.304 66.4594C599.558 63.0872 606.315 63.1328 609.159 59.3504M590.616 75.0038C597.192 72.0417 600.445 79.5608 603.471 72.1557C597.328 75.9608 600.991 68.8974 596.304 67.8721C596.077 71.9278 589.478 69.6721 590.616 75.0038Z" fill="#F8FAFC"/>
<path d="M137.982 116.198C127.311 121.233 119.78 111.641 115.115 106.218C122.328 104.691 135.297 101.137 140.826 106.218C142.646 105.922 142.714 102.025 140.826 102.025C149.471 97.8101 157.23 93.891 166.536 92.0454C173.566 90.6783 181.916 92.41 189.402 90.6328C198.343 88.3543 206.625 80.9491 215.089 76.3921C224.197 71.5823 233.792 67.763 243.712 64.9995C239.98 72.9287 231.221 76.2553 223.69 80.5845C216.159 84.9136 208.218 89.1289 200.937 93.4125C203.895 98.5164 208.4 94.7112 212.313 93.4125C209.196 110.501 179.755 93.2301 173.771 106.149C178.435 111.322 187.855 107.813 190.881 103.324C206.944 101.045 209.356 112.438 220.914 114.717C221.141 121.552 219.025 126.109 218.002 131.805C211.017 133.059 214.225 124.286 206.625 126.109C201.119 132.945 211.904 135.952 215.157 138.869C216.477 144.383 210.425 142.127 208.059 143.13C205.328 144.269 204.259 148.233 200.892 145.978C196.501 143.266 197.979 134.585 193.793 131.805C187.968 129.732 184.829 136.978 179.459 137.433C169.13 138.39 160.848 132.876 160.916 120.413C153.908 129.527 163.76 143.198 176.592 141.717C175.295 154.363 192.132 149.008 193.793 158.806C188.628 162.839 184.897 156.026 180.938 154.522C176.592 155.411 176.023 160.104 172.338 161.585C167.309 161.403 165.944 157.552 160.961 157.325C158.277 160.401 156.57 164.32 153.794 167.282C149.403 166.917 147.378 164.206 143.783 163.021C139.734 165.618 138.801 171.315 135.251 174.413C120.007 167.396 120.622 137.957 126.651 121.848C130.928 120.413 137.026 120.777 138.027 116.152" fill="#F8FAFC"/>
<path d="M595.166 134.653C594.324 130.096 596.099 128.068 596.577 124.696C600.968 122.668 603.038 124.104 606.588 126.109C607.066 120.891 605.337 113.532 607.999 110.524C610.843 111.937 610.274 116.813 615.165 116.22C619.716 116.858 618.897 112.347 622.287 111.937C621.035 105.101 607.771 110.273 607.999 101.979C603.971 106.536 604.517 115.65 602.265 121.848C600.422 120.002 596.986 120.002 596.577 123.329C593.847 122.737 595.439 117.815 590.889 119C590.479 110.569 592.914 104.942 595.166 99.1313C590.616 97.3996 594.097 103.688 589.41 101.979C586.452 99.7009 581.947 99.0174 576.6 99.1313C577.065 102.786 578.548 106.237 580.878 109.088C584.427 109.339 586.793 108.382 587.976 106.24C590.889 108.792 585.861 115.354 585.155 119C587.567 121.278 592.299 121.278 593.733 124.696C594.393 133.947 585.906 134.836 579.467 133.241C577.806 130.142 575.736 127.43 576.6 121.848C575.667 118.521 567.795 122.076 566.544 119C564.519 114.716 566.293 110.524 568.023 106.24C563.813 103.278 559.195 100.795 556.646 96.2832C558.171 93.1388 558.922 89.1515 560.901 86.3717C567.727 85.3008 570.321 88.3993 573.756 90.655C596.509 89.812 613.095 95.03 626.655 103.392H639.511C640.102 104.714 640.762 105.944 642.355 106.24V114.785C640.465 116.553 638.189 117.854 635.709 118.586C633.228 119.318 630.611 119.46 628.066 119C625.996 122.668 625.586 127.954 623.811 131.805C619.716 133.468 617.714 132.101 613.732 130.392C611.662 139.233 601.537 140.532 595.212 134.653" fill="#F8FAFC"/>
<path d="M563.722 106.172C561.697 113.236 560.627 124.401 570.889 123.216C570.889 133.765 571.184 144.383 569.455 153.041C569.819 156.436 574.734 153.041 575.143 151.674C578.101 158.51 579.694 167.168 583.744 172.978C589.24 169.044 594.483 164.767 599.443 160.173C601.718 158.031 600.922 161.176 605.176 163.021C607.679 152.221 611.046 142.378 616.552 134.608C624.834 139.165 633.139 132.58 630.818 121.849C638.053 121.849 644.47 118.59 650.795 121.849C651.136 126.656 654.39 128.684 653.684 134.608C653.161 141.444 649.361 131.578 646.517 131.76C641.967 132.58 639.896 130.803 636.506 130.325C639.532 135.725 647.473 135.018 650.795 140.282C654.867 146.821 653.457 153.52 652.205 163.067C647.655 163.363 648.77 158.009 646.517 155.935C642.718 149.76 635.573 146.981 633.662 138.915C631.387 143.905 637.507 149.646 640.761 154.522C643.036 157.895 647.063 162.406 647.951 168.763C650.226 184.234 642.604 193.439 636.575 205.721C636.233 210.278 638.304 212.556 642.331 212.761C630.955 224.154 627.405 198.361 635.164 191.48C638.053 170.107 625.79 163.819 625.153 145.91C621.535 159.581 633.549 169.401 630.886 188.518C629.831 194.011 627.895 199.298 625.153 204.171C621.467 209.64 612.753 211.531 612.298 219.779C603.47 211.645 614.004 199.614 615.142 191.366C616.666 179.974 611.274 168.581 615.142 157.188C607.019 162.292 614.778 177.695 612.298 189.862C611.41 194.26 607.907 195.445 608.02 199.842C601.741 202.554 597.782 207.612 593.755 212.579C585.632 200.731 597.372 186.672 596.599 172.842C591.684 174.141 593.869 179.677 592.321 184.234C591.46 185.728 590.494 187.16 589.432 188.518C588.59 190.227 589.182 192.665 587.998 194.214C582.97 200.799 574.916 200.913 567.976 205.607C563.268 208.933 559.378 213.288 556.6 218.344C552.869 198.475 576.804 193.918 573.778 170.062C568.978 184.713 564.404 199.683 545.224 199.911C546.703 195.354 551.799 194.146 553.756 189.931C556.646 183.893 553.506 168.285 556.6 160.105C558.42 155.343 563.881 152.814 565.178 147.277C561.219 145.317 558.352 156.664 553.802 158.67C551.89 171.953 552.55 187.743 539.513 189.931C547.158 175.576 536.624 158.487 543.791 145.91C547.818 138.915 556.1 140.76 559.535 131.692C557.533 129.413 552.71 136.613 549.524 138.801C548.751 139.348 545.975 139.507 545.27 140.213C542.175 143.198 541.424 148.416 538.102 150.125C539.035 155.89 536.737 158.259 536.669 162.953C530.23 151.902 531.709 133.947 540.947 127.408C545.861 125.631 551.185 124.378 555.212 121.78C552.482 120.709 547.158 121.78 543.836 123.147C538.922 125.107 536.783 129.618 532.46 130.256C534.189 125.699 535.304 120.823 536.783 116.084C542.357 112.461 550.116 114.056 555.326 113.236C553.62 109.271 546.566 110.57 541.06 110.388C544.018 105.694 548.455 102.55 552.437 98.9951C556.828 100.772 559.968 103.871 563.813 106.104" fill="#F8FAFC"/>
<path d="M39.3954 273.894C46.2211 271.821 55.322 269.087 62.2614 271.046C67.1759 272.527 72.9778 279.181 73.6376 283.851C74.8207 292.236 69.3829 298.229 62.2614 303.743C58.6438 301.829 64.3319 297.454 63.672 293.763C62.853 288.363 59.3491 286.472 55.0944 283.851C53.0694 282.553 49.5884 279.067 39.3954 281.026C25.9488 283.555 12.4338 305.338 22.2173 322.176C32.2283 339.379 58.0522 335.847 69.4283 320.764C70.839 318.872 72.1586 314.11 73.683 310.852C75.2074 307.594 76.7091 303.857 77.9604 300.895C80.4404 295.084 81.9876 287.429 86.5381 282.439C90.7018 277.882 98.3238 276.811 102.237 272.482C103.238 271.342 102.647 269.565 103.671 268.198C104.08 267.674 106.264 267.309 106.56 266.785C107.629 264.644 106.924 261.864 107.925 259.722C108.926 257.58 111.179 257.444 112.248 255.438C116.23 247.919 118.3 242.519 123.624 235.524C125.695 232.836 128.584 230.238 130.791 227.025C129.472 220.509 133.067 218.96 133.635 214.22C149.858 202.418 169.698 194.238 197.888 194.351C202.438 194.101 200.687 200.094 203.644 201.415C208.195 200.754 207.376 205.266 210.766 205.744C212.836 211.736 218.342 231.423 207.899 232.722C206.739 225.317 202.347 221.17 199.321 215.633C198.184 220.19 206.147 227.025 202.165 235.524C206.42 236.869 208.991 235.16 213.542 235.524C222.915 236.276 231.743 242.223 243.575 238.35C246.601 240.628 248.921 243.522 252.175 245.481C254.063 267.72 262.414 283.555 272.129 298.047C271.014 317.665 278.954 328.169 284.984 340.701C281.548 345.258 277.407 338.855 274.973 337.852C273.972 342.182 277.476 341.999 276.452 346.328C265.44 342.66 255.201 338.149 257.863 320.764C260.411 320.581 260.889 322.541 263.597 322.176C258.273 320.877 259.751 312.811 257.863 308.004C250.446 310.077 248.148 317.254 240.731 319.396C240.389 308.664 248.444 306.226 250.742 298.115C244.894 293.831 244.644 307.229 237.841 306.659C236.954 295.791 244.667 293.604 246.419 285.355C243.461 282.029 237.955 295.723 235.042 292.419C234.041 282.872 239.843 280.183 242.209 273.963C241.436 268.084 237.659 265.191 235.042 261.158C220.231 259.722 211.289 264.051 197.888 264.006C191.79 264.598 191.859 271.229 185.056 271.115C178.253 271.001 173.975 262.001 176.455 256.942C172.542 253.251 170.176 248.033 166.444 244.114C168.287 254.208 172.36 261.932 173.611 272.55C168.037 274.669 163.85 280.32 155.068 283.943C148.242 286.745 138.595 286.745 132.156 289.639C116.639 296.475 109.586 313.381 127.879 320.854C133.271 333.136 130.154 350.635 125.035 360.66C113.431 368.065 96.7311 370.389 85.0591 377.681C86.174 396.911 94.1601 409.58 103.602 420.334V428.879C109.45 434.507 112.703 443.461 117.936 451.664C119.165 453.623 124.102 454.808 120.78 457.292C114.432 458.363 114.91 452.735 110.769 451.664C108.926 455.993 115.616 458.91 112.18 460.14C99.1429 460.391 92.2716 454.398 93.5913 440.271C96.6173 439.679 97.3682 441.274 99.3249 441.707C100.758 437.423 96.1395 439.201 93.5913 438.859C94.4786 433.755 91.9303 432.023 90.7472 428.947C83.5802 432.206 79.9627 439.018 77.8922 447.403C69.3601 439.793 81.0776 427.102 80.7363 417.555C77.5282 421.702 73.501 424.96 70.7708 430.314C69.7014 432.388 71.6125 435.35 67.8812 434.575C66.1065 420.038 72.7275 413.818 76.4588 404.795C73.2735 402.517 69.4739 411.927 65.0827 413.294C66.152 417.623 62.5799 417.486 63.6493 421.816C57.5061 414.41 64.969 402.061 70.8163 394.838C72.1359 379.298 60.9417 376.268 60.8052 362.141C68.268 354.326 85.3322 363.212 89.3594 350.749C88.9498 338.9 82.784 332.657 80.7818 322.336C74.8435 330.834 74.3656 331.45 66.4933 336.576C60.9417 340.267 52.1594 346.556 39.3726 345.052C33.3296 344.34 27.4895 342.427 22.1946 339.424C21.0115 338.65 20.5337 335.984 19.3506 335.164C18.1675 334.343 16.097 334.867 15.0731 333.728C14.6636 333.25 13.253 329.809 12.2291 328.032C3.53772 312.903 8.08818 296.543 17.9172 282.598C21.9443 276.857 32.2056 267.833 30.7722 257.033C30.2488 253 25.1524 243.567 16.5065 244.205C5.72195 245.048 5.13032 255.142 7.90611 264.097C-6.42785 255.37 0.397899 231.765 15.0731 229.919C28.9521 228.256 39.1906 240.605 37.8255 259.768C45.7205 253.958 50.6349 240.492 46.4258 227.071C41.625 220.236 32.3193 213.081 24.9703 205.79C20.567 201.395 17.3412 195.959 15.5914 189.985C13.8416 184.012 13.6242 177.692 14.9593 171.612C16.3927 164.207 24.7428 152.039 32.0918 148.827C16.7568 175.121 42.6261 206.314 54.8441 224.018V239.625C59.9862 238.076 60.3957 231.081 60.5778 228.233C61.0101 218.435 53.7521 210.848 49.2016 204.035C48.246 202.668 48.5418 201.119 47.7682 199.82C44.3386 194.822 42.8053 188.761 43.4452 182.731C44.0368 177.855 46.4031 174.597 50.6122 168.559C53.8203 169.607 51.1583 176.511 52.0456 179.951C57.8475 194.078 68.45 203.443 66.3113 225.522C71.3623 223.79 71.5216 218.982 72.0677 215.542C73.7286 204.582 68.5182 191.116 64.9006 184.281C60.6232 176.215 53.2287 162.862 53.5245 148.804C53.7065 137.662 60.0999 128.297 64.9006 120.345C65.2925 119.359 65.7643 118.407 66.3113 117.497C68.9278 114.763 74.0698 112.576 77.6874 110.434C80.4632 108.839 84.0808 103.188 89.0636 106.15C81.0092 113.282 72.2952 122.761 70.5205 134.586C66.5616 161.04 85.1503 186.194 81.8967 214.129C80.4178 227.185 71.4761 236.777 64.7869 246.803C59.6904 254.459 48.6783 263.003 40.4874 270.955C40.1917 272.094 39.0768 272.39 39.0768 273.803" fill="#F8FAFC"/>
<path d="M483.725 136.088C479.175 137.752 479.061 142.605 473.714 143.197C471.439 143.448 469.824 141.716 469.391 141.784C463.544 141.784 455.353 139.939 449.438 138.936C436.992 136.795 423.432 133.946 409.462 133.24C391.26 132.283 372.125 132.42 353.719 133.24C339.544 133.832 324.983 136.795 312.241 138.936C299.5 141.078 285.598 146.638 277.953 136.088C276.816 132.238 281.207 131.349 282.276 128.979C284.552 124.103 285.712 123.989 292.287 121.848C295.427 120.845 300.706 121.141 305.143 120.435C335.949 115.741 368.235 112.118 403.706 114.784C426.64 116.516 451.281 117.587 472.304 123.283C474.48 123.516 476.499 124.528 477.992 126.131C481.039 128.649 483.076 132.185 483.725 136.088ZM369.418 127.544H392.17V118.999H369.418V127.544ZM320.842 128.979C325.802 133.901 343.594 133.308 342.274 123.283C335.653 120.48 320.842 120.549 320.842 128.979ZM419.405 123.283C418.153 133.308 435.877 133.901 440.86 128.979C440.86 120.549 426.094 120.48 419.405 123.283ZM286.531 138.936C290.526 137.656 294.024 135.164 296.542 131.805C293.766 129.868 288.374 130.46 285.166 128.979C284.279 134.493 283.983 134.835 286.577 138.936M465.182 133.24C469.323 133.901 469.733 138.276 475.193 137.501C478.151 134.015 477.195 134.493 476.627 128.979C472.418 129.982 466.547 129.389 465.251 133.24" fill="#F8FAFC"/>
<path d="M610.865 138.916C607.807 145.285 605.406 151.95 603.698 158.808C601.855 158.329 601.423 156.301 599.443 155.959C596.417 161.473 590.069 163.729 586.588 168.765C580.354 165.916 579.763 157.554 577.988 150.309C577.396 148.19 576.145 150.856 573.733 150.309V130.395C578.056 132.286 580.127 136.387 585.109 137.503C584.336 145.934 581.97 155.526 586.543 161.656C592.709 157.372 595.644 149.967 596.554 140.352C602.583 141.172 605.973 139.349 610.82 138.916" fill="#F8FAFC"/>
<path d="M132.247 200.025C132.884 210.894 121.576 216.567 115.115 208.57C109.973 210.711 115.115 215.679 110.792 219.962C108.949 221.922 104.626 221.398 100.849 221.398C98.1188 226.319 102.442 226.798 103.693 231.355C103.989 237.279 98.2326 237.279 97.9369 242.747C105.104 245.664 108.198 251.702 105.104 261.272C102.032 258.059 100.258 262.388 95.0928 261.272C94.7399 260.289 94.176 259.397 93.4408 258.657C92.7057 257.916 91.8172 257.347 90.8381 256.988C88.8132 248.876 94.0917 247.874 95.0928 242.747C95.3431 238.19 89.291 240.036 87.9941 237.074C87.152 233.824 87.152 230.412 87.9941 227.162C89.2683 225.873 90.852 224.934 92.5933 224.436C94.3346 223.937 96.1748 223.895 97.9369 224.314C100.371 217.729 93.3863 211.03 100.849 205.858C107.902 203.58 110.496 210.005 113.704 207.225C115.979 203.306 116.298 197.564 120.803 195.833C127.037 194.807 127.151 199.911 132.179 200.094M117.891 204.354C123.943 204.058 117.891 206.496 117.891 208.638C121.281 208.638 122.1 211.076 126.491 210.005C131.041 202.418 125.353 204.309 125.058 202.942C124.648 201.233 127.333 200.868 126.491 198.681C121.144 198.088 118.073 199.797 117.891 204.354ZM100.781 217.114C101.372 213.218 105.331 217.114 103.625 219.962C108.175 220.555 113.158 214.448 109.313 211.486C106.105 215.633 106.105 209.208 109.313 208.638H100.781C99.6433 209.595 97.5728 216.522 100.781 217.114ZM90.7698 237.006C96.0939 236.869 94.797 235.456 99.3475 237.006C100.644 233.383 101.623 228.985 97.8685 227.094C95.5933 233.246 96.1621 225.544 90.7698 227.094C90.0401 228.644 89.6618 230.336 89.6618 232.05C89.6618 233.763 90.0401 235.456 90.7698 237.006ZM93.6139 249.811C93.4318 253.297 93.3636 256.646 95.0245 258.355C104.444 260.315 96.3214 250.699 103.625 256.92C104.262 251.52 103.033 248.034 99.3475 246.963C99.5295 253.251 95.2748 246.302 93.6139 249.811Z" fill="#F8FAFC"/>
<path d="M255.111 207.133C255.111 215.677 248.057 217.158 249.423 227.001C243.143 221.715 244.508 206.837 255.111 207.133Z" fill="#F8FAFC"/>
<path d="M513.712 241.22C519.172 242.655 520.287 256.053 512.301 255.392C511.798 250.621 512.278 245.797 513.712 241.22Z" fill="#F8FAFC"/>
<path d="M212.267 278.156C211.379 270.158 220.844 266.535 226.532 269.611C221.982 272.163 216.954 280.229 212.267 278.156Z" fill="#F8FAFC"/>
<path d="M220.823 275.305H227.99C229.564 278.089 230.509 281.185 230.757 284.374C231.004 287.563 230.549 290.768 229.423 293.761C226.329 294.49 226.693 291.756 226.511 289.546C223.621 290.913 223.439 294.946 223.667 299.458C219.89 300.415 220.936 296.564 219.412 295.197C215.908 296.427 216.204 301.485 210.812 300.893C207.444 296.792 212.95 292.463 215.135 289.5C214.907 287.792 212.472 288.27 210.812 288.088C211.107 280.728 220.823 282.802 220.823 275.26" fill="#F8FAFC"/>
<path d="M182.279 363.416C183.535 359.758 184.016 355.877 183.69 352.023C187.012 350.109 188.423 346.327 195.066 347.739C195.703 343.182 192.973 342.225 192.154 339.218C191.926 333.271 197.614 333.271 197.91 327.825C197.478 323.496 191.494 324.681 190.789 320.716C189.31 314.063 193.064 312.65 195.066 309.324C192.973 305.154 186.17 305.746 183.69 302.192C183.69 298.387 184.236 294.058 182.279 292.235C177.297 293.283 174.635 296.61 169.424 293.648C168.105 291.164 165.397 290.025 166.512 285.172C165.625 283.691 163.258 283.691 163.668 280.888C168.833 284.761 172.564 274.303 179.435 279.475C182.325 282.21 181.711 288.589 183.69 292.235C189.674 288.84 196.431 288.84 199.389 295.083C200.754 301.6 195.84 301.919 196.545 307.888C200.094 310.03 205.441 310.372 206.556 314.952C208.149 322.721 202.165 322.949 200.822 327.757C200.504 332.314 205.896 331.197 207.99 333.453V343.365C206.078 346.691 199.685 345.643 196.613 347.625C196.613 352.319 200.709 353.094 199.457 359.018C196.022 367.448 188.081 361.98 182.348 363.302M169.424 283.895C173.633 285.08 167.513 287.473 169.424 290.959C171.062 292.622 174.453 292.554 177.956 292.394C175.522 287.108 178.776 290.116 179.435 285.331C178.662 280.774 171.427 279.635 169.424 283.895ZM187.967 303.787C193.656 305.61 190.857 299.093 196.545 300.939C197.319 294.513 194.406 291.665 187.967 292.394C191.153 296.951 183.281 298.432 187.967 303.787ZM193.701 313.744V322.22C195.246 322.21 196.751 322.715 197.978 323.655C197.728 317.367 202.006 324.362 203.712 320.807C203.894 317.298 203.894 313.972 202.233 312.308C200.572 312.491 198.206 312.081 197.978 313.744C201.573 316.341 195.589 313.858 193.701 313.744ZM195.134 342.089C198.866 341.793 199.685 339.195 199.389 344.937C204.258 344.641 206.806 341.929 206.556 336.461C203.712 336.461 204.713 332.61 200.822 333.613C200.208 340.448 200.345 331.904 196.545 333.613C194.884 335.276 194.952 338.603 195.134 342.089ZM185.123 357.765C190.083 356.512 190.038 360.043 187.967 362.026C195.544 364.646 199.799 354.324 193.701 352.069C194.406 357.879 188.787 352.297 192.222 350.633C186.648 349.813 185.943 353.846 185.123 357.765Z" fill="#F8FAFC"/>
<path d="M545.157 288.113C549.048 290.529 556.351 295.108 552.324 300.919C546.795 300.098 541.721 293.331 545.157 288.113Z" fill="#F8FAFC"/>
<path d="M606.588 290.938C622.332 297.408 611.48 321.675 612.253 337.807C607.885 340.085 602.902 341.771 600.877 346.351C602.06 360.751 608.749 369.706 619.397 374.764C620.327 378.285 620.285 381.994 619.275 385.493C618.265 388.992 616.326 392.151 613.664 394.633C614.369 405.25 611.389 412.382 606.565 417.418C604.131 413.271 604.95 405.729 603.698 400.397C598.329 402.129 601.924 409.124 600.877 413.203C600.104 416.005 597.714 418.193 596.554 420.334C595.394 422.476 596.008 427.329 592.277 425.962C592.277 419.787 592.754 413.203 590.866 408.942C585.633 409.944 588.841 419.263 587.999 424.549C585.337 427.626 583.449 431.545 580.855 434.507C577.579 432.069 580.309 423.661 579.422 418.899C572.596 417.896 572.141 425.917 569.41 428.81C565.526 432.618 561.212 435.959 556.555 438.767C552.756 440.203 551.823 444.464 549.389 447.266C542.153 442.504 545.293 424.777 556.555 425.962C554.963 423.684 549.98 423.889 547.978 424.549C547.682 424.549 548.274 427.147 547.978 427.398C546.727 428.628 543.883 427.99 542.29 428.81C537.739 431.089 535.055 434.871 530.914 435.942C530.39 426.441 532.506 419.56 536.602 414.57C539.894 413.795 543.32 413.795 546.613 414.57C546.908 407.051 531.756 410.354 529.503 413.203C526.067 406.914 533.394 399.144 538.035 396.137C542.995 394.997 544.064 397.731 546.613 398.962C550.276 398.62 544.656 396.547 546.613 393.288C554.963 392.081 556.624 397.549 562.312 398.962C573.688 396.478 581.265 390.304 588.068 383.377C588.727 371.62 581.242 365.149 573.733 357.812C568.182 352.229 560.947 349.017 559.468 339.288C559.058 336.44 561.606 317.345 563.791 312.31C564.2 311.285 566.862 309.804 568.068 308.026C571.845 302.398 571.14 301.988 579.444 298.138C591.594 292.441 597.1 298.593 607.999 305.178C612.322 301.328 606.588 295.335 606.588 291.006" fill="#F8FAFC"/>
<path d="M389.394 292.326C393.945 291.688 394.968 294.422 397.994 295.174C400.27 294.582 399.246 290.617 403.751 292.326C403.751 293.762 405.457 293.466 406.572 293.762C407.164 296.724 405.571 297.567 405.093 299.458H432.396C434.535 300.233 432.988 295.607 433.829 295.174C435.126 294.582 436.264 297.977 436.673 298.023C440.519 298.569 437.083 293.466 442.407 293.762C440.132 299.754 450.348 293.466 448.095 299.458H475.239C478.97 299.162 473.282 297.02 475.239 293.762C476.9 293.99 477.787 293.466 478.128 292.326C480.972 291.871 482.679 292.622 482.406 295.174C486.956 295.425 487.206 291.438 492.417 292.326C491.939 295.653 490.938 298.501 488.139 299.458C489.391 302.01 492.121 303.081 490.983 308.002C490.617 308.397 490.173 308.712 489.68 308.928C489.187 309.143 488.654 309.254 488.116 309.254C487.578 309.254 487.046 309.143 486.553 308.928C486.059 308.712 485.616 308.397 485.25 308.002C485.773 335.048 478.56 354.393 468.117 370.525C475.352 373.122 463.021 374.034 468.117 377.634C466.16 379.912 460.609 378.659 460.95 383.285C459.426 382.92 460.017 380.436 458.106 380.436C452.896 382.031 449.711 385.95 445.251 388.981C432.827 397.327 419.364 404.007 405.207 408.849C405.867 411.584 409.371 411.447 408.119 415.958C404.274 418.237 402.659 419.217 399.519 415.958C396.152 416.368 396.857 420.88 392.42 420.242C394.695 412.039 391.351 412.518 390.987 404.566C392.654 403.432 394.671 402.931 396.675 403.153V360.568C396.675 358.768 394.9 359.975 395.264 360.568C393.194 356.808 396.971 353.983 390.987 353.436C391.169 349.882 394.718 351.591 395.264 349.175C395.446 348.218 391.055 344.117 396.675 344.96V309.415C396.265 306.385 392.83 311.489 390.987 308.002C390.759 304.448 390.691 301.167 393.831 300.871C392.534 297.909 389.462 296.678 389.508 292.326M399.519 302.306V357.72C399.519 376.107 398.336 392.718 400.952 408.849C420.201 401.262 441.406 390.28 455.262 379.001C461.201 374.432 466.076 368.624 469.551 361.981C480.184 344.011 484.695 323.067 482.406 302.306H399.519Z" fill="#F8FAFC"/>
<path d="M362.295 413.087C358.609 413.816 347.12 411.561 347.961 403.199C335.563 400.579 323.904 395.224 313.833 387.522C309.515 384.291 305.684 380.454 302.457 376.13C296.951 369.431 288.305 350.269 288.123 336.324C288.123 326.185 292.332 315.681 282.435 309.324C284.528 301.919 292.104 299.959 295.29 293.739C298.088 298.296 307.144 303.172 312.468 303.628C324.913 304.767 339.133 292.85 351.033 293.739C369.462 295.106 368.165 312.309 368.165 336.324C368.165 353.527 368.757 373.464 368.165 391.738C367.87 400.852 370.122 410.763 362.477 413.019M355.31 299.435C335.88 299.435 328.235 311.284 305.255 307.911C300.591 307.137 295.676 301.44 290.989 305.063C286.302 308.686 290.284 308.618 290.989 310.759C292.243 313.983 293.195 317.317 293.834 320.717C294.607 325.524 293.424 330.218 293.834 334.912C296.905 371.026 319.43 390.257 352.421 398.847C352.83 400.738 354.423 401.512 353.831 404.543C354.082 407.163 358.7 405.386 359.519 407.391C359.815 399.917 359.178 392.079 359.519 384.606C360.657 361.661 363.66 338.58 360.953 317.868C357.221 342.021 357.631 370.274 353.831 394.586C350.578 391.92 345.777 392.74 342.455 391.738C341.909 391.738 340.316 389.186 339.611 388.89C334.697 386.862 325.96 383.9 323.844 381.826C322.911 380.869 322.183 381.302 321 380.391C309.814 370.915 302.242 357.859 299.567 343.433C298.862 338.102 300.341 330.036 299.567 323.565C298.794 317.094 295.722 313.835 296.723 309.324C304.927 312.382 313.76 313.36 322.433 312.172C335.038 310.646 344.162 301.554 352.466 303.628C358.2 305.132 357.495 309.506 362.477 313.608C362.819 306.134 359.269 302.579 355.31 299.435ZM342.455 310.828C345.231 318.483 350.874 323.291 355.31 329.284C356.129 320.739 353.285 317.185 355.31 310.828C353.538 309.255 351.251 308.386 348.883 308.386C346.514 308.386 344.228 309.255 342.455 310.828ZM353.831 336.393C352.944 325.41 344.184 322.334 340.976 313.608C339.156 313.608 339.02 311.762 336.722 312.172C341.252 320.995 347.013 329.127 353.831 336.324M353.831 346.304C354.559 338.762 348.143 334.912 345.254 330.696C341.636 325.41 338.86 320.42 335.243 315.02C333.468 315.02 333.286 313.198 330.965 313.608C337.354 325.294 344.982 336.256 353.718 346.304M330.965 325C338.019 335.436 345.777 345.507 352.421 354.826C352.648 346.418 345.891 341.36 342.41 336.324C338.157 330.469 334.354 324.3 331.034 317.868C329.031 317.527 328.622 315.59 326.779 315.02C324.891 318.415 329.054 322.152 331.034 325M352.489 363.325C350.214 353.527 343.388 346.418 338.201 339.172C333.013 331.927 327.78 324.157 322.456 316.387C320.795 316.57 318.429 316.137 318.179 317.8C331.17 331.471 339.452 349.699 352.489 363.37M328.19 349.175C335.834 359.975 341.591 371.436 350.942 380.436C350.942 373.988 345.55 369.477 342.364 364.783C336.744 356.535 331.352 348.833 326.665 341.998C321.159 334.046 315.881 327.119 310.966 319.213C309.123 319.213 308.941 317.367 306.643 317.777C312.331 329.17 320.977 338.967 328.076 349.038M325.232 334.82C326.005 336.119 325.709 337.714 326.665 339.081C327.962 340.972 331.056 342.818 332.353 344.778C333.309 346.145 332.877 347.854 333.764 349.038C339.998 357.104 345.39 364.418 350.942 371.823C352.421 365.352 346.505 361.661 343.775 357.628C340.772 352.957 338.041 348.788 335.197 344.823C329.042 336.609 323.323 328.075 318.065 319.258C316.245 319.258 316.108 317.413 313.81 317.823C315.653 324.658 322.684 330.833 325.186 334.866M305.164 339.127C307.189 354.917 320.158 372.644 330.874 377.52C331.42 377.748 331.716 380.003 332.308 380.345C337.56 383.446 343.42 385.374 349.486 385.996C347.297 380.891 344.401 376.12 340.885 371.823C339.77 370.616 339.179 368.725 338.041 367.54C336.904 366.355 337.586 366.173 336.631 364.692C333.9 360.659 329.1 356.854 326.62 353.299C324.731 350.702 324.185 347.489 322.297 344.823C321.848 344.316 321.369 343.837 320.863 343.388C319.748 342.203 319.225 340.312 318.019 339.127C316.813 337.942 316.313 336.096 315.175 334.866C314.038 333.636 313.469 331.836 312.331 330.651C309.146 327.256 307.257 323.291 303.754 320.671C306.347 325.593 304.459 333.545 305.164 339.127Z" fill="#F8FAFC"/>
<path d="M236.566 427.442C232.994 427.624 229.74 427.67 227.966 426.029C224.416 427.032 230.628 429.812 229.399 433.138C213.996 435.143 207.534 428.331 206.647 416.118H213.677C213.905 413.019 208.626 415.457 206.51 414.637C204.076 412.86 206.51 406.138 202.233 406.138C194.588 407.505 194.36 416.346 192.222 423.181C183.462 417.189 192.222 407.232 190.811 396.181C188.205 398.437 186.192 401.301 184.951 404.519C183.709 407.737 183.276 411.212 183.69 414.637C174.338 408.94 183.053 396.249 182.211 386.269C178.661 392.148 174.088 397.138 173.679 406.138C167.171 401.353 172.2 386.634 173.679 380.573C170.835 371.026 160.186 369.363 153.657 363.507C151.381 353.709 160.118 354.78 160.824 347.899C157.684 337.213 151.063 330.149 135.068 332.223C133.293 327.552 134.59 325.387 132.224 320.83C129.016 314.906 122.509 314.906 122.213 309.438C121.917 303.969 127.355 297.453 137.957 296.701C137.548 301.964 130.381 300.552 130.791 306.59C131.746 309.255 132.679 305.815 133.635 305.223C143.477 299.109 154.943 296.137 166.512 296.701C173.155 300.369 178.07 309.255 182.211 317.982C184.349 322.38 188.445 327.37 187.967 335.003C187.376 344.55 178.434 347.945 177.956 357.788C181.801 365.968 189.15 371.459 195.066 377.702C200.981 383.945 206.442 390.097 213.677 394.745C215.793 411.105 231.629 413.839 236.43 427.419" fill="#F8FAFC"/>
<path d="M219.411 303.719C220.003 309.484 218.865 313.631 213.723 313.699C209.81 314.702 210.811 310.851 207.967 310.851C205.828 302.831 214.496 300.233 219.343 303.719" fill="#F8FAFC"/>
<path d="M555.144 303.719C555.735 309.484 554.621 313.631 549.456 313.699C545.542 314.702 546.566 310.851 543.722 310.851C541.584 302.831 550.23 300.233 555.099 303.719" fill="#F8FAFC"/>
<path d="M429.415 337.829C433.032 335.277 433.442 329.513 438.015 327.872C437.765 326.209 435.399 326.664 433.692 326.437C433.146 324.158 434.807 323.771 436.582 323.588C435.945 321.31 432.031 322.403 433.692 317.96C441.451 318.37 443.225 316.001 449.437 317.96C449.437 326.322 450.87 336.394 445.114 339.242C446.775 346.419 447.958 360.614 458.037 354.85C456.854 349.563 452.986 354.85 450.87 352.001C450.506 347.444 452.577 345.166 456.558 344.938C456.558 342.158 451.348 332.953 452.281 327.872C453.896 318.895 461.7 313.745 469.413 322.176C470.824 331.654 464.021 332.953 463.725 340.677C457.673 337.123 459.175 326.437 462.292 322.176C459.334 319.328 459.448 322.814 456.558 323.588C453.896 338.786 468.344 349.153 458.037 359.133C454.488 359.293 451.211 359.361 449.437 357.698C445.068 357.698 448.026 364.875 443.703 364.807C446.957 368.68 448.618 369.865 446.593 376.199C443.043 375.197 440.859 381.303 438.015 379.002C436.582 379.002 436.877 380.779 436.582 381.85C435.057 383.035 433.874 380.414 433.692 380.483C432.85 380.483 432.077 383.263 432.259 383.331C430.302 383.217 431.963 381.052 430.848 380.483C429.733 379.913 427.89 381.782 428.004 381.85C426.457 381.144 426.571 378.455 423.727 379.002C423.499 376.495 425.456 376.04 425.16 373.351C432.395 374.673 435.581 375.014 439.426 370.503C439.676 366.948 437.151 365.946 435.103 364.807C436.29 361.114 438.252 357.719 440.859 354.85C440.859 348.857 439.244 346.601 435.103 342.09C431.849 341.634 433.556 346.191 430.848 346.374C428.778 343.047 420.951 349.267 417.993 346.374C417.993 346.191 418.107 343.525 417.993 343.525C415.331 343.525 415.195 347.855 412.237 346.374C410.098 343.047 412.783 340.267 410.826 339.242C413.488 335.801 419.29 341.201 425.16 339.242C425.054 337.722 424.56 336.255 423.727 334.981C423.135 334.32 421.247 334.092 420.837 333.546C419.654 331.951 421.838 328.168 417.993 329.285C418.949 325.844 420.883 321.993 415.149 322.176C417.424 319.259 418.471 315.044 423.727 315.112C420.769 327.393 433.51 328.783 429.415 337.897" fill="#F8FAFC"/>
<path d="M260.843 356.285C260.843 357.652 259.068 357.424 257.999 357.721C258.34 359.27 260.843 358.655 260.843 360.569C261.366 363.007 259.705 363.235 257.999 363.417C259.591 365.126 262.026 365.969 260.843 370.48C257.566 368.042 252.834 367.085 246.554 367.678C246.763 365.573 246.481 363.449 245.731 361.472C244.98 359.495 243.783 357.72 242.231 356.285C244.893 351.728 249.762 349.45 250.832 343.48C253.312 344.779 256.338 346.693 253.676 349.176C254.495 352.435 255.951 347.445 257.999 350.589C255.928 357.242 258.226 351.774 260.843 356.285Z" fill="#F8FAFC"/>
<path d="M513.712 344.916C513.53 350.681 520.174 350.316 520.879 354.896C521.357 358.109 518.604 357.63 517.989 359.157C516.852 362.187 519.355 365.149 516.556 367.655C510.231 366.516 508.024 369.547 502.29 369.068C499.856 366.22 505.134 364.511 505.134 364.807C505.134 363.258 502.108 363.85 502.29 361.959C502.472 360.068 505.658 358.154 503.701 353.46C505.976 353.757 510.163 355.602 506.545 352.048C503.701 349.2 506.955 351.455 509.457 349.2C510.936 347.832 510.163 342.797 513.712 344.916Z" fill="#F8FAFC"/>
<path d="M439.426 356.285H433.738V364.83C432.441 365.491 431.144 366.083 430.848 367.678C428.186 366.128 426.161 367.678 423.727 367.678C424.5 367.678 420.996 367.336 422.248 367.678C420.405 367.199 422.02 365.399 420.837 364.83C419.654 364.26 417.697 366.015 417.993 366.265C415.377 364.534 417.038 360.022 410.826 363.417C412.487 358.86 411.236 358.359 413.716 353.437C417.037 355.716 419.813 358.792 425.092 359.133C427.686 357.47 426.207 351.728 427.936 349.176C434.261 349.062 438.584 350.885 439.312 356.285" fill="#F8FAFC"/>
<path d="M539.422 357.721C548.523 377.361 522.017 382.283 519.4 367.678C517.625 357.538 529.707 349.29 539.422 357.721Z" fill="#F8FAFC"/>
<path d="M242.256 357.72C251.357 377.475 224.782 382.1 222.234 367.677C220.573 358.199 231.335 350.11 242.256 357.72Z" fill="#F8FAFC"/>
<path d="M159.413 370.48C155.795 373.511 156.932 381.28 152.245 383.24C145.147 384.607 144.601 379.435 139.39 378.956C134.658 382.807 136.251 392.901 125.125 390.349C122.85 394.906 126.012 396.455 127.969 400.329C128.31 405.433 123.691 405.478 123.691 410.217C124.465 414.775 131.928 412.496 135.068 414.501C139.618 420.015 142.576 425.597 139.322 431.59C133.634 441.843 112.019 439.291 116.456 420.197C118.124 418.083 120.033 416.171 122.144 414.501C122.258 406.367 110.768 409.762 110.768 401.741C111.701 395.977 114.317 391.944 122.144 393.197C123.691 386.134 117.298 376.177 127.9 373.26C132.997 372.964 133.111 377.589 137.912 377.589C142.235 374.741 142.826 368.225 147.923 366.197C153.474 365.832 153.178 371.278 159.299 370.458M143.554 374.718C149.401 374.263 144.305 377.703 144.965 380.369C151.131 382.146 157.82 377.156 153.565 373.237C151.904 377.339 151.904 370.959 153.565 370.458C149.015 368.316 143.6 368.794 143.554 374.718ZM123.578 384.63C128.97 382.556 126.308 388.549 130.699 387.478C132.815 387.068 136.842 381.486 133.589 380.369C130.449 383.81 134.84 376.928 132.11 376.085C125.648 375.387 122.804 378.235 123.578 384.63ZM113.567 398.871C113.089 404.088 115.842 406.116 119.255 407.347C118.618 400.648 121.029 404.749 123.578 405.934C124.897 402.311 125.853 397.914 122.099 396.022C121.143 403.496 119.55 393.744 115 396.022C114.704 397.093 115 398.802 113.567 398.871ZM126.422 415.891C126.308 415.891 126.604 418.694 126.422 418.739C124.533 419.4 123.1 417.076 122.099 417.327C121.507 417.509 120.802 420.653 119.255 420.175C117.662 431.271 122.394 436.124 133.589 434.416C142.121 425.142 136.91 415.299 126.422 415.891Z" fill="#F8FAFC"/>
<path d="M286.485 398.916C286.485 403.177 283.937 404.909 280.797 406.025C275.883 406.618 276.474 401.765 273.63 400.352C275.109 392.742 283.823 391.921 286.485 398.916Z" fill="#F8FAFC"/>
<path d="M588.022 38.0455C590.138 38.6379 587.43 39.8911 588.022 42.3291C588.363 43.8785 590.866 43.2861 590.866 45.1772C593.641 44.5848 591.981 39.6632 596.599 40.8936C597.851 42.9898 597.737 46.4304 602.287 45.1772C595.302 48.3671 600.695 51.1014 605.131 53.7216C607.862 52.0583 601.4 39.2531 609.454 39.4809C607.497 36.7011 608.089 31.3466 606.61 28.0884C610.159 30.6403 609.682 24.5339 610.887 23.8732C613.299 22.4605 616.871 24.2833 619.465 22.3921C618.464 26.2428 622.423 25.1719 623.743 26.6757C622.673 31.0504 625.221 31.8935 625.153 35.2201C621.536 34.2632 623.197 37.4986 622.309 39.4809C622.127 39.8455 619.465 40.7341 619.465 40.8936C618.987 43.1721 622.537 47.0684 620.899 50.8735C618.054 50.8735 619.056 54.7242 615.142 53.7216C615.142 57.8002 623.265 57.0482 625.153 55.0887C623.96 53.4466 623.454 51.4027 623.743 49.3924C626.632 54.7241 626.336 48.5038 632.32 49.3924V55.0887H636.575C639.851 54.314 634.868 52.8102 638.008 50.8735C640.033 55.7951 643.287 50.6912 646.586 53.7216C647.61 57.5723 643.765 56.5697 643.765 59.3495C644.174 62.6761 647.61 62.6761 648.019 59.3495C650.044 59.3495 648.793 62.1293 649.453 63.6331C650.317 65.7521 654.003 65.5243 652.274 69.3294C645.289 67.5294 646.768 74.1826 640.898 73.5902C642.013 66.2306 639.715 62.3799 636.552 59.3495C627.61 59.0533 615.825 66.823 610.865 57.9368C601.195 62.4939 594.142 53.0609 589.409 48.0254C581.537 47.2507 577.214 50.0304 576.554 56.5698C570.229 57.1622 573.483 48.2532 567.977 48.0254C567.795 43.4683 575.963 47.4329 573.71 40.8936C574.628 41.1309 575.426 41.6995 575.951 42.4901C576.476 43.2808 576.691 44.2377 576.554 45.1772C577.737 44.881 577.988 43.7417 579.398 43.7417C582.174 43.5822 577.123 38.4784 580.832 36.6328C584.085 35.5619 585.382 43.2177 587.999 38.0455" fill="#F8FAFC"/>
<path d="M683.741 148.873C693.866 142.037 705.47 142.356 716.618 147.46C720.084 148.982 723.055 151.444 725.196 154.569C729.548 159.902 732.483 166.251 733.728 173.025C734.547 178.539 732.59 185.124 733.728 191.526C734.676 196.579 736.609 201.395 739.416 205.699C746.241 215.793 758.187 217.866 760.849 231.264C762.396 238.737 762.578 250.859 755.16 252.568C755.16 248.831 755.707 244.502 753.75 242.656C741.122 229.623 726.447 218.641 725.196 194.329C713.046 221.307 737.277 237.917 750.906 254.003C751.725 255.074 755.82 257.968 756.594 259.7C758.869 264.485 764.284 274.464 765.172 280.981C767.197 296.224 760.962 310.601 746.583 316.526C742.851 314.908 748.54 311.012 749.472 309.394C759.188 257.854 703.399 252.158 713.751 200.025C708.086 202.463 703.035 205.494 693.729 204.309C684.628 199.752 682.353 182.709 690.84 175.896C693.911 177.126 688.064 185.853 692.319 188.701C705.401 200.572 722.124 188.952 722.284 175.896C722.466 166.463 711.385 155.777 703.74 154.592C687.404 152.108 674.549 166.212 672.296 177.377C670.454 186.491 672.001 196.904 673.73 204.377C677.689 221.466 691.613 236.413 703.74 249.811C705.538 251.839 708.018 252.363 709.428 254.095C713.234 259.502 716.583 265.218 719.439 271.183C723.831 279.295 728.859 287.771 729.45 298.161C730.884 324.387 715.003 344.141 686.585 340.746C679.311 339.654 672.435 336.721 666.608 332.225C663.127 329.946 657.735 327.941 658.031 323.726C656.12 336.303 670.567 361.868 686.585 347.878C698.712 348.174 699.668 361.048 695.163 370.663C696.414 377.499 704.059 377.954 708.018 382.056C709.861 385.906 710.293 391.17 712.341 394.816C708.541 396.114 703.695 386.317 696.596 386.271C696.46 394.041 705.356 392.719 707.972 397.664C708.2 401.697 710.589 403.588 710.816 407.621C711.112 414.32 708.04 406.846 706.562 406.185C704.127 405.069 699.736 401.993 695.185 401.924C696.369 408.578 704.127 408.76 706.562 414.73C707.972 418.17 706.562 422.75 707.972 427.489C702.876 425.416 700.691 419.241 695.117 416.097C691.317 419.902 690.68 426.897 690.794 434.621C684.446 443.872 674.39 449.5 669.407 460.186C659.76 456.153 662.126 443.439 669.407 438.882C661.285 437.469 661.717 444.464 658.031 447.426C649.977 445.649 648.93 456.54 643.742 453.054C641.786 448.044 641.786 442.479 643.742 437.469C648.429 437.333 649.203 433.413 655.119 434.621C650.022 428.196 639.715 434.621 633.731 436.034C633.913 426.236 637.941 420.312 645.108 417.578C648.839 417.168 651.205 418.056 650.796 421.793C656.006 420.904 647.474 415.163 652.206 414.73C655.574 411.358 659.26 414.912 663.582 414.73C667.428 413.796 669.02 410.651 672.16 409.056C670.863 396.593 676.005 377.726 666.472 373.511C654.163 375.106 650.067 387.046 637.872 379.208C634.55 377.066 632.48 374.468 627.907 367.815C623.766 361.936 618.806 354.531 617.85 345.03C616.895 334.047 622.401 315.592 620.74 302.376C619.67 296.901 617.735 291.632 615.006 286.768C612.913 282.69 605.746 271.297 600.718 268.312C597.532 266.353 593.141 267.72 590.707 265.487C590.001 264.826 588.818 261.272 587.863 259.791C586.907 258.31 585.087 257.398 585.019 254.095C596.986 253.662 590.707 235.16 596.395 228.507C589.16 229.418 592.482 240.742 589.228 245.596C585.838 247.373 583.95 250.768 577.852 249.811C579.111 253.763 579.245 257.988 578.241 262.013C577.236 266.037 575.132 269.702 572.164 272.596C569.616 268.039 570.799 259.723 569.274 254.095C562.995 258.652 569.456 276.037 562.153 279.659C558.49 276.219 558.376 269.224 557.898 262.616C552.392 264.28 556.123 275.08 554.986 281.072C552.142 282.075 551.732 285.401 549.298 286.768C546.886 282.553 547.705 275.08 546.454 269.748C539.628 271.89 540.652 281.961 537.876 288.204C532.597 291.986 527.273 295.677 523.587 301.009V313.769C517.08 311.741 514.35 305.862 510.733 301.009C510.733 295.791 514.76 294.606 516.421 291.052C512.098 291.644 510.095 296.612 507.843 299.574C505.59 302.536 502.223 304.746 502.155 309.485C493.054 307.366 491.78 285.697 504.999 286.7C504.817 283.556 498.947 286.108 496.398 285.287C491.302 284.102 488.594 292.51 486.456 289.548C485.932 282.439 486.82 276.675 489.3 272.528C490.319 271.81 491.478 271.313 492.7 271.07C493.923 270.827 495.182 270.842 496.398 271.115C496.842 269.047 497.708 267.093 498.941 265.376C500.175 263.658 501.749 262.215 503.566 261.135C510.573 260.771 514.35 263.573 519.265 262.548C524.611 261.5 528.047 255.849 532.12 251.155C535.851 247.054 540.606 242.474 542.131 238.396C548.41 235.616 552.21 230.375 557.898 227.003C559.263 220.168 562.153 213.719 567.841 209.983C573.938 205.995 584.2 208.502 586.452 200.003C587.339 205.585 586.452 215.497 592.14 219.894C595.689 214.357 599.307 209.026 604.995 205.699C606.292 212.284 604.995 221.649 609.318 228.484C615.894 222.264 618.078 211.646 627.907 208.615C629.34 232.54 631.001 259.107 642.195 273.94C644.197 276.72 649.885 280.115 652.138 283.897C656.529 291.257 656.233 301.282 659.305 308.05C660.605 310.04 662.034 311.943 663.582 313.746C665.456 316.991 667.881 319.882 670.749 322.29C673.161 324.25 678.508 326.369 682.126 329.399C704.878 333.068 717.915 321.812 717.847 303.766C717.644 299.387 716.682 295.077 715.003 291.029C713.82 289.252 712.727 285.971 712.159 285.333C709.029 282.697 705.679 280.334 702.148 278.27C690.544 275.239 682.672 280.548 677.871 288.181C676.438 294.766 679.691 296.771 680.715 300.986C669.976 298.548 665.767 290.665 666.426 282.485C667.678 266.535 692.614 259.7 705.105 271.092C706.948 268.814 702.967 266.535 700.782 263.96C696.937 259.403 687.131 250.791 675.072 252.568C672.797 252.932 671.637 254.846 669.384 255.416C666.472 256.783 666.313 260.884 666.54 265.396C651.387 261.591 654.527 241.905 667.974 239.808C673.298 238.988 677.803 241.54 683.673 244.092C670.385 225.408 659.26 214.084 659.373 190.046C659.373 178.653 663.355 166.03 667.974 156.005C672.592 145.979 679.509 137.617 680.829 127.592C682.148 117.566 680.647 107.996 673.662 103.371C681.284 100.044 692.25 110.207 693.661 119.047C695.458 129.779 689.11 138.961 685.083 146.025C684.787 147.164 683.673 147.46 683.673 148.873" fill="#F8FAFC"/>
<path d="M122.235 174.528C117.503 177.559 126.581 178.63 125.079 183.073C121.758 187.63 114.727 195.787 106.536 195.833C102.987 195.833 96.5252 195.195 95.1601 190.205C110.154 195.536 111.087 176.032 119.437 170.268C113.044 169.447 109.38 179.382 102.259 180.225C97.2307 180.772 90.4732 179.815 87.9932 173.116C101.918 177.377 104.58 159.718 116.593 157.508C113.749 154.364 108.129 158.83 103.738 160.311C98.8915 161.974 86.0365 161.131 85.1492 151.812C89.5404 150.764 87.8794 155.685 92.3161 154.66C101.804 153.247 103.806 144.293 113.703 143.267C109.858 140.009 100.052 142.812 93.7268 141.855C91.2468 140.488 90.8372 137.161 87.9932 136.158C90.7235 132.786 92.3161 136.409 95.1601 136.158C102.441 135.634 107.902 128.913 116.593 129.095C109.016 126.68 97.7766 127.842 95.1601 120.551C95.8199 116.768 101.849 119.32 106.536 119.138C112.588 118.887 120.597 115.333 123.669 120.551C114.727 134.609 116.843 163.022 126.513 174.528C125.921 176.625 124.738 174.004 122.235 174.528Z" fill="#F8FAFC"/>
<path d="M553.689 202.895C555.349 203.123 554.508 204.308 553.689 204.263C551.959 210.597 552.142 218.845 552.255 227.048C545.43 229.326 541.539 240.286 535.146 231.263C534.19 238.919 531.164 244.387 523.769 245.504C526.978 239.693 526.864 230.557 526.614 221.351C523.314 227.048 521.176 233.883 516.602 238.395C514.942 233.838 517.149 220.941 518.081 214.242C517.194 211.326 513.349 222.673 512.348 225.635C505.954 222.491 512.098 206.951 508.07 201.437C504.771 217.091 507.615 238.85 506.66 256.896C504.111 259.562 496.171 256.896 496.649 262.592C493.327 233.633 496.125 197.336 495.215 164.616C477.628 162.019 459.335 163.204 439.495 163.204H383.729C381.135 181.591 382.25 200.753 382.25 221.442V279.704C411.828 283.965 451.326 278.269 480.881 282.552C480.517 287.724 473.487 285.218 470.87 285.4C444.387 286.654 410.508 284.443 382.25 285.4V426.053C443.681 411.288 491.461 383.034 495.147 310.92C498.719 312.104 500.721 314.816 505.158 315.249C504.157 368.224 469.687 401.673 427.982 421.769C420.522 425.021 412.888 427.858 405.116 430.268C396.948 433.162 388.757 437.377 382.364 437.377C372.353 437.377 358.906 430.86 346.643 425.984C340.659 423.706 334.811 421.427 329.533 418.875C321.703 415.053 314.105 410.769 306.781 406.047C305.484 405.227 305.006 404.042 303.937 403.199C302.867 402.356 300.911 402.721 299.614 401.832C295.57 398.295 291.769 394.489 288.237 390.44C284.022 386.569 280.21 382.278 276.861 377.634C270.642 368.8 266.731 358.546 265.485 347.809C270.513 348.037 271.879 351.887 276.861 352.07C278.522 361.981 282.913 368.019 288.237 374.855C294.655 383.164 302.377 390.375 311.104 396.204C329.942 409.032 355.106 418.352 379.633 426.053V285.4H322.525C303.868 285.4 285.211 284.215 268.215 286.767C265.74 283.278 263.8 279.438 262.459 275.375C260.638 271.267 259.213 266.995 258.204 262.615C255.178 243.521 260.48 218.48 258.204 197.245C257.795 193.85 254.359 198.771 253.927 200.093C250.742 197.29 255.77 190.66 253.927 184.417C241.914 196.652 242.687 221.556 232.494 235.569C225.851 236.025 222.961 232.767 216.795 232.767C216.795 225.362 220.049 217.933 216.795 211.417C219.412 205.242 224.03 199.318 226.738 192.961C229.286 187.151 229.013 182.047 232.494 177.308C235.024 174.578 237.909 172.202 241.072 170.244C246.646 165.915 250.332 163.956 255.36 157.439C259.57 151.925 265.121 140.533 276.793 143.267C283.368 141.421 279.068 150.444 282.481 151.743C291.263 152.267 284.756 149.464 291.082 147.459C328.538 138.969 367.047 136.112 405.344 138.983C428.801 140.874 451.667 142.196 471.098 147.459C473.532 148.188 474.943 151.264 476.786 151.743C481.041 152.928 482.838 150.9 486.797 151.743C492.076 149.464 480.995 152.084 483.953 147.459C487.571 145.386 490.346 142.492 495.329 141.831C497.399 141.672 499.449 142.328 501.043 143.66C502.636 144.992 503.648 146.895 503.861 148.963C507.729 149.305 500.084 143.426 506.773 144.611C520.425 148.006 510.027 160.697 511.028 168.832C512.211 178.379 520.743 183.824 528.161 190.113C534.85 195.764 542.13 204.65 550.913 204.308C552.619 204.536 553.461 204.012 553.757 202.941M320.887 144.611C309.807 146.343 298.271 147.414 289.489 151.743H426.64C442.271 151.743 457.424 152.928 472.372 150.307C430.075 138.915 365.436 137.867 320.887 144.611ZM269.467 163.135C267.829 163.363 267.942 165.414 268.056 167.396V281.071H379.543V163.135H269.467Z" fill="#F8FAFC"/>
<path d="M170.835 174.528C166.694 180.156 176.114 177.9 180.846 177.308C181.483 172.751 177.229 173.343 175.09 171.68C175.454 166.28 179.64 164.845 180.846 160.288C186.352 160.47 186.466 166.029 190.789 167.396C192.518 162.839 198.798 162.953 200.868 158.852C205.123 163.66 198.911 170.245 200.868 177.308C201.46 182.48 204.486 184.143 202.233 188.701C188.241 190.842 174.635 190.478 162.235 194.397C153.589 197.131 146.786 203.351 137.958 204.354C136.684 203.069 135.755 201.483 135.257 199.742C134.76 198.001 134.711 196.162 135.114 194.397C132.549 188.722 129.177 183.45 125.103 178.743C126.809 176.237 135.341 178.857 137.958 180.156C141.689 178.197 141.985 172.796 143.692 168.764C146.786 170.837 151.336 171.498 153.657 174.46C155.136 169.242 160.938 168.399 162.235 163.067C166.103 164.434 169.584 166.212 173.611 167.328C175.317 171.065 170.881 175.69 173.611 175.827C173.133 177.832 171.108 175.941 170.767 174.46M186.466 177.24C189.788 174.961 198.661 178.014 197.842 171.612C195.066 171.133 195.066 173.503 193.587 174.46C192.996 171.726 193.041 168.285 189.265 168.764C190.152 173.753 182.439 173.32 186.421 177.24M152.247 184.371C156.342 184.143 158.23 181.774 162.258 181.546C162.03 179.404 162.804 176.305 160.847 175.85C161.029 184.964 158.048 174.779 153.68 175.85C155.273 181.364 148.652 180.954 152.247 184.371ZM135.137 185.807C136.434 194.921 141.962 185.807 147.992 187.242C147.628 182.845 142.895 182.685 139.391 181.546C139.687 187.288 139.573 187.356 135.137 185.807Z" fill="#F8FAFC"/>
<path d="M372.238 222.787C368.279 220.509 368.325 228.894 370.873 228.415C370.236 230.489 369.576 228.301 367.984 228.415C364.662 235.046 367.506 247.805 366.55 256.828C368.825 259.426 371.101 255.826 373.717 259.676C374.081 263.413 373.194 265.783 369.394 265.372C370.873 268.631 374.309 269.93 373.717 275.33C367.278 270.773 366.254 272.436 357.972 273.917C357.017 269.519 357.017 271.183 357.972 266.785H332.262C329.987 266.261 331.785 270.408 330.829 271.069C329.873 271.73 322.888 265.897 325.141 273.917C322.661 274.806 323.139 270.066 322.251 269.633C318.634 267.924 315.79 274.395 316.563 266.785H290.853C287.895 267.15 290.444 273.028 287.941 273.917C281.548 272.436 279.181 269.633 275.086 275.33C271.195 273.051 275.222 266.967 277.998 266.785C276.701 264.302 272.196 264.962 273.675 259.676C277.043 257.603 276.337 256.714 280.842 258.241V229.828C281.366 227.549 277.225 229.349 276.519 228.415C277.271 227.115 277.772 225.685 277.998 224.2C277.771 222.605 274.198 222.787 275.086 219.871C282.617 220.395 272.083 211.736 280.842 214.243V185.921C279.841 184.576 274.335 186.65 273.675 181.66C273.425 178.584 274.858 177.103 277.998 177.399C275.996 175.121 272.902 173.89 273.675 168.9C278.226 168.194 279.545 170.632 280.842 173.116C283.39 171.862 282.685 167.374 287.941 168.9C288.662 169.911 289.166 171.061 289.42 172.277C289.675 173.493 289.675 174.748 289.42 175.964H315.13C316.927 170.564 322.297 177.559 322.251 170.267C326.096 169.333 325.027 173.229 326.574 174.551C327.871 173.662 331.853 171.224 330.829 175.964H356.539C359.156 173.685 355.538 171.407 359.451 168.9C363.183 168.49 365.549 169.379 365.139 173.116C368.621 172.341 368.166 167.67 373.717 168.9C374.377 173.457 371.942 174.665 369.394 175.964C371.01 178.242 374.081 178.926 373.717 183.095C371.169 184.326 369.508 187.652 366.55 184.508C366.687 193.053 365.845 209.572 367.984 214.357C368.279 214.995 370.054 213.468 369.394 212.921C371.419 213.514 369.053 214.698 369.394 217.205C369.94 220.212 372.375 219.802 372.238 222.901M282.276 264.051H363.706V178.812H282.276V264.051Z" fill="#F8FAFC"/>
<path d="M449.438 175.849C462.043 181.591 479.016 158.464 486.57 175.849C485.5 180.406 484.294 184.963 477.992 184.37C477.628 188.927 482.429 188.54 483.726 191.502C482.611 196.538 483.567 196.651 482.247 202.895C480.468 202.056 478.525 201.621 476.559 201.621C474.592 201.621 472.65 202.056 470.871 202.895C468.8 202.598 470.347 198.679 468.027 198.679C469.278 193.53 472.236 197.791 476.559 197.267C477.15 194.305 475.626 193.462 475.148 191.57C470.12 193.644 465.66 199.044 459.449 195.831C459.631 192.345 459.631 188.996 458.016 187.31C457.197 187.72 453.101 191.867 455.126 195.831C455.126 195.831 457.902 197.563 458.016 197.267C454.421 207.93 442.339 199.226 433.739 202.895C431.077 199.568 433.193 197.153 435.15 193.006C438.722 194.168 440.724 196.902 445.16 197.267C448.892 196.264 447.959 190.568 450.849 188.722C449.552 189.611 445.593 192.049 446.526 187.31C438.653 188.426 435.991 194.783 426.572 194.419C425.321 197.381 420.474 196.902 420.884 201.528C419.587 202.12 418.267 198.679 417.971 198.679C416.015 198.679 417.63 200.958 416.561 201.528C414.672 202.485 414.286 200.115 413.717 200.046C412.124 200.046 411.442 202.781 410.805 202.895C410.167 203.009 409.394 201.368 407.961 201.528C405.845 201.778 402.819 202.257 398.018 202.895C397.378 201.574 397.045 200.125 397.045 198.657C397.045 197.188 397.378 195.739 398.018 194.419C403.114 195.239 407.551 196.697 412.283 194.419C412.283 191.798 405.89 191.092 406.55 191.57C402.705 188.905 402.159 187.013 399.451 183.026C399.201 181.363 396.835 181.841 395.128 181.613C395.947 177.216 396.835 172.887 402.272 173.069C402.984 174.093 403.479 175.252 403.726 176.474C403.972 177.697 403.965 178.958 403.706 180.178C407.028 185.943 417.039 184.917 419.405 191.57C422.545 190.135 418.153 184.439 415.127 184.439C414.013 182.958 416.561 181.773 416.561 181.613C416.379 180.36 413.717 180.474 413.717 180.178C413.489 177.398 415.264 173.547 415.127 170.221C419.678 168.375 422.772 170.221 430.827 170.221C430.531 172.773 432.328 177.398 427.983 175.917C427.869 179.813 430.258 178.811 427.983 181.613C443.158 184.393 467.389 183.892 480.882 180.178C481.01 179.236 480.786 178.279 480.253 177.492C479.719 176.706 478.914 176.145 477.992 175.917C474.966 175.256 475.262 177.991 475.148 180.178C473.078 178.993 470.598 178.036 470.871 174.55C463.59 178.879 448.482 185.943 440.838 177.33V170.221C443.113 168.444 447.072 168.671 450.849 168.854C454.625 169.036 462.407 169.56 462.225 173.069C458.243 177.626 453.806 173.069 449.37 175.917M476.49 185.874C473.533 186.694 467.139 184.097 466.479 187.31C469.46 191.206 473.419 188.95 476.49 185.874Z" fill="#F8FAFC"/>
<path d="M359.43 185.92V258.354H287.987V184.484C311.331 185.373 338.406 182.661 359.43 185.92ZM325.165 234.11C326.871 241.766 325.916 244.796 320.819 248.283C317.702 245.867 312.31 249.24 312.31 246.916C312.31 244.591 308.874 245.913 308.032 246.916C307.805 245.275 308.282 242.883 306.553 242.655C306.553 244.5 302.594 244.432 302.299 242.655C304.847 241.948 301.707 241.105 300.865 239.807C304.187 240.217 302.458 235.705 305.143 235.546C309.466 236.958 311.536 240.581 317.998 239.807C320.273 236.252 313.72 231.034 320.819 228.414C323.311 227.921 325.896 228.437 328.009 229.849C329.601 223.561 323.618 224.746 320.819 222.718C320.66 224.449 321.137 226.819 319.408 227.001C318.043 222.308 316.632 228.596 315.154 228.414C312.651 226.136 313.197 230.693 310.876 228.414C310.239 227.776 308.601 231.148 308.032 231.262C308.214 231.262 306.075 228.414 305.143 228.414C304.21 228.414 303.345 232.698 300.865 231.262C300.569 229.485 296.724 224.427 299.455 224.153C307.509 226.227 315.563 218.389 313.72 217.09C313.379 218.161 312.537 218.753 310.876 218.457C310.285 213.467 306.212 214.128 305.143 212.829C306.258 208.796 303.482 212.054 302.299 209.958C300.751 207.247 303.231 202.667 298.021 201.437C300.16 199.295 300.16 195.079 305.143 195.786C306.258 205.036 313.06 208.728 316.519 215.654C316.883 210.323 319.841 207.588 322.275 204.262C319.135 204.49 317.725 203.123 317.952 199.978C324.778 199.386 316.291 199.5 317.952 195.763C321.32 194.76 330.739 192.436 333.697 195.763C335.062 205.857 334.061 209.434 330.807 217.067C332.627 223.903 341.751 237.574 347.985 226.979C345.301 223.242 341.342 232.493 339.385 225.543C338.202 220.986 341.66 221.168 342.229 218.434C335.244 215.404 333.811 196.948 342.229 194.282C347.325 193.986 350.829 195.239 352.24 198.566C353.082 206.973 349.965 211.371 346.552 215.632C345.301 211.075 342.752 202.302 345.073 198.566C340.204 197.54 342.798 203.829 339.385 204.262C339.385 216.065 349.464 217.933 350.761 228.391C350.397 233.495 342.274 235.979 337.906 232.675V238.371C341.273 237.893 343.23 236.093 347.917 236.936C347.867 238.486 348.367 240.003 349.328 241.219C346.893 244.888 346.597 249.445 343.64 252.612C342.456 253.751 339.499 253.273 339.317 255.414C337.61 254.275 333.151 253.273 330.739 255.414C334.584 258.262 343.23 256.303 349.328 256.827C352.945 256.007 351.216 252.27 352.172 251.131C353.127 249.991 354.447 252.862 355.016 252.612C355.584 252.361 354.788 249.171 356.426 249.786V229.849C355.493 229.97 354.548 229.748 353.766 229.225C352.983 228.701 352.417 227.911 352.172 227.001C354.606 221.715 351.353 224.723 350.761 219.938C356.608 221.305 348.144 211.394 356.426 212.829C355.971 204.74 358.087 194.122 353.605 190.044C353.173 192.322 351.58 190.044 352.172 187.196C345.118 187.925 338.839 186.193 333.628 187.196C330.966 187.743 331.558 189.634 327.895 191.411C328.054 191.411 326.462 189.133 325.051 190.044C324.323 190.477 325.278 193.371 323.618 192.892C323.322 187.743 318.703 191.821 317.884 191.411C315.04 190.226 315.745 187.743 312.196 187.196C307.099 186.376 301.593 187.743 295.018 187.196C298.977 193.188 291.992 190.409 292.174 190.044C289.739 194.601 289.626 205.287 290.74 211.348C290.991 212.647 295.018 214.128 295.018 217.044C295.018 217.568 292.743 217.865 293.584 219.892C293.88 220.599 298.135 219.892 296.428 222.672C291.332 220.006 296.019 224.951 295.018 226.956C293.835 229.508 291.332 229.075 290.74 232.652C289.989 239.322 290.475 246.073 292.174 252.566C297.43 251.814 295.791 250.083 295.018 255.369C299.978 257.647 308.032 256.599 315.04 256.781C315.614 255.157 316.593 253.706 317.884 252.566C323.572 255.711 321.365 249.49 325.051 249.741C324.619 249.741 326.052 252.407 326.462 252.566C327.713 253.045 329.488 252.156 330.739 252.566C331.149 247.781 338.907 250.288 339.317 245.457C336.837 242.677 329.419 244.865 329.306 239.761C327.463 236.206 332.514 232.925 329.306 232.652C329.078 234.315 327.03 234.179 325.051 234.065" fill="#F8FAFC"/>
<path d="M449.438 211.349C461.929 216.999 479.175 194.26 486.57 211.349C486.046 216.999 482.429 219.551 477.992 221.328C478.333 223.812 480.472 224.587 483.726 224.177C482.065 229.098 484.158 231.24 482.247 238.349C480.466 237.516 478.524 237.085 476.559 237.085C474.593 237.085 472.652 237.516 470.871 238.349C468.8 238.053 470.347 234.134 468.027 234.134C470.461 230.101 471.758 232.767 476.559 232.721C474.784 221.739 467.799 235.387 460.86 232.721C458.584 230.807 460.405 224.655 458.016 222.741C456.082 224.359 453.761 229.873 456.537 232.721H458.016C454.284 243.384 442.498 234.68 433.739 238.349C428.87 235.318 435.582 231.81 435.15 228.437C439.427 229.394 440.132 233.906 446.526 232.721C448.801 230.693 448.073 225.658 450.849 224.177C449.552 224.997 445.593 227.48 446.526 222.741C439.131 224.359 435.627 229.873 426.572 229.873C425.321 232.835 420.474 232.288 420.884 236.982C419.587 237.574 418.267 234.134 417.971 234.134C416.015 234.134 417.63 236.412 416.561 236.982C414.672 237.939 414.286 235.569 413.717 235.501C412.124 235.501 411.442 238.235 410.805 238.349C410.167 238.463 409.394 236.799 407.961 236.982C405.845 237.21 402.819 237.688 398.018 238.349C397.378 237.028 397.045 235.579 397.045 234.111C397.045 232.643 397.378 231.194 398.018 229.873C402.568 230.101 408.506 233.177 412.283 229.873C412.056 227.253 410.509 230.693 409.439 229.873C409.166 229.691 408.143 224.04 406.55 225.589V227.025C403.585 224.733 401.162 221.816 399.451 218.48C399.201 216.817 396.835 217.295 395.128 217.045C395.833 211.827 395.128 209.64 402.272 208.5C402.988 209.527 403.484 210.69 403.73 211.917C403.977 213.144 403.969 214.409 403.706 215.632C407.028 221.374 417.039 220.371 419.405 227.025C422.545 225.589 418.153 219.893 415.127 219.893C417.858 215.814 412.602 209.093 415.127 205.652C420.11 202.759 424.979 207.498 430.827 205.652C430.531 208.204 432.328 212.83 427.983 211.349C427.869 215.268 430.258 214.265 427.983 217.045C442.794 219.483 467.981 219.893 480.882 215.632C481.011 214.687 480.788 213.727 480.255 212.937C479.722 212.147 478.916 211.581 477.992 211.349C474.966 210.711 475.262 213.422 475.148 215.632C473.078 214.379 470.598 213.49 470.871 209.936C463.59 214.311 448.482 221.328 440.838 212.784V205.652C443.568 202.645 449.188 205.014 453.693 205.652C456.241 206.085 463.476 203.761 462.293 208.5C458.311 213.057 453.875 208.5 449.438 211.349ZM476.559 221.328C473.601 222.149 467.208 219.551 466.548 222.741C469.824 226.956 473.783 224.701 476.559 221.328Z" fill="#F8FAFC"/>
<path d="M533.735 342.09C532.529 335.505 518.923 337.533 513.713 339.242C515.463 336.305 517.919 333.853 520.857 332.11C519.446 328.328 513.872 328.624 512.279 325.069C512.052 321.97 517.376 324.408 519.446 323.634C520.447 319.305 517.967 318.416 518.036 315.089C521.552 316.652 524.906 318.56 528.047 320.786C525.203 315.796 526.135 304.289 529.457 300.917C531.937 311.17 531.346 324.522 540.833 327.917C540.606 321.446 537.352 318.12 536.51 312.241C542.562 312.902 543.336 318.712 546.521 322.221C549.912 321.743 549.206 317.277 553.688 317.937C552.278 320.854 550.731 323.588 549.365 326.414C552.392 365.923 539.65 389.665 522.245 408.873C523.428 413.795 520.106 414.341 520.811 418.784C518.695 417.6 517.74 415.23 517.99 411.721C512.234 411.197 510.049 414.227 503.701 413.088C507.069 408.531 514.304 407.642 516.557 401.696C503.884 402.356 497.194 408.987 493.69 418.716C490.141 412.314 496.716 403.837 500.789 400.283C501.039 398.004 491.984 398.004 492.28 400.283C487.229 397.002 496.83 396.295 496.534 393.151C495.42 389.597 490.665 389.528 487.957 387.455C489.481 384.265 497.058 386.931 500.789 386.042C504.702 384.789 498.855 381.645 500.789 377.543C505.954 380.938 508.912 386.498 516.557 387.455C519.583 387.045 516.329 381.28 515.078 380.392C518.104 377.429 523.132 384.607 528.001 384.675C536.397 383.057 539.013 375.721 543.677 370.434C546.362 355.419 540.606 341.315 526.499 347.649C523.61 345.986 530.231 341.953 533.689 341.953" fill="#F8FAFC"/>
<path d="M226.555 312.264C227.852 314.543 223.12 322.996 222.233 327.917C229.991 325.639 234.314 312.446 230.81 303.72C235.793 300.758 237.09 313.563 236.566 320.809C238.273 324.705 245.326 323.406 250.832 323.657C251.06 329.034 245.03 328.214 242.255 330.697C244.961 332.732 247.373 335.132 249.422 337.829C247.647 339.06 234.951 336.28 230.81 339.242C230.628 343.799 234.496 344.118 237.977 344.938C234.61 347.741 226.123 345.485 223.711 349.222C213.632 360.478 222.756 381.121 233.654 384.744C240.184 384.516 242.96 380.711 247.988 379.047C247.444 382.006 246.47 384.869 245.099 387.546C254.2 388.07 256.816 382.146 260.843 377.635C265.758 378.409 261.685 383.08 260.843 386.111H275.109C274.131 387.59 272.865 388.856 271.387 389.835C269.91 390.814 268.25 391.484 266.508 391.807C266.281 395.84 270.536 395.362 272.265 397.503C271.605 400.648 265.212 398.096 262.254 398.939C266.144 403.838 273.016 412.405 270.831 418.807C265.507 410.787 260.889 402.197 248.079 401.764C245.485 403.792 250.218 405.797 252.357 407.46C254.905 409.42 259.751 409.739 259.524 413.111C252.994 413.931 242.801 407.005 245.19 418.807C241.754 417.486 241.458 413.111 240.912 408.896C230.605 393.88 217.705 380.415 215.202 359.133C214.127 352.085 213.656 344.958 213.791 337.829C214.201 330.994 215.157 324.773 210.879 317.96C216.863 326.505 220.776 315.522 226.646 312.264" fill="#F8FAFC"/>
<path d="M478.036 309.393C478.969 364.875 446.524 387.045 405.115 400.351C404.683 366.994 404.228 341.11 405.115 307.98C431.053 307.98 454.215 305.497 478.036 309.393ZM470.869 310.828C464.294 309.426 457.556 308.943 450.847 309.393C446.934 314.269 443.84 311.238 439.471 315.089C442.429 309.643 436.991 314.497 435.217 313.676C432.532 312.423 433.146 309.94 429.46 309.393C423.704 308.573 416.787 309.826 410.917 310.828C411.622 316.114 413.352 314.383 408.073 313.676C405.798 321.446 406.776 332.292 406.662 342.09C410.03 346.009 410.621 347.718 410.917 353.482C410.917 352.115 410.576 358.7 410.917 357.697C410.143 359.771 404.819 359.976 406.662 363.394V388.959C407.732 389.3 408.323 390.143 408.073 391.807C412.214 391.442 412.988 392.149 410.917 394.655C427.162 391.852 436.695 382.374 449.596 376.199C448.891 370.275 452.258 368.361 453.851 364.806C457.946 365.034 456.718 359.999 462.451 361.958C469.027 349.335 477.672 331.996 473.827 313.676C468.549 314.383 470.255 316.114 470.983 310.828" fill="#F8FAFC"/>
<path d="M448.027 248.329C459.563 253.182 477.605 231.536 486.569 246.893C487.298 256.919 473.851 259.357 466.616 256.873C467.094 258.696 469.096 259.152 469.46 261.134C474.966 259.471 476.035 257.762 482.315 259.721C483.02 263.094 484.453 269.61 482.315 269.61C480.176 269.61 482.838 271.889 482.315 273.894C476.627 270.043 475.853 277.038 469.46 273.894C469.642 271.342 467.685 270.932 468.049 268.197H476.581C476.991 265.919 475.216 265.76 475.148 263.982C468.322 263.39 468.641 269.792 460.882 268.197C459.153 265.167 459.335 260.314 456.605 258.286C452.987 262.684 460.7 269.975 453.692 273.894C449.142 273.894 445.82 271.091 443.75 275.306C442.043 275.899 442.976 272.823 442.339 272.458C441.156 271.866 439.54 275.306 439.427 275.306C437.424 275.079 437.151 270.749 432.328 273.894C434.603 271.046 432.191 272.117 432.328 268.197C434.74 268.722 434.99 267.058 435.172 265.349C439.427 266.352 441.383 269.61 448.027 268.197C452.054 268.79 444.41 262.911 449.438 262.57C449.074 261.02 446.594 261.544 446.594 259.721C438.357 259.539 436.947 266.238 428.005 265.349C425.078 267.089 422.631 269.533 420.884 272.458C418.335 269.2 415.491 273.711 412.306 273.894C410.031 274.008 409.689 272.23 408.029 272.458C406.914 272.641 405.367 275.306 405.184 275.306C404.297 275.306 400.975 269.314 399.451 275.306C396.539 272.595 396.607 269.154 398.018 265.349C401.112 266.17 409.689 268.722 412.306 265.349C411.874 262.911 407.323 267.195 408.029 261.134C401.863 265.053 402.75 251.701 395.174 252.59C394.878 250.152 397.608 248.921 395.174 248.329C394.582 244.934 401.635 249.081 399.451 244.045C401.931 245.344 404.411 246.711 403.706 251.177C406.186 257.694 416.561 256.395 419.473 262.57C421.748 262.911 421.885 261.202 423.728 261.134C423.091 258.992 421.885 261.681 419.473 261.134C417.198 260.063 419.769 254.139 415.15 255.438C418.153 252.066 413.899 247.19 413.717 242.633C418.927 239.671 428.528 241.858 430.895 242.633C431.372 245.481 430.599 247.076 428.005 246.893C426.458 250.516 434.694 252.407 428.005 252.59C440.906 255.916 459.858 253.068 475.148 254.025C477.287 253.25 478.765 251.883 480.904 251.177C480.531 250.195 479.952 249.305 479.206 248.566C478.46 247.828 477.565 247.257 476.581 246.893C474.67 247.372 475.375 250.448 475.148 252.59C472.258 252.18 472.304 248.807 470.893 246.893C463.726 250.699 438.539 260.428 440.86 241.197C448.255 237.415 454.239 242.86 462.293 242.633C462.111 245.412 455.945 249.468 453.692 245.481C450.871 245.481 451.918 249.331 448.027 248.329Z" fill="#F8FAFC"/>
</g>
</svg>
