<svg width="646" height="392" viewBox="0 0 646 392" fill="none" xmlns="http://www.w3.org/2000/svg">
<g style="mix-blend-mode:multiply">
<path d="M363.648 9.56551C366.598 10.4669 375.465 7.01462 382.8 8.35719C385.539 7.11052 379.353 4.77061 380.406 1.16485C384.601 4.55963 394.368 2.46907 399.558 4.77061V10.7546C398.158 11.7655 396.423 12.1981 394.713 11.963C401.014 16.0482 406.932 20.5553 409.192 28.6875C410.895 26.1546 412.11 23.3249 412.773 20.3444C414.688 20.6513 413.463 23.4323 413.961 25.1393C415.723 30.8932 421.794 32.8111 421.2 40.6747C417.619 42.2666 415.071 41.8638 412.773 39.4664V46.6587C410.973 48.0588 407.832 48.1163 406.74 50.2069C404.499 48.2889 405.84 44.9134 405.553 43.0722C403.35 27.4408 393.928 18.0045 380.311 16.7578C360.124 14.8399 346.45 32.5234 329.807 34.6715C328.164 34.4459 326.617 33.7667 325.338 32.7098C324.059 31.6528 323.1 30.2599 322.567 28.6875C318.182 29.1286 318.086 33.8276 314.141 34.6715C296.904 33.6742 284.378 15.3577 263.637 16.7578C247.932 17.7935 236.709 28.3806 237.207 50.2069C234.717 49.1137 232.419 47.8095 229.968 46.6587V40.6747C228.934 39.0253 225.142 43.8202 221.541 40.6747C220.507 30.4904 230.523 31.2768 228.78 20.3444C229.978 21.3887 230.935 22.6805 231.586 24.1307C232.238 25.5809 232.568 27.155 232.553 28.7451C237.207 22.9912 239.544 15.0126 248.22 13.2097C248.009 11.0232 244.121 12.4617 243.374 10.8122V4.82821C248.66 2.52666 258.447 4.61723 262.622 1.22244C262.622 4.86656 260.094 5.88308 259.04 8.41478C266.108 8.56822 274.362 7.57088 278.192 10.8122C279.188 9.87243 278.192 5.88308 280.586 3.61989C289.454 3.17876 289.166 11.8096 298.628 10.8122C297.938 14.1687 293.935 14.1687 291.407 15.6071C297.689 20.9007 306.059 24.1036 314.236 27.5368C315.826 27.1532 316.152 25.4462 317.837 25.1969C316.879 22.1474 312.896 22.1474 310.655 20.402C307.955 15.5112 305.656 9.22033 308.204 2.43076C311 -1.175 316.037 -2.51756 317.779 -7.15902C316.669 -10.4195 315.577 -3.97522 311.785 -5.9699C311.038 -6.7868 310.624 -7.85438 310.624 -8.96202C310.624 -10.0697 311.038 -11.137 311.785 -11.9539C307.399 -13.4116 307.054 -6.20005 306.997 -13.1622C306.097 -14.313 301.251 -12.3567 299.777 -15.5597C300.37 -18.7051 303.607 -22.2917 306.997 -19.1463C306.997 -25.5906 306.844 -22.541 310.598 -21.5437C312.896 -21.6588 308.682 -25.9933 311.785 -27.4893C315.615 -28.5442 315.52 -25.5714 317.779 -25.0919C318.028 -28.0839 315.864 -28.9278 314.179 -29.8868C314.39 -31.2869 316.381 -30.9416 317.779 -31.0951C320.116 -31.2293 315.864 -35.5256 319.024 -37.0791H323.812C326.896 -34.1254 321.016 -29.5991 328.639 -31.0951C328.236 -28.6401 325.345 -28.736 325 -26.3002C326.091 -23.0397 327.241 -29.484 331.033 -27.4893C331.781 -26.6808 332.197 -25.6191 332.197 -24.5166C332.197 -23.4141 331.781 -22.3522 331.033 -21.5437C335.418 -20.0477 335.725 -27.2976 335.821 -20.3546C337.123 -19.7025 342.16 -20.6998 343.06 -16.7488C342.409 -13.9102 338.406 -11.7621 335.821 -14.3514C335.821 -7.9262 335.974 -10.9182 332.239 -11.9539C329.883 -11.9539 334.154 -7.52344 331.033 -5.9699C327.202 -4.97256 327.202 -7.88785 325 -8.36734C325.747 -2.32578 331.933 -1.67372 334.576 2.37317C337.104 9.16274 334.825 15.4536 332.182 20.3444C329.73 21.4952 327.394 22.7994 324.942 23.8926C325.402 25.4845 327.087 25.8105 327.336 27.4792C336.817 25.3886 343.137 20.0376 351.429 16.7578C350.568 13.6124 345.78 14.3604 344.19 11.963C350.625 10.3519 354.168 5.95974 359.856 3.56229C363.035 2.87183 365.928 8.51063 363.438 9.56551" fill="#EAF0F5"/>
<path d="M159.201 41.8263C154.662 37.3383 154.853 33.8285 149.625 33.4833C142.998 33.0421 139.513 45.2787 130.473 43.0731C130.971 46.909 136.218 46.1225 138.9 47.8103C139.206 51.6463 138.114 56.6138 135.318 53.8136C134.974 55.7315 136.467 55.8466 136.506 57.4001C140.336 57.9947 140.757 55.252 144.933 56.211C145.833 51.7038 140.355 53.6026 140.106 50.2078C139.857 45.1636 144.684 45.2211 144.933 40.618C147.814 42.4483 150.264 44.8827 152.115 47.753C154.719 44.3198 159.948 43.6102 161.805 39.3715C163.931 42.8622 161.652 52.0109 160.541 56.1537C161.537 58.7429 163.682 60.2389 162.935 64.5351C161.901 65.0338 160.79 65.5899 160.541 66.875C138.057 65.2447 123.655 71.6699 110.038 78.8622C109.051 77.7802 107.815 76.957 106.437 76.4648C107.797 65.1872 99.6574 63.2884 98.0295 54.9453C101.362 56.4989 103.947 57.899 107.605 56.1537C108.684 57.2309 109.47 58.5661 109.889 60.0329C110.308 61.4997 110.346 63.0495 109.999 64.5351C108.979 63.7221 107.702 63.3005 106.399 63.346C106.054 65.2639 107.548 65.379 107.605 66.875C112.202 67.0859 113.351 63.883 117.181 63.346C116.32 60.2005 111.436 60.9869 109.942 58.5511C110.635 55.1802 111.864 51.9425 113.581 48.9613C116.569 49.9586 118.273 52.2602 121.969 52.5479C122.697 56.8441 120.571 58.3018 119.556 60.9485C121.261 61.4472 130.128 60.7951 129.132 54.9453C126.642 54.1014 127.217 56.6907 127.926 56.1537C125.187 58.0716 124.095 56.6523 123.099 52.5479C123.655 48.3092 127.485 47.3119 129.132 44.1664C127.83 42.2485 126.796 45.0101 124.344 45.4129C119.403 45.7618 114.45 44.9405 109.885 43.0155C108.842 43.7829 107.577 44.1873 106.284 44.1664C103.66 46.3145 101.898 49.4024 102.645 54.9453C99.5041 55.2906 97.5123 54.5042 97.8762 51.3588C97.5713 51.69 97.2012 51.9543 96.7891 52.1351C96.3771 52.316 95.9321 52.4093 95.4822 52.4093C95.0324 52.4093 94.5874 52.316 94.1754 52.1351C93.7633 51.9543 93.3931 51.69 93.0882 51.3588C91.6901 47.8681 98.8338 46.9089 95.4822 45.4129C97.3974 43.2073 99.3127 46.2184 101.515 43.0155C100.96 41.0975 97.6847 41.9606 99.0636 38.2206C100.864 35.8807 104.158 40.3111 105.097 35.8231C108.084 36.0149 105.441 39.87 105.097 40.618C106.616 40.429 108.028 39.7379 109.111 38.6539C110.193 37.57 110.883 36.1552 111.072 34.634C113.619 36.7246 114.672 37.3191 118.311 35.8231C117.66 37.5685 116.511 38.8151 115.917 40.618H124.344C116.818 36.6287 123.54 25.7347 115.917 22.6468C116.166 16.8929 118.809 15.6463 121.912 11.9062C124.746 13.6516 124.153 14.3996 127.926 13.0954C129.228 14.2078 128.29 17.4875 131.526 16.7011C131.067 19.7891 130.933 23.2413 129.132 25.0442C133.824 27.4417 134.763 33.7709 131.526 38.2206C135.223 37.8753 136.965 35.6313 139.953 34.634C139.742 33.2339 137.751 33.6366 136.353 33.4257C135.472 29.3404 141.255 31.8721 139.953 27.4417C143.784 26.3868 142.443 30.5296 144.779 31.0282C145.737 30.7789 145.986 29.8391 147.173 29.8391C148.974 29.3404 146.675 28.2855 147.173 26.2333C151.827 27.5759 151.463 22.033 154.413 25.0442C154.911 27.5376 153.57 28.228 153.168 29.8391C154.604 29.6281 155.351 30.0884 155.6 31.0282C157.86 32.5242 157.515 28.7267 157.994 28.6308C159.143 28.439 160.848 32.4667 164.027 32.2365C163.529 36.5328 158.703 36.5328 159.201 41.8263ZM148.38 55.0027C149.223 55.5014 157.956 56.6138 157.956 52.6052C157.707 51.1668 156.615 51.9148 155.562 52.6052C154.279 51.512 155.179 48.2131 151.923 49.0187C151.923 52.2025 148.093 51.6079 148.342 55.0027" fill="#EAF0F5"/>
<path d="M325.153 57.3998C327.394 54.7914 328.888 51.5117 331.186 49.0183C349.093 45.7578 344.094 69.6365 332.393 69.3297C334.04 67.8337 333.58 64.1896 333.58 60.9866C324.904 59.7399 326.609 67.3926 327.547 70.5764C328.696 72.6286 331.377 73.1848 334.787 72.9354C334.384 74.5273 332.68 74.8534 332.393 76.522C334.921 79.7633 341.26 76.522 343.213 75.3329C343.807 71.497 339.517 72.6286 340.819 68.1789C341.234 67.2542 341.906 66.469 342.755 65.9182C343.605 65.3674 344.595 65.0744 345.607 65.0744C346.619 65.0744 347.61 65.3674 348.459 65.9182C349.309 66.469 349.981 67.2542 350.395 68.1789C351.449 72.782 347.465 72.4368 346.756 75.3329C349.955 81.221 359.033 80.6264 363.61 76.522C361.178 74.1821 354.341 76.1768 355.183 70.5764C357.482 72.782 358.228 70.5764 361.216 70.5764V65.7815C360.929 64.4965 358.822 64.9951 358.765 63.384C355.432 63.595 353.689 65.4362 353.996 69.3297C351.602 68.4282 349.648 65.1869 351.602 63.384C351.391 59.9893 345.856 61.8878 346.756 57.3998C350.74 56.5942 352.234 53.257 352.789 49.0183C356.984 48.8649 354.705 55.0982 358.765 55.0023C362.595 55.5585 362.595 52.4515 362.423 49.0183C362.212 46.8127 358.324 48.3087 357.577 46.6593C357.769 44.0125 360.622 44.07 363.61 44.2618C367 44.0125 365.104 38.508 369.586 39.4669C370.197 40.3266 370.625 41.3036 370.843 42.3366C371.06 43.3696 371.063 44.4363 370.85 45.4701C375.331 44.9715 377.878 46.4099 378.07 50.2074C375.772 48.0018 375.025 50.2074 372.037 50.2074V55.0023C372.344 56.3065 374.431 55.8462 374.431 57.3998C377.821 57.208 379.564 55.3094 379.276 51.3968C381.019 51.7996 384.409 56.4408 381.651 57.3998C383.538 59.1331 385.541 60.7352 387.646 62.1947C384.409 64.4962 380.406 66.1457 380.464 71.7845C376.27 71.9954 378.549 65.7429 374.431 65.8388C370.601 65.3018 370.601 68.3897 370.85 71.7845C370.984 74.0285 374.929 72.5325 375.638 74.1819C375.484 77.6342 370.639 76.3876 367.249 76.5794C368.245 82.1223 377.629 82.3332 382.858 80.1851C381.862 77.5767 379.717 76.0807 380.464 71.7845C382.015 71.3817 382.379 69.6939 384.064 69.387C388.201 68.8884 387.646 72.9928 390.04 74.1819C388.642 75.9848 389.044 79.533 385.252 78.9768C387.493 83.1196 390.883 86.1694 398.505 84.9611C397.072 83.5452 395.447 82.3377 393.679 81.3743C393.832 78.7275 398.773 80.8756 400.918 80.1851C401.512 75.7355 402.201 74.4312 400.918 69.387C395.268 68.2362 394.177 71.4776 394.866 76.5794C389.695 72.9352 386.497 60.9481 392.491 56.2491C400.152 55.4052 404.155 58.2054 404.5 64.6497C407.641 60.8138 403.255 57.1121 405.687 52.6625C410.724 51.7035 413.482 48.4622 418.902 47.9252C415.416 57.3615 411.988 63.2687 410.533 74.1819C410.533 74.1819 409.345 74.4313 409.345 75.3902C409.345 76.0232 410.379 77.0397 410.533 76.5794C410.13 78.0754 408.732 78.6699 408.081 80.1851C406.683 83.5799 406.3 89.0079 405.687 94.5508C357.233 81.9307 285.777 81.9307 237.361 94.5508C236.556 89.5066 237.016 85.1143 234.909 80.1851C234.564 79.3796 232.63 78.1329 232.515 77.7877C232.4 77.4424 233.817 75.582 233.722 74.1819C233.722 74.1819 232.764 71.5927 232.515 70.6337C230.772 62.8468 226.942 56.0573 224.088 47.9252C229.527 48.4622 232.266 51.761 237.361 52.6625C238.854 57.8026 237.361 58.6082 237.361 64.6497C239.908 60.0083 241.689 54.5996 250.575 56.2491C251.361 58.3972 253.716 59.3562 254.157 62.2523C254.808 66.4334 251.82 74.5847 248.181 75.3902C248.679 71.2858 247.779 68.6007 243.336 69.387C239.85 71.8804 241.804 76.3876 242.149 78.9768C242.493 81.566 247.224 79.4755 249.369 80.1851C248.335 81.9305 247.588 84.021 244.543 83.7717C249.331 87.6076 255.153 82.3716 257.796 80.1851C256.011 78.7749 254.392 77.1663 252.969 75.3902C254.157 73.0311 255.057 70.2885 257.796 69.387C261.032 68.5431 260.19 71.7845 262.584 71.7845C262.833 75.2368 262.296 77.8836 260.19 78.9768C263.139 83.4265 273.902 81.5661 275.799 77.7877C276.009 74.4313 268.425 78.785 268.617 75.3902C268.023 72.8394 270.321 73.127 272.217 72.9928C272.217 69.8473 272.868 65.9539 269.823 65.8388C264.441 65.3402 265.993 70.9406 264.978 71.7845C259.998 71.1899 262.335 63.288 256.551 63.4414C256.517 62.7979 256.62 62.1546 256.852 61.5536C257.084 60.9527 257.441 60.4077 257.899 59.9548C258.357 59.5019 258.905 59.1511 259.508 58.9256C260.11 58.7001 260.754 58.605 261.396 58.6465C258.792 56.2107 261.741 53.9091 262.584 51.4542C264.69 53.0077 264.077 57.208 267.372 57.4574C268.411 56.6493 269.695 56.2227 271.011 56.2491V51.4542C269.976 49.7088 267.965 48.9225 264.978 49.0759C266.069 47.0237 267.218 44.914 271.011 45.5277C273.5 45.1633 271.317 40.2342 273.405 39.5245C277.235 38.9875 276.794 42.5357 278.193 44.3194C281.18 44.166 283.938 44.1276 285.432 45.5277C285.183 47.6183 283.383 48.2129 280.644 47.9252C280.644 51.0706 279.935 54.964 283.038 55.0599C288.477 56.1148 285.872 49.0759 290.258 49.0759C290.814 53.3146 292.173 56.7477 296.253 57.4574C296.847 61.2933 293.265 60.8522 291.465 62.2523C292.901 65.8005 291.752 66.2991 290.258 69.387C288.171 67.891 288.764 63.6332 285.432 63.4414C284.399 64.2332 283.132 64.6583 281.831 64.6497V69.387C282.138 70.4994 286.332 73.434 286.677 70.6337C289.914 73.1846 284.034 76.6753 279.437 75.3902C282.578 81.2784 291.656 80.6838 296.253 76.5794C296.751 72.1297 291.407 73.4915 292.652 68.2363C296.004 60.2576 306.825 69.0418 299.892 74.1819C301.175 77.6726 305.637 78.0178 310.713 77.7877C310.811 76.9992 310.623 76.2015 310.184 75.5398C309.744 74.8781 309.083 74.3963 308.319 74.1819C309.506 72.264 313.394 72.8777 315.5 71.7845C315.788 67.5841 318.89 61.0056 310.713 61.044C308.797 60.8522 308.797 68.4473 310.713 68.2363C300.581 72.4366 292.863 45.029 311.9 49.0567C313.298 52.0487 316.688 53.0844 316.688 57.4382C319.58 53.6023 313.355 48.9033 314.294 43.1111C315.443 38.2203 319.886 36.6668 321.533 32.313C323.812 35.6119 326.168 38.8532 328.715 41.9028C329.309 48.8458 325.555 51.4925 325.115 57.4382M297.44 76.6178C296.253 81.0099 290.469 80.8564 286.677 82.6018C283.624 80.7448 280.42 79.1473 277.101 77.8261C275.454 84.9992 263.58 84.865 257.949 81.4126C255.766 88.8543 246.343 87.6076 239.908 84.9992C240.597 87.109 238.452 91.9998 241.095 92.1916C264.595 86.0157 291.465 83.2539 320.48 82.6018C319.542 79.5714 319.293 75.8122 316.841 74.2203C314.696 81.8921 302.841 80.8181 297.593 76.6178M322.874 82.6018C349.999 82.8635 377.015 86.079 403.446 92.1916V84.9992C398.409 84.4047 398.16 88.5091 392.645 87.3967C388.489 86.3034 386.708 82.9662 383.069 81.4126C379.028 86.2651 367.019 83.5608 366.215 77.8261C362.231 79.0152 359.627 81.662 355.394 82.6018C351.564 80.914 347.216 79.5714 344.573 76.6178C339.843 82.2182 329.366 80.0126 325.421 75.4286C324.305 77.701 323.499 80.1138 323.027 82.6018" fill="#EAF0F5"/>
<path d="M513.953 43.0345C516.124 46.0296 518.546 48.8336 521.193 51.416C520.484 53.9093 518.645 55.2519 517.592 57.4192C516.347 56.6136 516.347 54.6573 513.953 55.0025C513.704 60.4495 519.144 60.2577 523.529 61.0057C523.721 57.1698 520.331 57.0164 521.135 52.6243C525.368 52.4708 526.517 49.2295 530.711 49.0185C530.922 52.8544 533.45 54.3121 533.105 58.6083C531.305 60.0084 528.222 60.1043 527.13 62.1949C530.118 63.595 531.765 66.3378 536.706 65.7433C537.549 63.2499 534.905 63.8251 535.518 64.5923C533.373 61.9455 534.561 62.099 534.274 57.4192C537.012 55.3094 543.351 56.863 546.339 55.0025C541.838 61.7537 536.763 67.853 535.518 77.7305C527.857 77.9798 521.442 71.689 513.819 69.349C507.113 67.6117 500.28 66.4061 493.384 65.7433C488.749 65.3021 483.808 67.661 480.169 64.5923C482.717 56.5177 482.314 48.424 480.169 39.4863C483.214 42.018 487.6 43.3222 489.745 46.6211C489.305 50.457 486.949 54.5614 484.919 50.2076C484.21 58.359 490.99 52.4133 494.495 55.0025C495.089 51.1666 491.316 51.8571 490.914 49.0185C491.105 44.4346 495.797 44.3196 496.946 40.6755C498.451 41.5932 499.755 42.805 500.782 44.2384C501.808 45.6718 502.536 47.2974 502.922 49.0185C505.661 46.1799 511.349 46.2183 513.743 43.0345M498.134 56.2109C503.669 53.7175 506.407 60.0468 508.955 53.8134C503.783 57.0164 506.867 51.0707 502.922 50.2076C502.73 53.6216 497.176 51.7228 498.134 56.2109Z" fill="#EAF0F5"/>
<path d="M117.125 90.8875C108.143 95.1261 101.803 87.0515 97.8772 82.4868C103.948 81.2018 114.865 78.2097 119.519 82.4868C121.051 82.2375 121.108 78.9578 119.519 78.9578C126.797 75.4096 133.328 72.1107 141.161 70.5572C147.079 69.4064 154.107 70.864 160.408 69.368C167.935 67.4501 174.906 61.2167 182.031 57.3808C189.697 53.3321 197.774 50.1172 206.124 47.791C202.983 54.4655 195.61 57.2657 189.27 60.9098C182.931 64.5539 176.247 68.1021 170.118 71.7079C172.608 76.0041 176.4 72.8011 179.694 71.7079C177.071 86.0926 152.288 71.5544 147.251 82.4292C151.177 86.783 159.106 83.8293 161.653 80.0509C175.174 78.133 177.205 87.7228 186.934 89.6407C187.125 95.3946 185.344 99.2305 184.482 104.025C178.603 105.08 181.303 97.6962 174.906 99.2305C170.272 104.984 179.35 107.516 182.088 109.971C183.199 114.612 178.105 112.714 176.113 113.558C173.815 114.517 172.915 117.854 170.08 115.955C166.384 113.673 167.629 106.365 164.105 104.025C159.202 102.28 156.559 108.379 152.039 108.763C143.344 109.568 136.373 104.927 136.43 94.4356C130.531 102.107 138.824 113.615 149.626 112.368C148.534 123.013 162.707 118.506 164.105 126.753C159.757 130.148 156.616 124.413 153.284 123.147C149.626 123.895 149.147 127.846 146.044 129.093C141.812 128.94 140.663 125.698 136.468 125.506C134.208 128.096 132.772 131.395 130.436 133.888C126.739 133.581 125.035 131.299 122.009 130.301C118.6 132.488 117.814 137.283 114.827 139.891C101.995 133.984 102.512 109.204 107.587 95.6439C111.188 94.4356 116.321 94.7425 117.163 90.8491" fill="#EAF0F5"/>
<path d="M501.964 106.423C501.255 102.587 502.749 100.88 503.151 98.0419C506.848 96.3349 508.59 97.5432 511.578 99.231C511.98 94.8389 510.525 88.644 512.766 86.1123C515.16 87.3014 514.681 91.4058 518.798 90.9072C522.629 91.4442 521.939 87.6466 524.793 87.3014C523.74 81.5475 512.574 85.9013 512.766 78.9199C509.376 82.7558 509.835 90.4276 507.939 95.6445C506.388 94.0909 503.496 94.091 503.151 96.8912C500.853 96.3925 502.194 92.2497 498.363 93.247C498.019 86.1506 500.068 81.4133 501.964 76.5225C498.134 75.0648 501.064 80.3584 497.119 78.9199C494.629 77.002 490.837 76.4266 486.336 76.5225C486.727 79.5992 487.975 82.5037 489.937 84.9039C492.924 85.1149 494.916 84.3094 495.912 82.5065C498.363 84.6546 494.131 90.1783 493.537 93.247C495.567 95.165 499.551 95.165 500.757 98.0419C501.313 105.829 494.169 106.577 488.749 105.234C487.351 102.626 485.608 100.343 486.336 95.6445C485.551 92.8442 478.924 95.8362 477.871 93.247C476.166 89.6412 477.66 86.1123 479.116 82.5065C475.573 80.0131 471.685 77.9226 469.54 74.125C470.823 71.4782 471.455 68.1219 473.121 65.782C478.867 64.8805 481.05 67.4887 483.942 69.3875C503.094 68.6779 517.056 73.0701 528.47 80.109H539.291C539.789 81.2215 540.345 82.2572 541.685 82.5065V89.6988C540.095 91.1871 538.179 92.2829 536.091 92.8989C534.003 93.5149 531.8 93.6341 529.658 93.247C527.915 96.3349 527.57 100.785 526.076 104.026C522.629 105.426 520.943 104.275 517.592 102.837C515.849 110.278 507.326 111.372 502.002 106.423" fill="#EAF0F5"/>
<path d="M475.496 82.4488C473.791 88.3945 472.891 97.7925 481.528 96.7951C481.528 105.675 481.777 114.613 480.322 121.901C480.628 124.759 484.765 121.901 485.11 120.75C487.6 126.504 488.94 133.792 492.349 138.683C496.976 135.371 501.389 131.771 505.564 127.904C507.479 126.101 506.809 128.748 510.39 130.302C512.497 121.211 515.332 112.925 519.966 106.385C526.938 110.221 533.928 104.678 531.975 95.6444C538.065 95.6444 543.466 92.9017 548.79 95.6444C549.077 99.6913 551.816 101.398 551.222 106.385C550.782 112.139 547.584 103.834 545.19 103.987C541.359 104.678 539.616 103.182 536.763 102.779C539.31 107.325 545.994 106.73 548.79 111.161C552.218 116.665 551.031 122.304 549.978 130.34C546.147 130.59 547.086 126.082 545.19 124.337C541.991 119.139 535.977 116.799 534.369 110.01C532.453 114.21 537.605 119.043 540.344 123.148C542.259 125.986 545.649 129.784 546.396 135.135C548.311 148.158 541.895 155.906 536.82 166.244C536.533 170.08 538.276 171.998 541.666 172.171C532.09 181.761 529.102 160.049 535.633 154.257C538.065 136.267 527.742 130.973 527.206 115.898C524.161 127.406 534.273 135.672 532.032 151.764C531.144 156.388 529.514 160.838 527.206 164.94C524.103 169.543 516.768 171.135 516.385 178.078C508.954 171.231 517.821 161.104 518.779 154.161C520.062 144.571 515.523 134.982 518.779 125.392C511.942 129.688 518.472 142.653 516.385 152.895C515.638 156.597 512.689 157.594 512.784 161.296C507.498 163.578 504.166 167.836 500.776 172.017C493.939 162.044 503.821 150.21 503.17 138.568C499.033 139.662 500.872 144.322 499.57 148.158C498.845 149.416 498.032 150.621 497.137 151.764C496.429 153.202 496.927 155.255 495.931 156.559C491.698 162.102 484.918 162.198 479.077 166.149C475.114 168.948 471.839 172.614 469.501 176.87C466.36 160.145 486.508 156.309 483.961 136.228C479.92 148.561 476.07 161.162 459.925 161.354C461.17 157.518 465.46 156.501 467.107 152.953C469.539 147.87 466.896 134.732 469.501 127.847C471.033 123.838 475.63 121.709 476.721 117.049C473.389 115.399 470.976 124.951 467.145 126.639C465.537 137.82 466.092 151.112 455.118 152.953C461.553 140.87 452.686 126.485 458.718 115.898C462.108 110.01 469.08 111.563 471.972 103.93C470.286 102.012 466.226 108.073 463.545 109.914C462.894 110.374 460.557 110.508 459.963 111.103C457.359 113.616 456.727 118.008 453.93 119.446C454.716 124.299 452.781 126.293 452.724 130.244C447.304 120.942 448.549 105.829 456.324 100.324C460.461 98.8281 464.943 97.7733 468.333 95.5868C466.035 94.6854 461.553 95.5868 458.757 96.7375C454.62 98.387 452.82 102.185 449.181 102.722C450.636 98.8856 451.575 94.7813 452.82 90.7919C457.512 87.7424 464.043 89.0849 468.429 88.3945C466.992 85.0572 461.055 86.1504 456.42 85.997C458.91 82.046 462.645 79.3992 465.996 76.4072C469.693 77.9032 472.336 80.5116 475.572 82.3912" fill="#EAF0F5"/>
<path d="M34.1393 223.63C39.8849 221.884 47.5456 219.583 53.387 221.232C57.5238 222.479 62.4075 228.079 62.963 232.011C63.9589 239.069 59.3815 244.113 53.387 248.755C50.3418 247.144 55.1298 243.461 54.5744 240.354C53.8849 235.809 50.9355 234.217 47.3541 232.011C45.6495 230.918 42.7194 227.983 34.1393 229.633C22.8205 231.762 11.4441 250.098 19.6795 264.271C28.1063 278.752 49.8438 275.779 59.4198 263.082C60.6072 261.49 61.718 257.482 63.0012 254.739C64.2844 251.996 65.5484 248.851 66.6018 246.357C68.6893 241.467 69.9917 235.022 73.8221 230.822C77.3269 226.986 83.7428 226.085 87.037 222.441C87.8797 221.482 87.3817 219.986 88.2436 218.835C88.5883 218.394 90.4268 218.087 90.6758 217.646C91.5759 215.843 90.9823 213.503 91.825 211.7C92.6676 209.897 94.5636 209.782 95.4638 208.094C98.8154 201.765 100.558 197.219 105.04 191.331C106.783 189.068 109.215 186.882 111.073 184.177C109.962 178.692 112.988 177.388 113.467 173.398C127.122 163.463 143.822 156.578 167.552 156.674C171.382 156.463 169.907 161.507 172.397 162.62C176.228 162.063 175.538 165.861 178.392 166.263C180.135 171.308 184.769 187.879 175.979 188.972C175.002 182.739 171.306 179.248 168.758 174.588C167.801 178.424 174.504 184.177 171.152 191.331C174.734 192.463 176.898 191.024 180.728 191.331C188.619 191.964 196.05 196.97 206.009 193.71C208.556 195.628 210.51 198.063 213.248 199.713C214.838 218.432 221.867 231.762 230.045 243.96C229.106 260.474 235.79 269.316 240.865 279.864C237.974 283.7 234.488 278.311 232.439 277.467C231.596 281.111 234.545 280.957 233.683 284.602C224.414 281.514 215.795 277.716 218.036 263.082C220.181 262.929 220.584 264.578 222.863 264.271C218.381 263.178 219.626 256.388 218.036 252.341C211.793 254.087 209.858 260.128 203.615 261.931C203.328 252.898 210.107 250.845 212.042 244.018C207.12 240.412 206.909 251.689 201.183 251.21C200.436 242.061 206.928 240.22 208.403 233.277C205.913 230.477 201.278 242.004 198.827 239.223C197.984 231.186 202.868 228.923 204.86 223.687C204.209 218.739 201.029 216.303 198.827 212.908C186.359 211.7 178.832 215.344 167.552 215.306C162.419 215.804 162.476 221.386 156.75 221.29C151.024 221.194 147.423 213.618 149.511 209.36C146.217 206.253 144.225 201.861 141.084 198.562C142.635 207.059 146.063 213.56 147.117 222.498C142.424 224.282 138.9 229.038 131.508 232.088C125.762 234.447 117.642 234.447 112.222 236.883C99.1601 242.637 93.223 256.868 108.621 263.159C113.16 273.497 110.536 288.226 106.227 296.665C96.4597 302.899 82.4021 304.855 72.5772 310.993C73.5156 327.18 80.238 337.844 88.186 346.897V354.089C93.1081 358.827 95.8468 366.364 100.252 373.269C101.286 374.918 105.442 375.915 102.646 378.006C97.3023 378.907 97.7046 374.17 94.219 373.269C92.6676 376.913 98.2983 379.368 95.4064 380.403C84.4323 380.614 78.6483 375.57 79.7591 363.679C82.3063 363.18 82.9384 364.523 84.5855 364.887C85.792 361.281 81.9042 362.777 79.7591 362.49C80.5061 358.194 78.361 356.736 77.3651 354.147C71.3323 356.889 68.2872 362.624 66.5444 369.682C59.3624 363.276 69.2256 352.593 68.9384 344.557C66.2379 348.048 62.848 350.79 60.5498 355.297C59.6496 357.043 61.2584 359.536 58.1175 358.884C56.6236 346.647 62.1969 341.412 65.3378 333.816C62.6565 331.898 59.4581 339.82 55.7618 340.97C56.6619 344.615 53.6551 344.499 54.5552 348.144C49.3842 341.91 55.6661 331.515 60.5881 325.435C61.6989 312.354 52.2761 309.803 52.1612 297.912C58.4431 291.334 72.807 298.814 76.1969 288.322C75.8522 278.349 70.6621 273.094 68.9767 264.405C63.978 271.559 63.5758 272.077 56.9492 276.393C52.2761 279.5 44.8835 284.793 34.1201 283.527C29.0334 282.928 24.1174 281.317 19.6604 278.79C18.6645 278.138 18.2623 275.894 17.2664 275.204C16.2705 274.513 14.5277 274.954 13.6658 273.995C13.3211 273.592 12.1337 270.696 11.2719 269.2C3.95581 256.465 7.7862 242.694 16.0598 230.956C19.4497 226.123 28.0872 218.528 26.8806 209.437C26.4401 206.042 22.1502 198.102 14.8724 198.639C5.79441 199.348 5.2964 207.845 7.63294 215.383C-4.43279 208.037 1.31284 188.167 13.6658 186.613C25.3485 185.213 33.9669 195.608 32.8178 211.738C39.4635 206.848 43.6003 195.513 40.0572 184.216C36.0161 178.462 28.183 172.439 21.9969 166.302C18.2904 162.603 15.575 158.027 14.1021 152.999C12.6292 147.97 12.4462 142.651 13.57 137.533C14.7766 131.299 21.8054 121.057 27.9915 118.353C15.0831 140.486 36.8588 166.743 47.1434 181.646V194.784C51.4718 193.479 51.8165 187.591 51.9698 185.194C52.3336 176.947 46.2242 170.56 42.3938 164.825C41.5894 163.674 41.8384 162.37 41.1872 161.277C38.3003 157.07 37.0096 151.968 37.5483 146.892C38.0462 142.788 40.0381 140.045 43.5812 134.963C46.2816 135.845 44.0408 141.656 44.7878 144.552C49.6715 156.444 58.5962 164.326 56.796 182.911C61.0477 181.454 61.1818 177.407 61.6415 174.511C63.0396 165.285 58.6537 153.95 55.6086 148.196C52.008 141.407 45.7836 130.168 46.0326 118.334C46.1858 108.955 51.5675 101.072 55.6086 94.3785C55.9384 93.5482 56.3355 92.7464 56.796 91.981C58.9984 89.6795 63.3268 87.8383 66.3719 86.0354C68.7085 84.6929 71.7536 79.9363 75.9479 82.4297C69.1681 88.4329 61.833 96.4115 60.3391 106.366C57.0067 128.633 72.6539 149.808 69.9151 173.322C68.6702 184.312 61.1435 192.386 55.5128 200.825C51.2228 207.269 41.9532 214.462 35.0585 221.155C34.8096 222.114 33.8711 222.364 33.8711 223.553" fill="#EAF0F5"/>
<path d="M408.158 107.63C404.328 109.031 404.232 113.116 399.731 113.614C397.816 113.825 396.456 112.368 396.092 112.425C391.17 112.425 384.276 110.872 379.296 110.028C368.82 108.225 357.405 105.828 345.646 105.233C330.325 104.427 314.218 104.543 298.724 105.233C286.792 105.732 274.535 108.225 263.81 110.028C253.085 111.831 241.383 116.511 234.948 107.63C233.99 104.389 237.687 103.641 238.587 101.646C240.502 97.542 241.479 97.4461 247.014 95.6432C249.657 94.7993 254.1 95.0486 257.834 94.4541C283.766 90.5031 310.943 87.4536 340.801 89.6976C360.106 91.1552 380.847 92.0566 398.544 96.8515C400.376 97.0481 402.076 97.8992 403.332 99.249C405.897 101.369 407.611 104.345 408.158 107.63ZM311.939 100.438H331.091V93.2457H311.939V100.438ZM271.049 101.646C275.224 105.789 290.201 105.291 289.09 96.8515C283.517 94.4924 271.049 94.55 271.049 101.646ZM354.016 96.8515C352.962 105.291 367.882 105.789 372.076 101.646C372.076 94.55 359.646 94.4924 354.016 96.8515ZM242.168 110.028C245.531 108.95 248.475 106.852 250.595 104.025C248.258 102.394 243.719 102.893 241.019 101.646C240.272 106.288 240.023 106.576 242.206 110.028M392.549 105.233C396.035 105.789 396.38 109.472 400.976 108.82C403.466 105.885 402.661 106.288 402.183 101.646C398.64 102.49 393.698 101.992 392.607 105.233" fill="#EAF0F5"/>
<path d="M515.179 110.008C512.605 115.369 510.583 120.98 509.146 126.752C507.595 126.349 507.231 124.642 505.565 124.354C503.017 128.996 497.674 130.895 494.744 135.133C489.496 132.736 488.998 125.697 487.504 119.598C487.006 117.814 485.953 120.058 483.923 119.598V102.835C487.562 104.427 489.305 107.879 493.499 108.819C492.848 115.915 490.856 123.99 494.705 129.149C499.896 125.544 502.366 119.31 503.132 111.216C508.208 111.907 511.061 110.373 515.141 110.008" fill="#EAF0F5"/>
<path d="M112.298 161.448C112.835 170.596 103.316 175.372 97.8768 168.64C93.5485 170.443 97.8769 174.624 94.238 178.23C92.6867 179.879 89.0477 179.438 85.8685 179.438C83.5703 183.581 87.2092 183.984 88.2625 187.82C88.5115 192.806 83.6661 192.806 83.4171 197.409C89.45 199.864 92.0547 204.947 89.45 213.002C86.8645 210.298 85.3706 213.942 81.0231 213.002C80.7261 212.175 80.2514 211.424 79.6326 210.801C79.0137 210.178 78.2658 209.698 77.4417 209.397C75.7372 202.569 80.1804 201.725 81.0231 197.409C81.2338 193.573 76.1394 195.127 75.0477 192.634C74.3389 189.898 74.3389 187.026 75.0477 184.291C76.1203 183.206 77.4534 182.415 78.9192 181.995C80.3849 181.576 81.9339 181.54 83.4171 181.893C85.4664 176.35 79.5867 170.711 85.8685 166.358C91.8056 164.44 93.989 169.848 96.6894 167.508C98.6046 164.21 98.8727 159.376 102.665 157.919C107.912 157.056 108.008 161.352 112.241 161.505M100.213 165.092C105.308 164.842 100.213 166.895 100.213 168.698C103.067 168.698 103.756 170.75 107.453 169.848C111.283 163.461 106.495 165.053 106.246 163.903C105.901 162.464 108.161 162.157 107.453 160.316C102.952 159.817 100.367 161.256 100.213 165.092ZM85.8111 175.832C86.3091 172.553 89.6415 175.832 88.2051 178.23C92.0355 178.728 96.2298 173.588 92.9931 171.095C90.2927 174.586 90.2927 169.177 92.9931 168.698H85.8111C84.8535 169.503 83.1107 175.334 85.8111 175.832ZM77.3842 192.576C81.8658 192.461 80.7741 191.272 84.6045 192.576C85.6962 189.527 86.5197 185.825 83.3596 184.233C81.4444 189.411 81.9232 182.929 77.3842 184.233C76.77 185.538 76.4515 186.962 76.4515 188.405C76.4515 189.847 76.77 191.272 77.3842 192.576ZM79.7782 203.355C79.625 206.29 79.5675 209.109 80.9656 210.548C88.8945 212.197 82.0573 204.103 88.2051 209.339C88.7414 204.794 87.7072 201.859 84.6045 200.958C84.7578 206.251 81.1763 200.402 79.7782 203.355Z" fill="#EAF0F5"/>
<path d="M215.719 167.431C215.719 174.624 209.782 175.87 210.931 184.156C205.645 179.706 206.794 167.182 215.719 167.431Z" fill="#EAF0F5"/>
<path d="M433.399 196.126C437.996 197.334 438.934 208.612 432.212 208.056C431.788 204.04 432.192 199.979 433.399 196.126Z" fill="#EAF0F5"/>
<path d="M179.655 227.213C178.908 220.481 186.876 217.432 191.664 220.021C187.833 222.169 183.601 228.959 179.655 227.213Z" fill="#EAF0F5"/>
<path d="M186.857 224.816H192.89C194.215 227.159 195.011 229.765 195.219 232.45C195.428 235.134 195.044 237.832 194.097 240.352C191.492 240.965 191.798 238.664 191.645 236.803C189.213 237.954 189.06 241.349 189.251 245.147C186.072 245.952 186.953 242.711 185.67 241.56C182.72 242.596 182.969 246.854 178.43 246.355C175.596 242.903 180.231 239.258 182.069 236.765C181.878 235.327 179.828 235.729 178.43 235.576C178.679 229.381 186.857 231.126 186.857 224.778" fill="#EAF0F5"/>
<path d="M154.413 298.983C155.47 295.904 155.875 292.638 155.6 289.394C158.397 287.783 159.584 284.599 165.176 285.788C165.713 281.952 163.414 281.146 162.725 278.615C162.533 273.609 167.321 273.609 167.57 269.025C167.207 265.381 162.17 266.378 161.576 263.041C160.331 257.44 163.491 256.251 165.176 253.451C163.414 249.941 157.688 250.44 155.6 247.448C155.6 244.245 156.06 240.601 154.413 239.066C150.219 239.949 147.978 242.749 143.592 240.256C142.481 238.165 140.202 237.206 141.141 233.121C140.394 231.874 138.402 231.874 138.747 229.515C143.094 232.776 146.235 223.972 152.019 228.326C154.451 230.627 153.934 235.998 155.6 239.066C160.637 236.209 166.325 236.209 168.815 241.464C169.964 246.949 165.828 247.218 166.421 252.243C169.409 254.046 173.91 254.333 174.848 258.188C176.189 264.729 171.152 264.92 170.022 268.967C169.754 272.803 174.293 271.863 176.055 273.762V282.105C174.446 284.906 169.064 284.023 166.479 285.692C166.479 289.643 169.926 290.295 168.873 295.282C165.981 302.378 159.297 297.775 154.47 298.887M143.592 232.047C147.135 233.044 141.983 235.058 143.592 237.992C144.971 239.392 147.825 239.335 150.774 239.201C148.725 234.751 151.464 237.283 152.019 233.255C151.368 229.419 145.278 228.46 143.592 232.047ZM159.201 248.79C163.989 250.325 161.633 244.839 166.421 246.393C167.072 240.984 164.621 238.587 159.201 239.201C161.882 243.037 155.256 244.283 159.201 248.79ZM164.027 257.172V264.307C165.328 264.298 166.595 264.723 167.628 265.515C167.417 260.221 171.018 266.109 172.454 263.117C172.607 260.164 172.607 257.364 171.209 255.964C169.811 256.117 167.819 255.772 167.628 257.172C170.654 259.358 165.617 257.268 164.027 257.172ZM165.234 281.031C168.375 280.782 169.064 278.596 168.815 283.429C172.914 283.179 175.059 280.897 174.848 276.294C172.454 276.294 173.297 273.052 170.022 273.896C169.505 279.65 169.62 272.458 166.421 273.896C165.023 275.296 165.081 278.097 165.234 281.031ZM156.807 294.227C160.982 293.172 160.944 296.145 159.201 297.813C165.579 300.019 169.16 291.331 164.027 289.432C164.621 294.323 159.89 289.624 162.782 288.224C158.09 287.533 157.497 290.928 156.807 294.227Z" fill="#EAF0F5"/>
<path d="M459.868 235.597C463.143 237.63 469.291 241.485 465.901 246.376C461.247 245.686 456.977 239.989 459.868 235.597Z" fill="#EAF0F5"/>
<path d="M511.578 237.974C524.831 243.421 515.696 263.847 516.347 277.426C512.67 279.344 508.476 280.763 506.771 284.618C507.767 296.74 513.398 304.277 522.361 308.535C523.143 311.499 523.108 314.621 522.258 317.566C521.408 320.512 519.776 323.171 517.535 325.26C518.128 334.198 515.62 340.201 511.559 344.439C509.51 340.949 510.2 334.6 509.146 330.112C504.626 331.57 507.652 337.458 506.771 340.891C506.12 343.25 504.109 345.092 503.132 346.894C502.156 348.697 502.673 352.783 499.532 351.632C499.532 346.434 499.934 340.891 498.344 337.305C493.94 338.149 496.64 345.993 495.931 350.443C493.691 353.032 492.101 356.331 489.918 358.824C487.16 356.772 489.458 349.695 488.711 345.686C482.965 344.842 482.582 351.593 480.284 354.029C477.014 357.234 473.383 360.047 469.463 362.411C466.265 363.619 465.48 367.206 463.431 369.565C457.34 365.556 459.983 350.634 469.463 351.632C468.123 349.714 463.928 349.886 462.243 350.443C461.994 350.443 462.492 352.629 462.243 352.84C461.19 353.876 458.796 353.339 457.455 354.029C453.625 355.947 451.365 359.131 447.879 360.032C447.439 352.035 449.22 346.242 452.667 342.042C455.438 341.39 458.323 341.39 461.094 342.042C461.343 335.713 448.588 338.494 446.692 340.891C443.8 335.598 449.967 329.057 453.874 326.526C458.049 325.567 458.949 327.868 461.094 328.904C464.177 328.616 459.447 326.871 461.094 324.128C468.123 323.112 469.521 327.715 474.309 328.904C483.885 326.813 490.262 321.616 495.989 315.785C496.544 305.889 490.243 300.441 483.923 294.266C479.25 289.567 473.16 286.863 471.915 278.673C471.57 276.275 473.715 260.203 475.554 255.964C475.898 255.101 478.139 253.854 479.154 252.358C482.333 247.621 481.74 247.276 488.73 244.034C498.957 239.24 503.592 244.418 512.766 249.961C516.405 246.72 511.578 241.675 511.578 238.031" fill="#EAF0F5"/>
<path d="M328.753 239.144C332.584 238.607 333.446 240.909 335.993 241.542C337.908 241.043 337.046 237.706 340.838 239.144C340.838 240.353 342.275 240.103 343.213 240.353C343.711 242.846 342.37 243.556 341.968 245.148H364.951C366.751 245.8 365.448 241.906 366.157 241.542C367.249 241.043 368.206 243.901 368.551 243.939C371.788 244.4 368.896 240.103 373.377 240.353C371.462 245.397 380.061 240.103 378.165 245.148H401.014C404.155 244.898 399.367 243.095 401.014 240.353C402.412 240.544 403.159 240.103 403.446 239.144C405.84 238.761 407.276 239.394 407.046 241.542C410.877 241.753 411.088 238.396 415.473 239.144C415.071 241.945 414.229 244.342 411.873 245.148C412.926 247.296 415.224 248.197 414.267 252.34C413.959 252.672 413.585 252.937 413.17 253.119C412.755 253.3 412.307 253.393 411.854 253.393C411.401 253.393 410.953 253.3 410.537 253.119C410.122 252.937 409.749 252.672 409.44 252.34C409.881 275.106 403.81 291.39 395.019 304.969C401.109 307.155 390.729 307.922 395.019 310.953C393.372 312.871 388.699 311.816 388.986 315.709C387.703 315.402 388.201 313.312 386.592 313.312C382.206 314.654 379.525 317.953 375.771 320.504C365.313 327.53 353.981 333.152 342.064 337.229C342.619 339.53 345.569 339.415 344.515 343.213C341.279 345.131 339.919 345.955 337.276 343.213C334.441 343.558 335.035 347.356 331.301 346.818C333.216 339.914 330.4 340.317 330.094 333.623C331.498 332.668 333.195 332.247 334.882 332.434V296.587C334.882 295.072 333.388 296.089 333.695 296.587C331.952 293.423 335.131 291.044 330.094 290.584C330.247 287.592 333.235 289.031 333.695 286.998C333.848 286.192 330.151 282.74 334.882 283.449V253.529C334.537 250.978 331.645 255.274 330.094 252.34C329.902 249.348 329.845 246.586 332.488 246.337C331.396 243.843 328.811 242.808 328.849 239.144M337.276 247.545V294.19C337.276 309.668 336.28 323.65 338.483 337.229C354.685 330.842 372.535 321.597 384.198 312.104C389.197 308.258 393.301 303.369 396.226 297.776C405.176 282.651 408.974 265.021 407.046 247.545H337.276Z" fill="#EAF0F5"/>
<path d="M305.943 340.796C302.84 341.41 293.169 339.511 293.877 332.473C283.441 330.267 273.627 325.759 265.149 319.277C261.515 316.557 258.29 313.327 255.573 309.687C250.939 304.048 243.661 287.918 243.508 276.181C243.508 267.646 247.051 258.804 238.72 253.453C240.482 247.219 246.859 245.57 249.541 240.334C251.896 244.17 259.519 248.274 264 248.658C274.476 249.617 286.446 239.586 296.463 240.334C311.976 241.485 310.884 255.965 310.884 276.181C310.884 290.661 311.382 307.443 310.884 322.825C310.635 330.497 312.531 338.84 306.096 340.739M300.063 245.129C283.708 245.129 277.273 255.102 257.929 252.264C254.003 251.612 249.866 246.817 245.921 249.866C241.975 252.916 245.327 252.858 245.921 254.661C246.976 257.375 247.777 260.181 248.315 263.043C248.966 267.09 247.97 271.04 248.315 274.991C250.9 305.391 269.861 321.579 297.631 328.809C297.976 330.401 299.316 331.053 298.818 333.604C299.029 335.81 302.917 334.314 303.606 336.002C303.855 329.711 303.319 323.113 303.606 316.822C304.564 297.508 307.092 278.079 304.813 260.645C301.672 280.976 302.017 304.758 298.818 325.223C296.08 322.979 292.039 323.669 289.242 322.825C288.783 322.825 287.442 320.677 286.848 320.428C282.712 318.721 275.357 316.227 273.576 314.482C272.791 313.677 272.178 314.041 271.182 313.274C261.766 305.298 255.393 294.308 253.141 282.165C252.547 277.677 253.792 270.887 253.141 265.44C252.49 259.993 249.904 257.25 250.747 253.453C257.653 256.027 265.088 256.851 272.389 255.85C282.999 254.565 290.679 246.913 297.669 248.658C302.496 249.924 301.902 253.606 306.096 257.059C306.384 250.768 303.396 247.776 300.063 245.129ZM289.242 254.719C291.579 261.163 296.329 265.21 300.063 270.254C300.753 263.062 298.359 260.07 300.063 254.719C298.571 253.395 296.647 252.664 294.653 252.664C292.659 252.664 290.735 253.395 289.242 254.719ZM298.818 276.238C298.072 266.994 290.698 264.404 287.998 257.059C286.465 257.059 286.351 255.505 284.416 255.85C288.23 263.277 293.079 270.122 298.818 276.181M298.818 284.581C299.431 278.233 294.031 274.991 291.598 271.443C288.553 266.994 286.216 262.793 283.171 258.248C281.677 258.248 281.524 256.713 279.571 257.059C284.948 266.896 291.369 276.123 298.723 284.581M279.571 266.648C285.508 275.433 292.039 283.91 297.631 291.754C297.823 284.677 292.134 280.419 289.204 276.181C285.624 271.252 282.423 266.059 279.628 260.645C277.943 260.357 277.598 258.727 276.047 258.248C274.457 261.105 277.962 264.251 279.628 266.648M297.689 298.908C295.773 290.661 290.028 284.677 285.661 278.578C281.294 272.479 276.889 265.939 272.408 259.398C271.01 259.552 269.018 259.187 268.807 260.588C279.743 272.095 286.714 287.439 297.689 298.947M277.234 286.998C283.669 296.089 288.515 305.736 296.386 313.312C296.386 307.884 291.847 304.087 289.166 300.136C284.435 293.193 279.896 286.71 275.951 280.956C271.316 274.263 266.873 268.432 262.736 261.777C261.185 261.777 261.032 260.223 259.097 260.568C263.885 270.158 271.163 278.405 277.139 286.883M274.745 274.915C275.396 276.008 275.147 277.35 275.951 278.501C277.043 280.093 279.647 281.647 280.739 283.296C281.543 284.447 281.18 285.885 281.927 286.883C287.174 293.672 291.713 299.829 296.386 306.062C297.631 300.615 292.652 297.508 290.353 294.113C287.825 290.182 285.527 286.672 283.133 283.335C277.952 276.42 273.138 269.237 268.712 261.815C267.179 261.815 267.065 260.262 265.13 260.607C266.682 266.361 272.599 271.558 274.706 274.953M257.853 278.54C259.557 291.831 270.474 306.753 279.494 310.857C279.954 311.049 280.203 312.948 280.701 313.235C285.122 315.846 290.055 317.468 295.16 317.992C293.318 313.695 290.881 309.679 287.921 306.062C286.983 305.046 286.485 303.454 285.527 302.456C284.569 301.459 285.144 301.306 284.34 300.059C282.041 296.664 278 293.461 275.913 290.469C274.323 288.283 273.863 285.579 272.274 283.335C271.896 282.908 271.493 282.505 271.067 282.126C270.129 281.129 269.688 279.537 268.673 278.54C267.658 277.542 267.237 275.989 266.279 274.953C265.322 273.917 264.843 272.402 263.885 271.405C261.204 268.547 259.614 265.21 256.665 263.004C258.848 267.147 257.259 273.841 257.853 278.54Z" fill="#EAF0F5"/>
<path d="M200.11 352.88C197.103 353.033 194.364 353.072 192.87 351.691C189.883 352.535 195.111 354.875 194.077 357.675C181.111 359.363 175.672 353.628 174.925 343.348H180.843C181.034 340.739 176.591 342.791 174.81 342.101C172.761 340.605 174.81 334.947 171.209 334.947C164.774 336.098 164.583 343.539 162.783 349.293C155.409 344.249 162.783 335.868 161.595 326.566C159.401 328.465 157.707 330.875 156.662 333.584C155.617 336.293 155.252 339.218 155.601 342.101C147.729 337.306 155.064 326.623 154.356 318.222C151.368 323.171 147.518 327.371 147.174 334.947C141.696 330.919 145.929 318.529 147.174 313.428C144.78 305.391 135.817 303.991 130.32 299.062C128.405 290.815 135.759 291.716 136.353 285.924C133.71 276.929 128.137 270.983 114.673 272.728C113.179 268.797 114.271 266.974 112.279 263.139C109.578 258.152 104.101 258.152 103.852 253.549C103.603 248.946 108.18 243.46 117.105 242.827C116.76 247.258 110.728 246.069 111.072 251.151C111.877 253.395 112.662 250.499 113.466 250.001C121.751 244.854 131.403 242.353 141.141 242.827C146.733 245.915 150.87 253.395 154.356 260.741C156.156 264.443 159.603 268.643 159.201 275.068C158.703 283.105 151.176 285.962 150.774 294.248C154.011 301.133 160.197 305.756 165.177 311.011C170.156 316.266 174.752 321.445 180.843 325.357C182.624 339.128 195.954 341.43 199.995 352.861" fill="#EAF0F5"/>
<path d="M185.669 248.735C186.167 253.587 185.209 257.078 180.881 257.135C177.587 257.979 178.43 254.738 176.036 254.738C174.235 247.987 181.532 245.8 185.612 248.735" fill="#EAF0F5"/>
<path d="M468.275 248.735C468.773 253.587 467.835 257.078 463.487 257.135C460.193 257.979 461.055 254.738 458.661 254.738C456.861 247.987 464.138 245.8 468.237 248.735" fill="#EAF0F5"/>
<path d="M362.441 277.445C365.486 275.297 365.831 270.445 369.681 269.064C369.47 267.664 367.478 268.047 366.042 267.855C365.582 265.937 366.98 265.611 368.474 265.458C367.938 263.54 364.644 264.46 366.042 260.72C372.573 261.066 374.067 259.071 379.295 260.72C379.295 267.759 380.502 276.237 375.656 278.634C377.054 284.676 378.05 296.625 386.534 291.772C385.539 287.323 382.283 291.772 380.502 289.375C380.195 285.539 381.938 283.621 385.29 283.429C385.29 281.089 380.904 273.341 381.689 269.064C383.049 261.507 389.618 257.172 396.11 264.269C397.298 272.248 391.571 273.341 391.322 279.843C386.228 276.851 387.492 267.855 390.116 264.269C387.626 261.871 387.722 264.806 385.29 265.458C383.049 278.251 395.21 286.977 386.534 295.378C383.547 295.512 380.789 295.57 379.295 294.17C375.618 294.17 378.108 300.211 374.469 300.154C377.207 303.414 378.606 304.412 376.901 309.743C373.913 308.9 372.075 314.04 369.681 312.103C368.474 312.103 368.723 313.599 368.474 314.5C367.191 315.497 366.195 313.292 366.042 313.349C365.333 313.349 364.682 315.689 364.835 315.747C363.188 315.651 364.586 313.829 363.648 313.349C362.709 312.87 361.158 314.442 361.254 314.5C359.952 313.905 360.047 311.642 357.653 312.103C357.462 309.993 359.109 309.609 358.86 307.346C364.95 308.458 367.631 308.746 370.868 304.949C371.079 301.957 368.953 301.113 367.229 300.154C368.228 297.045 369.88 294.187 372.075 291.772C372.075 286.728 370.715 284.829 367.229 281.032C364.491 280.648 365.927 284.484 363.648 284.638C361.905 281.837 355.317 287.073 352.827 284.638C352.827 284.484 352.923 282.24 352.827 282.24C350.586 282.24 350.471 285.884 347.982 284.638C346.181 281.837 348.441 279.497 346.794 278.634C349.035 275.738 353.919 280.284 358.86 278.634C358.771 277.355 358.355 276.12 357.653 275.048C357.155 274.492 355.566 274.3 355.221 273.839C354.225 272.497 356.064 269.313 352.827 270.253C353.631 267.357 355.259 264.115 350.433 264.269C352.348 261.814 353.229 258.265 357.653 258.323C355.164 268.661 365.889 269.831 362.441 277.503" fill="#EAF0F5"/>
<path d="M220.544 292.983C220.544 294.133 219.051 293.942 218.15 294.191C218.438 295.495 220.544 294.977 220.544 296.588C220.985 298.641 219.587 298.832 218.15 298.986C219.491 300.424 221.54 301.134 220.544 304.931C217.787 302.879 213.803 302.074 208.517 302.572C208.693 300.801 208.455 299.013 207.824 297.349C207.192 295.685 206.184 294.19 204.878 292.983C207.119 289.147 211.218 287.229 212.118 282.204C214.205 283.297 216.752 284.908 214.512 286.999C215.201 289.741 216.427 285.541 218.15 288.188C216.408 293.788 218.342 289.185 220.544 292.983Z" fill="#EAF0F5"/>
<path d="M433.399 283.41C433.246 288.263 438.839 287.956 439.432 291.811C439.834 294.515 437.517 294.113 437 295.398C436.042 297.948 438.149 300.442 435.793 302.552C430.469 301.593 428.611 304.143 423.785 303.741C421.736 301.343 426.179 299.905 426.179 300.154C426.179 298.85 423.632 299.349 423.785 297.757C423.938 296.165 426.62 294.554 424.972 290.603C426.888 290.852 430.412 292.406 427.366 289.414C424.972 287.016 427.711 288.915 429.818 287.016C431.063 285.865 430.412 281.627 433.399 283.41Z" fill="#EAF0F5"/>
<path d="M370.868 292.981H366.08V300.174C364.988 300.73 363.897 301.229 363.648 302.571C361.407 301.267 359.703 302.571 357.653 302.571C358.304 302.571 355.355 302.283 356.408 302.571C354.857 302.168 356.217 300.653 355.221 300.174C354.225 299.694 352.578 301.171 352.827 301.382C350.625 299.924 352.023 296.127 346.794 298.985C348.192 295.149 347.139 294.727 349.226 290.584C352.023 292.502 354.359 295.091 358.802 295.379C360.986 293.979 359.741 289.145 361.196 286.997C366.521 286.901 370.159 288.436 370.772 292.981" fill="#EAF0F5"/>
<path d="M455.041 294.188C462.702 310.721 440.39 314.864 438.187 302.57C436.694 294.035 446.863 287.092 455.041 294.188Z" fill="#EAF0F5"/>
<path d="M204.899 294.19C212.559 310.819 190.19 314.712 188.045 302.572C186.647 294.593 195.706 287.784 204.899 294.19Z" fill="#EAF0F5"/>
<path d="M135.165 304.931C132.12 307.481 133.077 314.022 129.132 315.671C123.157 316.822 122.697 312.468 118.311 312.065C114.327 315.307 115.668 323.803 106.303 321.655C104.388 325.491 107.05 326.795 108.697 330.056C108.984 334.352 105.096 334.39 105.096 338.38C105.747 342.216 112.029 340.298 114.672 341.985C118.503 346.627 120.992 351.326 118.254 356.37C113.466 365.001 95.2714 362.853 99.006 346.78C100.41 345 102.017 343.391 103.794 341.985C103.89 335.138 94.218 337.996 94.218 331.245C95.0032 326.392 97.2057 322.998 103.794 324.053C105.096 318.107 99.7146 309.725 108.639 307.27C112.929 307.021 113.025 310.915 117.066 310.915C120.705 308.517 121.203 303.032 125.493 301.325C130.166 301.018 129.917 305.602 135.069 304.911M121.816 308.498C126.738 308.114 122.448 311.01 123.003 313.254C128.194 314.75 133.824 310.55 130.243 307.251C128.845 310.704 128.845 305.333 130.243 304.911C126.412 303.109 121.854 303.511 121.816 308.498ZM105.001 316.841C109.54 315.096 107.299 320.14 110.995 319.238C112.776 318.893 116.166 314.194 113.427 313.254C110.784 316.151 114.481 310.358 112.183 309.649C106.743 309.061 104.349 311.458 105.001 316.841ZM96.5737 328.828C96.1715 333.22 98.4889 334.928 101.362 335.963C100.825 330.324 102.856 333.777 105.001 334.774C106.111 331.725 106.916 328.023 103.756 326.431C102.951 332.722 101.611 324.513 97.7803 326.431C97.5313 327.332 97.7802 328.771 96.5737 328.828ZM107.395 343.156C107.299 343.156 107.548 345.515 107.395 345.553C105.805 346.109 104.598 344.153 103.756 344.364C103.258 344.517 102.664 347.164 101.362 346.761C100.021 356.102 104.005 360.187 113.427 358.749C120.609 350.943 116.224 342.657 107.395 343.156Z" fill="#EAF0F5"/>
<path d="M242.129 328.867C242.129 332.453 239.984 333.911 237.341 334.851C233.205 335.349 233.702 331.264 231.308 330.075C232.553 323.669 239.889 322.978 242.129 328.867Z" fill="#EAF0F5"/>
<path d="M412.965 328.867C412.965 332.454 410.819 333.911 408.177 334.851C401.684 335.311 402.182 325.031 406.97 324.072C410.571 324.072 412.007 326.22 412.965 328.867Z" fill="#EAF0F5"/>
<path d="M228.953 353.973C231.692 353.321 227.498 352.055 230.141 350.386C237.035 349.12 234.68 357.022 240.962 356.37C242.36 356.179 242.015 354.222 242.168 352.784C239.027 349.926 233.895 349.082 233.741 343.194C240.674 345.246 237.878 337.709 239.774 334.812C245.213 335.407 242.513 344.057 249.35 343.194C250.25 348.833 247.665 351.039 245.769 353.935C248.067 356.179 247.914 353.244 251.744 353.935C251.955 348.603 251.744 343.693 249.35 340.797C254.291 336.769 256.283 345.803 255.383 351.537C259.435 350.971 263.451 350.171 267.41 349.14C267.315 350.885 267.2 352.535 268.598 352.746C265.668 355.028 259.022 353.589 255.383 355.143V362.316C260.573 361.472 260.075 355.028 266.204 355.143C265.61 362.815 273.692 354.644 275.78 359.938C275.167 365.078 265.055 362.527 269.747 369.528C261.818 371.292 262.086 361.089 256.532 367.13C256.724 372.539 265.763 369.048 264.959 375.473H261.32C262.22 378.964 267.851 377.832 267.353 382.666C266.319 381.85 265.03 381.429 263.714 381.477C263.063 385.907 267.449 388.42 264.959 391.066C262.163 389.417 258.218 388.957 258.926 383.874C256.436 384.564 255.096 387.269 252.893 385.063V377.813C252.242 375.128 250.978 379.271 249.293 376.624C249.503 373.229 251.495 371.618 251.687 368.223C243.26 367.073 249.005 378.408 250.499 381.419C245.156 385.504 242.724 376.471 243.317 370.621C237.974 369.777 229.413 375.723 230.045 367.073C234.986 367.188 239.927 367.322 243.317 365.884C242.314 364.499 241.869 362.787 242.072 361.089C237.227 360.628 236.576 364.33 233.646 365.884C232.286 360.283 228.513 363.831 225.257 365.884C223.61 365.481 224.261 362.892 224.07 361.089C222.154 358.691 216.83 359.497 215.643 356.294C216.141 352.458 224.625 356.447 222.825 350.31C226.655 349.754 227.766 351.806 228.858 353.896M246.899 358.691V364.694C249.159 364.925 249.542 363.333 251.687 363.486C251.036 361.741 253.142 357.291 250.499 357.483C250.289 358.883 248.584 358.787 246.899 358.691Z" fill="#EAF0F5"/>
<path d="M403.37 334.832C407.641 334.237 403.868 347.759 409.346 342.024C414.038 348.718 402.566 349.696 402.106 355.2C407.354 359.899 408.407 350.31 412.927 350.405C416.872 352.323 415.187 352.611 421.373 350.405C419.975 357.905 424.763 352.323 428.593 355.2C429.589 362.143 417.868 356.447 420.166 364.79C416.834 365.385 409.844 359.899 412.927 364.79C409.652 368.377 407.392 360.782 403.351 361.184C398.314 367.437 409.422 367.82 415.359 367.188C415.512 369.316 413.865 369.719 414.152 371.982C408.771 372.865 406.932 370.371 402.087 370.774C399.655 374.61 402.24 383.663 394.924 382.704C394.924 377.967 397.318 375.569 397.318 370.774C397.108 370.007 396.627 369.342 395.966 368.901C395.304 368.461 394.505 368.274 393.718 368.377C391.381 369.623 396.763 373.229 394.924 377.966C393.009 378.273 392.817 376.816 391.285 376.72V386.31C387.991 387.211 388.891 383.951 386.497 383.912C384.199 386.463 384.582 391.584 379.258 391.105C378.568 386.808 380.656 385.351 381.652 382.704C381.556 378.465 377.706 385.255 378.07 381.515C377.515 377.679 381.096 378.158 382.839 376.72C382.705 375.32 380.713 375.722 379.258 375.569C380.598 371.733 383.95 369.815 388.834 369.585C390.117 365.135 384.793 367.226 383.988 364.79C381.843 367.379 380.005 370.333 374.412 369.585C379.947 363.985 371.674 364.234 368.379 361.184C370.295 354.893 377.955 361.836 379.2 355.239C384.639 354.587 382.399 361.587 387.627 361.184C389.274 360.839 388.623 358.192 388.834 356.389C387.225 352.841 379.258 355.546 376.806 352.841C376.519 346.512 383.739 351.71 387.627 351.652C391.457 349.101 386.976 338.226 394.867 339.665C393.411 343.002 393.507 347.912 393.66 352.841C394.407 354.452 396.207 355.047 398.448 355.239C398.601 349.907 394.254 349.063 394.867 343.271C401.934 344.709 399.655 336.865 403.293 334.87M397.261 364.79C397.95 360.494 396.801 358.039 393.66 357.598C393.66 361.242 392.971 365.481 397.261 364.79Z" fill="#EAF0F5"/>
<path d="M209.724 349.196C209.724 343.749 214.895 342.157 219.3 344.401C223.131 352.437 212.463 356.945 209.724 349.196Z" fill="#EAF0F5"/>
<path d="M424.992 351.596C424.639 350.111 424.674 348.559 425.094 347.092C425.513 345.624 426.302 344.289 427.386 343.214C434.568 341.814 435.812 348.105 433.418 352.804C428.726 353.552 428.42 353.802 424.992 351.596Z" fill="#EAF0F5"/>
<path d="M286.696 357.559C287.539 364.118 283.153 367.302 278.269 364.771C273.519 358.077 282.253 351.633 286.696 357.559Z" fill="#EAF0F5"/>
<path d="M366.061 364.752C362.231 366.67 359.434 364.388 357.634 361.146C357.634 350.866 372.285 356.447 366.061 364.752Z" fill="#EAF0F5"/>
<path d="M316.822 365.942C321.418 367.86 318.22 367.86 322.855 365.942C322.702 368.896 324.31 367.994 324.042 365.942C326.647 365.75 327.873 366.901 327.643 369.547C327.951 369.215 328.325 368.95 328.74 368.769C329.155 368.588 329.603 368.494 330.056 368.494C330.509 368.494 330.957 368.588 331.372 368.769C331.787 368.95 332.161 369.215 332.469 369.547C331.377 373.633 327.241 374.726 327.643 380.269C323.716 379.118 319.542 379.118 315.615 380.269C315.769 375.34 312.877 373.441 310.789 370.679C311.23 369.087 312.934 368.761 313.241 367.093C315.328 370.027 315.424 369.011 316.822 365.884" fill="#EAF0F5"/>
<path d="M319.139 382.685V381.496C326.8 380.786 331.071 386.137 331.166 391.086C331.166 394.327 328.275 399.659 325.172 400.675C314.351 404.013 306.02 386.847 319.139 382.742" fill="#EAF0F5"/>
<path d="M277.063 386.27V392.273C275.758 393.477 274.049 394.145 272.275 394.145C270.501 394.145 268.791 393.477 267.487 392.273C265.705 383.93 273.232 382.53 277.063 386.27Z" fill="#EAF0F5"/>
<path d="M373.263 394.652C369.778 394.94 369.127 392.389 367.23 391.046C366.579 386.807 369.146 385.81 370.869 383.854C378.262 382.166 378.702 393.789 373.263 394.652Z" fill="#EAF0F5"/>
<path d="M495.95 25.1007C497.731 25.5993 495.452 26.6542 495.95 28.7064C496.237 30.0107 498.344 29.512 498.344 31.1039C500.68 30.6052 499.282 26.4624 503.17 27.4981C504.223 29.2626 504.128 32.1588 507.958 31.1039C502.078 33.789 506.617 36.0906 510.352 38.2962C512.65 36.8961 507.211 26.1172 513.991 26.309C512.344 23.9691 512.842 19.4619 511.597 16.7192C514.584 18.8673 514.182 13.7272 515.197 13.171C517.227 11.9819 520.234 13.5162 522.418 11.9243C521.575 15.1657 524.907 14.2642 526.018 15.5301C525.118 19.2126 527.263 19.9222 527.206 22.7224C524.16 21.9169 525.559 24.6404 524.812 26.309C524.658 26.6159 522.418 27.3639 522.418 27.4981C522.015 29.4161 525.003 32.6958 523.624 35.8988C521.23 35.8988 522.073 39.1401 518.779 38.2962C518.779 41.7294 525.616 41.0964 527.206 39.447C526.201 38.0647 525.775 36.3443 526.018 34.6521C528.45 39.1401 528.202 33.9041 533.239 34.6521V39.447H536.82C539.578 38.7949 535.384 37.529 538.027 35.8988C539.731 40.0416 542.47 35.7453 545.247 38.2962C546.109 41.5376 542.872 40.6936 542.872 43.0335C543.217 45.8337 546.109 45.8337 546.453 43.0335C548.158 43.0335 547.105 45.3734 547.66 46.6393C548.388 48.423 551.49 48.2312 550.035 51.4342C544.155 49.919 545.4 55.5194 540.459 55.0208C541.397 48.8258 539.463 45.5844 536.801 43.0335C529.274 42.7842 519.353 49.3244 515.178 41.8444C507.039 45.6803 501.102 37.74 497.118 33.5013C490.491 32.8492 486.852 35.1891 486.297 40.6937C480.973 41.1923 483.712 33.6931 479.077 33.5013C478.924 29.6654 485.799 33.0027 483.903 27.4981C484.676 27.6979 485.348 28.1765 485.79 28.842C486.231 29.5075 486.412 30.313 486.297 31.1039C487.293 30.8546 487.504 29.8956 488.691 29.8956C491.028 29.7613 486.776 25.4651 489.898 23.9116C492.636 23.0101 493.728 29.4544 495.931 25.1007" fill="#EAF0F5"/>
<path d="M576.523 118.391C585.045 112.637 594.813 112.906 604.197 117.202C607.115 118.483 609.616 120.555 611.417 123.186C615.081 127.675 617.551 133.019 618.599 138.721C619.289 143.363 617.642 148.906 618.599 154.295C619.398 158.548 621.025 162.602 623.387 166.225C629.133 174.722 639.188 176.467 641.429 187.744C642.731 194.035 642.884 204.239 636.641 205.677C636.641 202.532 637.1 198.888 635.453 197.334C624.824 186.363 612.471 177.119 611.417 156.654C601.19 179.363 621.587 193.345 633.059 206.886C633.749 207.787 637.196 210.223 637.847 211.68C639.762 215.708 644.321 224.109 645.068 229.594C646.772 242.425 641.524 254.528 629.42 259.514C626.279 258.152 631.067 254.873 631.853 253.511C640.031 210.127 593.07 205.332 601.784 161.449C597.015 163.501 592.764 166.052 584.93 165.055C577.27 161.219 575.354 146.873 582.498 141.138C585.084 142.174 580.162 149.519 583.743 151.917C594.755 161.909 608.832 152.128 608.966 141.138C609.119 133.198 599.792 124.202 593.357 123.205C579.606 121.115 568.785 132.987 566.889 142.385C565.338 150.057 566.64 158.822 568.096 165.112C571.428 179.497 583.149 192.079 593.357 203.357C594.87 205.064 596.958 205.505 598.145 206.962C601.349 211.514 604.168 216.326 606.572 221.347C610.269 228.175 614.501 235.31 614.999 244.056C616.205 266.131 602.837 282.76 578.917 279.902C572.793 278.983 567.006 276.514 562.101 272.729C559.171 270.811 554.632 269.123 554.881 265.575C553.272 276.162 565.434 297.682 578.917 285.905C589.125 286.155 589.929 296.991 586.137 305.085C587.19 310.839 593.625 311.222 596.958 314.675C598.509 317.916 598.873 322.347 600.597 325.415C597.398 326.509 593.319 318.261 587.344 318.223C587.229 324.763 594.717 323.651 596.92 327.813C597.111 331.208 599.122 332.8 599.314 336.194C599.563 341.833 596.977 335.542 595.732 334.986C593.683 334.046 589.987 331.457 586.156 331.399C587.152 337 593.683 337.153 595.732 342.178C596.92 345.074 595.732 348.93 596.92 352.919C592.63 351.174 590.791 345.976 586.099 343.329C582.9 346.532 582.364 352.42 582.46 358.922C577.116 366.709 568.651 371.446 564.457 380.441C556.337 377.047 558.328 366.345 564.457 362.509C557.62 361.32 557.984 367.208 554.881 369.701C548.101 368.205 547.22 377.373 542.854 374.438C541.207 370.221 541.207 365.537 542.854 361.32C546.799 361.204 547.45 357.906 552.43 358.922C548.14 353.513 539.464 358.922 534.427 360.111C534.58 351.864 537.97 346.877 544.003 344.576C547.144 344.231 549.135 344.979 548.791 348.124C553.176 347.376 545.995 342.543 549.978 342.178C552.813 339.34 555.915 342.332 559.554 342.178C562.791 341.392 564.131 338.745 566.774 337.403C565.683 326.911 570.011 311.031 561.986 307.482C551.625 308.825 548.178 318.875 537.912 312.277C535.116 310.474 533.373 308.288 529.524 302.687C526.038 297.739 521.863 291.506 521.059 283.508C520.254 274.263 524.889 258.728 523.491 247.604C522.591 242.995 520.962 238.56 518.665 234.466C516.903 231.033 510.87 221.443 506.637 218.93C503.956 217.281 500.26 218.432 498.21 216.552C497.617 215.996 496.621 213.004 495.816 211.757C495.012 210.511 493.48 209.743 493.422 206.962C503.496 206.598 498.21 191.024 502.998 185.424C496.908 186.191 499.704 195.723 496.966 199.808C494.112 201.304 492.522 204.162 487.39 203.357C488.449 206.683 488.563 210.24 487.717 213.628C486.871 217.015 485.1 220.1 482.602 222.536C480.457 218.7 481.453 211.7 480.169 206.962C474.883 210.798 480.323 225.432 474.175 228.482C471.091 225.586 470.996 219.698 470.593 214.136C465.959 215.536 469.099 224.627 468.142 229.671C465.748 230.515 465.403 233.315 463.354 234.466C461.324 230.918 462.013 224.627 460.96 220.139C455.214 221.942 456.076 230.419 453.74 235.674C449.296 238.858 444.815 241.965 441.712 246.453V257.194C436.235 255.487 433.937 250.538 430.891 246.453C430.891 242.061 434.281 241.064 435.679 238.072C432.041 238.57 430.355 242.751 428.459 245.245C426.563 247.738 423.729 249.598 423.671 253.588C416.01 251.804 414.938 233.564 426.065 234.408C425.912 231.761 420.971 233.91 418.826 233.219C414.536 232.222 412.256 239.299 410.456 236.806C410.016 230.822 410.763 225.969 412.85 222.479C413.708 221.874 414.683 221.456 415.712 221.252C416.741 221.047 417.802 221.06 418.826 221.289C419.199 219.549 419.928 217.904 420.966 216.458C422.004 215.013 423.329 213.797 424.858 212.889C430.757 212.582 433.937 214.941 438.073 214.078C442.574 213.196 445.466 208.439 448.894 204.488C452.035 201.036 456.038 197.181 457.321 193.748C462.607 191.408 465.805 186.996 470.593 184.158C471.742 178.404 474.175 172.976 478.963 169.831C484.095 166.474 492.733 168.584 494.629 161.43C495.376 166.129 494.629 174.472 499.417 178.174C502.405 173.513 505.45 169.025 510.238 166.225C511.329 171.768 510.238 179.651 513.877 185.405C519.412 180.169 521.25 171.231 529.524 168.68C530.731 188.818 532.128 211.182 541.551 223.668C543.237 226.008 548.025 228.865 549.921 232.049C553.617 238.244 553.368 246.683 555.954 252.379C557.048 254.055 558.251 255.657 559.554 257.174C561.131 259.906 563.173 262.34 565.587 264.367C567.617 266.016 572.118 267.8 575.163 270.351C594.315 273.439 605.289 263.964 605.231 248.774C605.061 245.088 604.251 241.46 602.837 238.052C601.842 236.556 600.922 233.795 600.443 233.258C597.809 231.039 594.99 229.05 592.017 227.312C582.249 224.761 575.623 229.23 571.582 235.655C570.375 241.198 573.114 242.886 573.976 246.434C564.936 244.382 561.393 237.746 561.948 230.86C563.001 217.434 583.992 211.68 594.506 221.27C596.058 219.352 592.706 217.434 590.867 215.267C587.631 211.431 579.376 204.181 569.226 205.677C567.311 205.984 566.334 207.595 564.438 208.075C561.986 209.225 561.852 212.678 562.044 216.475C549.289 213.272 551.932 196.701 563.251 194.937C567.732 194.246 571.524 196.394 576.465 198.543C565.28 182.815 555.915 173.283 556.011 153.049C556.011 143.459 559.363 132.833 563.251 124.394C567.138 115.955 572.96 108.916 574.071 100.477C575.182 92.0384 573.918 83.9829 568.038 80.0895C574.454 77.2893 583.685 85.8434 584.873 93.285C586.386 102.319 581.042 110.048 577.653 115.994C577.404 116.953 576.465 117.202 576.465 118.391" fill="#EAF0F5"/>
<path d="M103.871 139.986C99.8871 142.537 107.529 143.439 106.265 147.179C103.469 151.015 97.5505 157.881 90.6558 157.919C87.6681 157.919 82.229 157.382 81.0799 153.182C93.701 157.67 94.4863 141.252 101.515 136.4C96.1334 135.709 93.0499 144.072 87.0554 144.781C82.8228 145.242 77.1346 144.436 75.0471 138.797C86.7681 142.384 89.0089 127.52 99.1211 125.659C96.7271 123.012 91.9965 126.772 88.3002 128.018C84.2208 129.418 73.4 128.709 72.6531 120.864C76.3494 119.982 74.9512 124.125 78.6859 123.262C86.6722 122.073 88.3577 114.535 96.6888 113.672C93.4521 110.929 85.1976 113.288 79.8734 112.483C77.7858 111.332 77.4411 108.532 75.0471 107.688C77.3453 104.849 78.6859 107.899 81.0799 107.688C87.2085 107.247 91.805 101.589 99.1211 101.742C92.7435 99.7094 83.2823 100.688 81.0799 94.5501C81.6353 91.3663 86.7105 93.5142 90.6558 93.3607C95.7503 93.1497 102.492 90.158 105.077 94.5501C97.5506 106.384 99.3317 130.301 107.471 139.986C106.973 141.751 105.977 139.545 103.871 139.986Z" fill="#EAF0F5"/>
<path d="M467.05 163.865C468.448 164.056 467.74 165.054 467.05 165.016C465.595 170.347 465.748 177.29 465.844 184.195C460.098 186.113 456.823 195.338 451.441 187.743C450.637 194.188 448.09 198.791 441.865 199.73C444.566 194.84 444.47 187.149 444.259 179.4C441.482 184.195 439.682 189.949 435.833 193.746C434.434 189.911 436.292 179.055 437.077 173.416C436.331 170.961 433.094 180.513 432.251 183.006C426.869 180.359 432.04 167.279 428.651 162.637C425.873 175.814 428.267 194.13 427.463 209.32C425.318 211.564 418.634 209.32 419.036 214.115C416.24 189.738 418.596 159.185 417.83 131.643C403.025 129.457 387.627 130.454 370.926 130.454H323.985C321.802 145.932 322.74 162.062 322.74 179.477V228.519C347.638 232.106 380.885 227.311 405.764 230.916C405.457 235.27 399.539 233.16 397.337 233.314C375.044 234.369 346.527 232.508 322.74 233.314V351.709C374.451 339.281 414.669 315.498 417.772 254.795C420.779 255.792 422.464 258.075 426.199 258.439C425.356 303.032 396.341 331.187 361.236 348.104C354.956 350.841 348.53 353.229 341.988 355.258C335.112 357.693 328.218 361.242 322.836 361.242C314.409 361.242 303.09 355.756 292.767 351.652C287.73 349.734 282.808 347.816 278.365 345.668C271.774 342.45 265.379 338.844 259.213 334.87C258.121 334.179 257.719 333.182 256.819 332.472C255.919 331.763 254.272 332.069 253.18 331.321C249.776 328.344 246.577 325.14 243.604 321.732C240.056 318.473 236.847 314.862 234.028 310.953C228.793 303.516 225.501 294.885 224.452 285.847C228.685 286.039 229.834 289.28 234.028 289.433C235.426 297.776 239.123 302.859 243.604 308.613C249.006 315.608 255.507 321.677 262.852 326.584C278.71 337.382 299.892 345.227 320.538 351.709V233.314H272.466C256.762 233.314 241.057 232.317 226.751 234.465C224.667 231.528 223.034 228.295 221.905 224.875C220.372 221.417 219.173 217.821 218.324 214.134C215.777 198.062 220.239 176.983 218.324 159.108C217.979 156.25 215.087 160.393 214.723 161.505C212.042 159.146 216.274 153.565 214.723 148.31C204.611 158.609 205.262 179.573 196.682 191.368C191.09 191.752 188.657 189.009 183.467 189.009C183.467 182.776 186.206 176.523 183.467 171.038C185.67 165.84 189.557 160.853 191.837 155.502C193.982 150.611 193.752 146.315 196.682 142.326C198.811 140.028 201.24 138.029 203.902 136.38C208.594 132.736 211.697 131.087 215.93 125.601C219.473 120.96 224.146 111.37 233.971 113.672C239.506 112.118 235.886 119.713 238.759 120.807C246.152 121.248 240.674 118.889 245.998 117.201C277.527 110.054 309.943 107.649 342.179 110.066C361.925 111.658 381.173 112.77 397.529 117.201C399.578 117.814 400.765 120.404 402.317 120.807C405.898 121.804 407.411 120.097 410.743 120.807C415.187 118.889 405.86 121.094 408.35 117.201C411.395 115.455 413.731 113.02 417.925 112.463C419.668 112.329 421.393 112.881 422.735 114.003C424.077 115.124 424.928 116.726 425.107 118.467C428.363 118.754 421.928 113.806 427.559 114.803C439.05 117.661 430.297 128.344 431.14 135.191C432.136 143.227 439.318 147.811 445.562 153.105C451.192 157.861 457.321 165.341 464.714 165.054C466.15 165.245 466.859 164.804 467.108 163.903M271.087 114.803C261.76 116.261 252.05 117.162 244.658 120.807H360.106C373.263 120.807 386.018 121.804 398.601 119.598C362.998 110.008 308.587 109.126 271.087 114.803ZM227.804 130.396C226.425 130.588 226.521 132.314 226.617 133.983V229.67H320.461V130.396H227.804Z" fill="#EAF0F5"/>
<path d="M144.78 139.986C141.294 144.723 149.223 142.825 153.207 142.326C153.743 138.49 150.161 138.989 148.361 137.589C148.668 133.043 152.192 131.835 153.207 127.999C157.841 128.152 157.937 132.832 161.576 133.983C163.032 130.147 168.317 130.243 170.06 126.791C173.642 130.837 168.413 136.38 170.06 142.326C170.558 146.68 173.105 148.08 171.209 151.916C159.431 153.719 147.978 153.412 137.54 156.711C130.263 159.012 124.536 164.248 117.105 165.092C116.032 164.011 115.25 162.675 114.832 161.21C114.413 159.744 114.372 158.196 114.711 156.711C112.552 151.934 109.714 147.496 106.284 143.534C107.721 141.425 114.903 143.63 117.105 144.723C120.246 143.074 120.495 138.528 121.931 135.134C124.536 136.879 128.366 137.435 130.32 139.928C131.565 135.536 136.449 134.827 137.54 130.339C140.796 131.489 143.726 132.985 147.116 133.925C148.553 137.071 144.818 140.964 147.116 141.079C146.714 142.767 145.01 141.175 144.722 139.928M157.937 142.268C160.733 140.35 168.202 142.92 167.513 137.531C165.176 137.128 165.177 139.123 163.932 139.928C163.434 137.627 163.472 134.731 160.293 135.134C161.04 139.334 154.547 138.969 157.899 142.268M129.133 148.272C132.58 148.08 134.17 146.085 137.559 145.893C137.368 144.09 138.019 141.482 136.372 141.098C136.525 148.77 134.016 140.197 130.339 141.098C131.68 145.74 126.107 145.395 129.133 148.272ZM114.73 149.48C115.822 157.152 120.476 149.48 125.551 150.688C125.245 146.987 121.261 146.852 118.312 145.893C118.561 150.727 118.465 150.784 114.73 149.48Z" fill="#EAF0F5"/>
<path d="M314.312 180.609C310.98 178.692 311.018 185.75 313.163 185.347C312.627 187.092 312.072 185.251 310.731 185.347C307.935 190.928 310.329 201.669 309.524 209.264C311.44 211.45 313.355 208.42 315.557 211.661C315.864 214.807 315.117 216.801 311.918 216.456C313.163 219.199 316.055 220.292 315.557 224.837C310.137 221.002 309.275 222.402 302.304 223.648C301.5 219.947 301.5 221.347 302.304 217.645H280.662C278.747 217.204 280.26 220.695 279.456 221.251C278.651 221.807 272.772 216.897 274.668 223.648C272.58 224.396 272.982 220.407 272.235 220.043C269.19 218.604 266.796 224.051 267.447 217.645H245.806C243.316 217.952 245.461 222.9 243.354 223.648C237.973 222.402 235.981 220.043 232.533 224.837C229.259 222.92 232.648 217.799 234.985 217.645C233.893 215.555 230.101 216.111 231.346 211.661C234.181 209.916 233.587 209.168 237.379 210.453V186.536C237.819 184.618 234.334 186.133 233.74 185.347C234.373 184.252 234.795 183.049 234.985 181.799C234.793 180.456 231.787 180.609 232.533 178.154C238.873 178.596 230.005 171.307 237.379 173.417V149.577C236.536 148.445 231.901 150.191 231.346 145.99C231.135 143.401 232.342 142.154 234.985 142.404C233.3 140.486 230.695 139.45 231.346 135.25C235.176 134.655 236.287 136.707 237.379 138.798C239.524 137.743 238.93 133.965 243.354 135.25C243.961 136.101 244.385 137.068 244.6 138.092C244.814 139.115 244.814 140.172 244.599 141.195H266.241C267.754 136.65 272.274 142.538 272.235 136.4C275.472 135.614 274.572 138.894 275.874 140.006C276.966 139.258 280.318 137.206 279.456 141.195H301.097C303.3 139.277 300.255 137.36 303.549 135.25C306.69 134.905 308.682 135.652 308.337 138.798C311.267 138.146 310.884 134.214 315.557 135.25C316.113 139.086 314.063 140.102 311.918 141.195C313.278 143.113 315.864 143.689 315.557 147.199C313.412 148.234 312.014 151.034 309.524 148.388C309.639 155.58 308.931 169.485 310.731 173.513C310.98 174.05 312.474 172.765 311.918 172.305C313.623 172.803 311.631 173.801 311.918 175.91C312.378 178.442 314.427 178.097 314.312 180.705M238.586 215.344H307.13V143.593H238.586V215.344Z" fill="#EAF0F5"/>
<path d="M379.296 141.099C389.906 145.932 404.193 126.465 410.552 141.099C409.652 144.935 408.637 148.771 403.332 148.272C403.025 152.108 407.066 151.782 408.158 154.275C407.219 158.514 408.024 158.61 406.913 163.865C405.416 163.159 403.78 162.793 402.125 162.793C400.47 162.793 398.835 163.159 397.337 163.865C395.594 163.616 396.897 160.317 394.943 160.317C395.996 155.982 398.486 159.569 402.125 159.128C402.623 156.634 401.34 155.925 400.938 154.333C396.705 156.078 392.951 160.624 387.723 157.919C387.876 154.985 387.876 152.166 386.516 150.746C385.827 151.092 382.379 154.582 384.084 157.919C384.084 157.919 386.421 159.377 386.516 159.128C383.49 168.104 373.321 160.777 366.081 163.865C363.84 161.065 365.622 159.032 367.269 155.541C370.276 156.519 371.961 158.821 375.695 159.128C378.836 158.284 378.051 153.489 380.483 151.935C379.392 152.683 376.059 154.736 376.845 150.746C370.218 151.686 367.977 157.037 360.048 156.73C358.995 159.224 354.916 158.821 355.26 162.714C354.169 163.213 353.058 160.317 352.809 160.317C351.162 160.317 352.522 162.235 351.621 162.714C350.032 163.52 349.706 161.525 349.227 161.468C347.887 161.468 347.312 163.769 346.776 163.865C346.24 163.961 345.589 162.58 344.382 162.714C342.601 162.925 340.054 163.328 336.013 163.865C335.474 162.753 335.194 161.534 335.194 160.298C335.194 159.062 335.474 157.842 336.013 156.73C340.303 157.421 344.037 158.648 348.021 156.73C348.021 154.525 342.639 153.93 343.195 154.333C339.958 152.089 339.498 150.497 337.219 147.141C337.009 145.74 335.017 146.143 333.58 145.951C334.27 142.25 335.017 138.606 339.594 138.759C340.193 139.621 340.61 140.596 340.817 141.626C341.025 142.655 341.019 143.716 340.801 144.743C343.597 149.596 352.024 148.732 354.015 154.333C356.658 153.125 352.962 148.33 350.415 148.33C349.476 147.083 351.621 146.086 351.621 145.951C351.468 144.897 349.227 144.992 349.227 144.743C349.036 142.403 350.53 139.162 350.415 136.362C354.245 134.808 356.85 136.362 363.63 136.362C363.381 138.51 364.894 142.403 361.236 141.157C361.14 144.436 363.151 143.592 361.236 145.951C374.01 148.291 394.407 147.869 405.764 144.743C405.872 143.95 405.684 143.145 405.235 142.483C404.786 141.82 404.108 141.348 403.332 141.157C400.784 140.6 401.033 142.902 400.938 144.743C399.195 143.746 397.107 142.94 397.337 140.006C391.209 143.65 378.492 149.596 372.057 142.346V136.362C373.972 134.866 377.304 135.057 380.483 135.211C383.663 135.364 390.213 135.805 390.059 138.759C386.708 142.595 382.973 138.759 379.239 141.157M402.068 149.538C399.578 150.228 394.196 148.042 393.641 150.746C396.15 154.026 399.482 152.127 402.068 149.538Z" fill="#EAF0F5"/>
<path d="M303.531 149.575V210.547H243.394V148.367C263.044 149.115 285.834 146.833 303.531 149.575ZM274.688 190.14C276.124 196.585 275.32 199.135 271.03 202.07C268.406 200.037 263.867 202.876 263.867 200.919C263.867 198.963 260.975 200.075 260.267 200.919C260.075 199.538 260.477 197.524 259.022 197.333C259.022 198.886 255.689 198.829 255.44 197.333C257.585 196.738 254.942 196.028 254.234 194.935C257.03 195.28 255.574 191.483 257.834 191.349C261.473 192.538 263.216 195.587 268.655 194.935C270.57 191.943 265.055 187.551 271.03 185.345C273.128 184.931 275.304 185.365 277.082 186.554C278.423 181.26 273.386 182.257 271.03 180.551C270.896 182.008 271.298 184.003 269.843 184.156C268.693 180.205 267.506 185.499 266.261 185.345C264.154 183.427 264.614 187.263 262.661 185.345C262.124 184.808 260.745 187.647 260.267 187.743C260.42 187.743 258.62 185.345 257.834 185.345C257.049 185.345 256.321 188.951 254.234 187.743C253.985 186.247 250.748 181.989 253.046 181.759C259.826 183.504 266.606 176.906 265.055 175.813C264.767 176.715 264.059 177.213 262.661 176.964C262.163 172.764 258.734 173.32 257.834 172.227C258.773 168.832 256.436 171.575 255.44 169.81C254.138 167.528 256.226 163.673 251.84 162.637C253.64 160.834 253.64 157.286 257.834 157.88C258.773 165.667 264.499 168.774 267.41 174.605C267.717 170.117 270.206 167.815 272.256 165.015C269.613 165.207 268.425 164.056 268.617 161.409C274.362 160.911 267.219 161.006 268.617 157.861C271.451 157.017 279.38 155.061 281.87 157.861C283.019 166.357 282.176 169.369 279.438 175.794C280.97 181.548 288.65 193.056 293.897 184.137C291.638 180.992 288.305 188.779 286.658 182.929C285.662 179.093 288.573 179.246 289.052 176.945C283.172 174.394 281.966 158.858 289.052 156.614C293.342 156.365 296.291 157.42 297.479 160.22C298.188 167.297 295.564 170.999 292.691 174.586C291.638 170.75 289.492 163.366 291.446 160.22C287.347 159.357 289.531 164.651 286.658 165.015C286.658 174.95 295.142 176.523 296.234 185.326C295.928 189.622 289.09 191.713 285.413 188.932V193.727C288.248 193.324 289.895 191.809 293.84 192.519C293.798 193.823 294.219 195.101 295.027 196.124C292.978 199.212 292.729 203.048 290.239 205.714C289.243 206.673 286.754 206.27 286.6 208.073C285.164 207.114 281.41 206.27 279.38 208.073C282.617 210.471 289.895 208.821 295.027 209.262C298.073 208.572 296.617 205.426 297.421 204.467C298.226 203.508 299.337 205.925 299.815 205.714C300.294 205.503 299.624 202.818 301.003 203.336V186.554C300.217 186.655 299.422 186.468 298.763 186.028C298.105 185.587 297.628 184.922 297.421 184.156C299.471 179.707 296.732 182.238 296.234 178.211C301.156 179.361 294.031 171.018 301.003 172.227C300.62 165.418 302.401 156.48 298.628 153.047C298.264 154.965 296.923 153.047 297.421 150.65C291.484 151.263 286.198 149.806 281.812 150.65C279.572 151.11 280.07 152.702 276.986 154.198C277.12 154.198 275.78 152.28 274.592 153.047C273.979 153.411 274.784 155.847 273.386 155.445C273.137 151.11 269.249 154.543 268.559 154.198C266.165 153.2 266.759 151.11 263.771 150.65C259.481 149.959 254.847 151.11 249.312 150.65C252.644 155.694 246.764 153.354 246.918 153.047C244.868 156.883 244.773 165.878 245.711 170.98C245.922 172.073 249.312 173.32 249.312 175.775C249.312 176.216 247.396 176.465 248.105 178.172C248.354 178.767 251.935 178.172 250.499 180.512C246.209 178.268 250.154 182.43 249.312 184.118C248.316 186.266 246.209 185.902 245.711 188.913C245.078 194.527 245.487 200.21 246.918 205.676C251.342 205.043 249.963 203.585 249.312 208.035C253.487 209.953 260.267 209.07 266.165 209.224C266.649 207.856 267.473 206.635 268.559 205.676C273.347 208.322 271.49 203.086 274.592 203.297C274.228 203.297 275.435 205.541 275.78 205.676C276.833 206.078 278.327 205.33 279.38 205.676C279.725 201.648 286.256 203.758 286.6 199.692C284.513 197.352 278.269 199.193 278.174 194.897C276.622 191.905 280.874 189.143 278.174 188.913C277.982 190.313 276.259 190.198 274.592 190.102" fill="#EAF0F5"/>
<path d="M379.296 170.981C389.81 175.737 404.328 156.596 410.552 170.981C410.111 175.737 407.066 177.886 403.332 179.382C403.619 181.472 405.419 182.124 408.158 181.779C406.76 185.922 408.522 187.725 406.913 193.709C405.414 193.008 403.78 192.644 402.125 192.644C400.471 192.644 398.836 193.008 397.337 193.709C395.594 193.459 396.897 190.16 394.943 190.16C396.992 186.766 398.084 189.01 402.125 188.971C400.631 179.727 394.752 191.215 388.91 188.971C386.995 187.36 388.527 182.182 386.516 180.571C384.888 181.932 382.935 186.574 385.271 188.971H386.516C383.375 197.947 373.455 190.621 366.081 193.709C361.983 191.158 367.633 188.204 367.269 185.366C370.869 186.171 371.463 189.969 376.845 188.971C378.76 187.264 378.147 183.026 380.483 181.779C379.392 182.469 376.059 184.56 376.845 180.571C370.62 181.932 367.671 186.574 360.048 186.574C358.995 189.067 354.916 188.607 355.26 192.558C354.169 193.057 353.058 190.16 352.809 190.16C351.162 190.16 352.522 192.078 351.621 192.558C350.032 193.363 349.706 191.369 349.227 191.311C347.887 191.311 347.312 193.613 346.776 193.709C346.24 193.804 345.589 192.404 344.382 192.558C342.601 192.75 340.054 193.152 336.013 193.709C335.474 192.597 335.194 191.377 335.194 190.141C335.194 188.905 335.474 187.686 336.013 186.574C339.843 186.766 344.842 189.355 348.021 186.574C347.829 184.368 346.527 187.264 345.627 186.574C345.397 186.42 344.535 181.664 343.195 182.968V184.176C340.699 182.248 338.659 179.792 337.219 176.984C337.009 175.584 335.017 175.987 333.58 175.776C334.174 171.384 333.58 169.542 339.594 168.583C340.196 169.447 340.614 170.426 340.821 171.459C341.029 172.492 341.022 173.557 340.801 174.587C343.597 179.42 352.024 178.576 354.015 184.176C356.658 182.968 352.962 178.173 350.415 178.173C352.713 174.74 348.289 169.082 350.415 166.186C354.609 163.75 358.708 167.74 363.63 166.186C363.381 168.334 364.894 172.228 361.236 170.981C361.14 174.28 363.151 173.436 361.236 175.776C373.704 177.828 394.905 178.173 405.764 174.587C405.873 173.791 405.685 172.983 405.236 172.318C404.788 171.653 404.109 171.176 403.332 170.981C400.784 170.444 401.033 172.726 400.938 174.587C399.195 173.532 397.107 172.784 397.337 169.792C391.209 173.474 378.492 179.382 372.057 172.189V166.186C374.355 163.654 379.085 165.649 382.877 166.186C385.022 166.55 391.113 164.594 390.117 168.583C386.765 172.419 383.031 168.583 379.296 170.981ZM402.125 179.382C399.635 180.072 394.254 177.885 393.698 180.571C396.456 184.119 399.789 182.22 402.125 179.382Z" fill="#EAF0F5"/>
<path d="M450.254 281.032C449.239 275.489 437.786 277.196 433.4 278.635C434.873 276.163 436.94 274.099 439.413 272.631C438.226 269.448 433.534 269.697 432.193 266.705C432.002 264.096 436.483 266.149 438.226 265.496C439.069 261.852 436.981 261.104 437.039 258.304C439.999 259.619 442.822 261.226 445.466 263.099C443.072 258.899 443.857 249.213 446.653 246.375C448.741 255.005 448.243 266.244 456.229 269.102C456.037 263.655 453.299 260.855 452.59 255.907C457.684 256.463 458.336 261.354 461.017 264.307C463.871 263.905 463.277 260.145 467.05 260.702C465.862 263.157 464.56 265.458 463.411 267.837C465.958 301.094 455.233 321.079 440.582 337.247C441.578 341.39 438.781 341.85 439.375 345.59C437.594 344.593 436.79 342.598 437 339.645C432.155 339.204 430.316 341.754 424.973 340.796C427.807 336.96 433.898 336.212 435.794 331.206C425.126 331.762 419.495 337.343 416.546 345.533C413.558 340.144 419.093 333.009 422.521 330.017C422.732 328.099 415.11 328.099 415.359 330.017C411.107 327.255 419.189 326.66 418.94 324.013C418.001 321.021 413.999 320.964 411.72 319.218C413.003 316.533 419.38 318.777 422.521 318.029C425.815 316.974 420.893 314.328 422.521 310.875C426.869 313.733 429.359 318.413 435.794 319.218C438.341 318.873 435.602 314.021 434.549 313.273C437.096 310.78 441.329 316.821 445.427 316.879C452.494 315.517 454.697 309.341 458.623 304.891C460.883 292.252 456.037 280.38 444.163 285.712C441.731 284.312 447.304 280.917 450.215 280.917" fill="#EAF0F5"/>
<path d="M191.683 255.925C192.775 257.843 188.791 264.959 188.044 269.102C194.575 267.184 198.214 256.079 195.265 248.733C199.459 246.24 200.55 257.019 200.11 263.118C201.546 266.397 207.483 265.304 212.118 265.515C212.31 270.042 207.234 269.351 204.898 271.442C207.176 273.154 209.206 275.175 210.931 277.445C209.437 278.481 198.75 276.141 195.265 278.634C195.111 282.47 198.367 282.739 201.297 283.429C198.463 285.788 191.319 283.889 189.289 287.035C180.805 296.51 188.485 313.886 197.659 316.936C203.155 316.744 205.492 313.541 209.724 312.141C209.266 314.631 208.446 317.042 207.292 319.295C214.953 319.736 217.155 314.749 220.545 310.952C224.682 311.604 221.254 315.536 220.545 318.086H232.553C231.73 319.331 230.664 320.398 229.421 321.221C228.177 322.045 226.78 322.61 225.314 322.881C225.122 326.276 228.704 325.873 230.159 327.676C229.604 330.323 224.222 328.175 221.732 328.885C225.007 333.008 230.791 340.22 228.953 345.609C224.471 338.858 220.583 331.627 209.801 331.263C207.618 332.97 211.601 334.658 213.401 336.058C215.546 337.707 219.626 337.976 219.434 340.814C213.938 341.505 205.358 335.674 207.368 345.609C204.477 344.497 204.228 340.814 203.768 337.266C195.092 324.627 184.233 313.292 182.126 295.378C181.222 289.445 180.824 283.446 180.939 277.445C181.284 271.691 182.088 266.455 178.487 260.72C183.524 267.913 186.819 258.668 191.76 255.925" fill="#EAF0F5"/>
<path d="M403.369 253.511C404.154 300.213 376.844 318.875 341.987 330.076C341.623 301.997 341.24 280.209 341.987 252.322C363.82 252.322 383.317 250.232 403.369 253.511ZM397.336 254.72C391.801 253.539 386.129 253.133 380.483 253.511C377.188 257.616 374.584 255.065 370.907 258.306C373.396 253.722 368.819 257.807 367.325 257.117C365.065 256.062 365.582 253.972 362.48 253.511C357.634 252.821 351.812 253.876 346.871 254.72C347.465 259.169 348.92 257.712 344.477 257.117C342.562 263.657 343.385 272.787 343.29 281.034C346.124 284.333 346.622 285.771 346.871 290.624C346.871 289.473 346.584 295.016 346.871 294.172C346.22 295.917 341.738 296.09 343.29 298.967V320.486C344.19 320.774 344.688 321.484 344.477 322.884C347.963 322.577 348.614 323.172 346.871 325.281C360.545 322.922 368.57 314.944 379.429 309.746C378.836 304.759 381.67 303.148 383.011 300.156C386.458 300.348 385.424 296.109 390.25 297.759C395.785 287.133 403.063 272.537 399.826 257.117C395.383 257.712 396.819 259.169 397.432 254.72" fill="#EAF0F5"/>
<path d="M90.6559 386.271C94.4863 384.123 96.0951 394.422 96.6888 399.467C99.236 394.806 99.734 388.132 102.664 383.874C104.12 386.674 100.979 398.412 103.871 403.053C105.92 393.636 106.705 382.78 111.091 375.55C112.202 373.632 112.738 369.949 115.879 370.812C112.24 377.89 112.049 388.438 112.298 399.582C114.845 385.504 121.874 374.514 119.518 358.883C129.305 368.319 119.518 382.397 120.725 397.242C123.463 387.844 125.264 380.21 130.3 372.117C132.848 368.031 136.793 359.132 133.901 350.54C146.12 363.965 126.24 381.802 130.3 394.844C132.905 385.849 136.333 377.717 142.328 372.117C143.918 375.511 138.383 380.153 137.54 386.444C136.938 391.256 137.343 396.142 138.727 400.79C140.777 394.48 140.872 386.194 144.722 381.61C146.254 385.254 143.515 394.096 147.154 398.354C150.161 385.254 152.153 370.927 145.909 359.995C155.485 365.749 156.232 380.019 155.485 395.899C159.316 395.554 158.626 386.616 159.124 382.723C159.967 375.435 161.212 359.458 156.73 352.803C167.992 360.474 165.751 377.429 165.1 394.71C168.241 381.476 170.443 367.283 181.953 362.392C176.821 371.541 169.983 385.216 175.92 398.258C177.836 383.778 179.31 368.933 190.38 363.601C185.19 371.733 180.804 385.159 184.347 398.258C188.044 379.232 193.617 362.047 213.228 358.806C203.652 367.398 189.844 377.583 195.168 397.165C199.707 383.279 204.591 369.834 220.449 367.245C210.126 372.999 200.052 385.178 204.802 401.903C208.383 401.903 208.038 391.66 205.989 389.973C208.479 387.23 211.428 394.058 212.022 397.165C216.963 395.017 213.573 384.775 212.022 381.572C214.722 380.172 219.146 387.172 219.261 392.37C222.843 386.77 218.112 379.175 218.055 373.191C222.859 378.169 226.176 384.394 227.631 391.162C230.523 387.23 227.631 377.544 233.664 376.777C230.58 383.835 234.66 393.118 236.058 399.562C238.452 395.305 233.261 383.279 238.452 379.175C240.367 387.729 241.344 397.069 248.028 400.713V387.403C250.479 392.543 252.624 397.932 255.21 402.919C256.703 400.828 254.367 395.036 256.397 390.989C261.051 394.384 261.683 401.672 267.237 404.127C267.122 401.078 266.586 398.373 264.824 396.992C267.926 393.598 270.014 401.289 273.251 401.73C274.898 401.384 274.266 398.776 274.457 396.992C275.855 398.776 277.943 399.888 278.039 402.919C281.869 403.974 279.686 398.987 282.884 399.39C285.431 398.776 285.182 401.078 285.278 402.919C288.266 403.13 290.258 402.324 291.311 400.541C292.958 400.924 292.307 403.533 292.498 405.335C294.509 407.253 296.444 404.127 298.493 404.127C299.182 404.127 301.174 408.423 304.526 405.335C304.622 408.865 307.265 409.766 309.314 411.319C291.656 413.525 272.925 412.509 252.816 412.509H79.8351C75.3536 406.582 71.5614 395.036 74.9896 385.005C77.1347 390.893 77.7859 398.239 81.0225 402.919C82.6696 396.992 83.8187 390.548 88.2045 387.403C90.3496 388.055 86.9597 393.156 87.0555 395.784C87.6683 399.141 88.8174 401.979 89.4495 405.374C90.5986 400.521 93.4904 391.085 90.6559 386.194" fill="#EAF0F5"/>
<path d="M498.344 359.957C499.282 364.56 495.107 369.394 494.762 375.531C494.36 382.57 498.497 390.165 497.137 398.22C501.676 394.806 500.393 387.48 499.55 381.477C504.472 384.987 505.296 392.524 505.564 400.656C511.808 392.275 505.564 378.389 501.925 371.887C508.858 376.989 513.416 384.373 513.953 395.861C519.334 379.942 500.987 366.555 510.352 350.425C512.152 353.82 510.103 356.524 510.352 360.015C511.463 373.21 524.524 381.112 523.624 397.07C527.321 383.28 515.044 363.908 526.018 352.822C526.765 358.576 525.118 366.401 526.018 373.21C527.11 381.649 532.453 390.223 531.994 398.278C534.847 390.606 533.047 377.353 529.6 371.944C532.549 369.796 534.445 375.492 535.633 377.947C538.333 383.586 540.267 393.483 540.421 403.054C544.251 399.41 542.815 389.321 541.627 383.874C545.821 387.326 547.373 393.464 547.66 400.599C549.575 394.96 550.399 388.17 553.635 383.874C554.995 385.792 553.635 388.88 553.635 392.275C553.75 396.111 555.895 401.059 554.88 405.394C559.17 400.81 557.236 395.804 557.274 388.669C561.871 390.875 563.767 395.765 563.269 402.996C567.808 399.563 568.746 392.524 569.302 385.082C575.488 393.061 569.455 406.794 565.701 412.586H335.974C336.72 409.345 341.011 409.594 340.8 405.394C345.09 409.229 348.097 400.848 350.376 406.602C352.463 406.295 353.057 404.55 352.77 401.807C355.26 401.308 355.968 402.651 357.558 402.996C360.737 403.36 358.496 398.355 362.384 399.41C363.131 400.656 365.142 400.656 364.778 402.996C367.536 402.152 368.379 399.41 369.566 397.012C371.213 397.415 370.562 400.004 370.773 401.807C375.599 401.462 375.101 395.765 380.349 395.861C379.353 398.47 377.265 399.908 377.955 404.204C382.455 401.097 384.639 395.708 387.531 391.066C390.269 393.368 390.269 398.316 388.718 401.807C393.659 399.563 394.061 392.812 395.957 387.48C398.696 389.129 396.398 395.804 397.145 399.41C398.6 401.327 404.672 392.869 405.572 388.669C406.223 385.428 405.074 381.63 405.572 377.89C410.072 381.534 409.708 391.776 407.966 398.22C412.064 393.521 412.447 385.121 412.811 376.682C415.99 379.885 416.642 385.735 416.393 392.275C419.533 386.233 421.334 378.849 425.969 374.284C427.884 377.89 423.019 384.929 424.762 392.275C427.462 388.573 428.114 382.838 431.944 380.288C433.285 382.877 429.301 390.376 430.795 397.012C435.832 396.513 433.897 388.976 439.183 388.669C437.268 391.124 437.268 399.352 439.183 401.807C444.412 394.308 440.773 384.028 436.789 377.89C434.024 373.383 429.768 369.99 424.762 368.3C437.824 366.9 447.361 383.126 448.798 398.163C456.229 381.381 443.167 366.037 431.944 359.804C435.487 358.269 440.677 361.261 444.01 363.409C446.915 365.225 449.371 367.678 451.192 370.583C451.843 371.484 451.69 373.191 452.437 374.131C453.184 375.071 456.478 378.83 457.225 381.323C458.68 386.022 458.623 392.16 459.619 396.859C464.062 391.968 461.917 379.597 459.619 374.131C465.211 379.386 468.984 386.367 468.045 398.067C474.48 389.82 469.96 377.89 468.045 368.204C475.132 373.498 478.426 382.57 478.866 394.519C481.701 384.123 477.813 367.092 486.106 362.201C488.481 364.407 485.244 366.344 484.899 369.393C483.903 377.526 486.642 389.072 488.481 395.708C490.53 382.57 488.729 365.653 498.056 359.804" fill="#EAF0F5"/>
<path d="M358.842 365.941C360.757 366.9 356.754 371.695 356.448 374.322C359.187 375.435 365.775 370.083 373.263 371.944C373.895 376.221 369.912 373.862 368.475 374.322C365.414 375.352 362.631 377.072 360.34 379.35C358.048 381.628 356.31 384.403 355.26 387.46C357.559 388.86 363.879 384.161 364.836 380.268C367.537 382.32 364.089 388.266 362.404 389.858C362.361 390.502 362.457 391.148 362.685 391.751C362.913 392.355 363.267 392.903 363.725 393.358C364.183 393.812 364.732 394.163 365.337 394.387C365.942 394.61 366.588 394.701 367.23 394.653C365.181 397.395 357.999 395.055 354.015 395.861C342.103 400.905 333.523 406.045 315.52 404.185C312.682 404.036 309.862 403.638 307.093 402.996C298.475 400.752 292.04 393.406 278.231 395.861C278.576 393.348 281.43 393.463 283.057 392.255C281.142 388.419 279.016 385.063 278.231 380.268C282.368 382.569 283.977 387.211 289.052 388.669C290.239 385.159 282.962 376.336 277.025 374.322C275.339 373.728 270.207 376.125 270.992 371.944C276.845 371.206 282.777 372.449 287.845 375.473C288.841 370.544 285.509 369.834 285.451 365.883C287.57 367.325 289.574 368.928 291.446 370.678C293.361 368.588 293.093 364.291 293.878 361.088C297.824 362.335 296.483 368.875 298.666 371.886C299.969 374.572 302.305 368.434 305.906 369.489C304.1 371.617 302.74 374.088 301.907 376.754C301.075 379.419 300.787 382.226 301.06 385.005C301.616 386.923 306.25 383.087 307.093 381.457C310.196 383.816 303.856 386.904 305.906 392.198C309.142 408.136 347.829 404.281 337.162 382.608C340.992 382.071 340.36 385.849 343.195 386.214C346.297 380.671 340.552 374.821 339.556 369.489C343.156 369.489 343.654 372.577 346.795 373.018C347.044 367.724 347.083 362.182 351.583 361.088V369.489C354.322 372.078 356.256 367.092 358.803 365.883" fill="#EAF0F5"/>
<path d="M378.108 202.109C387.819 206.194 403.006 187.973 410.552 200.9C411.165 209.34 399.846 211.392 393.756 209.301C394.158 210.836 395.843 211.219 396.15 212.888C400.784 211.488 401.684 210.049 406.97 211.699C407.564 214.537 408.771 220.022 406.97 220.022C405.17 220.022 407.411 221.94 406.97 223.628C402.182 220.387 401.531 226.275 396.15 223.628C396.303 221.48 394.656 221.135 394.962 218.833H402.144C402.489 216.915 400.995 216.781 400.938 215.285C395.192 214.787 395.46 220.176 388.929 218.833C387.474 216.282 387.627 212.197 385.329 210.49C382.284 214.192 388.776 220.329 382.877 223.628C379.047 223.628 376.251 221.269 374.508 224.817C373.071 225.316 373.857 222.727 373.32 222.42C372.325 221.921 370.965 224.817 370.869 224.817C369.184 224.626 368.954 220.981 364.894 223.628C366.809 221.231 364.779 222.132 364.894 218.833C366.924 219.274 367.134 217.874 367.288 216.436C370.869 217.28 372.516 220.022 378.108 218.833C381.498 219.332 375.063 214.384 379.296 214.096C378.989 212.792 376.902 213.233 376.902 211.699C369.969 211.545 368.781 217.184 361.255 216.436C358.791 217.901 356.731 219.957 355.26 222.42C353.115 219.677 350.721 223.475 348.04 223.628C346.125 223.724 345.837 222.228 344.439 222.42C343.501 222.573 342.199 224.817 342.045 224.817C341.298 224.817 338.502 219.773 337.219 224.817C334.768 222.535 334.825 219.639 336.013 216.436C338.617 217.126 345.837 219.274 348.04 216.436C347.676 214.384 343.846 217.989 344.439 212.888C339.249 216.187 339.996 204.947 333.619 205.695C333.37 203.643 335.668 202.607 333.619 202.109C333.121 199.251 339.058 202.742 337.219 198.503C339.307 199.596 341.394 200.747 340.801 204.506C342.888 209.992 351.621 208.898 354.073 214.096C355.988 214.384 356.103 212.945 357.654 212.888C357.118 211.085 356.103 213.348 354.073 212.888C352.158 211.986 354.322 207 350.434 208.093C352.962 205.254 349.381 201.15 349.227 197.314C353.613 194.821 361.695 196.662 363.687 197.314C364.089 199.711 363.438 201.054 361.255 200.9C359.952 203.95 366.885 205.542 361.255 205.695C372.114 208.496 388.067 206.098 400.938 206.904C402.738 206.252 403.983 205.101 405.783 204.506C405.469 203.68 404.981 202.931 404.354 202.309C403.726 201.687 402.973 201.207 402.144 200.9C400.535 201.303 401.129 203.893 400.938 205.695C398.505 205.35 398.544 202.512 397.356 200.9C391.323 204.103 370.122 212.293 372.076 196.106C378.3 192.922 383.337 197.506 390.117 197.314C389.964 199.654 384.773 203.068 382.877 199.711C380.502 199.711 381.383 202.953 378.108 202.109Z" fill="#EAF0F5"/>
</g>
</svg>
