<?xml version="1.0" encoding="utf-8"?>
<!-- Generator: Adobe Illustrator 22.1.0, SVG Export Plug-In . SVG Version: 6.00 Build 0)  -->
<svg version="1.1" id="Layer_1" xmlns="http://www.w3.org/2000/svg" xmlns:xlink="http://www.w3.org/1999/xlink" x="0px" y="0px"
	 viewBox="0 0 88.4 88.4" style="enable-background:new 0 0 88.4 88.4;width: 44.2px;height:44.2px;" xml:space="preserve">
<style type="text/css">
	.st0{opacity:0.6;fill-rule:evenodd;clip-rule:evenodd;fill:#00B6DD;}
	.st1{opacity:0.5;fill-rule:evenodd;clip-rule:evenodd;fill:#00B6DD;}
	.st2{fill-rule:evenodd;clip-rule:evenodd;fill:#00537F;}
</style>
<path class="st0" d="M44.2,0c24.4,0,44.2,19.8,44.2,44.2c0,24.4-19.8,44.2-44.2,44.2C19.8,88.4,0,68.6,0,44.2C0,19.8,19.8,0,44.2,0z
	"/>
<path class="st1" d="M44.2,5.2c21.5,0,39,17.5,39,39c0,21.5-17.5,39-39,39c-21.5,0-39-17.5-39-39C5.2,22.7,22.7,5.2,44.2,5.2z"/>
<g>
	<g>
		<path class="st2" d="M44.2,10.4c-18.7,0-33.8,15.1-33.8,33.8C10.4,62.9,25.5,78,44.2,78S78,62.9,78,44.2
			C78,25.5,62.9,10.4,44.2,10.4z"/>
	</g>
</g>
</svg>
