<svg width="24" height="22" viewBox="0 0 24 22" fill="none" xmlns="http://www.w3.org/2000/svg">
<path d="M23.1187 18.9998L13.7717 1.1498C13.6023 0.82654 13.3477 0.555794 13.0354 0.36689C12.7231 0.177986 12.3651 0.078125 12.0002 0.078125C11.6352 0.078125 11.2772 0.177986 10.965 0.36689C10.6527 0.555794 10.3981 0.82654 10.2287 1.1498L0.880673 18.9998C0.720994 19.3046 0.642677 19.6455 0.653296 19.9895C0.663915 20.3335 0.76311 20.6689 0.941289 20.9633C1.11947 21.2577 1.3706 21.5012 1.67041 21.6702C1.97021 21.8391 2.30854 21.9279 2.65267 21.9278H21.3467C21.6908 21.9279 22.0291 21.8391 22.3289 21.6702C22.6287 21.5012 22.8799 21.2577 23.0581 20.9633C23.2362 20.6689 23.3354 20.3335 23.3461 19.9895C23.3567 19.6455 23.2784 19.3046 23.1187 18.9998ZM10.9997 7.4228C10.9997 7.15758 11.105 6.90323 11.2926 6.71569C11.4801 6.52816 11.7345 6.4228 11.9997 6.4228C12.2649 6.4228 12.5192 6.52816 12.7068 6.71569C12.8943 6.90323 12.9997 7.15758 12.9997 7.4228V13.4228C12.9997 13.688 12.8943 13.9424 12.7068 14.1299C12.5192 14.3174 12.2649 14.4228 11.9997 14.4228C11.7345 14.4228 11.4801 14.3174 11.2926 14.1299C11.105 13.9424 10.9997 13.688 10.9997 13.4228V7.4228ZM12.0497 18.9328H12.0217C11.6273 18.9315 11.2487 18.7778 10.9651 18.5039C10.6814 18.2299 10.5146 17.8569 10.4997 17.4628C10.4925 17.2668 10.5244 17.0713 10.5936 16.8878C10.6628 16.7043 10.7678 16.5364 10.9027 16.394C11.0375 16.2515 11.1993 16.1374 11.3787 16.0582C11.5582 15.979 11.7516 15.9364 11.9477 15.9328H11.9757C12.37 15.9333 12.7488 16.0862 13.0328 16.3597C13.3169 16.6331 13.4842 17.0058 13.4997 17.3998C13.5074 17.5962 13.4758 17.7922 13.4068 17.9763C13.3377 18.1604 13.2325 18.3287 13.0974 18.4716C12.9623 18.6144 12.8 18.7288 12.6201 18.808C12.4402 18.8872 12.2462 18.9296 12.0497 18.9328Z" fill="#293D57"/>
</svg>
