<svg width="24" height="20" viewBox="0 0 24 20" fill="none" xmlns="http://www.w3.org/2000/svg">
<path d="M23.1464 3.40002L20.3544 0.600019C20.308 0.553456 20.2528 0.516513 20.192 0.491306C20.1313 0.4661 20.0662 0.453125 20.0004 0.453125C19.9346 0.453125 19.8695 0.4661 19.8088 0.491306C19.748 0.516513 19.6928 0.553456 19.6464 0.600019L7.8544 12.4C7.80796 12.4466 7.75278 12.4835 7.69203 12.5087C7.63129 12.5339 7.56617 12.5469 7.5004 12.5469C7.43463 12.5469 7.36951 12.5339 7.30877 12.5087C7.24802 12.4835 7.19285 12.4466 7.1464 12.4L4.3544 9.60002C4.30796 9.55346 4.25278 9.51651 4.19203 9.49131C4.13129 9.4661 4.06617 9.45312 4.0004 9.45312C3.93463 9.45312 3.86951 9.4661 3.80877 9.49131C3.74802 9.51651 3.69285 9.55346 3.6464 9.60002L0.854401 12.4C0.760665 12.4938 0.708008 12.6209 0.708008 12.7535C0.708008 12.8861 0.760665 13.0133 0.854401 13.107L7.1464 19.4C7.19285 19.4466 7.24802 19.4835 7.30877 19.5087C7.36951 19.5339 7.43463 19.5469 7.5004 19.5469C7.56617 19.5469 7.63129 19.5339 7.69203 19.5087C7.75278 19.4835 7.80796 19.4466 7.8544 19.4L23.1464 4.10002C23.238 4.00655 23.2893 3.8809 23.2893 3.75002C23.2893 3.61914 23.238 3.49348 23.1464 3.40002Z" fill="#293D57"/>
</svg>
