<svg width="128" height="29" viewBox="0 0 128 29" fill="none" xmlns="http://www.w3.org/2000/svg">
<path opacity="0.3" d="M120.305 8.82595V12.015H126.35V16.1161H120.305V19.2933H128.001V23.4916H115.913V4.62767H128.001V8.82488H120.305V8.82595ZM103.258 14.0602L98.9455 4.62981H94.0582L103.258 23.7063L112.458 4.63088H107.57L103.258 14.0613V14.0602ZM87.9782 15.4934L94.329 23.4906H89.0893L83.0457 15.8288H82.9942V23.4906H78.5969V4.62767H85.9536C87.3063 4.63011 88.6174 5.09212 89.6696 5.93703C90.7055 6.76887 91.4092 7.94042 91.6544 9.2414C91.8969 10.5355 91.661 11.8731 90.9902 13.0082C90.3092 14.1611 89.2435 15.0407 87.9782 15.4945V15.4934ZM87.4871 10.3938C87.4871 10.1374 87.4344 9.89074 87.3302 9.65471C87.2263 9.4193 87.0757 9.20714 86.8873 9.03096C86.699 8.85479 86.4768 8.71822 86.2341 8.62944C85.9888 8.53737 85.7278 8.49383 85.4657 8.50128H82.9942V12.2531H85.4657C85.7255 12.2655 85.9851 12.2267 86.2296 12.1389C86.4742 12.0511 86.6988 11.916 86.8907 11.7416C87.0796 11.5695 87.2307 11.3604 87.3345 11.1275C87.4348 10.8953 87.4867 10.6454 87.4871 10.3927V10.3938ZM68.8138 15.8939C68.8138 18.1762 67.3566 19.6127 65.2138 19.6127C63.0732 19.6127 61.6268 18.1805 61.6268 15.8939V4.62661H57.2296V15.8459C57.2296 20.5749 60.5555 23.7074 65.2257 23.7074C69.8959 23.7074 73.2175 20.5707 73.2175 15.8459V4.62767H68.8213L68.8127 15.8939H68.8138ZM21.2413 21.1452C21.1766 21.1703 21.1188 21.2102 21.0725 21.2617C21.0271 21.3112 20.9953 21.3715 20.9801 21.4368C20.9634 21.5025 20.9649 21.5716 20.9844 21.6365C21.0005 21.7006 21.0371 21.7604 21.0811 21.8117C21.2703 22.0947 21.6077 22.5817 22.0956 23.2684C22.5824 23.9551 22.9617 24.4774 23.2271 24.8448C23.3356 25.0285 23.485 25.0402 23.6741 24.8843C24.3659 24.3152 25.0159 23.6977 25.6192 23.0367C27.3028 21.0354 28.4087 18.6178 28.8193 16.0413C28.8483 16.0135 28.7914 16.0413 28.6581 16.1214C25.0668 18.5191 22.5953 20.1958 21.2423 21.1452H21.2413ZM27.8737 8.63051C27.8328 8.61876 27.7286 8.66255 27.5674 8.76615L22.5383 12.1463C20.9085 13.2517 19.2751 14.3517 17.6381 15.4464C17.3974 15.5853 17.2083 15.7893 17.0912 16.0338C17.0503 16.1887 17.1352 16.4247 17.3523 16.744L19.3704 19.5326C19.5595 19.7964 19.7078 19.9405 19.8174 19.964C19.9249 19.9886 20.1151 19.9117 20.3848 19.7291C21.2697 19.1026 22.1675 18.4944 23.0777 17.905C23.903 17.3699 24.7205 16.823 25.53 16.2645C26.5677 15.5845 27.5958 14.8903 28.6141 14.1819C28.7334 14.124 28.8344 14.0346 28.906 13.9235C28.9777 13.8123 29.0172 13.6838 29.0203 13.5518C28.9466 11.9547 28.6221 10.3789 28.0585 8.88149C27.9736 8.72983 27.9134 8.64653 27.8737 8.63051V8.63051ZM13.1452 10.5743C13.1452 10.8049 13.2301 11.0282 13.387 11.2044L15.4395 14.1093C15.6007 14.3443 15.7221 14.4692 15.8264 14.481C16.0136 14.461 16.1906 14.3858 16.3346 14.2652C16.8504 13.9256 18.5805 12.7647 21.5282 10.7729C24.1255 9.01712 25.8287 7.89253 26.6379 7.31688C26.9065 7.16202 27.0484 7.0424 27.0602 6.96658C27.072 6.88648 27 6.73162 26.8345 6.49559C26.1295 5.46804 25.2994 4.53106 24.363 3.706C24.0932 3.439 23.9116 3.30657 23.8149 3.30657C23.5866 3.36714 23.3731 3.47324 23.1874 3.61842C23.1716 3.61757 23.1559 3.62128 23.1422 3.6291C23.128 3.63544 23.1158 3.64539 23.1068 3.65794C23.0939 3.66968 23.038 3.68998 23.0262 3.69745C23.0423 3.69745 23.0133 3.706 23.0262 3.69745C19.878 5.82185 16.728 7.94359 13.5761 10.0627C13.3731 10.1733 13.2196 10.356 13.1463 10.5743H13.1452ZM20.6137 24.3738C20.1667 23.7597 19.8776 23.3485 19.7443 23.1371C19.5273 22.8487 19.3661 22.6896 19.2575 22.6661C19.0318 22.6648 18.8091 22.7179 18.6085 22.8209C16.551 23.6794 14.2706 23.8587 12.1029 23.3325C10.0397 22.8949 8.17893 21.794 6.80832 20.2001C4.69781 17.6935 4.01006 14.9274 4.73864 11.9103C5.68106 7.95554 8.1161 5.52906 12.0384 4.63942C13.8173 4.24765 15.6705 4.35263 17.3931 4.94273C17.5599 5.00987 17.7419 5.03055 17.9197 5.00254C18.0972 4.97434 18.2641 4.89991 18.4032 4.78681C18.5128 4.70777 19.0964 4.31689 20.1516 3.60988C21.1779 2.92743 21.7743 2.52053 21.9354 2.39237C22.0966 2.26421 22.1934 2.18518 22.217 2.15741C22.217 2.10508 22.1235 2.02604 21.9344 1.92245C19.1358 0.306127 15.8679 -0.317824 12.666 0.152786C9.44383 0.543312 6.45101 2.01094 4.17877 4.31475C2.27954 6.17512 0.951649 8.53381 0.349978 11.1157C-0.243189 13.6839 -0.0797886 16.3675 0.820653 18.8459C1.73466 21.3512 3.36308 23.5378 5.50698 25.1385C7.75256 26.87 10.4733 27.8847 13.3107 28.0487C16.1576 28.2817 19.0106 27.6794 21.5164 26.3165C21.5686 26.301 21.6157 26.2718 21.6528 26.2321C21.6895 26.1929 21.7158 26.1451 21.7291 26.0933C21.7421 26.0418 21.7408 25.9877 21.7253 25.9369C21.7098 25.8861 21.6806 25.8405 21.641 25.8049C21.3992 25.4738 21.0607 24.9954 20.6137 24.3738V24.3738ZM35.4163 14.0014C35.3884 19.3211 39.5675 23.8665 46.2504 23.8985C49.4119 23.9145 51.5009 22.8615 53.5426 21.2606L51.1355 17.8409C49.8114 19.0478 48.0715 19.7035 46.2751 19.6725C42.6634 19.6565 40.4207 17.1627 40.4368 14.026C40.4529 10.8893 42.7236 8.41905 46.331 8.43507C48.1267 8.41996 49.8595 9.09139 51.171 10.3105L53.6146 6.91425C51.5944 5.2941 49.5075 4.22077 46.3514 4.20475C39.6642 4.18446 35.4356 8.69459 35.4077 14.0143L35.4163 14.0014Z" fill="#2D3232"/>
</svg>
