<svg width="116" height="32" viewBox="0 0 116 32" fill="none" xmlns="http://www.w3.org/2000/svg">
<g opacity="0.3">
<g clip-path="url(#clip0_1613_23207)">
<path d="M41.2742 0.16748L30.7711 10.6534V0.16748H20.5444L10.2728 10.4225V0.262938H0.0943259V10.5623H10.1313L0 20.6775V31.2599H10.457L20.7298 20.864V31.2599H31.1868L51.5009 10.7033V0.16748H41.2742Z" fill="#2D3232"/>
<path d="M62.4296 8.16914C63.2818 5.71944 64.1428 3.28417 64.9709 0.836687C65.1255 0.37827 65.335 0.223984 65.822 0.242854C66.9759 0.286143 66.9759 0.256174 67.3696 1.3839C68.156 3.63492 68.9436 5.88593 69.73 8.13695C69.9406 8.087 69.9044 7.90385 69.946 7.77732C70.7303 5.42752 71.5167 3.07993 72.279 0.72236C72.3952 0.36495 72.54 0.219545 72.9239 0.247294C73.4504 0.285033 73.9823 0.275043 74.511 0.250624C74.8806 0.233974 74.9826 0.300572 74.8444 0.700161C74.2752 2.34735 73.7388 4.00565 73.1948 5.66172C72.4216 8.01707 71.645 10.3713 70.8893 12.7322C70.7665 13.114 70.6085 13.2828 70.1764 13.2717C68.9107 13.2406 68.9139 13.2617 68.5026 12.0718C67.7667 9.93954 67.0296 7.80729 66.2849 5.67837C66.2344 5.53518 66.2246 5.35204 66.0184 5.24548C65.4469 6.89711 64.8799 8.53543 64.3128 10.1737C64.0068 11.0584 63.6942 11.9397 63.4047 12.8288C63.2972 13.1596 63.1272 13.2728 62.774 13.2694C61.471 13.2572 61.4677 13.2728 61.0684 12.0596C59.829 8.29456 58.5962 4.52733 57.348 0.766759C57.2186 0.37827 57.2131 0.205115 57.699 0.249514C58.367 0.311672 59.2017 -0.00688896 59.6645 0.36828C60.0989 0.72014 60.1559 1.55262 60.3632 2.17975C60.9621 3.99344 61.5488 5.81045 62.151 7.62303C62.2113 7.80507 62.2069 8.03261 62.4285 8.17025L62.4296 8.16914Z" fill="#2D3232"/>
<path d="M108.783 12.5921C108.92 13.2104 108.636 13.3058 108.179 13.267C107.781 13.2326 107.375 13.2348 106.977 13.267C106.601 13.2981 106.48 13.1849 106.489 12.7897C106.515 11.5388 106.499 10.2878 106.499 9.03691C106.499 6.23979 106.507 3.44378 106.489 0.646658C106.485 0.215991 106.548 0.00509676 107.036 0.0628151C107.644 0.134963 108.466 -0.194698 108.811 0.191571C109.113 0.531222 108.903 1.34372 108.906 1.94754C108.912 2.88102 108.907 3.81451 108.907 4.76242C111.582 3.60916 113.589 3.9921 114.914 5.88682C116.212 7.74047 116.06 10.3922 114.586 12.0083C113.421 13.287 111.025 14.1516 108.781 12.5921H108.783ZM108.908 8.72612C108.908 9.02026 108.938 9.31884 108.902 9.60854C108.849 10.027 109.04 10.3012 109.329 10.5553C110.261 11.3734 111.673 11.4 112.582 10.6064C113.455 9.84385 113.643 8.4009 113.005 7.38306C112.427 6.46178 111.427 6.09771 110.336 6.41072C109.259 6.7204 108.908 7.21989 108.908 8.44973V8.72612Z" fill="#2D3232"/>
<path d="M101.473 12.6272C99.0248 13.8882 96.9079 13.5752 95.4623 11.7848C94.1034 10.1021 94.1067 7.43592 95.47 5.68661C96.8498 3.91621 98.925 3.61208 101.426 4.85191C101.329 4.25364 101.657 4.19814 102.116 4.23699C102.641 4.28139 103.353 4.0594 103.65 4.32912C103.993 4.63991 103.754 5.36916 103.758 5.91637C103.769 8.18182 103.747 10.4484 103.775 12.7127C103.782 13.1933 103.637 13.3154 103.196 13.2688C102.835 13.2311 102.465 13.2477 102.101 13.2644C101.671 13.2843 101.246 13.3276 101.473 12.6284V12.6272ZM101.351 8.79341C101.351 8.68241 101.364 8.57031 101.349 8.46264C101.29 8.05639 101.516 7.60463 101.189 7.245C100.53 6.5202 99.7169 6.16834 98.7418 6.35037C97.7349 6.53795 97.147 7.20505 96.9299 8.18515C96.7149 9.15748 96.9606 10.0288 97.7371 10.667C98.517 11.3075 99.3988 11.3297 100.308 10.9412C101.135 10.5871 101.512 9.9833 101.353 9.06979C101.338 8.981 101.351 8.88554 101.351 8.79452V8.79341Z" fill="#2D3232"/>
<path d="M77.3577 9.37334C77.4476 10.9007 79.0347 11.8519 80.5615 11.3213C80.9596 11.1826 81.3501 10.9994 81.6363 10.6853C81.8853 10.4123 82.0367 10.4755 82.2429 10.7153C82.4579 10.965 82.6838 11.2126 82.9404 11.4157C83.2991 11.7009 83.3079 11.9185 82.9448 12.2193C81.3797 13.5157 79.6248 13.791 77.7646 13.0962C75.9976 12.4357 75.0917 11.0305 74.9754 9.16911C74.8547 7.2422 75.4799 5.6161 77.2096 4.58716C79.8628 3.00989 83.2673 4.91793 83.4976 8.0991C83.5591 8.94859 83.1715 9.37334 82.335 9.37334C80.6766 9.37334 79.0182 9.37334 77.3577 9.37334ZM80.9991 7.58629C81.0331 6.77934 80.1732 6.09338 79.5184 6.04344C78.6409 5.97684 77.7459 6.50407 77.5035 7.25108C77.4312 7.47529 77.4432 7.59295 77.724 7.59073C78.8164 7.58185 79.9089 7.5874 80.9991 7.5874V7.58629Z" fill="#2D3232"/>
<path d="M85.6406 6.77781C85.6406 4.77099 85.6494 2.76416 85.6329 0.75734C85.6296 0.38217 85.7163 0.230105 86.1133 0.255634C86.6222 0.288933 87.1366 0.290043 87.6445 0.255634C88.0437 0.227885 88.1227 0.37995 88.1216 0.75401C88.1073 3.97625 88.1249 7.19738 88.1018 10.4196C88.0985 10.9113 88.2236 11.0368 88.7062 11.0257C90.1649 10.9912 91.6259 11.0268 93.0846 11.0046C93.474 10.9979 93.5925 11.1167 93.564 11.4996C93.5321 11.9392 93.5376 12.3843 93.564 12.8238C93.5837 13.1535 93.4949 13.27 93.145 13.2678C90.7912 13.2523 88.4375 13.2511 86.0837 13.2678C85.713 13.27 85.6329 13.1468 85.6351 12.7983C85.6494 10.7915 85.6428 8.78463 85.6428 6.77781H85.6406Z" fill="#2D3232"/>
<path d="M59.8977 24.8896C59.8977 22.8839 59.8988 20.8782 59.8955 18.8714C59.8955 18.6006 59.8681 18.3752 60.2717 18.383C61.8215 18.413 63.3713 18.3852 64.9211 18.4263C67.7004 18.5007 69.3171 21.5386 67.764 23.823C67.6489 23.9928 67.5677 24.0971 67.8134 24.247C69.1756 25.0761 69.7657 26.9287 69.3368 28.4582C68.8784 30.0898 67.5359 31.2564 65.7919 31.3386C63.935 31.4262 62.0726 31.3685 60.2125 31.3907C59.8066 31.3952 59.8999 31.1266 59.8999 30.9068C59.8966 28.9011 59.8977 26.8954 59.8977 24.8885V24.8896ZM62.3699 27.4126C62.3699 27.891 62.3743 28.3705 62.3677 28.8489C62.3644 29.0409 62.3984 29.1686 62.6309 29.1586C63.6137 29.1175 64.6041 29.2596 65.5792 29.0631C66.4248 28.8922 66.9655 28.2107 66.9524 27.3893C66.9392 26.5357 66.4149 25.8919 65.5605 25.7266C64.5844 25.5368 63.595 25.6777 62.6123 25.64C62.3688 25.6311 62.3688 25.802 62.3688 25.9752C62.3699 26.4536 62.3688 26.9331 62.3688 27.4115L62.3699 27.4126ZM63.6159 20.6462C63.3055 20.6462 63.0477 20.6662 62.7955 20.6418C62.4664 20.6096 62.3458 20.7139 62.3622 21.0658C62.3907 21.7085 62.3677 22.3534 62.3721 22.996C62.3721 23.1703 62.3194 23.399 62.6101 23.3879C63.3548 23.3612 64.1072 23.4855 64.8432 23.3068C65.4333 23.1636 65.8556 22.6098 65.8578 22.027C65.8599 21.4221 65.4673 20.9204 64.8651 20.7317C64.4352 20.5974 63.9965 20.6695 63.617 20.6462H63.6159Z" fill="#2D3232"/>
<path d="M103.452 22.3985C102.057 23.6928 100.796 24.8838 99.5065 26.0437C99.173 26.3445 99.139 26.501 99.4801 26.834C100.845 28.1659 102.175 29.5334 103.516 30.8887C103.641 31.0152 103.761 31.1484 103.978 31.3793C102.857 31.3793 101.849 31.3826 100.84 31.376C100.657 31.3749 100.567 31.2028 100.455 31.0885C99.4692 30.0784 98.4886 29.0628 97.5048 28.0505C97.383 27.9251 97.2865 27.7641 97.0178 27.6809C97.0178 28.7132 96.9827 29.6988 97.0309 30.6811C97.0595 31.2572 96.8982 31.4637 96.3202 31.3971C95.8694 31.346 95.4077 31.3749 94.9525 31.3915C94.6838 31.4015 94.5653 31.336 94.5664 31.0297C94.5752 26.8662 94.5741 22.7038 94.5675 18.5403C94.5675 18.2739 94.652 18.1862 94.913 18.194C95.479 18.2095 96.046 18.2206 96.6109 18.1907C96.975 18.1707 97.0255 18.3283 97.0244 18.6424C97.0134 20.6315 97.0167 22.6216 97.0222 24.6107C97.0222 24.7628 96.9333 24.9825 97.111 25.0547C97.2887 25.1257 97.3764 24.9037 97.4894 24.7983C98.2517 24.0857 99.0085 23.3664 99.7642 22.6461C99.898 22.5184 100.014 22.3941 100.226 22.3963C101.244 22.4041 102.262 22.3997 103.451 22.3997L103.452 22.3985Z" fill="#2D3232"/>
<path d="M78.1189 23.0153C78.0059 22.4493 78.2472 22.3549 78.6728 22.3893C79.2333 22.4337 79.9912 22.1995 80.3093 22.4859C80.6745 22.8144 80.4178 23.5925 80.4211 24.173C80.4343 26.4174 80.4167 28.6617 80.4354 30.9061C80.4387 31.2879 80.3498 31.4289 79.9572 31.3934C79.559 31.3579 79.1554 31.3712 78.7551 31.3889C78.3536 31.4067 77.961 31.4444 78.1058 30.8118C75.4953 31.995 73.418 31.6487 72.0952 29.8472C70.7132 27.9647 70.7933 25.4007 72.3146 23.6369C73.418 22.3582 75.6324 21.4636 78.1178 23.0131L78.1189 23.0153ZM78.0169 26.9147C78.0169 26.565 78.0147 26.2165 78.0169 25.8668C78.018 25.7003 78.0038 25.5505 77.8941 25.404C77.3248 24.6381 76.0745 24.2474 75.1334 24.5538C74.1956 24.859 73.5562 25.7969 73.543 26.8891C73.5299 27.9536 74.1627 28.8915 75.1466 29.2056C75.9615 29.4665 76.7018 29.28 77.4312 28.8316C78.1025 28.4187 78.0246 27.8082 78.0169 27.1888C78.0158 27.0967 78.0169 27.0046 78.0169 26.9135V26.9147Z" fill="#2D3232"/>
<path d="M85.4577 23.0583C86.2298 22.5699 86.9296 22.2314 87.7303 22.1958C90.1421 22.0904 91.8949 23.6899 92.0089 26.1917C92.0824 27.8078 92.0276 29.4295 92.044 31.0478C92.0462 31.3142 91.964 31.3975 91.7029 31.3897C91.1381 31.3731 90.571 31.3664 90.0072 31.3919C89.6804 31.4064 89.6212 31.2754 89.6223 30.9801C89.6288 29.435 89.6277 27.8889 89.6058 26.3438C89.5959 25.6245 89.3437 25.0129 88.668 24.6577C87.7697 24.1849 86.2254 24.6011 85.6715 25.4547C85.5575 25.6301 85.5959 25.8088 85.5959 25.9864C85.5915 27.6236 85.5816 29.2619 85.6013 30.8991C85.6057 31.2754 85.5224 31.4208 85.1253 31.393C84.6175 31.3575 84.1031 31.3631 83.5942 31.3919C83.2432 31.4119 83.173 31.2776 83.1741 30.949C83.1862 28.244 83.1895 25.5391 83.1719 22.8341C83.1697 22.4478 83.3057 22.3701 83.6435 22.389C84.0801 22.4134 84.521 22.4256 84.9553 22.3867C85.3842 22.349 85.5651 22.4911 85.4566 23.0561L85.4577 23.0583Z" fill="#2D3232"/>
</g>
</g>
<defs>
<clipPath id="clip0_1613_23207">
<rect width="115.799" height="31.5042" fill="white"/>
</clipPath>
</defs>
</svg>
