<?xml version="1.0" standalone="no"?>
<!DOCTYPE svg PUBLIC "-//W3C//DTD SVG 20010904//EN"
 "http://www.w3.org/TR/2001/REC-SVG-20010904/DTD/svg10.dtd">
<svg version="1.0" xmlns="http://www.w3.org/2000/svg"
 width="141.000000pt" height="141.000000pt" viewBox="0 0 141.000000 141.000000"
 preserveAspectRatio="xMidYMid meet">
<metadata>
Created by potrace 1.11, written by Peter Selinger 2001-2013
</metadata>
<g transform="translate(0.000000,141.000000) scale(0.100000,-0.100000)"
fill="#000000" stroke="none">
<path d="M598 1353 c-14 -2 -31 -10 -36 -16 -10 -12 -82 -136 -82 -141 0 -2
35 -2 78 -1 42 1 91 -2 108 -5 28 -7 37 -1 107 68 43 41 77 78 77 82 0 15
-185 24 -252 13z"/>
<path d="M410 1299 c-25 -11 -66 -34 -92 -50 -40 -26 -47 -36 -53 -72 -4 -23
-9 -50 -11 -59 -4 -14 13 -9 76 23 79 40 81 42 115 110 20 41 29 69 22 69 -7
0 -32 -10 -57 -21z"/>
<path d="M845 1243 c-55 -53 -75 -78 -65 -81 29 -9 86 -36 132 -65 l47 -28
106 63 106 63 -28 23 c-33 27 -183 102 -204 102 -8 0 -50 -34 -94 -77z"/>
<path d="M468 1142 c-23 -3 -30 -12 -47 -65 -28 -89 -43 -167 -39 -206 3 -32
5 -35 43 -37 l40 -3 53 87 c29 48 77 117 107 154 34 42 49 68 41 71 -14 6
-157 5 -198 -1z"/>
<path d="M1155 1118 c-27 -17 -72 -44 -98 -61 l-49 -30 26 -23 c37 -35 74 -86
110 -153 l32 -60 102 34 c56 19 109 38 117 42 31 18 -137 285 -178 282 -7 0
-34 -14 -62 -31z"/>
<path d="M155 1093 c-52 -70 -104 -179 -98 -203 8 -30 17 -25 40 23 11 23 36
62 54 87 18 25 35 54 36 65 2 11 5 32 7 48 2 15 2 27 0 27 -2 0 -20 -21 -39
-47z"/>
<path d="M680 1093 c-44 -52 -113 -148 -155 -218 l-34 -58 36 -26 37 -27 127
96 c70 52 153 112 184 134 l57 39 -48 30 c-45 27 -140 67 -162 67 -5 0 -24
-17 -42 -37z"/>
<path d="M345 1099 c-22 -11 -57 -31 -77 -46 -36 -24 -38 -29 -38 -78 0 -59
16 -155 28 -167 5 -5 27 1 50 12 39 19 42 23 42 63 0 36 22 139 45 215 9 27 2
27 -50 1z"/>
<path d="M879 958 c-41 -28 -124 -89 -185 -135 l-112 -83 19 -37 c11 -21 19
-43 19 -50 0 -9 8 -12 23 -8 12 3 74 16 137 29 63 14 149 34 190 46 41 11 94
25 118 31 23 6 42 15 42 19 0 14 -35 85 -59 120 -27 40 -102 120 -112 120 -3
0 -39 -23 -80 -52z"/>
<path d="M173 954 c-26 -36 -83 -153 -83 -170 0 -14 76 -101 82 -94 2 3 17 24
32 47 27 40 28 46 17 85 -6 24 -15 70 -19 103 l-7 60 -22 -31z"/>
<path d="M19 793 c0 -4 -3 -17 -5 -28 -2 -11 -7 -46 -10 -79 -5 -47 -4 -58 7
-54 8 3 14 18 15 34 1 16 4 50 9 75 4 31 3 49 -4 53 -6 4 -11 4 -12 -1z"/>
<path d="M76 723 c-3 -3 -6 -37 -6 -74 0 -61 2 -67 23 -73 52 -14 62 -8 64 35
2 36 -2 46 -36 80 -21 21 -41 36 -45 32z"/>
<path d="M895 673 c-121 -30 -230 -57 -241 -59 -16 -3 -23 -13 -27 -46 -4 -24
-9 -53 -13 -64 -5 -18 0 -22 28 -28 18 -3 44 -9 58 -12 31 -8 346 -12 418 -6
l53 4 -2 89 c-2 113 -17 180 -38 178 -9 -1 -115 -26 -236 -56z"/>
<path d="M12 513 c10 -48 23 -72 33 -61 10 9 -18 108 -31 108 -9 0 -9 -12 -2
-47z"/>
<path d="M82 512 c5 -20 13 -40 16 -44 10 -10 72 19 72 34 0 17 -12 33 -25 34
-5 1 -24 4 -42 7 l-31 6 10 -37z"/>
<path d="M143 442 l-32 -17 21 -34 22 -34 27 33 c23 27 26 36 16 51 -14 23
-14 23 -54 1z"/>
<path d="M691 396 c-22 -35 -103 -96 -128 -96 -8 0 -1 -18 19 -50 18 -27 39
-50 46 -50 18 0 70 27 110 58 61 46 125 161 91 162 -8 1 -37 3 -65 6 -50 5
-52 5 -73 -30z"/>
<path d="M908 402 c-16 -2 -28 -9 -28 -15 0 -47 -88 -153 -164 -197 l-48 -28
35 -38 36 -39 58 30 c78 39 173 137 211 216 17 35 29 66 27 68 -6 5 -91 7
-127 3z"/>
<path d="M57 393 c-3 -5 5 -28 18 -53 20 -38 25 -42 31 -26 4 11 0 31 -11 52
-18 33 -29 41 -38 27z"/>
<path d="M201 364 c-12 -15 -21 -30 -21 -35 0 -13 51 -60 59 -54 14 8 21 88 9
102 -15 19 -24 16 -47 -13z"/>
<path d="M286 332 c-2 -4 -7 -27 -11 -52 l-7 -45 46 -23 c26 -12 50 -22 55
-22 4 0 3 25 -3 55 -9 46 -17 59 -43 75 -18 10 -34 16 -37 12z"/>
<path d="M394 252 c11 -60 16 -72 34 -73 68 -6 106 -6 132 0 l30 6 -35 52 -34
51 -67 1 -66 0 6 -37z"/>
<path d="M146 265 c-7 -20 4 -42 38 -73 l24 -23 7 22 c9 29 -58 101 -69 74z"/>
<path d="M272 148 c3 -30 8 -35 62 -56 32 -13 60 -22 62 -19 4 4 -16 67 -22
67 -2 0 -26 9 -54 20 l-51 20 3 -32z"/>
<path d="M578 135 c-3 -3 -33 -6 -66 -7 -67 -2 -71 -7 -50 -54 l12 -26 94 5
c51 3 96 8 100 11 3 4 -10 22 -28 41 -32 33 -50 42 -62 30z"/>
</g>
</svg>
