<svg width="113" height="25" viewBox="0 0 113 25" fill="none" xmlns="http://www.w3.org/2000/svg">
<path d="M70.5878 18.9547C70.5012 18.8722 70.3862 18.831 70.2711 18.831H61.2486V2.11614C61.2486 2.00618 61.2056 1.89622 61.1191 1.81372L60.4427 1.16767C60.3567 1.08522 60.2411 1.04395 60.126 1.04395H56.6436C56.5285 1.04395 56.4135 1.08522 56.3274 1.16767L55.6511 1.81372C55.5645 1.89622 55.5215 2.00618 55.5215 2.11614V22.941C55.5215 23.0509 55.5645 23.1609 55.6511 23.2434L56.3274 23.8894C56.4135 23.9719 56.5285 24.0132 56.6436 24.0132H70.2566C70.3717 24.0132 70.4872 23.9719 70.5733 23.8894L71.2497 23.2434C71.3362 23.1609 71.3792 23.0509 71.3792 22.941V19.9031C71.3792 19.7932 71.3362 19.6832 71.2497 19.6008L70.5878 18.9547Z" fill="#ACA9A7"/>
<path d="M111.804 18.9577C111.718 18.8753 111.603 18.8341 111.487 18.8341H107.53V6.223H111.487C111.603 6.223 111.718 6.18183 111.804 6.09938L112.48 5.45373C112.567 5.37128 112.61 5.26137 112.61 5.15151V2.11549C112.61 2.00558 112.567 1.89571 112.48 1.81327L111.804 1.16761C111.718 1.08517 111.603 1.04395 111.487 1.04395H97.8746C97.759 1.04395 97.6439 1.08517 97.5579 1.16761L96.8815 1.81327C96.795 1.89571 96.752 2.00558 96.752 2.11549V5.15151C96.752 5.26137 96.795 5.37128 96.8815 5.45373L97.5579 6.09938C97.6439 6.18183 97.759 6.223 97.8746 6.223H101.832V18.8341H97.8746C97.759 18.8341 97.6439 18.8753 97.5579 18.9577L96.8815 19.6034C96.795 19.6858 96.752 19.7957 96.752 19.9056V22.9416C96.752 23.0515 96.795 23.1614 96.8815 23.2438L97.5579 23.8895C97.6439 23.9719 97.759 24.0132 97.8746 24.0132H111.487C111.603 24.0132 111.718 23.9719 111.804 23.8895L112.48 23.2438C112.567 23.1614 112.61 23.0515 112.61 22.9416V19.9056C112.61 19.7957 112.567 19.6858 112.48 19.6034L111.804 18.9577Z" fill="#ACA9A7"/>
<path d="M20.8839 1.16767C20.799 1.08522 20.6858 1.04395 20.5726 1.04395H17.1477C17.0345 1.04395 16.9212 1.08522 16.8363 1.16767L16.1711 1.81372C16.0862 1.89622 16.0438 2.00618 16.0438 2.11614V9.29144H6.17953V2.11614C6.17953 2.00618 6.13711 1.89622 6.05216 1.81372L5.38699 1.16767C5.3021 1.08522 5.18888 1.04395 5.07567 1.04395H1.65078C1.53752 1.04395 1.42431 1.08522 1.33941 1.16767L0.674245 1.81372C0.589349 1.89622 0.546875 2.00618 0.546875 2.11614V22.941C0.546875 23.0509 0.589349 23.1609 0.674245 23.2434L1.33941 23.8894C1.42431 23.9719 1.53752 24.0132 1.65078 24.0132H5.08983C5.20304 24.0132 5.31625 23.9719 5.40115 23.8894L6.06632 23.2434C6.15121 23.1609 6.19369 23.0509 6.19369 22.941V14.4598H16.0579V22.941C16.0579 23.0509 16.1004 23.1609 16.1853 23.2434L16.8505 23.8894C16.9354 23.9719 17.0486 24.0132 17.1618 24.0132H20.5867C20.6999 24.0132 20.8131 23.9719 20.8981 23.8894L21.5633 23.2434C21.6482 23.1609 21.6906 23.0509 21.6906 22.941V2.11614C21.6906 2.00618 21.6482 1.89622 21.5633 1.81372L20.8839 1.16767Z" fill="#ACA9A7"/>
<path d="M91.7257 1.16776C91.6401 1.08522 91.5266 1.04395 91.413 1.04395H87.9766C87.863 1.04395 87.7495 1.08522 87.6644 1.16776L87.0111 1.80046C86.926 1.88296 86.8835 1.99302 86.8835 2.10303L86.855 5.32145L82.1689 17.3837H81.7572L77.0286 5.15641V2.11679C77.0286 2.00673 76.986 1.89672 76.9005 1.81417L76.2331 1.16776C76.1481 1.08522 76.0345 1.04395 75.921 1.04395H72.4846C72.371 1.04395 72.2574 1.08522 72.1719 1.16776L71.5045 1.81417C71.4195 1.89672 71.377 2.00673 71.377 2.11679V6.05041C71.377 6.07792 71.377 6.10544 71.391 6.13295L71.448 6.39429C71.462 6.42176 71.462 6.44928 71.4765 6.47679L78.4629 23.3942C78.4909 23.463 78.5479 23.5317 78.6189 23.573L79.2293 23.9444C79.3003 23.9856 79.3859 24.0132 79.4709 24.0132H84.4552C84.5402 24.0132 84.6252 23.9856 84.6963 23.9444L85.2926 23.573C85.3637 23.5317 85.4207 23.463 85.4632 23.3942L92.421 6.47679C92.4356 6.44928 92.4496 6.42176 92.4496 6.39429L92.5066 6.13295C92.5066 6.10544 92.5206 6.07792 92.5206 6.05041V2.11679C92.5206 2.00673 92.4781 1.89672 92.393 1.81417L91.7257 1.16776Z" fill="#ACA9A7"/>
<path d="M42.4521 7.08725L44.7864 11.1172L43.9804 15.7031L40.41 18.6908H35.7549L32.1843 15.7031L31.3784 11.1172L33.7127 7.08725L38.0892 5.48912L42.4521 7.08725ZM25.9597 11.1172L27.099 17.5513C27.2101 18.1906 27.5436 18.7603 28.0438 19.1772L33.0458 23.374C33.5459 23.7909 34.1712 24.0132 34.8103 24.0132H41.3405C41.9938 24.0132 42.6192 23.7909 43.1055 23.374L48.1072 19.1772C48.6075 18.7603 48.9407 18.1906 49.0522 17.5513L50.1914 11.1172C50.3024 10.478 50.1914 9.82486 49.8717 9.26901L46.6064 3.61309C46.2872 3.05723 45.7729 2.62645 45.1616 2.40412L39.0202 0.166742C38.4089 -0.0555806 37.742 -0.0555806 37.1447 0.166742L31.0033 2.40412C30.3919 2.62645 29.8918 3.05723 29.5583 3.61309L26.2931 9.26901C25.9597 9.82486 25.8485 10.478 25.9597 11.1172Z" fill="#ACA9A7"/>
</svg>
