<svg width="98" height="42" viewBox="0 0 98 42" fill="none" xmlns="http://www.w3.org/2000/svg">
<g opacity="0.3">
<path d="M52.9481 9.63037C51.5992 9.63037 50.6445 10.663 50.6445 12.1706V24.4587C50.6445 25.9869 51.5992 26.9989 52.9481 26.9989C54.297 26.9989 55.2517 25.9663 55.2517 24.4587V12.1706C55.2724 10.663 54.2763 9.63037 52.9481 9.63037Z" fill="#2D3232"/>
<path d="M59.4832 2.2168C58.1343 2.2168 57.1797 3.24941 57.1797 4.75702V24.4613C57.1797 25.9896 58.1343 27.0015 59.4832 27.0015C60.8322 27.0015 61.7868 25.9689 61.7868 24.4613V4.75702C61.7868 3.22876 60.8114 2.2168 59.4832 2.2168Z" fill="#2D3232"/>
<path d="M90.8014 9.42506C89.3487 9.42506 87.564 9.85876 86.5886 11.0153H86.5056V4.737C86.5056 3.20874 85.5509 2.19678 84.202 2.19678C82.8531 2.19678 81.8984 3.22939 81.8984 4.737V24.4413C81.8984 25.9696 82.8531 26.9815 84.202 26.9815C85.5509 26.9815 86.5056 25.9489 86.5056 24.4413V16.4282C86.5056 14.6315 87.564 13.2478 89.4732 13.2478C91.1542 13.2478 92.4824 14.2804 92.4824 16.4282V24.4826C92.4824 26.0109 93.437 27.0228 94.7859 27.0228C96.1349 27.0228 97.0895 25.9902 97.0895 24.4826V15.6434C97.131 11.7608 94.4332 9.42712 90.8014 9.42712V9.42506Z" fill="#2D3232"/>
<path d="M79.0563 20.4938C77.9979 19.6678 76.5037 19.8743 75.6736 20.9275C74.885 21.8982 73.7643 22.4765 72.5192 22.4765C70.3194 22.4765 68.5346 20.6797 68.5346 18.5112C68.5346 16.3427 70.3401 14.546 72.5192 14.546C73.6813 14.546 74.7812 15.0417 75.5491 15.9297C76.4207 16.921 77.9357 17.0449 78.9733 16.1775C79.9694 15.3101 80.094 13.8025 79.2223 12.7699C77.5414 10.8493 75.1133 9.71338 72.5399 9.71338C67.663 9.71338 63.6992 13.658 63.6992 18.5112C63.6992 23.3645 67.663 27.3091 72.5399 27.3091C75.2793 27.3091 77.8319 26.07 79.5129 23.9015C80.3015 22.8275 80.1147 21.3199 79.0563 20.4938Z" fill="#2D3232"/>
<path d="M48.0093 13.5353C48.0232 13.5215 48.037 13.5078 48.0509 13.494C48.0716 13.4734 48.0924 13.4527 48.1339 13.4114C48.1546 13.3907 48.1754 13.3701 48.2169 13.3288C48.2376 13.3081 48.2584 13.2875 48.2999 13.2462C48.3206 13.2255 48.3414 13.2049 48.3829 13.1429C48.4037 13.1223 48.4037 13.1016 48.4244 13.0603C48.4452 13.0397 48.4659 13.019 48.4659 12.957C48.4867 12.9364 48.4867 12.9157 48.5074 12.8744C48.5282 12.8538 48.5282 12.8331 48.5489 12.7712C48.5697 12.7505 48.5697 12.6886 48.5904 12.6679C48.5904 12.6473 48.6112 12.6266 48.6112 12.5647C48.6112 12.544 48.6319 12.482 48.6319 12.4614C48.6319 12.4407 48.6527 12.4201 48.6527 12.3581C48.6527 12.3375 48.6734 12.2755 48.6734 12.2549C48.6734 12.2342 48.6734 12.1723 48.6942 12.1516C48.6942 12.131 48.6942 12.069 48.7149 12.0483V11.594C48.7149 11.5527 48.7149 11.5114 48.6942 11.4701C48.6942 11.4494 48.6942 11.4288 48.6734 11.3668C48.6734 11.3462 48.6527 11.2842 48.6527 11.2636C48.6527 11.2429 48.6319 11.181 48.6319 11.1603C48.6319 11.1396 48.6112 11.0777 48.6112 11.057C48.6112 11.0364 48.5904 10.9744 48.5904 10.9538C48.5697 10.9331 48.5697 10.9125 48.5489 10.8712C48.5282 10.8505 48.5282 10.7886 48.5074 10.7679C48.4867 10.7473 48.4867 10.7266 48.4659 10.6853C48.4452 10.644 48.4244 10.6027 48.3829 10.582C48.3621 10.5614 48.3621 10.5407 48.3414 10.4994C48.3206 10.4788 48.2999 10.4168 48.2584 10.3962L48.2376 10.3755C48.2238 10.3617 48.21 10.348 48.1961 10.3342C48.1754 10.3136 48.1546 10.2929 48.1131 10.2516C48.0924 10.2309 48.0716 10.2103 48.0301 10.169C48.0094 10.1483 47.9886 10.1277 47.9471 10.0864C47.9263 10.0657 47.9056 10.0451 47.8433 10.0038C47.8226 9.98312 47.8018 9.98312 47.7603 9.96247C47.7396 9.94182 47.6773 9.92117 47.6566 9.92117C47.6358 9.90051 47.615 9.90051 47.5735 9.87986C47.5528 9.85921 47.4905 9.85921 47.4698 9.83856C47.449 9.81791 47.3868 9.81791 47.366 9.79725C47.3453 9.79725 47.3245 9.7766 47.2622 9.7766C47.2415 9.7766 47.1792 9.75595 47.1585 9.75595C47.1377 9.75595 47.117 9.7353 47.0547 9.7353C47.034 9.7353 46.9717 9.71464 46.951 9.71464C46.9302 9.71464 46.8679 9.71464 46.8472 9.69399C46.8264 9.69399 46.7642 9.69399 46.7434 9.67334H36.7613C35.5784 9.67334 34.6445 10.6233 34.6445 11.7799C34.6445 12.9364 35.5992 13.8864 36.7613 13.8864H41.3269C36.5123 19.2353 34.8521 23.9234 34.7483 24.1712V24.1919C34.7275 24.2332 34.7275 24.2745 34.7275 24.3158C34.7275 24.3364 34.7068 24.3571 34.7068 24.3984C34.7068 24.419 34.686 24.481 34.686 24.5016C34.686 24.5223 34.6653 24.5843 34.6653 24.6049V25.1006C34.6653 25.1419 34.6653 25.1832 34.686 25.2245C34.686 25.2451 34.7068 25.3071 34.7068 25.3277C34.7068 25.3484 34.7275 25.4103 34.7275 25.431C34.7275 25.4516 34.7483 25.5136 34.7483 25.5343C34.7483 25.5549 34.769 25.5756 34.769 25.6169C34.7898 25.6375 34.7898 25.6995 34.8106 25.7201C34.8106 25.7408 34.8313 25.7614 34.8313 25.8027C34.8521 25.8234 34.8521 25.8853 34.8728 25.906C34.8936 25.9266 34.8936 25.9473 34.9143 25.9886C34.9351 26.0093 34.9558 26.0299 34.9558 26.0712C34.9766 26.0919 34.9973 26.1125 34.9973 26.1538C35.0181 26.1745 35.0388 26.1951 35.0388 26.2364L35.1218 26.319L35.1634 26.3603C35.1841 26.381 35.2049 26.4016 35.2671 26.443C35.2879 26.4636 35.3086 26.4636 35.3501 26.4843C35.3709 26.5049 35.3916 26.5256 35.4539 26.5669C35.4746 26.5875 35.4954 26.5875 35.5369 26.6082C35.5577 26.6288 35.5784 26.6288 35.6407 26.6495C35.6614 26.6701 35.7237 26.6701 35.7444 26.6908C35.7652 26.7114 35.7859 26.7114 35.8274 26.7114C35.8689 26.7321 35.9105 26.7321 35.952 26.7527C35.9727 26.7527 35.9727 26.7734 35.9935 26.7734H36.0142C36.035 26.7734 36.0557 26.794 36.118 26.794C36.1387 26.794 36.201 26.8147 36.2217 26.8147C36.2425 26.8147 36.2633 26.8147 36.3048 26.8353C36.3463 26.8353 36.4085 26.856 36.4293 26.856H46.4321C47.615 26.856 48.5489 25.906 48.5489 24.7495C48.5489 23.5929 47.5943 22.6429 46.4321 22.6429H40.0403C41.5345 20.5364 43.9625 16.9842 48.0093 13.5353Z" fill="#2D3232"/>
<path d="M1.52159 10.5399C7.18711 7.09301 12.8734 3.62137 18.5182 0.174511C18.9747 -0.0939677 19.5558 -0.0526632 19.9501 0.298425C22.2122 2.32234 24.495 4.34626 26.757 6.37018C27.1513 6.72127 27.2759 7.29953 27.0683 7.77453C24.578 13.1235 22.0876 18.4724 19.5973 23.78C19.3275 24.3789 19.6803 25.0811 20.3029 25.2257C22.7725 25.8039 25.2213 26.3409 27.6909 26.9192C28.5003 27.0844 28.687 28.117 28.0437 28.592C22.4612 32.6605 16.8787 36.729 11.2962 40.8181C10.7151 41.2518 9.94724 41.2725 9.34541 40.8594C6.68904 39.1453 4.03268 37.4105 1.35557 35.6964C0.857499 35.3659 0.649971 34.7257 0.919757 34.1681C3.20257 29.3561 5.50613 24.5235 7.78894 19.7322C8.01722 19.2365 7.91346 18.6583 7.53991 18.2659C5.48538 16.2213 3.43085 14.1767 1.35557 12.1528C0.857499 11.6778 0.961263 10.893 1.52159 10.5419V10.5399Z" fill="#2D3232"/>
</g>
</svg>
