<svg width="113" height="35" viewBox="0 0 113 35" fill="none" xmlns="http://www.w3.org/2000/svg">
<g opacity="0.3">
<path d="M47.4063 15.5963C46.2629 15.5963 45.2506 15.4089 44.3508 15.0152C43.4698 14.6216 42.7574 14.0779 42.2138 13.3843C41.6702 12.6908 41.3328 11.8847 41.1641 10.9474L43.7135 10.2913C43.8447 10.9287 44.0696 11.4536 44.3883 11.9034C44.707 12.3533 45.1381 12.6908 45.6443 12.9345C46.1504 13.1781 46.7315 13.2906 47.3689 13.2906C48.3249 13.2906 49.0934 13.1032 49.7121 12.7283C50.3119 12.3533 50.6306 11.8097 50.6306 11.1161C50.6306 10.6662 50.4994 10.3101 50.2369 10.0476C49.9745 9.7852 49.5808 9.56025 49.056 9.39154C48.5311 9.22283 47.7813 9.03537 46.7877 8.82917C45.6443 8.58548 44.707 8.28555 43.9759 7.96687C43.2448 7.6482 42.6825 7.21705 42.2701 6.65468C41.8576 6.11106 41.6702 5.39873 41.6702 4.53643C41.6702 3.63664 41.9139 2.84933 42.3825 2.19323C42.8512 1.53714 43.5073 1.03101 44.3696 0.693586C45.2131 0.356166 46.1879 0.187456 47.2939 0.187456C48.3061 0.187456 49.1872 0.356164 49.9557 0.71233C50.7243 1.0685 51.3429 1.55588 51.849 2.17449C52.3364 2.79309 52.6926 3.52417 52.8988 4.34897L50.4619 5.04256C50.2182 4.19901 49.8245 3.56166 49.2809 3.11177C48.7373 2.66187 48.0437 2.43693 47.2189 2.43693C46.3566 2.43693 45.6443 2.60563 45.1194 2.9618C44.5758 3.31797 44.3133 3.76786 44.3133 4.34897C44.3133 4.74263 44.4258 5.06131 44.6882 5.305C44.9319 5.54869 45.2881 5.75489 45.7567 5.90486C46.2254 6.07357 46.9002 6.24228 47.8 6.44848C49.0372 6.69217 50.0495 6.9921 50.818 7.32952C51.5866 7.66695 52.2052 8.11684 52.6364 8.69795C53.0675 9.27906 53.2925 10.0476 53.2925 10.9849C53.2925 11.9222 53.0488 12.7282 52.5426 13.4406C52.0365 14.1342 51.3429 14.6778 50.4619 15.0527C49.5621 15.4089 48.5498 15.5963 47.4063 15.5963ZM59.1598 15.5026C59.6285 15.5026 60.1346 15.4276 60.6407 15.2964V13.3843C60.2658 13.4218 59.9659 13.4406 59.7409 13.4406C59.3098 13.4406 58.9724 13.3469 58.7662 13.1969C58.56 13.0469 58.4287 12.7657 58.4287 12.3721V6.59844H60.6407V4.63016H58.4287V1.87456H56.0293V4.63016H54.361V6.59844H56.0293V12.5033C56.0293 13.4593 56.273 14.2092 56.7604 14.7153C57.2478 15.2402 58.0351 15.5026 59.1598 15.5026ZM66.6393 15.5963C67.3516 15.5963 68.0077 15.4464 68.6076 15.1277C69.2075 14.8278 69.7136 14.3779 70.1447 13.8155V15.2589H72.5442V4.63016H70.126V6.07357C69.7136 5.5112 69.1887 5.08005 68.5889 4.76138C67.989 4.4427 67.3329 4.29274 66.6206 4.29274C65.6645 4.29274 64.8022 4.53643 64.0712 5.02381C63.3213 5.5112 62.759 6.1673 62.3278 7.02959C61.9154 7.89189 61.6905 8.86666 61.6905 9.97265C61.6905 11.0599 61.8967 12.0347 62.3278 12.8782C62.7402 13.7218 63.3213 14.3966 64.0712 14.884C64.821 15.3714 65.6645 15.5963 66.6393 15.5963ZM67.1642 13.5343C66.5831 13.5343 66.0582 13.3843 65.6083 13.1032C65.1584 12.822 64.8022 12.4096 64.5585 11.866C64.3149 11.3223 64.1836 10.7037 64.1836 9.97265C64.1836 8.84791 64.4461 7.98562 64.9897 7.32952C65.5333 6.69217 66.2644 6.3735 67.1829 6.3735C68.0827 6.3735 68.8138 6.69217 69.3387 7.32952C69.8636 7.96687 70.126 8.84791 70.126 9.97265C70.126 10.7037 69.9948 11.3223 69.7511 11.866C69.5074 12.4096 69.17 12.822 68.7201 13.1032C68.2889 13.3843 67.764 13.5343 67.1642 13.5343ZM76.9119 15.2777V10.1039C76.9119 9.09161 77.1743 8.28555 77.6992 7.70444C78.2241 7.12332 78.9177 6.82339 79.7612 6.82339C80.0237 6.82339 80.2674 6.84213 80.4736 6.87963V4.59267C80.3423 4.57392 80.2299 4.55517 80.1361 4.53643C80.0237 4.53643 79.9112 4.51769 79.7612 4.51769C79.1051 4.51769 78.5428 4.68639 78.0554 5.02381C77.568 5.36124 77.1931 5.84862 76.9119 6.48597V4.63016H74.5125V15.2589H76.9119V15.2777ZM81.917 15.2777H84.2977V0.0937279H81.917V15.2777ZM87.5219 3.168C87.953 3.168 88.328 3.01804 88.6466 2.69936C88.9653 2.39943 89.1153 2.02452 89.1153 1.59337C89.1153 1.16223 88.9653 0.787315 88.6466 0.46864C88.328 0.149965 87.953 0 87.5219 0C87.0907 0 86.7158 0.149965 86.4159 0.46864C86.116 0.787315 85.966 1.16223 85.966 1.59337C85.966 2.02452 86.116 2.39943 86.4159 2.69936C86.7158 3.01804 87.072 3.168 87.5219 3.168ZM86.3034 15.2777H88.7404V4.6489H86.3034V15.2777ZM93.1268 15.2777V9.61648C93.1268 8.96039 93.2393 8.37928 93.4642 7.89189C93.6892 7.40451 93.9891 7.02959 94.3828 6.74841C94.7764 6.46723 95.2263 6.33601 95.7137 6.33601C96.426 6.33601 96.9697 6.54221 97.3258 6.97335C97.682 7.4045 97.8695 8.02311 97.8695 8.82917V15.2589H100.306V8.66046C100.306 7.29203 99.969 6.22354 99.2941 5.45497C98.6193 4.6864 97.682 4.29274 96.4823 4.29274C95.7325 4.29274 95.0764 4.46145 94.514 4.78012C93.9329 5.0988 93.483 5.56744 93.1268 6.1673V4.61141H90.7274V15.2402H93.1268V15.2777ZM107.336 19.5891C108.386 19.5891 109.304 19.4017 110.092 19.008C110.879 18.6331 111.479 18.0707 111.91 17.3584C112.341 16.6461 112.547 15.7838 112.547 14.7903V4.63016H110.167V5.99859C109.754 5.45497 109.267 5.04256 108.667 4.74263C108.067 4.4427 107.411 4.31148 106.699 4.31148C105.743 4.31148 104.899 4.53643 104.168 5.00507C103.437 5.47371 102.856 6.11106 102.425 6.93587C102.012 7.76067 101.787 8.69795 101.787 9.7477C101.787 10.7975 101.993 11.7347 102.425 12.5408C102.837 13.3656 103.418 13.9842 104.168 14.4528C104.899 14.9027 105.761 15.1277 106.699 15.1277C107.411 15.1277 108.067 14.9777 108.648 14.6965C109.248 14.3966 109.754 13.9842 110.167 13.4593V14.8652C110.167 15.4651 110.054 15.9712 109.848 16.3836C109.623 16.796 109.323 17.1147 108.911 17.3209C108.498 17.5271 107.992 17.6396 107.411 17.6396C106.736 17.6396 106.155 17.4896 105.668 17.2084C105.199 16.9085 104.843 16.4774 104.637 15.915L102.331 16.5149C102.631 17.5084 103.212 18.2769 104.13 18.8206C105.03 19.308 106.099 19.5891 107.336 19.5891ZM107.224 13.1407C106.642 13.1407 106.118 13.0094 105.668 12.7283C105.218 12.4471 104.88 12.0534 104.637 11.5473C104.393 11.0412 104.262 10.4413 104.262 9.72896C104.262 8.66046 104.524 7.83565 105.049 7.21705C105.574 6.59845 106.305 6.29852 107.224 6.29852C108.123 6.29852 108.854 6.59845 109.36 7.21705C109.885 7.83565 110.148 8.66046 110.148 9.72896C110.148 10.4225 110.035 11.0224 109.773 11.5473C109.529 12.0534 109.192 12.4471 108.742 12.7283C108.329 12.9907 107.823 13.1407 107.224 13.1407ZM49.6933 34.0607C50.5743 34.0607 51.3429 33.8733 51.999 33.5359C52.6551 33.1797 53.1612 32.6923 53.5174 32.055C53.8736 31.4176 54.0423 30.7053 54.0423 29.9367C54.0423 29.0744 53.8173 28.3246 53.3862 27.6872C52.955 27.0499 52.3177 26.6 51.4929 26.3188C52.1302 26.0376 52.6176 25.6252 52.9738 25.0816C53.3299 24.538 53.5174 23.9006 53.5174 23.1883C53.5174 22.476 53.3487 21.8199 53.0113 21.2387C52.6739 20.6576 52.1865 20.189 51.5491 19.8516C50.9118 19.5142 50.1619 19.3454 49.2809 19.3454H42.1951V34.0795H49.6933V34.0607ZM44.707 25.5315V21.3887H48.831C49.5433 21.3887 50.087 21.5762 50.4806 21.9323C50.8743 22.2885 51.0617 22.7946 51.0617 23.432C51.0617 24.0693 50.8743 24.5567 50.4806 24.9504C50.087 25.3253 49.5433 25.5315 48.8685 25.5315H44.707ZM44.707 31.9987V27.4248H49.1309C49.8808 27.4248 50.4806 27.631 50.893 28.0621C51.3242 28.4745 51.5304 29.0369 51.5304 29.7305C51.5304 30.4241 51.3242 30.9865 50.893 31.3801C50.4619 31.7925 49.8808 31.98 49.1309 31.98H44.707V31.9987ZM60.1159 34.3981C60.8282 34.3981 61.4843 34.2482 62.0841 33.9295C62.684 33.6296 63.1901 33.1797 63.6213 32.6173V34.0607H66.0207V23.432H63.6213V24.8754C63.2089 24.313 62.684 23.8819 62.0841 23.5632C61.4843 23.2445 60.8282 23.0946 60.1159 23.0946C59.1598 23.0946 58.2975 23.3383 57.5665 23.8256C56.8354 24.313 56.2543 24.9691 55.8231 25.8314C55.4107 26.6937 55.1858 27.6685 55.1858 28.7745C55.1858 29.8617 55.392 30.8365 55.8231 31.68C56.2355 32.5236 56.8166 33.1984 57.5665 33.6858C58.2975 34.1545 59.1598 34.3981 60.1159 34.3981ZM60.6407 32.3174C60.0596 32.3174 59.5347 32.1674 59.0848 31.8862C58.6349 31.6051 58.2788 31.1927 58.0351 30.649C57.7914 30.1054 57.6602 29.4868 57.6602 28.7557C57.6602 27.631 57.9226 26.7687 58.4662 26.1126C59.0099 25.4752 59.7409 25.1566 60.6595 25.1566C61.5593 25.1566 62.2903 25.4752 62.8152 26.1126C63.3401 26.7499 63.6025 27.631 63.6025 28.7557C63.6025 29.4868 63.4713 30.1054 63.2276 30.649C62.9839 31.1927 62.6465 31.6051 62.1966 31.8862C61.7655 32.1862 61.2406 32.3174 60.6407 32.3174ZM70.4072 34.0607V28.3996C70.4072 27.7435 70.5196 27.1623 70.7446 26.675C70.9695 26.1876 71.2695 25.8127 71.6631 25.5315C72.0568 25.2503 72.5067 25.1191 72.9941 25.1191C73.7064 25.1191 74.25 25.3253 74.6062 25.7564C74.9623 26.1876 75.1498 26.8062 75.1498 27.6122V34.042H77.5867V27.4435C77.5867 26.0751 77.2493 25.0066 76.5745 24.238C75.8996 23.4695 74.9623 23.0758 73.7626 23.0758C73.0128 23.0758 72.3567 23.2445 71.7943 23.5632C71.2132 23.8819 70.7633 24.3505 70.4072 24.9504V23.3945H68.0077V34.0232H70.4072V34.0607ZM81.9545 34.0607V30.4991L83.0042 29.4681L86.3972 34.0607H89.2465L84.6538 27.8372L89.134 23.4132H86.0972L81.9545 27.4623V18.8768H79.5738V34.0607H81.9545Z" fill="black"/>
<path d="M34.0568 17.0773C34.0568 26.45 26.4461 34.0607 17.0733 34.0607C7.70055 34.0607 0.0898438 26.45 0.0898438 17.0773C0.0898438 7.70446 7.70055 0.09375 17.0733 0.09375C26.4461 0.09375 34.0568 7.68571 34.0568 17.0773Z" fill="black"/>
<path d="M10.3047 17.0787V16.1414C10.3047 10.2741 15.0661 5.5127 20.9334 5.5127H21.8707V9.37429H20.9334C17.2031 9.37429 14.1475 12.4111 14.1475 16.1602V17.0975H10.3047V17.0787ZM19.9774 17.0787V18.016C19.9774 21.7464 16.9406 24.8019 13.1915 24.8019H12.2542V28.6635H13.1915C19.0589 28.6635 23.8203 23.9021 23.8203 18.0347V17.0975H19.9774V17.0787Z" fill="white"/>
</g>
</svg>
