<?xml version="1.0" encoding="utf-8"?>
<!-- Generator: Adobe Illustrator 22.1.0, SVG Export Plug-In . SVG Version: 6.00 Build 0)  -->
<svg version="1.1" id="Layer_1" xmlns="http://www.w3.org/2000/svg" xmlns:xlink="http://www.w3.org/1999/xlink" x="0px" y="0px"
	 viewBox="0 0 4043.3 3749" style="enable-background:new 0 0 4043.3 3749;" xml:space="preserve">
<style type="text/css">
	.st0{fill:none;stroke:#333432;stroke-width:2;stroke-miterlimit:10;}
</style>
<path class="st0" d="M449.9,3088.2c54.9,61.1,115.5,118.8,180.5,171.6c-7.1,49.4-13.2,100-18.4,150.9
	c-82.5-70.8-158.3-148-225.3-230.6C407.2,3149.3,428.4,3118.6,449.9,3088.2z M785.5,3371.3c7.7,5.1,16.8,11,16.8,11
	c0.1,0,3.2,1.9,3.2,1.9l3.3,1.6c88.7,44.7,181.6,79.2,275.7,103.3c21.2,68.9,45.9,138.2,72.5,207.1
	c-112.9-29.5-223.7-71.1-329.8-125.2c-1.5-1.1-42.5-28.7-57.6-38.8C773.9,3477.4,779.2,3423.7,785.5,3371.3z M1435.2,3529.9
	c105.7-2.2,210.9-17.8,313.4-45.8c14.4,17.5,70.2,84.6,70.2,84.6c37.2,43.9,76.6,88.1,116.9,132c-191.1,47.9-386.6,59.6-581.9,34.3
	c-30.2-70.5-57.2-141.7-81.5-212.6C1326.3,3528.1,1380.9,3531,1435.2,3529.9z M2367.9,388.3c96-94.2,199.6-189.1,307.5-282.4
	c251.8,80.2,485.1,202.8,694.7,364.2c-201.3,112.5-406.5,235.8-611,367.7c-170.9-124.4-357.8-218.9-556.4-281.8
	C2257,498.9,2312.2,442.4,2367.9,388.3z M12.7,2273.5c23.7,12.8,47.5,24.9,71.3,35.8c1.9,12.4,4.9,31,4.9,31v-0.2
	c14.2,84.4,35.9,167.6,64.2,248c-20.8,7.8-47.5,17.9-69.8,26.2C49,2504.8,25.4,2390.5,12.7,2273.5z M219.5,2747
	c34.4,70.6,74.8,138.8,120.3,203.3c-20,28-39.4,56.1-58.7,84.3c-53.4-82.1-99.8-168.7-138.3-258.9
	C166.5,2766.9,198.6,2754.8,219.5,2747z M1396.4,90.9c-17.6,29.5-34.8,58.9-50.9,87.6C1280.2,295,1222.1,415,1172.2,535.4
	C1006.3,584.3,853.6,658.6,717.4,757c16.1-113.8,41-232.3,74.8-353.5C971.3,263.9,1174.2,159.3,1396.4,90.9z M65.1,1566
	c16.5,39.1,34.3,77.5,54.1,114.1c-33.9,134-51.3,269.7-51.3,404.1c0,8.2,0.2,16.3,0.4,24.5c-22.7-13.1-45.1-27.1-67.3-42.2
	C1.2,1900.5,22.7,1732.5,65.1,1566z M567.6,610.2c1.6-1.6,3.3-3.4,4.8-5c-12.8,67.4-23.1,133.9-30.3,198.3
	c-4.3,36.9-7.3,74.5-9.8,112.1c-24,24.4-47.2,49.6-68.8,74.9l-0.9,0.8c-0.3,0.5-1.2,1.6-1.2,1.6
	c-110.1,139.2-198.8,290.7-264.5,451.1c-17.1-47-32.1-96.4-44.6-147.9C249.6,1049.8,389.2,819,567.6,610.2z M2477.8,53.3
	c-81.2,72.5-158.9,144.9-231.3,215.8c-79.2,77.6-156.6,157.6-230.4,237.9c-146.7-30.4-295.3-43.1-442.1-37.2
	c-66.6,2.7-132.8,10.3-197.9,20.5c36.1-78,75-155.8,117.4-231.1c42.2-75,89-150.9,138.9-225.9C1906.6-15.9,2197.6-8.6,2477.8,53.3z
	 M637.9,2773.2c-44.1,54-87.5,109.3-129.1,164.6l-8.7,11.5l9.2,11.1c47.5,56.9,100.3,111,157.2,160.7l23.8,20.9l5.9-31.3
	c15-79.8,32.7-158.1,52.6-232.6c0,0.1,1-3.4,1-3.4l4-14.2l-8.5-7.8l-41.5-39l-52.3-56.1L637.9,2773.2z M821.1,2942.3
	c-19.8,78.9-37.2,162.5-51.6,248.7l-1.9,11.1l9.2,6.6c29,20.9,58.7,40.8,88.1,59.1l0.7,0.5l0.7,0.4c61,30.5,125.2,56.2,190.9,76.2
	l30.7,9.4l-11.8-46.8c-22.5-92.7-40.1-186.1-52.5-277.8l-1.4-10.7l-10.3-3.8c-57-21.8-112.1-49.9-163.4-83.6l-21.4-13.8
	L821.1,2942.3z M1117.1,3073.3c11.6,73.6,26.6,148.4,44.9,222.1l21.1,81l11.5,1.9c161.5,29.4,323.3,25.7,480.8-10.7l27.5-6.4
	l-17.1-22.3c-66.9-87.7-130.9-178-190.2-268.5l-6.1-9.5l-11.4,1.5c-49.3,6.6-102.2,9.9-157,9.9c-61.1,0-122.5-6.5-182.2-19.3
	l-25.8-5.6L1117.1,3073.3z M516.8,2580.1c-57.9,25.9-117.9,51.6-178.3,76.2l-17.8,7.2l8.4,17.5c29.3,60.7,63.3,119.6,101,174.8
	l14.2,20.9l15.3-20c41.4-54.5,84.7-109,128.7-162.4l8.5-10.3l-7.5-11.1c-17.9-27.4-34.3-55.8-48.9-84.4l-7.7-15.3L516.8,2580.1z
	 M1579,601.2c-104,4.1-206.6,18.4-305,42.4l-9.2,2.2l-3.4,8.9c-73.4,190-125.6,383.2-155,574.2c-12.8,82.8-21.4,166.6-25.7,249
	l-1,19.6l46.9-1.2c63.1,0,126.2,9.3,187.2,27.5l14.1,4.3l7-13.1c46-86,97.1-173.4,152.1-260.1c127.6-201.1,279.9-403.5,452.2-601.3
	l21.3-24.4l-32-5.4C1812.3,604.1,1694.6,596.5,1579,601.2z M2051.7,659c-187.6,209.8-351.7,424.1-487.8,637.2
	c-52.5,82.2-101.5,165.6-145.7,247.8l-8.8,16.2l16.5,8.5c66.9,34.3,127.6,79.4,180.3,134.1l11.5,12l12.8-10.5
	c195.9-157.4,397.2-310.8,598.5-455.8c140-100.7,283.7-200,427.1-294.9l22.3-14.8l-21.9-15.3c-180.1-125.8-377.5-216.6-586.7-270.1
	l-10.6-2.7L2051.7,659z M218.7,2345.7c13.9,74.1,34.2,147,59.9,216.7l6.5,17.7l17.4-7c61.3-25.2,121.9-51.1,180-77.1l15-6.7
	l-5.2-15.7c-10.4-30.6-19.1-62.3-26-94l-2.7-12.8l-13.3-1.4c-70.8-6.8-141.1-20.5-208.6-40.5l-28.5-8.4L218.7,2345.7z M218.5,1818.4
	c-16.1,88.4-24.2,177.9-24.2,265.8c0,40.1,1.7,80.6,5.1,120.4l1,11.7l11,3.8c69.2,24.8,142.2,42,216.9,51.2l20.9,2.5l-2.6-78.6
	c0-53,6.1-106.4,18-158.8l2.6-11.4l-9.3-7.1c-62.9-47.5-120.7-102.3-171.8-163l-60.2-75.7L218.5,1818.4z M536.7,1105.6
	C409,1273.9,315.1,1458.4,257.5,1654l-2.2,7.7l4.1,6.8c27.3,44.5,57.5,86.6,89.6,124.9c38.5,45.7,81.3,87.9,127.9,125.9l18.6,15.1
	l9.5-22c38.3-88.8,93.2-167.2,162.9-232.9l8.8-8.3l-5.1-13.5l-8.7-23.2c-56.6-158.6-88.1-333.2-93.7-518.9l-1.4-51.3L536.7,1105.6z
	 M1125.1,688.4c-175.3,63.2-331.3,157.9-463.7,281.5l-5.5,5.1l-0.2,7.5c-8.2,221.5,20.2,426.9,84.4,610.7l7.6,21.7l19.3-12.4
	c65.7-42.3,137.2-72.4,212.6-89.7l13.4-3l0.6-13.8c3.9-90.2,12.9-182.1,26.7-273.2c25.6-170,68.6-342,127.9-511.3l12.6-36
	L1125.1,688.4z M3510.9,587.4c14.7,13.5,44.3,40.8,44.3,40.8C3771.8,843,3935.4,1104.6,4042,1405
	c-224.9,79.4-452.1,154.2-676.5,222.6c-83.7-221.9-207-418.8-367.1-585.4l-1.1-1c-30.7-30.9-63.7-61.2-97.4-90.6
	C3105.7,819.3,3311,697.2,3510.9,587.4z M2976.2,2730.7c-96.7,400.1-422.9,747.4-860.6,914.2c-58.7-62.1-114.4-123.6-165.3-183.2
	c0,0-16.5-19.6-31.4-37.2c28.8-12.5,57.1-25.6,83.7-39.4c276.2-144.6,474-379.3,545.5-645.8
	C2638,2739.5,2796.8,2738.2,2976.2,2730.7z M3268.5,1793.7c-281.2,83.1-560.7,157.2-830.4,220.3c-210.1,49-418.1,92.3-618.2,128.7
	l-15.4,2.8l1.7,57.8c0,81-20.9,184.6-57.4,284.5l-6.9,18.9l19.5,4.9c65.8,16.6,136.2,31,209.2,43c370.9,61,834.4,64.1,1377.1,9.4
	l15.2-1.5l1.1-15.3c3.8-54.3,5.8-109.7,5.8-164.1c0-203.4-26.4-397.6-78.6-577.3l-5.1-17.3L3268.5,1793.7z M2742.3,1003.5
	c-155,101.8-311,209-463.4,318.8c-199.2,143.5-398.7,295.3-592.6,451.1l-13.1,10.4l9.5,14c49.6,73.4,84.7,154.6,104.7,241.3l3.9,17
	l17-3.2c199-36.1,405.6-79.2,614.3-128.2c265.4-62,540.2-134.8,816.5-216.4l18.6-5.5l-6.7-18.2c-77.5-208.8-192.6-393.6-342.2-549
	c-45.7-45.9-94.6-89.9-145.1-130.9l-10.4-8.3L2742.3,1003.5z M2032.3,2667.6c-90.1,191.6-229.2,312-425.6,368.2l-24.1,6.9l13.9,20.6
	c58.9,87.9,122.2,175.4,188.2,260l7.9,10.4l12.4-4.5c48.6-17.5,96-38.2,140.5-61.5c239.7-125.5,414.3-328.3,478.7-556.6l6.2-22
	l-22.8-1.1c-125.6-5.4-245.6-15.7-356.7-30.5l-13.2-1.9L2032.3,2667.6z"/>
</svg>
