<?xml version="1.0" encoding="utf-8"?>
<!-- Generator: Adobe Illustrator 22.1.0, SVG Export Plug-In . SVG Version: 6.00 Build 0)  -->
<svg version="1.1" id="Layer_1" xmlns="http://www.w3.org/2000/svg" xmlns:xlink="http://www.w3.org/1999/xlink" x="0px" y="0px"
	 viewBox="0 0 40 40" style="enable-background:new 0 0 40 40;" xml:space="preserve">
<style type="text/css">
	.st0{clip-path:url(#SVGID_2_);}
	.st1{fill-rule:evenodd;clip-rule:evenodd;fill:#FFFFFF;stroke:#1D1D1B;stroke-width:6.823935e-02;stroke-miterlimit:2.6131;}
	.st2{fill-rule:evenodd;clip-rule:evenodd;fill:#FFFFFF;}
	.st3{fill-rule:evenodd;clip-rule:evenodd;fill:#1C2458;}
	.st4{fill-rule:evenodd;clip-rule:evenodd;fill:#CC1417;}
</style>
<g>
	<defs>
		<circle id="SVGID_1_" cx="20" cy="20" r="20"/>
	</defs>
	<use xlink:href="#SVGID_1_"  style="overflow:visible;fill-rule:evenodd;clip-rule:evenodd;fill:#FFFFFF;"/>
	<clipPath id="SVGID_2_">
		<use xlink:href="#SVGID_1_"  style="overflow:visible;"/>
	</clipPath>
	<g class="st0">
		<circle class="st1" cx="20" cy="20" r="20"/>
		<g>
			<path class="st2" d="M23.3,40h2.2l0-12.2L45.8,40l7.4,0L31.2,26.7c1.1-0.1,2.7,0,3.8,0c1,0,0.9-0.1,1.6,0.4L48.2,34
				c0.4,0.3,4.8,2.9,5.1,3v-1.5l-14.7-8.8l14.7,0l0-2.7l-30,0L23.3,40z"/>
			<path class="st2" d="M-13.3,3v1.5l14.7,8.8l-14.7,0l0,2.7l30,0l0-16l-2.2,0l0,12.2L-5.8,0l-7.4,0C-13,0.3,2.2,9.3,3.3,10
				c0.9,0.6,1.8,1.1,2.8,1.7c0.5,0.3,2.5,1.4,2.7,1.7c-1.2,0.1-2.7,0-3.9,0c-0.9,0-0.9,0.1-1.6-0.4c-0.4-0.3-0.9-0.5-1.3-0.8
				L-13.3,3z"/>
			<path class="st2" d="M-13.3,26.7l14.7,0l-14.7,8.8l0,4.5h0.1c0.2-0.2,5.9-3.6,6.3-3.8c2.1-1.3,4.2-2.5,6.3-3.8
				c2.1-1.3,4.2-2.5,6.3-3.8c3.8-2.3,2.3-1.9,5.6-1.9c0.8,0,1.6,0,2.4,0L8.3,30C7.2,30.7-8.1,39.8-8.3,40h2.5l20.2-12.2l0,12.2h2.2
				l0-16l-30,0L-13.3,26.7z"/>
			<path class="st2" d="M53.3,16v-2.7l-14.7,0l14.7-8.8V0l-0.1,0c-0.2,0.2-2.7,1.7-3.2,1.9l-9.5,5.7c-2.1,1.3-4.2,2.5-6.3,3.8
				c-0.5,0.3-2.9,1.8-3.2,1.9l-4.8,0l5.5-3.4C32.6,9.5,48.1,0.2,48.3,0l-2.5,0L25.5,12.2l0-12.2l-2.2,0l0,16L53.3,16z"/>
			<g>
				<polygon class="st3" points="14.5,0 -5.8,0 14.4,12.2 				"/>
				<polygon class="st3" points="-5.8,40 14.5,40 14.4,27.8 				"/>
				<polygon class="st3" points="45.8,0 25.5,0 25.5,12.2 				"/>
				<polygon class="st3" points="25.5,40 45.8,40 25.5,27.8 				"/>
				<polygon class="st3" points="-13.3,35.5 1.4,26.7 -13.3,26.7 				"/>
				<polygon class="st3" points="53.3,13.3 53.3,4.5 38.6,13.3 				"/>
				<polygon class="st3" points="-13.3,13.3 1.4,13.3 -13.3,4.5 				"/>
				<polygon class="st3" points="53.3,35.5 53.3,26.7 38.6,26.7 				"/>
			</g>
			<g>
				<polygon class="st4" points="-13.3,16 -13.3,24 16.7,24 16.7,40 23.3,40 23.3,24 53.3,24 53.3,16 23.3,16 23.3,0 16.7,0 
					16.7,16 				"/>
				<path class="st4" d="M53.2,0l-5,0C48.1,0.2,32.6,9.5,31.8,10l-5.5,3.4l4.8,0c0.3,0,2.7-1.6,3.2-1.9c2.1-1.3,4.2-2.5,6.3-3.8
					l9.5-5.7C50.5,1.7,53.1,0.2,53.2,0z"/>
				<path class="st4" d="M-13.2,40h5c0.2-0.3,15.5-9.3,16.5-10l5.5-3.4c-0.8,0-1.6,0-2.4,0c-3.3,0-1.8-0.4-5.6,1.9
					c-2.1,1.3-4.2,2.5-6.3,3.8c-2.1,1.3-4.2,2.5-6.3,3.8C-7.3,36.4-13,39.8-13.2,40z"/>
				<path class="st4" d="M-13.3,3L2,12.2c0.4,0.3,0.8,0.5,1.3,0.8C4.1,13.4,4,13.3,5,13.3c1.2,0,2.7,0.1,3.9,0
					c-0.2-0.3-2.2-1.4-2.7-1.7c-0.9-0.6-1.8-1.1-2.8-1.7C2.2,9.3-13,0.3-13.2,0l-0.1,0L-13.3,3z"/>
				<path class="st4" d="M53.2,40L53.2,40l0.1-3c-0.3-0.1-4.7-2.8-5.1-3L36.7,27c-0.8-0.5-0.7-0.4-1.6-0.4c-1.2,0-2.7-0.1-3.8,0
					L53.2,40z"/>
			</g>
		</g>
	</g>
</g>
</svg>
