<?xml version="1.0" encoding="utf-8"?>
<!-- Generator: Adobe Illustrator 23.0.4, SVG Export Plug-In . SVG Version: 6.00 Build 0)  -->
<svg version="1.1" id="Layer_1" xmlns="http://www.w3.org/2000/svg" xmlns:xlink="http://www.w3.org/1999/xlink" x="0px" y="0px"
	 viewBox="0 0 42.66 42.67" style="enable-background:new 0 0 42.66 42.67;" xml:space="preserve">
<style type="text/css">
	.st0{fill:#FFFFFF;}
</style>
<path class="st0" d="M40.31,0H2.35C1.05,0,0,1.05,0,2.35v37.96c0,1.3,1.05,2.35,2.35,2.35h20.44V26.13h-5.58v-6.42h5.58v-4.75
	c0-5.51,3.36-8.5,8.28-8.5c2.35,0,4.38,0.16,4.97,0.24v5.76l-3.41,0c-2.67,0-3.17,1.27-3.17,3.14v4.11h6.36l-0.83,6.42h-5.53v16.54
	h10.85c1.3,0,2.35-1.05,2.35-2.35V2.35C42.66,1.05,41.61,0,40.31,0z"/>
</svg>
