<?xml version="1.0" encoding="utf-8"?>
<!-- Generator: Adobe Illustrator 22.1.0, SVG Export Plug-In . SVG Version: 6.00 Build 0)  -->
<svg version="1.1" id="Layer_1" xmlns="http://www.w3.org/2000/svg" xmlns:xlink="http://www.w3.org/1999/xlink" x="0px" y="0px"
	 viewBox="0 0 29.5 29.4" style="enable-background:new 0 0 29.5 29.4;" xml:space="preserve">
<style type="text/css">
	.st0{fill:#00537f;}
</style>
<g>
	<g>
		<path class="st0" d="M14.8,0C6.6,0,0,6.6,0,14.7c0,8.1,6.6,14.7,14.8,14.7c8.1,0,14.8-6.6,14.8-14.7C29.5,6.6,22.9,0,14.8,0z
			 M14.8,28.2c-7.5,0-13.5-6-13.5-13.5c0-7.4,6.1-13.5,13.5-13.5c7.5,0,13.5,6.1,13.5,13.5C28.3,22.1,22.2,28.2,14.8,28.2z
			 M15.4,8.6c1,0,1.8,0.8,1.8,1.8c0,0.3,0.3,0.6,0.6,0.6s0.6-0.3,0.6-0.6c0-1.7-1.4-3.1-3.1-3.1c-1.7,0-3.1,1.4-3.1,3.1v3.1H9.8
			c-0.3,0-0.6,0.3-0.6,0.6c0,0.3,0.3,0.6,0.6,0.6h2.5v1.2c0,3.7-1.4,3.7-1.8,3.7c-0.3,0-0.6,0.3-0.6,0.6c0,0.3,0.3,0.6,0.6,0.6h7.4
			c0.3,0,0.6-0.3,0.6-0.6c0-0.3-0.3-0.6-0.6-0.6h-5.1c0.5-0.7,0.8-1.9,0.8-3.7v-1.2H16c0.3,0,0.6-0.3,0.6-0.6c0-0.3-0.3-0.6-0.6-0.6
			h-2.5v-3.1C13.5,9.4,14.4,8.6,15.4,8.6z"/>
	</g>
</g>
</svg>
