<?xml version="1.0" encoding="utf-8"?>
<!-- Generator: Adobe Illustrator 22.1.0, SVG Export Plug-In . SVG Version: 6.00 Build 0)  -->
<svg version="1.1" id="Layer_1" xmlns="http://www.w3.org/2000/svg" xmlns:xlink="http://www.w3.org/1999/xlink" x="0px" y="0px"
	 viewBox="0 0 19.7 29.4" style="enable-background:new 0 0 19.7 29.4;" xml:space="preserve">
<style type="text/css">
	.st0{fill:#00537f;}
</style>
<g>
	<g>
		<path class="st0" d="M9.8,0C4.4,0,0,4.4,0,9.8C0,15,9,28.6,9.3,29.1c0.1,0.2,0.3,0.3,0.5,0.3c0.2,0,0.4-0.1,0.5-0.3
			c0.4-0.6,9.3-14.1,9.3-19.3C19.7,4.4,15.3,0,9.8,0z M9.8,27.7C7.9,24.7,1.2,14,1.2,9.8c0-4.7,3.9-8.6,8.6-8.6
			c4.8,0,8.6,3.8,8.6,8.6C18.5,14,11.8,24.7,9.8,27.7z M9.8,5.5c-2.4,0-4.3,1.9-4.3,4.3c0,2.4,1.9,4.3,4.3,4.3
			c2.4,0,4.3-1.9,4.3-4.3C14.2,7.4,12.2,5.5,9.8,5.5z M9.8,12.9c-1.7,0-3.1-1.4-3.1-3.1c0-1.7,1.4-3.1,3.1-3.1
			c1.7,0,3.1,1.4,3.1,3.1C12.9,11.5,11.5,12.9,9.8,12.9z"/>
	</g>
</g>
</svg>
