<?xml version="1.0" encoding="utf-8"?>
<!-- Generator: Adobe Illustrator 22.1.0, SVG Export Plug-In . SVG Version: 6.00 Build 0)  -->
<svg version="1.1" id="Layer_1" xmlns="http://www.w3.org/2000/svg" xmlns:xlink="http://www.w3.org/1999/xlink" x="0px" y="0px"
	 viewBox="0 0 23 21" style="enable-background:new 0 0 23 21;" xml:space="preserve">
<g>
	<g>
		<path d="M16.8,12.9H6.4c-0.5,0-1,0.4-1,1v6.2c0,0.5,0.4,1,1,1h10.4c0.5,0,1-0.4,1-1v-6.2C17.8,13.3,17.4,12.9,16.8,12.9z
			 M20.9,3.1h-0.4v-1c0-1.1-0.9-2.1-2.1-2.1H4.7C3.5,0,2.6,0.9,2.6,2.1v1H2.1C0.9,3.1,0,4,0,5.2v9.3c0,1.1,0.9,2.1,2.1,2.1h1.8v-3.7
			c0-0.7,0.6-1.2,1.2-1.2h13c0.7,0,1.2,0.5,1.2,1.2v3.7h1.5c1.2,0,2.1-0.9,2.1-2.1V5.2C23,4,22.1,3.1,20.9,3.1z M18.2,9.2
			c-0.9,0-1.7-0.7-1.7-1.6c0-0.9,0.7-1.6,1.7-1.6c0.9,0,1.7,0.7,1.7,1.6C19.9,8.5,19.2,9.2,18.2,9.2z"/>
	</g>
</g>
</svg>
