<?xml version="1.0" encoding="utf-8"?>
<!-- Generator: Adobe Illustrator 22.1.0, SVG Export Plug-In . SVG Version: 6.00 Build 0)  -->
<svg version="1.1" id="Layer_1" xmlns="http://www.w3.org/2000/svg" xmlns:xlink="http://www.w3.org/1999/xlink" x="0px" y="0px"
	 viewBox="0 0 32 27" style="enable-background:new 0 0 32 27;" xml:space="preserve">
<style type="text/css">
	.st0{fill:#00B6DD;}
</style>
<g>
	<g>
		<path class="st0" d="M27.9,1.2L27.9,1.2C20-0.4,12-0.4,4,1.2C1.7,1.7,0,3.8,0,6v2.9c0,2.1,1.7,3.9,3.6,3.9h3.9
			c1.9,0,3.6-1.8,3.6-3.9V7.6c3.3-0.3,6.5-0.3,9.8,0v1.3c0,2.1,1.7,3.9,3.6,3.9h3.9c1.9,0,3.6-1.8,3.6-3.9V6
			C32,3.8,30.3,1.7,27.9,1.2z M30,8.9c0,1-0.8,1.9-1.6,1.9h-3.9c-0.8,0-1.6-0.9-1.6-1.9V6.7c0-0.5-0.4-0.9-0.9-1c-2-0.2-4-0.3-6-0.3
			s-4,0.1-6,0.3c-0.5,0-0.9,0.5-0.9,1v2.2c0,1-0.8,1.9-1.6,1.9H3.6C2.8,10.8,2,9.9,2,8.9V6c0-1.3,1-2.5,2.4-2.8
			c7.7-1.6,15.4-1.6,23.1,0C29,3.5,30,4.7,30,6V8.9z M24.5,15.2c-0.5,0-1,0.4-1,1v7.2c0,0.9-0.7,1.6-1.6,1.6H8.8
			c-0.9,0-1.6-0.7-1.6-1.6v-7.2c0-0.5-0.4-1-1-1c-0.5,0-1,0.4-1,1v7.2c0,2,1.6,3.6,3.6,3.6h13.1c2,0,3.6-1.6,3.6-3.6v-7.2
			C25.5,15.6,25,15.2,24.5,15.2z M12.1,14.8h-1.3v1.3h1.3V14.8z M16,14.8h-1.3v1.3H16V14.8z M19.9,14.8h-1.3v1.3h1.3V14.8z
			 M10.8,18.8h1.3v-1.3h-1.3V18.8z M14.7,18.8H16v-1.3h-1.3V18.8z M18.6,18.8h1.3v-1.3h-1.3V18.8z M10.8,21.4h1.3v-1.3h-1.3V21.4z
			 M14.7,21.4H16v-1.3h-1.3V21.4z M18.6,21.4h1.3v-1.3h-1.3V21.4z"/>
	</g>
</g>
</svg>
