<?xml version="1.0" encoding="utf-8"?>
<!-- Generator: Adobe Illustrator 22.1.0, SVG Export Plug-In . SVG Version: 6.00 Build 0)  -->
<svg version="1.1" id="Layer_1" xmlns="http://www.w3.org/2000/svg" xmlns:xlink="http://www.w3.org/1999/xlink" x="0px" y="0px"
	 viewBox="0 0 29.5 29.4" style="enable-background:new 0 0 29.5 29.4;" xml:space="preserve">
<style type="text/css">
	.st0{fill:#00537f;}
</style>
<g>
	<g>
		<path class="st0" d="M14.8,0C6.6,0,0,6.6,0,14.7c0,8.1,6.6,14.7,14.8,14.7c8.1,0,14.8-6.6,14.8-14.7C29.5,6.6,22.9,0,14.8,0z
			 M14.8,28.2c-7.5,0-13.5-6-13.5-13.5c0-7.4,6.1-13.5,13.5-13.5c7.5,0,13.5,6.1,13.5,13.5C28.3,22.1,22.2,28.2,14.8,28.2z M16.9,16
			c0.2-0.4,0.3-0.8,0.3-1.2c0-1.4-1.1-2.5-2.5-2.5V8c0-0.3-0.3-0.6-0.6-0.6c-0.3,0-0.6,0.3-0.6,0.6v4.6c-0.7,0.4-1.2,1.2-1.2,2.1
			c0,1.4,1.1,2.5,2.5,2.5c0.5,0,0.9-0.1,1.2-0.3l5.7,5.7c0.1,0.1,0.3,0.2,0.4,0.2s0.3-0.1,0.4-0.2c0.2-0.2,0.2-0.6,0-0.9L16.9,16z
			 M15.6,15.6C15.6,15.6,15.6,15.6,15.6,15.6C15.6,15.6,15.6,15.6,15.6,15.6c-0.2,0.2-0.5,0.4-0.9,0.4c-0.7,0-1.2-0.5-1.2-1.2
			c0-0.7,0.6-1.2,1.2-1.2c0.7,0,1.2,0.6,1.2,1.2C16,15,15.9,15.3,15.6,15.6z"/>
	</g>
</g>
</svg>
