<?xml version="1.0" encoding="utf-8"?>
<!-- Generator: Adobe Illustrator 22.1.0, SVG Export Plug-In . SVG Version: 6.00 Build 0)  -->
<svg version="1.1" id="Layer_1" xmlns="http://www.w3.org/2000/svg" xmlns:xlink="http://www.w3.org/1999/xlink" x="0px" y="0px"
	 viewBox="0 0 36 48" style="enable-background:new 0 0 36 48;" xml:space="preserve">
<style type="text/css">
	.st0{fill:#FFFFFF;}
</style>
<g>
	<g>
		<path class="st0" d="M35.9,12.6c-0.1-0.1-0.1-0.2-0.2-0.3l-12-12c-0.1-0.1-0.2-0.2-0.3-0.2C23.3,0,23.1,0,23,0H1C0.4,0,0,0.4,0,1
			v46c0,0.6,0.4,1,1,1h34c0.6,0,1-0.4,1-1V13C36,12.9,36,12.7,35.9,12.6z M24,3.4l8.6,8.6H24V3.4z M34,46H2V2h20v11c0,0.6,0.4,1,1,1
			h11V46z M9,16h9c0.6,0,1-0.4,1-1c0-0.6-0.4-1-1-1H9c-0.6,0-1,0.4-1,1C8,15.6,8.4,16,9,16z M8,21c0,0.6,0.4,1,1,1h18
			c0.6,0,1-0.4,1-1c0-0.6-0.4-1-1-1H9C8.4,20,8,20.4,8,21z M27,26H9c-0.6,0-1,0.4-1,1c0,0.6,0.4,1,1,1h18c0.6,0,1-0.4,1-1
			C28,26.4,27.6,26,27,26z M27,32H9c-0.6,0-1,0.4-1,1c0,0.6,0.4,1,1,1h18c0.6,0,1-0.4,1-1C28,32.4,27.6,32,27,32z M27,38H9
			c-0.6,0-1,0.4-1,1c0,0.6,0.4,1,1,1h18c0.6,0,1-0.4,1-1C28,38.4,27.6,38,27,38z"/>
	</g>
</g>
</svg>
