<?xml version="1.0" encoding="utf-8"?>
<!-- Generator: Adobe Illustrator 22.1.0, SVG Export Plug-In . SVG Version: 6.00 Build 0)  -->
<svg version="1.1" id="Layer_1" xmlns="http://www.w3.org/2000/svg" xmlns:xlink="http://www.w3.org/1999/xlink" x="0px" y="0px"
	 viewBox="0 0 27 18" style="enable-background:new 0 0 27 18;" xml:space="preserve">
<g>
	<g>
		<path d="M8.6,7.7c0,1,0,2,0,3.1c1.6,0.1,3.3,0,4.9,0.1c-0.7,3.8-5.7,5-8.3,2.6c-2.7-2.2-2.6-7,0.2-9c1.9-1.6,4.7-1.2,6.7,0.2
			c0.8-0.7,1.5-1.5,2.2-2.4C12.7,0.9,10.7-0.1,8.6,0C4.2-0.1,0.1,3.9,0,8.6c-0.3,3.8,2.1,7.5,5.4,8.9c3.3,1.4,7.6,0.4,9.8-2.7
			c1.4-2,1.7-4.6,1.5-7C14,7.7,11.3,7.7,8.6,7.7z M24.6,7.7c0-0.9,0-1.7,0-2.6h-2.4c0,0.9,0,1.7,0,2.6c-0.8,0-1.6,0-2.4,0v2.6
			c0.8,0,1.6,0,2.4,0c0,0.9,0,1.7,0,2.6h2.4c0-0.9,0-1.7,0-2.6c0.8,0,1.6,0,2.4,0V7.7C26.2,7.7,25.4,7.7,24.6,7.7z"/>
	</g>
</g>
</svg>
