<?xml version="1.0" encoding="utf-8"?>
<!-- Generator: Adobe Illustrator 22.1.0, SVG Export Plug-In . SVG Version: 6.00 Build 0)  -->
<svg version="1.1" id="Layer_1" xmlns="http://www.w3.org/2000/svg" xmlns:xlink="http://www.w3.org/1999/xlink" x="0px" y="0px"
	 viewBox="0 0 21 21" style="enable-background:new 0 0 21 21;" xml:space="preserve">
<style type="text/css">
	.st0{fill-rule:evenodd;clip-rule:evenodd;}
</style>
<g>
	<g>
		<path class="st0" d="M0,21h3.9V5.2H0V21z M15.8,5.2c-3.4,0.1-5,2.5-5.3,2.6V5.2H6.6V21h3.9v-9.2c0-0.3,0.8-3,3.9-2.6
			c1.7,0.1,2.6,2.3,2.6,2.6V21l3.9,0V10.1C20.9,8.5,20.1,5.3,15.8,5.2z M2,0C0.9,0,0,0.9,0,2c0,1.1,0.9,2,2,2c1.1,0,2-0.9,2-2
			C3.9,0.9,3.1,0,2,0z"/>
	</g>
</g>
</svg>
