<?xml version="1.0" encoding="utf-8"?>
<!-- Generator: Adobe Illustrator 22.1.0, SVG Export Plug-In . SVG Version: 6.00 Build 0)  -->
<svg version="1.1" id="Layer_1" xmlns="http://www.w3.org/2000/svg" xmlns:xlink="http://www.w3.org/1999/xlink" x="0px" y="0px"
	 viewBox="0 0 22.1 29.4" style="enable-background:new 0 0 22.1 29.4;" xml:space="preserve">
<style type="text/css">
	.st0{fill:#00537f;}
</style>
<g>
	<g>
		<path class="st0" d="M22,3C22,3,22,2.9,22,3c0-0.2-0.1-0.3-0.2-0.4l-2.4-2.5C19.3,0.1,19.2,0,19,0H3.1C2.9,0,2.7,0.1,2.6,0.2
			L0.2,2.6c0,0,0,0,0,0C0.1,2.7,0.1,2.8,0,2.9C0,2.9,0,3,0,3C0,3,0,3,0,3.1v25.7c0,0.3,0.3,0.6,0.6,0.6h20.8c0.3,0,0.6-0.3,0.6-0.6
			L22,3C22.1,3,22.1,3,22,3z M3.3,1.2h15.4L20,2.5H2.1L3.3,1.2z M12.3,28.2H9.8v-3.7h2.5V28.2z M20.8,28.2h-7.4v-4.3
			c0-0.3-0.3-0.6-0.6-0.6H9.2c-0.3,0-0.6,0.3-0.6,0.6v4.3H1.2V3.7h19.6V28.2z M9.2,22.1h3.7c0.3,0,0.6-0.3,0.6-0.6v-3.7
			c0-0.3-0.3-0.6-0.6-0.6H9.2c-0.3,0-0.6,0.3-0.6,0.6v3.7C8.6,21.8,8.9,22.1,9.2,22.1z M9.8,18.4h2.5v2.5H9.8V18.4z M15.3,22.1H19
			c0.3,0,0.6-0.3,0.6-0.6v-3.7c0-0.3-0.3-0.6-0.6-0.6h-3.7c-0.3,0-0.6,0.3-0.6,0.6v3.7C14.7,21.8,15,22.1,15.3,22.1z M15.9,18.4h2.5
			v2.5h-2.5V18.4z M3.1,22.1h3.7c0.3,0,0.6-0.3,0.6-0.6v-3.7c0-0.3-0.3-0.6-0.6-0.6H3.1c-0.3,0-0.6,0.3-0.6,0.6v3.7
			C2.5,21.8,2.7,22.1,3.1,22.1z M3.7,18.4h2.5v2.5H3.7V18.4z M9.2,15.9h3.7c0.3,0,0.6-0.3,0.6-0.6v-3.7c0-0.3-0.3-0.6-0.6-0.6H9.2
			c-0.3,0-0.6,0.3-0.6,0.6v3.7C8.6,15.7,8.9,15.9,9.2,15.9z M9.8,12.3h2.5v2.5H9.8V12.3z M15.3,15.9H19c0.3,0,0.6-0.3,0.6-0.6v-3.7
			c0-0.3-0.3-0.6-0.6-0.6h-3.7c-0.3,0-0.6,0.3-0.6,0.6v3.7C14.7,15.7,15,15.9,15.3,15.9z M15.9,12.3h2.5v2.5h-2.5V12.3z M3.1,15.9
			h3.7c0.3,0,0.6-0.3,0.6-0.6v-3.7c0-0.3-0.3-0.6-0.6-0.6H3.1c-0.3,0-0.6,0.3-0.6,0.6v3.7C2.5,15.7,2.7,15.9,3.1,15.9z M3.7,12.3
			h2.5v2.5H3.7V12.3z M9.2,9.8h3.7c0.3,0,0.6-0.3,0.6-0.6V5.5c0-0.3-0.3-0.6-0.6-0.6H9.2c-0.3,0-0.6,0.3-0.6,0.6v3.7
			C8.6,9.5,8.9,9.8,9.2,9.8z M9.8,6.1h2.5v2.5H9.8V6.1z M15.3,9.8H19c0.3,0,0.6-0.3,0.6-0.6V5.5c0-0.3-0.3-0.6-0.6-0.6h-3.7
			c-0.3,0-0.6,0.3-0.6,0.6v3.7C14.7,9.5,15,9.8,15.3,9.8z M15.9,6.1h2.5v2.5h-2.5V6.1z M3.1,9.8h3.7c0.3,0,0.6-0.3,0.6-0.6V5.5
			c0-0.3-0.3-0.6-0.6-0.6H3.1c-0.3,0-0.6,0.3-0.6,0.6v3.7C2.5,9.5,2.7,9.8,3.1,9.8z M3.7,6.1h2.5v2.5H3.7V6.1z"/>
	</g>
</g>
</svg>
