<?xml version="1.0" encoding="utf-8"?>
<!-- Generator: Adobe Illustrator 22.1.0, SVG Export Plug-In . SVG Version: 6.00 Build 0)  -->
<svg version="1.1" id="Layer_1" xmlns="http://www.w3.org/2000/svg" xmlns:xlink="http://www.w3.org/1999/xlink" x="0px" y="0px"
	 viewBox="0 0 50 50" style="enable-background:new 0 0 50 50;" xml:space="preserve">
<style type="text/css">
	.st0{fill:#1A1A1A;}
</style>
<g>
	<path class="st0" d="M25,0C11.2,0,0,11.2,0,25c0,13.8,11.2,25,25,25c13.8,0,25-11.2,25-25C50,11.2,38.8,0,25,0z M25,45.8
		C13.5,45.8,4.2,36.5,4.2,25C4.2,13.5,13.5,4.2,25,4.2c11.5,0,20.8,9.3,20.8,20.8C45.8,36.5,36.5,45.8,25,45.8z"/>
	<path class="st0" d="M27.1,12.5h-4.2v10.4H12.5v4.2h10.4v10.4h4.2V27.1h10.4v-4.2H27.1V12.5z"/>
</g>
</svg>
