<?xml version="1.0" encoding="utf-8"?>
<!-- Generator: Adobe Illustrator 22.1.0, SVG Export Plug-In . SVG Version: 6.00 Build 0)  -->
<svg version="1.1" id="Layer_1" xmlns="http://www.w3.org/2000/svg" xmlns:xlink="http://www.w3.org/1999/xlink" x="0px" y="0px"
	 viewBox="0 0 29.5 29.4" style="enable-background:new 0 0 29.5 29.4;" xml:space="preserve">
<style type="text/css">
	.st0{fill:#00537f;}
</style>
<g>
	<g>
		<path class="st0" d="M28.9,2.5h-4.3V0.6C24.6,0.3,24.3,0,24,0h-3.7c-0.3,0-0.6,0.3-0.6,0.6v1.8H9.8V0.6C9.8,0.3,9.6,0,9.2,0H5.5
			C5.2,0,4.9,0.3,4.9,0.6v1.8H0.6C0.3,2.5,0,2.7,0,3.1v25.7c0,0.3,0.3,0.6,0.6,0.6h28.3c0.3,0,0.6-0.3,0.6-0.6V3.1
			C29.5,2.7,29.3,2.5,28.9,2.5z M20.9,1.2h2.5v3.7h-2.5V1.2z M6.2,1.2h2.5v3.7H6.2V1.2z M28.3,28.2H1.2V9.8h27.1V28.2z M28.3,8.6
			H1.2V3.7h3.7v1.8c0,0.3,0.3,0.6,0.6,0.6h3.7c0.3,0,0.6-0.3,0.6-0.6V3.7h9.8v1.8c0,0.3,0.3,0.6,0.6,0.6H24c0.3,0,0.6-0.3,0.6-0.6
			V3.7h3.7V8.6z M18.5,25.7h6.2c0.3,0,0.6-0.3,0.6-0.6V19c0-0.3-0.3-0.6-0.6-0.6h-6.2c-0.3,0-0.6,0.3-0.6,0.6v6.1
			C17.8,25.5,18.1,25.7,18.5,25.7z M19.1,19.6H24v4.9h-4.9V19.6z"/>
	</g>
</g>
</svg>
