<?xml version="1.0" encoding="utf-8"?>
<!-- Generator: Adobe Illustrator 22.1.0, SVG Export Plug-In . SVG Version: 6.00 Build 0)  -->
<svg version="1.1" id="Layer_1" xmlns="http://www.w3.org/2000/svg" xmlns:xlink="http://www.w3.org/1999/xlink" x="0px" y="0px"
	 viewBox="0 0 34 36" style="enable-background:new 0 0 34 36;" xml:space="preserve">
<style type="text/css">
	.st0{fill:#1A1A1A;}
</style>
<g>
	<path class="st0" d="M33.4,32.5l-8.2-8.2c0,0-0.1-0.1-0.2-0.1c2.4-2.6,3.9-6,3.9-9.8C28.9,6.5,22.4,0,14.4,0C6.5,0,0,6.5,0,14.4
		c0,7.9,6.5,14.4,14.4,14.4c2.7,0,5.3-0.8,7.5-2.1c0.1,0.2,0.2,0.3,0.3,0.5l8.2,8.2c0.4,0.4,0.9,0.6,1.5,0.6c0.5,0,1.1-0.2,1.5-0.6
		C34.2,34.6,34.2,33.3,33.4,32.5z M3.2,14.4c0-6.2,5-11.2,11.2-11.2c6.2,0,11.2,5,11.2,11.2c0,6.2-5,11.2-11.2,11.2
		C8.2,25.6,3.2,20.6,3.2,14.4z"/>
</g>
</svg>
