<?xml version="1.0" encoding="utf-8"?>
<!-- Generator: Adobe Illustrator 22.1.0, SVG Export Plug-In . SVG Version: 6.00 Build 0)  -->
<svg version="1.1" id="Layer_1" xmlns="http://www.w3.org/2000/svg" xmlns:xlink="http://www.w3.org/1999/xlink" x="0px" y="0px"
	 viewBox="0 0 197 86" style="enable-background:new 0 0 197 86;" xml:space="preserve">
<style type="text/css">
	.st0{fill:#00537F;}
	.st1{fill:#24B8C9;}
</style>
<path class="st0" d="M25.8,15.8c-4,1.5-7.6,3.6-10.6,6.5L15,22.4l0,0.2c-0.2,5.1,0.5,9.8,1.9,14l0.2,0.5l0.4-0.3
	c1.5-1,3.1-1.7,4.9-2.1l0.3-0.1l0-0.3c0.1-2.1,0.3-4.2,0.6-6.3c0.6-3.9,1.6-7.9,2.9-11.7l0.3-0.8L25.8,15.8"/>
<path class="st0" d="M12.3,25.4c-2.9,3.9-5.1,8.1-6.4,12.6l0,0.2l0.1,0.2c0.6,1,1.3,2,2.1,2.9c0.9,1,1.9,2,2.9,2.9l0.4,0.3l0.2-0.5
	c0.9-2,2.1-3.8,3.7-5.3l0.2-0.2L15.4,38l-0.2-0.5c-1.3-3.6-2-7.6-2.2-11.9l0-1.2L12.3,25.4"/>
<path class="st0" d="M5,41.7c-0.4,2-0.6,4.1-0.6,6.1c0,0.9,0,1.9,0.1,2.8l0,0.3l0.3,0.1c1.6,0.6,3.3,1,5,1.2l0.5,0.1l-0.1-1.8
	c0-1.2,0.1-2.4,0.4-3.6l0.1-0.3l-0.2-0.2c-1.4-1.1-2.8-2.3-3.9-3.7l-1.4-1.7L5,41.7"/>
<path class="st0" d="M5,53.8c0.3,1.7,0.8,3.4,1.4,5l0.1,0.4L6.9,59c1.4-0.6,2.8-1.2,4.1-1.8l0.3-0.2l-0.1-0.4
	c-0.2-0.7-0.4-1.4-0.6-2.2l-0.1-0.3l-0.3,0c-1.6-0.2-3.2-0.5-4.8-0.9l-0.7-0.2L5,53.8"/>
<path class="st0" d="M47,15.1c-4.3,4.8-8.1,9.7-11.2,14.6c-1.2,1.9-2.3,3.8-3.3,5.7l-0.2,0.4l0.4,0.2c1.5,0.8,2.9,1.8,4.1,3.1
	l0.3,0.3l0.3-0.2c4.5-3.6,9.1-7.1,13.7-10.5c3.2-2.3,6.5-4.6,9.8-6.8l0.5-0.3l-0.5-0.3c-4.1-2.9-8.7-5-13.5-6.2l-0.2-0.1L47,15.1"/>
<path class="st0" d="M36.2,13.8c-2.4,0.1-4.7,0.4-7,1l-0.2,0L28.9,15c-1.7,4.4-2.9,8.8-3.6,13.2c-0.3,1.9-0.5,3.8-0.6,5.7l0,0.4
	l1.1,0c1.4,0,2.9,0.2,4.3,0.6l0.3,0.1l0.2-0.3c1.1-2,2.2-4,3.5-6c2.9-4.6,6.4-9.3,10.4-13.8l0.5-0.6l-0.7-0.1
	C41.5,13.8,38.8,13.7,36.2,13.8"/>
<path class="st0" d="M11.8,59.2c-1.3,0.6-2.7,1.2-4.1,1.7l-0.4,0.2l0.2,0.4c0.7,1.4,1.5,2.7,2.3,4l0.3,0.5l0.4-0.5
	c0.9-1.3,1.9-2.5,3-3.7l0.2-0.2l-0.2-0.3c-0.4-0.6-0.8-1.3-1.1-1.9L12.2,59L11.8,59.2"/>
<path class="st0" d="M25.6,70.5c0.3,1.7,0.6,3.4,1,5.1l0.5,1.9l0.3,0c3.7,0.7,7.4,0.6,11-0.2l0.6-0.1l-0.4-0.5c-1.5-2-3-4.1-4.4-6.2
	l-0.1-0.2l-0.3,0c-1.1,0.2-2.3,0.2-3.6,0.2c-1.4,0-2.8-0.1-4.2-0.4l-0.6-0.1L25.6,70.5"/>
<path class="st0" d="M18.8,67.5c-0.5,1.8-0.9,3.7-1.2,5.7l0,0.3l0.2,0.2c0.7,0.5,1.3,0.9,2,1.4l0,0l0,0c1.4,0.7,2.9,1.3,4.4,1.7
	l0.7,0.2l-0.3-1.1c-0.5-2.1-0.9-4.3-1.2-6.4l0-0.2l-0.2-0.1c-1.3-0.5-2.6-1.1-3.7-1.9l-0.5-0.3L18.8,67.5"/>
<path class="st0" d="M14.6,63.6c-1,1.2-2,2.5-3,3.8l-0.2,0.3l0.2,0.3c1.1,1.3,2.3,2.5,3.6,3.7l0.5,0.5l0.1-0.7
	c0.3-1.8,0.8-3.6,1.2-5.3c0,0,0-0.1,0-0.1l0.1-0.3l-0.2-0.2l-1-0.9l-1.2-1.3L14.6,63.6"/>
<path class="st0" d="M56.8,1.2c-1.9,1.7-3.6,3.3-5.3,5c-1.8,1.8-3.6,3.6-5.3,5.5c-3.4-0.7-6.8-1-10.1-0.9c-1.5,0.1-3,0.2-4.5,0.5
	c0.8-1.8,1.7-3.6,2.7-5.3c1-1.7,2-3.5,3.2-5.2C43.7-0.4,50.4-0.2,56.8,1.2"/>
<path class="st0" d="M13,14c0,0,0.1-0.1,0.1-0.1c-0.3,1.5-0.5,3.1-0.7,4.6c-0.1,0.8-0.2,1.7-0.2,2.6c-0.6,0.6-1.1,1.1-1.6,1.7l0,0
	c0,0,0,0,0,0C8,26,6,29.4,4.5,33.1c-0.4-1.1-0.7-2.2-1-3.4C5.7,24.1,8.9,18.8,13,14"/>
<path class="st0" d="M1.5,35.9c0.4,0.9,0.8,1.8,1.2,2.6c-0.8,3.1-1.2,6.2-1.2,9.3c0,0.2,0,0.4,0,0.6c-0.5-0.3-1-0.6-1.5-1
	C0,43.6,0.5,39.7,1.5,35.9"/>
<path class="st0" d="M32,2.1c-0.4,0.7-0.8,1.4-1.2,2c-1.5,2.7-2.8,5.4-4,8.2c-3.8,1.1-7.3,2.8-10.4,5.1c0.4-2.6,0.9-5.3,1.7-8.1
	C22.2,6,26.9,3.6,32,2.1"/>
<path class="st0" d="M5,63c0.8,1.6,1.7,3.2,2.8,4.7c-0.5,0.6-0.9,1.3-1.3,1.9c-1.2-1.9-2.3-3.9-3.2-5.9C3.8,63.5,4.5,63.2,5,63"/>
<path class="st0" d="M0.3,52.2c0.5,0.3,1.1,0.6,1.6,0.8c0,0.3,0.1,0.7,0.1,0.7v0c0.3,1.9,0.8,3.8,1.5,5.7C3,59.6,2.4,59.8,1.9,60
	C1.1,57.5,0.6,54.8,0.3,52.2"/>
<path class="st0" d="M54.3,8.9c2.2-2.2,4.6-4.3,7.1-6.5c5.8,1.8,11.1,4.7,15.9,8.4c-4.6,2.6-9.3,5.4-14,8.4c-3.9-2.9-8.2-5-12.8-6.5
	C51.7,11.4,53,10.1,54.3,8.9"/>
<path class="st0" d="M32.9,81c2.4-0.1,4.8-0.4,7.2-1.1c0.3,0.4,1.6,1.9,1.6,1.9c0.9,1,1.8,2,2.7,3C40,86,35.5,86.3,31,85.7
	c-0.7-1.6-1.3-3.3-1.9-4.9C30.4,81,31.6,81,32.9,81"/>
<path class="st0" d="M18,77.4c0.2,0.1,0.4,0.3,0.4,0.3c0,0,0.1,0,0.1,0l0.1,0c2,1,4.2,1.8,6.3,2.4c0.5,1.6,1.1,3.2,1.7,4.8
	c-2.6-0.7-5.1-1.6-7.6-2.9c0,0-1-0.7-1.3-0.9C17.7,79.8,17.8,78.6,18,77.4"/>
<path class="st0" d="M10.3,70.9c1.3,1.4,2.6,2.7,4.1,3.9c-0.2,1.1-0.3,2.3-0.4,3.5c-1.9-1.6-3.6-3.4-5.2-5.3
	C9.3,72.3,9.8,71.6,10.3,70.9"/>
<path class="st0" d="M106.7,77.3c3.7,0,5.5-0.4,5.5-3.3c0-2.7-1.7-3.6-5.5-3.6H96.2v6.9H106.7 M96.2,58.7v6.1h9.3
	c3.7,0,5.5-0.6,5.5-3.2c0-2.4-1.7-3-5.5-3L96.2,58.7z M88.3,52.3h20.3c7,0,10.6,2.6,10.6,7.8c0,3-1.5,5.4-4.3,6.9
	c3.6,1.2,5.5,3.8,5.5,7.7c0,5.4-3.7,9-10.2,9H88.3V52.3z"/>
<path class="st0" d="M123.6,52.3h10.2l10.1,22.5l10.4-22.5h10.1v31.4h-7.6v-21l-9.7,21h-6.6l-9.3-21.3v21.3h-7.6V52.3z"/>
<path class="st0" d="M186.2,83.7h-7.8v-25h-10.7v-6.4H197v6.4h-10.7V83.7z"/>
<path class="st0" d="M46.6,61.2c-2.1,4.4-5.3,7.2-9.8,8.5l-0.6,0.2l0.3,0.5c1.4,2,2.8,4,4.3,6l0.2,0.2l0.3-0.1
	c1.1-0.4,2.2-0.9,3.2-1.4c5.5-2.9,9.5-7.5,11-12.8l0.1-0.5l-0.5,0c-2.9-0.1-5.6-0.4-8.2-0.7l-0.3,0L46.6,61.2"/>
<path class="st1" d="M62.9,23c-3.6,2.3-7.1,4.8-10.6,7.3c-4.6,3.3-9.1,6.8-13.6,10.4l-0.3,0.2l0.2,0.3c1.1,1.7,1.9,3.5,2.4,5.5
	l0.1,0.4l0.4-0.1c4.6-0.8,9.3-1.8,14.1-2.9c6.1-1.4,12.4-3.1,18.7-5l0.4-0.1l-0.2-0.4c-1.8-4.8-4.4-9-7.8-12.6c-1-1.1-2.2-2.1-3.3-3
	l-0.2-0.2L62.9,23"/>
<path class="st1" d="M74.9,41.1c-6.4,1.9-12.9,3.6-19,5.1c-4.8,1.1-9.6,2.1-14.2,3l-0.4,0.1l0,1.3c0,1.9-0.5,4.2-1.3,6.5l-0.2,0.4
	l0.4,0.1c1.5,0.4,3.1,0.7,4.8,1c8.5,1.4,19.1,1.5,31.6,0.2l0.3,0l0-0.4c0.1-1.2,0.1-2.5,0.1-3.8c0-4.7-0.6-9.1-1.8-13.3L75.3,41
	L74.9,41.1"/>
<path class="st0" d="M68.2,62.7c-2.2,9.2-9.7,17.2-19.7,21c-1.3-1.4-2.6-2.8-3.8-4.2c0,0-0.4-0.5-0.7-0.9c0.7-0.3,1.3-0.6,1.9-0.9
	c6.3-3.3,10.9-8.7,12.5-14.8C60.5,62.9,64.1,62.8,68.2,62.7"/>
<path class="st1" d="M80.5,13.5c0.3,0.3,1,0.9,1,0.9c5,4.9,8.7,10.9,11.2,17.8c-5.2,1.8-10.4,3.5-15.5,5.1
	c-1.9-5.1-4.7-9.6-8.4-13.4l0,0c-0.7-0.7-1.5-1.4-2.2-2.1C71.2,18.8,75.9,16,80.5,13.5"/>
</svg>
