<?xml version="1.0" encoding="utf-8"?>
<!-- Generator: Adobe Illustrator 22.1.0, SVG Export Plug-In . SVG Version: 6.00 Build 0)  -->
<svg version="1.1" id="Layer_1" xmlns="http://www.w3.org/2000/svg" xmlns:xlink="http://www.w3.org/1999/xlink" x="0px" y="0px"
	 viewBox="0 0 18 12" style="enable-background:new 0 0 18 12; fill:#bcbcbc;" xml:space="preserve">
<g>
	<path d="M9,6.7l8.3-6.6C17.1,0,16.9,0,16.7,0H1.3C1.1,0,0.9,0,0.7,0.1L9,6.7z"/>
	<path d="M17.9,0.7C17.9,0.7,17.9,0.8,17.9,0.7L9.3,7.6C9.2,7.7,9.1,7.7,9,7.7s-0.2,0-0.3-0.1L0.2,0.8c0,0,0,0,0,0
		C0,0.9,0,1.1,0,1.3v9.4C0,11.4,0.6,12,1.3,12h15.4c0.7,0,1.3-0.6,1.3-1.3V1.3C18,1.1,18,0.9,17.9,0.7z"/>
</g>
</svg>
