<?xml version="1.0" encoding="utf-8"?>
<!-- Generator: Adobe Illustrator 22.1.0, SVG Export Plug-In . SVG Version: 6.00 Build 0)  -->
<svg version="1.1" id="Layer_1" xmlns="http://www.w3.org/2000/svg" xmlns:xlink="http://www.w3.org/1999/xlink" x="0px" y="0px"
	 viewBox="0 0 14.4 17.4" style="enable-background:new 0 0 14.4 17.4; fill:#bcbcbc" xml:space="preserve">
<g>
	<path d="M5.6,5.1C6.4,4.6,6.6,3.5,6,2.7l-1.5-2C4-0.1,2.9-0.2,2.2,0.3L1,1.1c-1,0.7-1.3,2-0.8,3.1c2.1,4.7,5.3,9.1,9.1,12.5
		c0.9,0.8,2.2,0.9,3.2,0.2l1.1-0.8c0.8-0.5,0.9-1.6,0.4-2.4l-1.5-2C12,11,11,10.8,10.2,11.4l-0.7,0.5C7.8,10,6.2,7.8,5,5.6L5.6,5.1z
		"/>
</g>
</svg>
