<svg width="24" height="24" viewBox="0 0 24 24" fill="none" xmlns="http://www.w3.org/2000/svg">
<path d="M20.25 6.74805H3.75C2.09315 6.74805 0.75 8.09119 0.75 9.74805V18.748C0.75 20.4049 2.09315 21.748 3.75 21.748H20.25C21.9069 21.748 23.25 20.4049 23.25 18.748V9.74805C23.25 8.09119 21.9069 6.74805 20.25 6.74805Z" stroke="#292929" stroke-width="1.5" stroke-linecap="round" stroke-linejoin="round"/>
<path d="M6.75 6.74805V21.748" stroke="#292929" stroke-width="1.5" stroke-linecap="round" stroke-linejoin="round"/>
<path d="M17.25 6.74805V21.748" stroke="#292929" stroke-width="1.5" stroke-linecap="round" stroke-linejoin="round"/>
<path d="M15.75 6.74805V3.74805C15.75 3.35022 15.592 2.96869 15.3107 2.68739C15.0294 2.40608 14.6478 2.24805 14.25 2.24805H9.75C9.35218 2.24805 8.97064 2.40608 8.68934 2.68739C8.40804 2.96869 8.25 3.35022 8.25 3.74805V6.74805" stroke="#292929" stroke-width="1.5" stroke-linecap="round" stroke-linejoin="round"/>
</svg>
