<svg width="24" height="24" viewBox="0 0 24 24" fill="none" xmlns="http://www.w3.org/2000/svg">
<g clip-path="url(#clip0_274_11765)">
<path d="M12 11.9961V23.2461" stroke="black" stroke-width="1.5" stroke-linecap="round" stroke-linejoin="round"/>
<path d="M20.426 19.4503C21.8615 17.8276 22.798 15.825 23.1228 13.6829C23.4477 11.5409 23.1471 9.35066 22.2573 7.37534C21.3674 5.40001 19.9261 3.72364 18.1065 2.54765C16.2869 1.37167 14.1665 0.746094 12 0.746094C9.83349 0.746094 7.71306 1.37167 5.89349 2.54765C4.07392 3.72364 2.63262 5.40001 1.74276 7.37534C0.8529 9.35066 0.552339 11.5409 0.87719 13.6829C1.20204 15.825 2.13849 17.8276 3.57401 19.4503" stroke="black" stroke-width="1.5" stroke-linecap="round" stroke-linejoin="round"/>
<path d="M15.22 13.9181C15.5598 13.3489 15.7426 12.6998 15.7498 12.037C15.757 11.3741 15.5884 10.7212 15.2611 10.1447C14.9339 9.56828 14.4597 9.08886 13.8868 8.75533C13.3139 8.42181 12.6629 8.24609 12 8.24609C11.3371 8.24609 10.6861 8.42181 10.1132 8.75533C9.54035 9.08886 9.06612 9.56828 8.73886 10.1447C8.4116 10.7212 8.243 11.3741 8.25022 12.037C8.25745 12.6998 8.44025 13.3489 8.78 13.9181" stroke="black" stroke-width="1.5" stroke-linecap="round" stroke-linejoin="round"/>
<path d="M17.84 15.8503C18.7278 14.7485 19.2858 13.418 19.4496 12.0125C19.6134 10.6071 19.3762 9.18392 18.7655 7.90751C18.1548 6.6311 17.1954 5.55349 15.9983 4.79915C14.8011 4.04482 13.415 3.64453 12 3.64453C10.585 3.64453 9.19889 4.04482 8.00173 4.79915C6.80458 5.55349 5.84524 6.6311 5.23453 7.90751C4.62381 9.18392 4.38664 10.6071 4.5504 12.0125C4.71417 13.418 5.27219 14.7485 6.16 15.8503" stroke="black" stroke-width="1.5" stroke-linecap="round" stroke-linejoin="round"/>
</g>
<defs>
<clipPath id="clip0_274_11765">
<rect width="24" height="24" fill="white"/>
</clipPath>
</defs>
</svg>
