<svg width="24" height="24" viewBox="0 0 24 24" fill="none" xmlns="http://www.w3.org/2000/svg">
<path d="M20.61 9.88008C20.25 5.33008 16.06 2.33008 12 2.33008C7.94002 2.33008 3.75002 5.33008 3.39002 9.88008C2.69515 9.88008 2.02875 10.1561 1.5374 10.6475C1.04605 11.1388 0.77002 11.8052 0.77002 12.5001C0.77002 13.1949 1.04605 13.8614 1.5374 14.3527C2.02875 14.844 2.69515 15.1201 3.39002 15.1201C3.95182 16.9658 5.0919 18.5822 6.64213 19.7308C8.19235 20.8794 10.0707 21.4994 12 21.4994C13.9294 21.4994 15.8077 20.8794 17.3579 19.7308C18.9081 18.5822 20.0482 16.9658 20.61 15.1201C21.3049 15.1201 21.9713 14.844 22.4626 14.3527C22.954 13.8614 23.23 13.1949 23.23 12.5001C23.23 11.8052 22.954 11.1388 22.4626 10.6475C21.9713 10.1561 21.3049 9.88008 20.61 9.88008Z" stroke="black" stroke-width="1.5" stroke-linecap="round" stroke-linejoin="round"/>
<path d="M11.9999 2.33008C12.4124 2.32984 12.8171 2.44303 13.1697 2.65727C13.5222 2.87152 13.8091 3.17858 13.9989 3.54487C14.1887 3.91117 14.2742 4.3226 14.2459 4.73418C14.2177 5.14577 14.0768 5.54166 13.8387 5.87858C13.6006 6.2155 13.2745 6.48047 12.8959 6.64453C12.5174 6.80858 12.1011 6.86541 11.6924 6.80879C11.2838 6.75217 10.8985 6.58429 10.5789 6.32349C10.2592 6.0627 10.0174 5.71904 9.87988 5.33008" stroke="black" stroke-width="1.5" stroke-linecap="round" stroke-linejoin="round"/>
<path d="M14 17C13.45 17.492 12.7379 17.7639 12 17.7639C11.2621 17.7639 10.55 17.492 10 17" stroke="black" stroke-width="1.5" stroke-linecap="round" stroke-linejoin="round"/>
<path d="M17.25 11C17.25 11.3978 17.092 11.7794 16.8107 12.0607C16.5294 12.342 16.1478 12.5 15.75 12.5C15.3522 12.5 14.9706 12.342 14.6893 12.0607C14.408 11.7794 14.25 11.3978 14.25 11" stroke="black" stroke-width="1.5" stroke-linecap="round" stroke-linejoin="round"/>
<path d="M9.75 11C9.75 11.3978 9.59196 11.7794 9.31066 12.0607C9.02936 12.342 8.64782 12.5 8.25 12.5C7.85218 12.5 7.47064 12.342 7.18934 12.0607C6.90804 11.7794 6.75 11.3978 6.75 11" stroke="black" stroke-width="1.5" stroke-linecap="round" stroke-linejoin="round"/>
</svg>
