<svg width="24" height="24" viewBox="0 0 24 24" fill="none" xmlns="http://www.w3.org/2000/svg">
<path d="M11.25 6.18359C12.6997 6.18359 13.875 5.00834 13.875 3.55859C13.875 2.10885 12.6997 0.933594 11.25 0.933594C9.80025 0.933594 8.625 2.10885 8.625 3.55859C8.625 5.00834 9.80025 6.18359 11.25 6.18359Z" stroke="black" stroke-width="1.5" stroke-linecap="round" stroke-linejoin="round"/>
<path d="M17.408 22.2296L15.572 18.5586H11.25C10.8522 18.5586 10.4706 18.4006 10.1893 18.1193C9.90804 17.8379 9.75 17.4564 9.75 17.0586V9.55859C9.75 9.16077 9.90804 8.77924 10.1893 8.49793C10.4706 8.21663 10.8522 8.05859 11.25 8.05859C11.6478 8.05859 12.0294 8.21663 12.3107 8.49793C12.592 8.77924 12.75 9.16077 12.75 9.55859V15.5586H16.5C16.7786 15.5585 17.0517 15.636 17.2888 15.7824C17.5258 15.9289 17.7174 16.1384 17.842 16.3876L20.092 20.8876C20.27 21.2435 20.2992 21.6556 20.1734 22.0331C20.0476 22.4106 19.7769 22.7226 19.421 22.9006C19.0651 23.0786 18.653 23.1078 18.2755 22.982C17.898 22.8562 17.586 22.5855 17.408 22.2296Z" stroke="black" stroke-width="1.5" stroke-linecap="round" stroke-linejoin="round"/>
<path d="M12.7498 22.2573C11.3714 23.0529 9.73349 23.2685 8.19626 22.8564C6.65902 22.4444 5.34842 21.4386 4.55277 20.0603C3.75712 18.682 3.5416 17.044 3.95362 15.5068C4.36564 13.9695 5.37144 12.6589 6.74977 11.8633" stroke="black" stroke-width="1.5" stroke-linecap="round" stroke-linejoin="round"/>
</svg>
