<svg width="24" height="24" viewBox="0 0 24 24" fill="none" xmlns="http://www.w3.org/2000/svg">
<g clip-path="url(#clip0_274_11735)">
<path d="M15.75 12.7539H20.25C20.6478 12.7539 21.0294 12.5959 21.3107 12.3146C21.592 12.0333 21.75 11.6517 21.75 11.2539V2.25391C21.75 1.85608 21.592 1.47455 21.3107 1.19325C21.0294 0.911941 20.6478 0.753906 20.25 0.753906H17.25C16.8522 0.753906 16.4706 0.911941 16.1893 1.19325C15.908 1.47455 15.75 1.85608 15.75 2.25391V12.7539Z" stroke="black" stroke-width="1.5" stroke-linecap="round" stroke-linejoin="round"/>
<path d="M3.75 9.75391C3.35218 9.75391 2.97064 9.91194 2.68934 10.1932C2.40804 10.4746 2.25 10.8561 2.25 11.2539C2.25 11.6517 2.40804 12.0333 2.68934 12.3146C2.97064 12.5959 3.35218 12.7539 3.75 12.7539H15.75V9.75391H3.75Z" stroke="black" stroke-width="1.5" stroke-linecap="round" stroke-linejoin="round"/>
<path d="M18.2 15.6009C18.7964 15.4011 19.3148 15.0189 19.6822 14.5084C20.0495 13.9979 20.2471 13.3848 20.247 12.7559H3.75C3.74972 14.2767 4.16985 15.7681 4.96398 17.0652C5.75811 18.3622 6.89532 19.4146 8.25 20.1059L7.5 23.2559H17.25V17.0359C17.2405 16.7278 17.3267 16.4243 17.4969 16.1673C17.667 15.9103 17.9127 15.7124 18.2 15.6009Z" stroke="black" stroke-width="1.5" stroke-linecap="round" stroke-linejoin="round"/>
</g>
<defs>
<clipPath id="clip0_274_11735">
<rect width="24" height="24" fill="white"/>
</clipPath>
</defs>
</svg>
