<svg width="40" height="40" viewBox="0 0 40 40" fill="none" xmlns="http://www.w3.org/2000/svg">
<path d="M32.2259 25.225L36.6709 19.891V19.002H31.3369L28.6699 19.891H2.88892V20.78C2.88892 23.447 5.55592 25.225 5.55592 25.225" stroke="white" stroke-width="2.36705" stroke-linecap="round" stroke-linejoin="round"/>
<path d="M34.0026 19.002L28.6686 11.89H6.44365L4.66565 19.891" stroke="white" stroke-width="2.36705" stroke-linecap="round" stroke-linejoin="round"/>
<path d="M26.8918 10.1123V8.3343L25.1138 6.5563H20.9056" stroke="white" stroke-width="2.36705" stroke-linecap="round" stroke-linejoin="round"/>
<path d="M20.6689 6.556L18.8909 3H12.6679V6.556H9.11194V10.112" stroke="white" stroke-width="2.36705" stroke-linecap="round" stroke-linejoin="round"/>
<path d="M2 36.9986C3.16821 36.9971 4.31967 36.7853 5.36176 36.3803C6.40385 35.9753 7.30749 35.3884 8 34.6667C8.69081 35.3898 9.59405 35.9779 10.6365 36.3833C11.6789 36.7887 12.8312 37 14 37C15.1688 37 16.3211 36.7887 17.3635 36.3833C18.406 35.9779 19.3092 35.3898 20 34.6667C20.6908 35.3898 21.594 35.9779 22.6365 36.3833C23.6789 36.7887 24.8312 37 26 37C27.1688 37 28.3211 36.7887 29.3635 36.3833C30.406 35.9779 31.3092 35.3898 32 34.6667C32.6925 35.3884 33.5962 35.9753 34.6382 36.3803C35.6803 36.7853 36.8318 36.9971 38 36.9986" stroke="white" stroke-width="2.5" stroke-linecap="round" stroke-linejoin="round"/>
<path d="M2 31.3319C3.16817 31.3302 4.31953 31.1184 5.36158 30.7134C6.40363 30.3084 7.30731 29.7215 8 29C8.69081 29.7232 9.59405 30.3113 10.6365 30.7167C11.6789 31.1221 12.8312 31.3333 14 31.3333C15.1688 31.3333 16.3211 31.1221 17.3635 30.7167C18.406 30.3113 19.3092 29.7232 20 29C20.6908 29.7232 21.594 30.3113 22.6365 30.7167C23.6789 31.1221 24.8312 31.3333 26 31.3333C27.1688 31.3333 28.3211 31.1221 29.3635 30.7167C30.406 30.3113 31.3092 29.7232 32 29C32.6927 29.7215 33.5964 30.3084 34.6384 30.7134C35.6805 31.1184 36.8318 31.3302 38 31.3319" stroke="white" stroke-width="2.5" stroke-linecap="round" stroke-linejoin="round"/>
</svg>
