<svg width="40" height="40" viewBox="0 0 40 40" fill="none" xmlns="http://www.w3.org/2000/svg">
<path d="M20 1.33333C23.9782 1.33333 27.7936 2.91368 30.6066 5.72673C33.4196 8.53978 35 12.3551 35 16.3333C35 29.5 23.4467 36.885 20.6183 38.5C20.4296 38.6074 20.2163 38.6639 19.9992 38.6639C19.7821 38.6639 19.5687 38.6074 19.38 38.5C16.5517 36.8867 5 29.5 5 16.3333C5 12.3551 6.58035 8.53978 9.3934 5.72673C12.2064 2.91368 16.0218 1.33333 20 1.33333Z" stroke="white" stroke-width="2.5" stroke-linecap="round" stroke-linejoin="round"/>
<path d="M20 13.7417V26.2417" stroke="white" stroke-width="2.5" stroke-linecap="round" stroke-linejoin="round"/>
<path d="M15 18.7417H12.5C12.5 20.7308 13.2902 22.6384 14.6967 24.045C16.1032 25.4515 18.0109 26.2417 20 26.2417C21.9891 26.2417 23.8968 25.4515 25.3033 24.045C26.7098 22.6384 27.5 20.7308 27.5 18.7417H25" stroke="white" stroke-width="2.5" stroke-linecap="round" stroke-linejoin="round"/>
<path d="M20 13.7417C21.3807 13.7417 22.5 12.6224 22.5 11.2417C22.5 9.86096 21.3807 8.74167 20 8.74167C18.6193 8.74167 17.5 9.86096 17.5 11.2417C17.5 12.6224 18.6193 13.7417 20 13.7417Z" stroke="white" stroke-width="2.5" stroke-linecap="round" stroke-linejoin="round"/>
</svg>
