<svg xmlns="http://www.w3.org/2000/svg" width="40" height="40" fill="none"><g stroke="#00436F" stroke-linecap="round" stroke-linejoin="round" stroke-width="2.5" clip-path="url(#a1)"><path d="m12.5 25 2.788-2.091a2.619 2.619 0 0 1 3.745.641 2.615 2.615 0 0 1 0 2.9l-2.741 4.112a7.5 7.5 0 0 1-3.459 2.803L8.75 35M13.75 16.25l-5.992 2.568a7.5 7.5 0 0 0-3.94 3.94l-1.961 4.575a7.5 7.5 0 0 0-.607 2.957v8.46"/><path d="M13.75 32.925V35a3.75 3.75 0 0 0 3.75 3.75H35A3.75 3.75 0 0 0 38.75 35V5A3.75 3.75 0 0 0 35 1.25h-3.75a5 5 0 0 1-10 0H17.5A3.75 3.75 0 0 0 13.75 5v19.063M18.75 12.5h15M32.5 17.5v16.25"/><path d="M23.75 26.25a3.75 3.75 0 1 1-2.5 6.542"/></g><defs><clipPath id="a1"><path fill="#fff" d="M0 0h40v40H0z"/></clipPath></defs></svg>
