<svg width="53" height="52" viewBox="0 0 53 52" fill="none" xmlns="http://www.w3.org/2000/svg">
<g clip-path="url(#clip0_274_12493)">
<path d="M42.75 1.625C43.181 1.625 43.5943 1.7962 43.8991 2.10095C44.2038 2.4057 44.375 2.81902 44.375 3.25V16.25C44.375 16.681 44.2038 17.0943 43.8991 17.399C43.5943 17.7038 43.181 17.875 42.75 17.875H10.25C9.81902 17.875 9.4057 17.7038 9.10095 17.399C8.7962 17.0943 8.625 16.681 8.625 16.25V3.25C8.625 2.81902 8.7962 2.4057 9.10095 2.10095C9.4057 1.7962 9.81902 1.625 10.25 1.625H15.125C15.556 1.625 15.9693 1.7962 16.274 2.10095C16.5788 2.4057 16.75 2.81902 16.75 3.25V4.875C16.75 5.73695 17.0924 6.5636 17.7019 7.1731C18.3114 7.78259 19.138 8.125 20 8.125C20.862 8.125 21.6886 7.78259 22.2981 7.1731C22.9076 6.5636 23.25 5.73695 23.25 4.875V3.25C23.25 2.81902 23.4212 2.4057 23.726 2.10095C24.0307 1.7962 24.444 1.625 24.875 1.625H28.125C28.556 1.625 28.9693 1.7962 29.274 2.10095C29.5788 2.4057 29.75 2.81902 29.75 3.25V4.875C29.75 5.73695 30.0924 6.5636 30.7019 7.1731C31.3114 7.78259 32.138 8.125 33 8.125C33.862 8.125 34.6886 7.78259 35.2981 7.1731C35.9076 6.5636 36.25 5.73695 36.25 4.875V3.25C36.25 2.81902 36.4212 2.4057 36.726 2.10095C37.0307 1.7962 37.444 1.625 37.875 1.625H42.75Z" stroke="#1A6462" stroke-width="3.25" stroke-linecap="round" stroke-linejoin="round"/>
<path d="M11.875 17.875L8.625 50.375H44.375L41.125 17.875H11.875Z" stroke="#1A6462" stroke-width="3.25" stroke-linecap="round" stroke-linejoin="round"/>
<path d="M31.375 50.375H21.625V39C21.625 37.7071 22.1386 36.4671 23.0529 35.5529C23.9671 34.6386 25.2071 34.125 26.5 34.125C27.7929 34.125 29.0329 34.6386 29.9471 35.5529C30.8614 36.4671 31.375 37.7071 31.375 39V50.375Z" stroke="#1A6462" stroke-width="3.25" stroke-linecap="round" stroke-linejoin="round"/>
<path d="M2.125 50.375H50.875" stroke="#1A6462" stroke-width="3.25" stroke-linecap="round" stroke-linejoin="round"/>
</g>
<defs>
<clipPath id="clip0_274_12493">
<rect width="52" height="52" fill="white" transform="translate(0.5)"/>
</clipPath>
</defs>
</svg>
