<svg width="52" height="52" viewBox="0 0 52 52" fill="none" xmlns="http://www.w3.org/2000/svg">
<g clip-path="url(#clip0_274_12541)">
<path d="M4.875 21.125V27.625" stroke="#1A6462" stroke-width="3.25" stroke-linecap="round" stroke-linejoin="round"/>
<path d="M1.625 24.375H8.125" stroke="#1A6462" stroke-width="3.25" stroke-linecap="round" stroke-linejoin="round"/>
<path d="M11.375 1.625V8.125" stroke="#1A6462" stroke-width="3.25" stroke-linecap="round" stroke-linejoin="round"/>
<path d="M8.125 4.875H14.625" stroke="#1A6462" stroke-width="3.25" stroke-linecap="round" stroke-linejoin="round"/>
<path d="M22.75 27.625C27.2373 27.625 30.875 23.9873 30.875 19.5C30.875 15.0127 27.2373 11.375 22.75 11.375C18.2627 11.375 14.625 15.0127 14.625 19.5C14.625 23.9873 18.2627 27.625 22.75 27.625Z" stroke="#1A6462" stroke-width="3.25" stroke-linecap="round" stroke-linejoin="round"/>
<path d="M17.0039 25.2459L28.4959 13.7539" stroke="#1A6462" stroke-width="3.25" stroke-linecap="round" stroke-linejoin="round"/>
<path d="M30.7947 20.6504L41.1341 30.9832C42.1015 31.8979 42.6663 33.1592 42.7045 34.4901C42.7427 35.8209 42.2511 37.1125 41.3377 38.0812C40.369 38.9946 39.0774 39.4862 37.7466 39.448C36.4157 39.4098 35.1544 38.845 34.2397 37.8776L23.9004 27.5382" stroke="#1A6462" stroke-width="3.25" stroke-linecap="round" stroke-linejoin="round"/>
<path d="M27.625 31.2695V50.3752" stroke="#1A6462" stroke-width="3.25" stroke-linecap="round" stroke-linejoin="round"/>
<path d="M22.75 50.375H32.5" stroke="#1A6462" stroke-width="3.25" stroke-linecap="round" stroke-linejoin="round"/>
<path d="M35.8975 12.4388L47.1251 1.625L50.3751 48.5745" stroke="#1A6462" stroke-width="3.25" stroke-linecap="round" stroke-linejoin="round"/>
<path d="M1.90869 47.828L13.0345 34.4531" stroke="#1A6462" stroke-width="3.25" stroke-linecap="round" stroke-linejoin="round"/>
<path d="M48.6395 50.3747C49.7488 49.8179 50.3728 49.2112 50.3728 48.5742C50.3728 45.8811 39.4593 43.6992 25.9978 43.6992C12.5363 43.6992 1.625 45.8811 1.625 48.5742C1.625 49.2091 2.24467 49.8179 3.35833 50.3747" stroke="#1A6462" stroke-width="3.25" stroke-linecap="round" stroke-linejoin="round"/>
</g>
<defs>
<clipPath id="clip0_274_12541">
<rect width="52" height="52" fill="white"/>
</clipPath>
</defs>
</svg>
