<svg width="53" height="52" viewBox="0 0 53 52" fill="none" xmlns="http://www.w3.org/2000/svg">
<g clip-path="url(#clip0_274_12500)">
<path d="M11.4417 50.375C13.5602 41.768 17.7138 33.7952 23.5533 27.1267C5.375 17.875 2.125 3.25 2.125 3.25C2.125 3.25 13.5 3.25 21.625 8.125C24.42 9.79333 29.295 18.2 30.14 20.9733C42.4033 11.57 46.65 19.5 46.65 19.5C39.5 42.185 17.985 47.6667 12.655 46.1067" stroke="#1A6462" stroke-width="3.25" stroke-linecap="round" stroke-linejoin="round"/>
<path d="M38.1783 16.6833C38.4817 15.535 40.54 6.93333 37.875 1.625C35.0596 3.74368 32.824 6.53819 31.375 9.75" stroke="#1A6462" stroke-width="3.25" stroke-linecap="round" stroke-linejoin="round"/>
<path d="M46.6499 19.501C47.0178 19.3059 47.4214 19.1876 47.8364 19.1531C48.2513 19.1187 48.6689 19.1688 49.064 19.3005C49.459 19.4321 49.8231 19.6426 50.1344 19.9192C50.4457 20.1957 50.6976 20.5325 50.8749 20.9093" stroke="#1A6462" stroke-width="3.25" stroke-linecap="round" stroke-linejoin="round"/>
</g>
<defs>
<clipPath id="clip0_274_12500">
<rect width="52" height="52" fill="white" transform="translate(0.5)"/>
</clipPath>
</defs>
</svg>
