<svg width="41" height="40" viewBox="0 0 41 40" fill="none" xmlns="http://www.w3.org/2000/svg">
<g clip-path="url(#clip0_0_336)">
<path d="M13.498 25L16.2864 22.9083C16.571 22.6952 16.896 22.5423 17.2417 22.4589C17.5874 22.3756 17.9464 22.3636 18.2969 22.4236C18.6474 22.4837 18.9819 22.6145 19.2801 22.8082C19.5784 23.0019 19.834 23.2543 20.0314 23.55C20.3175 23.9795 20.4702 24.484 20.4702 25C20.4702 25.5161 20.3175 26.0206 20.0314 26.45L17.2897 30.5617C16.4472 31.8246 15.2413 32.8021 13.8314 33.365L9.74805 35" stroke="#00436F" stroke-width="2.5" stroke-linecap="round" stroke-linejoin="round"/>
<path d="M14.748 16.25L8.75638 18.8183C6.98582 19.577 5.57502 20.9878 4.81638 22.7583L2.85471 27.3333C2.45422 28.2676 2.24782 29.2735 2.24805 30.29V38.75" stroke="#00436F" stroke-width="2.5" stroke-linecap="round" stroke-linejoin="round"/>
<path d="M14.748 32.925V35C14.748 35.9946 15.1431 36.9484 15.8464 37.6516C16.5497 38.3549 17.5035 38.75 18.498 38.75H35.998C36.9926 38.75 37.9464 38.3549 38.6497 37.6516C39.353 36.9484 39.748 35.9946 39.748 35V5C39.748 4.00544 39.353 3.05161 38.6497 2.34835C37.9464 1.64509 36.9926 1.25 35.998 1.25H32.248C32.248 2.57608 31.7213 3.84785 30.7836 4.78553C29.8459 5.72322 28.5741 6.25 27.248 6.25C25.922 6.25 24.6502 5.72322 23.7125 4.78553C22.7748 3.84785 22.248 2.57608 22.248 1.25H18.498C17.5035 1.25 16.5497 1.64509 15.8464 2.34835C15.1431 3.05161 14.748 4.00544 14.748 5V24.0633" stroke="#00436F" stroke-width="2.5" stroke-linecap="round" stroke-linejoin="round"/>
<path d="M19.748 12.5H34.748" stroke="#00436F" stroke-width="2.5" stroke-linecap="round" stroke-linejoin="round"/>
<path d="M33.498 17.5V33.75" stroke="#00436F" stroke-width="2.5" stroke-linecap="round" stroke-linejoin="round"/>
<path d="M24.748 26.25C25.3563 26.2494 25.9555 26.3967 26.4942 26.6793C27.0328 26.9619 27.4945 27.3713 27.8397 27.8721C28.1848 28.373 28.4029 28.9502 28.4753 29.5542C28.5476 30.1581 28.4719 30.7705 28.2548 31.3387C28.0376 31.9069 27.6856 32.4137 27.2289 32.8154C26.7723 33.2172 26.2247 33.5019 25.6335 33.6449C25.0423 33.7879 24.4252 33.7849 23.8354 33.6363C23.2456 33.4877 22.7008 33.1978 22.248 32.7917" stroke="#00436F" stroke-width="2.5" stroke-linecap="round" stroke-linejoin="round"/>
</g>
<defs>
<clipPath id="clip0_0_336">
<rect width="40" height="40" fill="white" transform="translate(0.998047)"/>
</clipPath>
</defs>
</svg>
