<svg width="20" height="20" viewBox="0 0 20 20" fill="none" xmlns="http://www.w3.org/2000/svg">
<path fill-rule="evenodd" clip-rule="evenodd" d="M2.24783 2.24783C2.40652 2.08915 2.62174 2 2.84615 2H11.1538C11.3783 2 11.5935 2.08915 11.7522 2.24783C11.9109 2.40652 12 2.62174 12 2.84615V3.76923C12 4.32152 12.4477 4.76923 13 4.76923C13.5523 4.76923 14 4.32152 14 3.76923V2.84615C14 2.09131 13.7001 1.36738 13.1664 0.833619C12.6326 0.299862 11.9087 0 11.1538 0H2.84615C2.09131 0 1.36738 0.299862 0.833619 0.833619C0.299862 1.36738 0 2.09131 0 2.84615V11.1538C0 11.9087 0.299862 12.6326 0.833619 13.1664C1.36738 13.7001 2.09131 14 2.84615 14H3.76923C4.32152 14 4.76923 13.5523 4.76923 13C4.76923 12.4477 4.32152 12 3.76923 12H2.84615C2.62174 12 2.40652 11.9109 2.24783 11.7522C2.08915 11.5935 2 11.3783 2 11.1538V2.84615C2 2.62174 2.08915 2.40652 2.24783 2.24783ZM9 6C7.34315 6 6 7.34315 6 9V17C6 18.6569 7.34315 20 9 20H17C18.6569 20 20 18.6569 20 17V9C20 7.34315 18.6569 6 17 6H9ZM8 9C8 8.44772 8.44772 8 9 8H17C17.5523 8 18 8.44772 18 9V17C18 17.5523 17.5523 18 17 18H9C8.44772 18 8 17.5523 8 17V9Z" fill="#00436F"/>
</svg>
