<svg xmlns="http://www.w3.org/2000/svg" width="17" height="16" fill="none"><path stroke="#C22B74" stroke-linecap="round" stroke-linejoin="round" stroke-width="1.333" d="M2.912 5.333H13.58M10.912 2v1.333M5.58 2v1.333M2.246 4c0-.736.597-1.333 1.333-1.333h9.334c.736 0 1.333.597 1.333 1.333v8.667c0 .736-.597 1.333-1.333 1.333H3.579a1.333 1.333 0 0 1-1.333-1.333V4Z"/><path stroke="#C22B74" stroke-linecap="round" stroke-linejoin="round" stroke-width="1.333" d="M10.912 11h.002v.002h-.002V11ZM8.246 11h.002v.002h-.002V11ZM5.58 11h.002v.002H5.58V11ZM10.912 8.333h.002v.002h-.002v-.002ZM8.246 8.333h.002v.002h-.002v-.002ZM5.58 8.333h.002v.002H5.58v-.002Z"/></svg>
