<svg width="40" height="40" viewBox="0 0 40 40" fill="none" xmlns="http://www.w3.org/2000/svg">
<path d="M19.519 32.296C28.6075 32.296 32.5942 26.9575 32.5942 26.9575V13.7932C32.5942 13.7932 27.8891 8.01953 19.519 8.01953C11.149 8.01953 6.44385 13.7932 6.44385 13.7932V26.9575C6.44385 26.9575 10.4285 32.296 19.519 32.296Z" stroke="#1A6462" stroke-width="2.08402" stroke-miterlimit="10" stroke-linecap="round" stroke-linejoin="round"/>
<path d="M6.44587 26.9573C3.8879 26.1316 2.02002 23.4947 2.02002 20.3742C2.02002 17.2536 3.8879 14.6167 6.44587 13.791" stroke="#1A6462" stroke-width="2.08402" stroke-miterlimit="10" stroke-linecap="round" stroke-linejoin="round"/>
<path d="M32.5942 13.793C35.1522 14.6186 37.0201 17.2555 37.0201 20.3761C37.0201 23.4967 35.1522 26.1336 32.5942 26.9593" stroke="#1A6462" stroke-width="2.08402" stroke-miterlimit="10" stroke-linecap="round" stroke-linejoin="round"/>
<path d="M11.4707 16.8633H27.5693" stroke="#1A6462" stroke-width="2.08402" stroke-miterlimit="10" stroke-linecap="round" stroke-linejoin="round"/>
<path d="M11.4707 20.8652H27.5693" stroke="#1A6462" stroke-width="2.08402" stroke-miterlimit="10" stroke-linecap="round" stroke-linejoin="round"/>
<path d="M11.4707 24.8574H27.5693" stroke="#1A6462" stroke-width="2.08402" stroke-miterlimit="10" stroke-linecap="round" stroke-linejoin="round"/>
</svg>
