<svg width="40" height="40" viewBox="0 0 40 40" fill="none" xmlns="http://www.w3.org/2000/svg">
<g clip-path="url(#clip0_274_12892)">
<path d="M12.5 25.0007L15.2883 22.909C15.5729 22.6959 15.898 22.5429 16.2437 22.4596C16.5894 22.3763 16.9484 22.3643 17.2989 22.4243C17.6493 22.4844 17.9839 22.6152 18.2821 22.8089C18.5803 23.0025 18.8359 23.2549 19.0333 23.5507C19.3195 23.9801 19.4722 24.4846 19.4722 25.0007C19.4722 25.5167 19.3195 26.0212 19.0333 26.4507L16.2917 30.5624C15.4492 31.8253 14.2433 32.8028 12.8333 33.3657L8.75 35.0007" stroke="#1A6462" stroke-width="2.5" stroke-linecap="round" stroke-linejoin="round"/>
<path d="M13.75 16.25L7.75833 18.8183C5.98777 19.577 4.57697 20.9878 3.81833 22.7583L1.85667 27.3333C1.45617 28.2676 1.24977 29.2735 1.25 30.29V38.75" stroke="#1A6462" stroke-width="2.5" stroke-linecap="round" stroke-linejoin="round"/>
<path d="M13.75 32.925V35C13.75 35.9946 14.1451 36.9484 14.8483 37.6516C15.5516 38.3549 16.5054 38.75 17.5 38.75H35C35.9946 38.75 36.9484 38.3549 37.6516 37.6516C38.3549 36.9484 38.75 35.9946 38.75 35V5C38.75 4.00544 38.3549 3.05161 37.6516 2.34835C36.9484 1.64509 35.9946 1.25 35 1.25H31.25C31.25 2.57608 30.7232 3.84785 29.7855 4.78553C28.8479 5.72322 27.5761 6.25 26.25 6.25C24.9239 6.25 23.6521 5.72322 22.7145 4.78553C21.7768 3.84785 21.25 2.57608 21.25 1.25H17.5C16.5054 1.25 15.5516 1.64509 14.8483 2.34835C14.1451 3.05161 13.75 4.00544 13.75 5V24.0633" stroke="#1A6462" stroke-width="2.5" stroke-linecap="round" stroke-linejoin="round"/>
<path d="M18.75 12.5H33.75" stroke="#1A6462" stroke-width="2.5" stroke-linecap="round" stroke-linejoin="round"/>
<path d="M32.5 17.5V33.75" stroke="#1A6462" stroke-width="2.5" stroke-linecap="round" stroke-linejoin="round"/>
<path d="M23.75 26.25C24.3582 26.2494 24.9575 26.3967 25.4961 26.6793C26.0347 26.9619 26.4965 27.3713 26.8416 27.8721C27.1868 28.373 27.4049 28.9502 27.4772 29.5542C27.5495 30.1581 27.4739 30.7705 27.2567 31.3387C27.0396 31.9069 26.6875 32.4137 26.2309 32.8154C25.7742 33.2172 25.2267 33.5019 24.6355 33.6449C24.0443 33.7879 23.4272 33.7849 22.8374 33.6363C22.2476 33.4877 21.7028 33.1978 21.25 32.7917" stroke="#1A6462" stroke-width="2.5" stroke-linecap="round" stroke-linejoin="round"/>
</g>
<defs>
<clipPath id="clip0_274_12892">
<rect width="40" height="40" fill="white"/>
</clipPath>
</defs>
</svg>
