<svg width="24" height="24" viewBox="0 0 24 24" fill="none" xmlns="http://www.w3.org/2000/svg">
<g clip-path="url(#clip0_274_7953)">
<path d="M20.61 11.3798C20.0482 9.53406 18.9081 7.91769 17.3579 6.7691C15.8077 5.62051 13.9294 5.00049 12 5.00049C10.0707 5.00049 8.19235 5.62051 6.64213 6.7691C5.0919 7.91769 3.95182 9.53406 3.39002 11.3798C2.69515 11.3798 2.02875 11.6558 1.5374 12.1472C1.04605 12.6385 0.77002 13.3049 0.77002 13.9998C0.77002 14.6947 1.04605 15.3611 1.5374 15.8524C2.02875 16.3438 2.69515 16.6198 3.39002 16.6198C3.95182 18.4656 5.0919 20.0819 6.64213 21.2305C8.19235 22.3791 10.0707 22.9991 12 22.9991C13.9294 22.9991 15.8077 22.3791 17.3579 21.2305C18.9081 20.0819 20.0482 18.4656 20.61 16.6198C21.3049 16.6198 21.9713 16.3438 22.4626 15.8524C22.954 15.3611 23.23 14.6947 23.23 13.9998C23.23 13.3049 22.954 12.6385 22.4626 12.1472C21.9713 11.6558 21.3049 11.3798 20.61 11.3798Z" stroke="black" stroke-width="1.5" stroke-linecap="round" stroke-linejoin="round"/>
<path d="M15.3499 17.75C14.9287 18.222 14.4126 18.5996 13.8353 18.8582C13.2579 19.1168 12.6325 19.2504 11.9999 19.2504C11.3673 19.2504 10.7419 19.1168 10.1646 18.8582C9.58726 18.5996 9.07109 18.222 8.6499 17.75" stroke="black" stroke-width="1.5" stroke-linecap="round" stroke-linejoin="round"/>
<path d="M14.4901 1.25C15.0977 1.6542 15.5979 2.20012 15.9475 2.84067C16.2972 3.48123 16.4858 4.19721 16.4971 4.92689C16.5084 5.65658 16.3421 6.37806 16.0125 7.02915C15.6829 7.68025 15.1999 8.24141 14.6051 8.66426C14.0103 9.08712 13.3217 9.35898 12.5984 9.4564C11.8752 9.55383 11.1391 9.4739 10.4536 9.2235C9.76819 8.97311 9.15391 8.55976 8.66376 8.01909C8.17361 7.47843 7.82231 6.82667 7.64014 6.12" stroke="black" stroke-width="1.5" stroke-linecap="round" stroke-linejoin="round"/>
<path d="M8.625 13.25C8.41789 13.25 8.25 13.0821 8.25 12.875C8.25 12.6679 8.41789 12.5 8.625 12.5" stroke="black" stroke-width="1.5"/>
<path d="M8.625 13.25C8.83211 13.25 9 13.0821 9 12.875C9 12.6679 8.83211 12.5 8.625 12.5" stroke="black" stroke-width="1.5"/>
<path d="M15.375 13.25C15.1679 13.25 15 13.0821 15 12.875C15 12.6679 15.1679 12.5 15.375 12.5" stroke="black" stroke-width="1.5"/>
<path d="M15.375 13.25C15.5821 13.25 15.75 13.0821 15.75 12.875C15.75 12.6679 15.5821 12.5 15.375 12.5" stroke="black" stroke-width="1.5"/>
</g>
<defs>
<clipPath id="clip0_274_7953">
<rect width="24" height="24" fill="white"/>
</clipPath>
</defs>
</svg>
