<svg width="24" height="24" viewBox="0 0 24 24" fill="none" xmlns="http://www.w3.org/2000/svg">
<path d="M13.5 6C14.9497 6 16.125 4.82475 16.125 3.375C16.125 1.92525 14.9497 0.75 13.5 0.75C12.0503 0.75 10.875 1.92525 10.875 3.375C10.875 4.82475 12.0503 6 13.5 6Z" stroke="#292929" stroke-width="1.5" stroke-linecap="round" stroke-linejoin="round"/>
<path d="M13.5 16.5V21.75" stroke="#292929" stroke-width="1.5" stroke-linecap="round" stroke-linejoin="round"/>
<path d="M16.5 15V12" stroke="#292929" stroke-width="1.5" stroke-linecap="round" stroke-linejoin="round"/>
<path d="M7.5 16.5C7.5 16.1022 7.34196 15.7206 7.06066 15.4393C6.77936 15.158 6.39782 15 6 15C5.60218 15 5.22064 15.158 4.93934 15.4393C4.65804 15.7206 4.5 16.1022 4.5 16.5V23.25" stroke="#292929" stroke-width="1.5" stroke-linecap="round" stroke-linejoin="round"/>
<path d="M10.5 15V21.75C10.5 22.1478 10.658 22.5294 10.9393 22.8107C11.2206 23.092 11.6022 23.25 12 23.25C12.3978 23.25 12.7794 23.092 13.0607 22.8107C13.342 22.5294 13.5 22.1478 13.5 21.75C13.5 22.1478 13.658 22.5294 13.9393 22.8107C14.2206 23.092 14.6022 23.25 15 23.25C15.3978 23.25 15.7794 23.092 16.0607 22.8107C16.342 22.5294 16.5 22.1478 16.5 21.75V15C16.5 15.3978 16.658 15.7794 16.9393 16.0607C17.2206 16.342 17.6022 16.5 18 16.5C18.3978 16.5 18.7794 16.342 19.0607 16.0607C19.342 15.7794 19.5 15.3978 19.5 15V12C19.5 10.8065 19.0259 9.66193 18.182 8.81802C17.3381 7.97411 16.1935 7.5 15 7.5H12C10.8065 7.5 9.66193 7.97411 8.81802 8.81802C7.97411 9.66193 7.5 10.8065 7.5 12" stroke="#292929" stroke-width="1.5" stroke-linecap="round" stroke-linejoin="round"/>
</svg>
