<svg width="40" height="38" viewBox="0 0 40 38" fill="none" xmlns="http://www.w3.org/2000/svg">
<path d="M30.625 36.4375C32.3509 36.4375 33.75 35.0384 33.75 33.3125C33.75 31.5866 32.3509 30.1875 30.625 30.1875C28.8991 30.1875 27.5 31.5866 27.5 33.3125C27.5 35.0384 28.8991 36.4375 30.625 36.4375Z" stroke="#1A6462" stroke-width="2.5" stroke-linecap="round" stroke-linejoin="round"/>
<path d="M4.375 36.4375C6.10089 36.4375 7.5 35.0384 7.5 33.3125C7.5 31.5866 6.10089 30.1875 4.375 30.1875C2.64911 30.1875 1.25 31.5866 1.25 33.3125C1.25 35.0384 2.64911 36.4375 4.375 36.4375Z" stroke="#1A6462" stroke-width="2.5" stroke-linecap="round" stroke-linejoin="round"/>
<path d="M10.625 36.4375C12.3509 36.4375 13.75 35.0384 13.75 33.3125C13.75 31.5866 12.3509 30.1875 10.625 30.1875C8.89911 30.1875 7.5 31.5866 7.5 33.3125C7.5 35.0384 8.89911 36.4375 10.625 36.4375Z" stroke="#1A6462" stroke-width="2.5" stroke-linecap="round" stroke-linejoin="round"/>
<path d="M20 32.6875V27.6875H36.25C36.913 27.6875 37.5489 27.9509 38.0178 28.4197C38.4866 28.8886 38.75 29.5245 38.75 30.1875C38.75 30.8505 38.4866 31.4864 38.0178 31.9553C37.5489 32.4241 36.913 32.6875 36.25 32.6875H33.6883" stroke="#1A6462" stroke-width="2.5" stroke-linecap="round" stroke-linejoin="round"/>
<path d="M37.5 28.0228V17.6895C37.5 15.7003 36.7098 13.7927 35.3033 12.3862C33.8968 10.9796 31.9891 10.1895 30 10.1895H20V27.6895" stroke="#1A6462" stroke-width="2.5" stroke-linecap="round" stroke-linejoin="round"/>
<path d="M20 10.1874V4.45242C19.9998 4.07729 20.0841 3.70692 20.2465 3.36876C20.4089 3.03061 20.6453 2.73335 20.9383 2.499C21.2312 2.26465 21.5731 2.09924 21.9387 2.01501C22.3042 1.93077 22.6841 1.92989 23.05 2.01242C25.7033 2.60742 29.24 3.66576 30 5.18742C30.7141 6.76531 31.1376 8.45912 31.25 10.1874V10.2924" stroke="#1A6462" stroke-width="2.5" stroke-linecap="round" stroke-linejoin="round"/>
<path d="M15 25.1875H1.25" stroke="#1A6462" stroke-width="2.5" stroke-linecap="round" stroke-linejoin="round"/>
<path d="M37.5 21.4375H20" stroke="#1A6462" stroke-width="2.5" stroke-linecap="round" stroke-linejoin="round"/>
<path d="M27.5 10.1875V21.4375" stroke="#1A6462" stroke-width="2.5" stroke-linecap="round" stroke-linejoin="round"/>
<path d="M15 27.6875V3.9375C15 3.27446 14.7366 2.63857 14.2678 2.16973C13.7989 1.70089 13.163 1.4375 12.5 1.4375H1.25" stroke="#1A6462" stroke-width="2.5" stroke-linecap="round" stroke-linejoin="round"/>
<path d="M27.5634 32.6875H20.0001H13.6851" stroke="#1A6462" stroke-width="2.5" stroke-linecap="round" stroke-linejoin="round"/>
</svg>
