<svg width="24" height="24" viewBox="0 0 24 24" fill="none" xmlns="http://www.w3.org/2000/svg">
<g clip-path="url(#clip0_274_7886)">
<path d="M8.25 23.2598H2.25C1.85218 23.2598 1.47064 23.1017 1.18934 22.8204C0.908035 22.5391 0.75 22.1576 0.75 21.7598V2.25977C0.75 1.86194 0.908035 1.48041 1.18934 1.19911C1.47064 0.917801 1.85218 0.759766 2.25 0.759766H12.88C13.2777 0.760116 13.659 0.918381 13.94 1.19977L19.81 7.06977C19.9637 7.22549 20.0824 7.41216 20.1582 7.61735C20.2341 7.82254 20.2654 8.04154 20.25 8.25977" stroke="black" stroke-width="1.5" stroke-linecap="round" stroke-linejoin="round"/>
<path d="M12.75 0.759766V6.75977C12.75 7.15759 12.908 7.53912 13.1893 7.82043C13.4706 8.10173 13.8522 8.25977 14.25 8.25977H20.25" stroke="black" stroke-width="1.5" stroke-linecap="round" stroke-linejoin="round"/>
<path d="M8.17 9.61963L6 12.4596C5.93404 12.5449 5.85111 12.6156 5.75644 12.6673C5.66178 12.7189 5.55743 12.7504 5.45 12.7596C5.34335 12.7652 5.23672 12.7485 5.13687 12.7106C5.03702 12.6727 4.94614 12.6145 4.87 12.5396L3.75 11.3796" stroke="black" stroke-width="1.5" stroke-linecap="round" stroke-linejoin="round"/>
<path d="M8.17 16.3696L6 19.2096C5.93404 19.2949 5.85111 19.3656 5.75644 19.4173C5.66178 19.4689 5.55743 19.5004 5.45 19.5096C5.34335 19.5152 5.23672 19.4985 5.13687 19.4606C5.03702 19.4227 4.94614 19.3645 4.87 19.2896L3.75 18.1296" stroke="black" stroke-width="1.5" stroke-linecap="round" stroke-linejoin="round"/>
<path d="M11.25 12.7598H15" stroke="black" stroke-width="1.5" stroke-linecap="round" stroke-linejoin="round"/>
<path d="M22.63 14.88L15 22.51L11.25 23.26L12 19.51L19.63 11.88C19.8262 11.6816 20.0598 11.5242 20.3173 11.4167C20.5748 11.3092 20.851 11.2539 21.13 11.2539C21.409 11.2539 21.6852 11.3092 21.9427 11.4167C22.2002 11.5242 22.4338 11.6816 22.63 11.88C22.8283 12.0762 22.9858 12.3098 23.0933 12.5673C23.2007 12.8247 23.2561 13.101 23.2561 13.38C23.2561 13.659 23.2007 13.9352 23.0933 14.1927C22.9858 14.4501 22.8283 14.6837 22.63 14.88Z" stroke="black" stroke-width="1.5" stroke-linecap="round" stroke-linejoin="round"/>
</g>
<defs>
<clipPath id="clip0_274_7886">
<rect width="24" height="24" fill="white"/>
</clipPath>
</defs>
</svg>
