<svg width="40" height="40" viewBox="0 0 40 40" fill="none" xmlns="http://www.w3.org/2000/svg">
<g clip-path="url(#clip0_274_12955)">
<path d="M20 32.5C19.6548 32.5 19.375 32.2202 19.375 31.875C19.375 31.5298 19.6548 31.25 20 31.25" stroke="#1A6462" stroke-width="2.5"/>
<path d="M20 32.5C20.3452 32.5 20.625 32.2202 20.625 31.875C20.625 31.5298 20.3452 31.25 20 31.25" stroke="#1A6462" stroke-width="2.5"/>
<path d="M20 26.25V13.75" stroke="#1A6462" stroke-width="2.5" stroke-miterlimit="10" stroke-linecap="round"/>
<path d="M22.7017 2.93294C22.4537 2.42796 22.069 2.00261 21.5915 1.70514C21.114 1.40768 20.5627 1.25 20 1.25C19.4373 1.25 18.886 1.40768 18.4085 1.70514C17.931 2.00261 17.5463 2.42796 17.2983 2.93294L1.51002 35.0963C1.31997 35.4829 1.23158 35.9116 1.25319 36.3418C1.27481 36.7721 1.40572 37.1898 1.63356 37.5553C1.8614 37.9209 2.17867 38.2224 2.5554 38.4314C2.93212 38.6404 3.35588 38.7499 3.78668 38.7496H36.2133C36.6442 38.7499 37.0678 38.6404 37.4447 38.4314C37.8213 38.2224 38.1387 37.9209 38.3665 37.5553C38.5943 37.1898 38.7252 36.7721 38.7468 36.3418C38.7685 35.9116 38.68 35.4829 38.49 35.0963L22.7017 2.93294Z" stroke="#1A6462" stroke-width="2.5" stroke-linecap="round" stroke-linejoin="round"/>
</g>
<defs>
<clipPath id="clip0_274_12955">
<rect width="40" height="40" fill="white"/>
</clipPath>
</defs>
</svg>
