<svg width="40" height="40" viewBox="0 0 40 40" fill="none" xmlns="http://www.w3.org/2000/svg">
<path d="M20 36.25C22.7614 36.25 25 34.0114 25 31.25C25 28.4886 22.7614 26.25 20 26.25C17.2386 26.25 15 28.4886 15 31.25C15 34.0114 17.2386 36.25 20 36.25Z" stroke="#1A6462" stroke-width="2.5" stroke-linecap="round" stroke-linejoin="round"/>
<path d="M28.8334 22.4126C26.4892 20.0687 23.31 18.752 19.9951 18.752C16.6801 18.752 13.5009 20.0687 11.1567 22.4126" stroke="#1A6462" stroke-width="2.5" stroke-linecap="round" stroke-linejoin="round"/>
<path d="M34.1417 17.1074C30.391 13.357 25.3042 11.25 20.0001 11.25C14.696 11.25 9.60909 13.357 5.8584 17.1074" stroke="#1A6462" stroke-width="2.5" stroke-linecap="round" stroke-linejoin="round"/>
<path d="M38.75 11.1351C33.6593 6.3903 26.959 3.75195 20 3.75195C13.041 3.75195 6.34069 6.3903 1.25 11.1351" stroke="#1A6462" stroke-width="2.5" stroke-linecap="round" stroke-linejoin="round"/>
</svg>
