<svg width="25" height="24" viewBox="0 0 25 24" fill="none" xmlns="http://www.w3.org/2000/svg">
<g clip-path="url(#clip0_274_7870)">
<path d="M23.2578 22.8799V15.3799C23.2578 14.9821 23.0998 14.6005 22.8185 14.3192C22.5372 14.0379 22.1556 13.8799 21.7578 13.8799H2.25781C1.85999 13.8799 1.47846 14.0379 1.19715 14.3192C0.915848 14.6005 0.757813 14.9821 0.757812 15.3799V22.8799" stroke="#292929" stroke-width="1.5" stroke-linecap="round" stroke-linejoin="round"/>
<path d="M11.757 6.38012C13.2095 6.38012 14.387 5.20263 14.387 3.75012C14.387 2.29761 13.2095 1.12012 11.757 1.12012C10.3044 1.12012 9.12695 2.29761 9.12695 3.75012C9.12695 5.20263 10.3044 6.38012 11.757 6.38012Z" stroke="#292929" stroke-width="1.5" stroke-linecap="round" stroke-linejoin="round"/>
<path d="M15.5078 11.25C15.5078 10.4544 15.1917 9.69129 14.6291 9.12868C14.0665 8.56607 13.3035 8.25 12.5078 8.25H11.0078C10.2122 8.25 9.4491 8.56607 8.88649 9.12868C8.32388 9.69129 8.00781 10.4544 8.00781 11.25" stroke="#292929" stroke-width="1.5" stroke-linecap="round" stroke-linejoin="round"/>
</g>
<defs>
<clipPath id="clip0_274_7870">
<rect width="24" height="24" fill="white" transform="translate(0.0078125)"/>
</clipPath>
</defs>
</svg>
