<svg width="40" height="40" viewBox="0 0 40 40" fill="none" xmlns="http://www.w3.org/2000/svg">
<path d="M14.5 39.5H4.5C3.83696 39.5 3.20107 39.2366 2.73223 38.7678C2.26339 38.2989 2 37.663 2 37V4.5C2 3.83696 2.26339 3.20107 2.73223 2.73223C3.20107 2.26339 3.83696 2 4.5 2H22.2167C22.8795 2.00058 23.5149 2.26436 23.9833 2.73333L33.7667 12.5167C34.0228 12.7762 34.2206 13.0873 34.3471 13.4293C34.4735 13.7713 34.5257 14.1363 34.5 14.5" stroke="#1A6462" stroke-width="2.5" stroke-linecap="round" stroke-linejoin="round"/>
<path d="M22 2V12C22 12.663 22.2634 13.2989 22.7322 13.7678C23.2011 14.2366 23.837 14.5 24.5 14.5H34.5" stroke="#1A6462" stroke-width="2.5" stroke-linecap="round" stroke-linejoin="round"/>
<path d="M14.3667 16.7676L10.75 21.5009C10.6401 21.6431 10.5018 21.7609 10.3441 21.847C10.1863 21.933 10.0124 21.9855 9.83333 22.0009C9.65559 22.0102 9.47786 21.9824 9.31144 21.9192C9.14503 21.8561 8.99356 21.7591 8.86667 21.6342L7 19.7009" stroke="#1A6462" stroke-width="2.5" stroke-linecap="round" stroke-linejoin="round"/>
<path d="M14.3667 28.0176L10.75 32.7509C10.6401 32.8931 10.5018 33.0109 10.3441 33.097C10.1863 33.183 10.0124 33.2355 9.83333 33.2509C9.65559 33.2602 9.47786 33.2324 9.31144 33.1692C9.14503 33.1061 8.99356 33.0091 8.86667 32.8842L7 30.9509" stroke="#1A6462" stroke-width="2.5" stroke-linecap="round" stroke-linejoin="round"/>
<path d="M19.5 22H25.75" stroke="#1A6462" stroke-width="2.5" stroke-linecap="round" stroke-linejoin="round"/>
<path d="M38.4667 25.5337L25.75 38.2503L19.5 39.5003L20.75 33.2503L33.4667 20.5337C33.7937 20.2031 34.183 19.9407 34.6122 19.7616C35.0413 19.5825 35.5017 19.4902 35.9667 19.4902C36.4317 19.4902 36.892 19.5825 37.3212 19.7616C37.7503 19.9407 38.1396 20.2031 38.4667 20.5337C38.7972 20.8607 39.0597 21.25 39.2388 21.6792C39.4179 22.1083 39.5101 22.5687 39.5101 23.0337C39.5101 23.4987 39.4179 23.959 39.2388 24.3882C39.0597 24.8173 38.7972 25.2066 38.4667 25.5337Z" stroke="#1A6462" stroke-width="2.5" stroke-linecap="round" stroke-linejoin="round"/>
</svg>
