<svg width="40" height="40" viewBox="0 0 40 40" fill="none" xmlns="http://www.w3.org/2000/svg">
<path d="M32.2257 25.2249L36.6707 19.891V19.002H31.3367L28.6697 19.891H2.88867V20.78C2.88867 23.447 5.55567 25.2249 5.55567 25.2249" stroke="#1A6462" stroke-width="2.5" stroke-linecap="round" stroke-linejoin="round"/>
<path d="M34.0025 19.0026L28.6685 11.8906H6.44353L4.66553 19.8916" stroke="#1A6462" stroke-width="2.5" stroke-linecap="round" stroke-linejoin="round"/>
<path d="M26.892 10.1126V8.33464L25.114 6.55664H20.9058" stroke="#1A6462" stroke-width="2.5" stroke-linecap="round" stroke-linejoin="round"/>
<path d="M20.6688 6.556L18.8908 3H12.6678V6.556H9.11182V10.112" stroke="#1A6462" stroke-width="2.5" stroke-linecap="round" stroke-linejoin="round"/>
<path d="M2 36.9979C3.16821 36.9965 4.31967 36.7847 5.36176 36.3797C6.40385 35.9747 7.30749 35.3877 8 34.666C8.69081 35.3892 9.59405 35.9773 10.6365 36.3827C11.6789 36.7881 12.8312 36.9993 14 36.9993C15.1688 36.9993 16.3211 36.7881 17.3635 36.3827C18.406 35.9773 19.3092 35.3892 20 34.666C20.6908 35.3892 21.594 35.9773 22.6365 36.3827C23.6789 36.7881 24.8312 36.9993 26 36.9993C27.1688 36.9993 28.3211 36.7881 29.3635 36.3827C30.406 35.9773 31.3092 35.3892 32 34.666C32.6925 35.3877 33.5962 35.9747 34.6382 36.3797C35.6803 36.7847 36.8318 36.9965 38 36.9979" stroke="#1A6462" stroke-width="2.5" stroke-linecap="round" stroke-linejoin="round"/>
<path d="M2 31.3319C3.16817 31.3302 4.31953 31.1184 5.36158 30.7134C6.40363 30.3084 7.30731 29.7215 8 29C8.69081 29.7232 9.59405 30.3113 10.6365 30.7167C11.6789 31.1221 12.8312 31.3333 14 31.3333C15.1688 31.3333 16.3211 31.1221 17.3635 30.7167C18.406 30.3113 19.3092 29.7232 20 29C20.6908 29.7232 21.594 30.3113 22.6365 30.7167C23.6789 31.1221 24.8312 31.3333 26 31.3333C27.1688 31.3333 28.3211 31.1221 29.3635 30.7167C30.406 30.3113 31.3092 29.7232 32 29C32.6927 29.7215 33.5964 30.3084 34.6384 30.7134C35.6805 31.1184 36.8318 31.3302 38 31.3319" stroke="#1A6462" stroke-width="2.5" stroke-linecap="round" stroke-linejoin="round"/>
</svg>
