<svg width="40" height="40" viewBox="0 0 40 40" fill="none" xmlns="http://www.w3.org/2000/svg">
<path d="M35 1.25H5C3.61929 1.25 2.5 2.36929 2.5 3.75V36.25C2.5 37.6307 3.61929 38.75 5 38.75H35C36.3807 38.75 37.5 37.6307 37.5 36.25V3.75C37.5 2.36929 36.3807 1.25 35 1.25Z" stroke="#1A6462" stroke-width="2.5" stroke-linecap="round" stroke-linejoin="round"/>
<path d="M15 6.25H10C8.61929 6.25 7.5 7.36929 7.5 8.75V11.25C7.5 12.6307 8.61929 13.75 10 13.75H15C16.3807 13.75 17.5 12.6307 17.5 11.25V8.75C17.5 7.36929 16.3807 6.25 15 6.25Z" stroke="#1A6462" stroke-width="2.5" stroke-linecap="round" stroke-linejoin="round"/>
<path d="M30 6.25H25C23.6193 6.25 22.5 7.36929 22.5 8.75V11.25C22.5 12.6307 23.6193 13.75 25 13.75H30C31.3807 13.75 32.5 12.6307 32.5 11.25V8.75C32.5 7.36929 31.3807 6.25 30 6.25Z" stroke="#1A6462" stroke-width="2.5" stroke-linecap="round" stroke-linejoin="round"/>
<path d="M2.5 13.75H37.5" stroke="#1A6462" stroke-width="2.5" stroke-linecap="round" stroke-linejoin="round"/>
<path d="M2.5 21.25H37.5" stroke="#1A6462" stroke-width="2.5" stroke-linecap="round" stroke-linejoin="round"/>
</svg>
