<svg width="742" height="12" viewBox="0 0 742 12" fill="none" xmlns="http://www.w3.org/2000/svg">
<path d="M176.87 8.16082C176.87 8.16082 174.427 8.10924 178.194 7.98409C190.088 7.6553 199.828 7.69043 211.722 7.37869C211.986 7.35016 212.251 7.30458 212.517 7.259C221.798 7.11386 231.443 6.95933 241.318 6.84379C259.453 6.51034 277.456 6.13999 295.425 5.85421C294.93 5.8267 294.699 5.78772 296.483 5.75716C303.948 5.62483 314.319 5.48564 325.054 5.33706C326.639 5.31937 328.225 5.28462 329.777 5.26623C331 5.22382 331.297 5.19599 331.463 5.16537C336.318 5.11439 340.644 5.06929 344.674 5.01793C397.357 4.16889 450.995 3.49353 509.281 3.17223C521.599 3.07417 533.917 2.99316 545.805 2.9372C548.017 2.93275 550.296 2.92969 552.64 2.92803C554.985 2.92637 557.362 2.94246 559.805 2.94289C564.658 2.96011 569.677 2.98081 574.662 3.00082C584.666 3.05858 594.571 3.08014 603.188 3.14273C600.488 2.77864 642.42 2.8796 634.009 2.48016C645.499 2.53519 662.73 2.74562 663.623 2.66213C664.947 2.5195 667.79 2.39188 674.164 2.32181C680.505 2.25103 690.346 2.18595 705.631 2.32114C717.582 2.43708 735.965 2.82537 740.192 2.81229C746.829 2.816 724.682 2.39939 731.319 2.38605C720.195 2.21933 709.136 2.07105 698.111 1.90643C692.599 1.82411 687.086 1.7759 681.606 1.71134C676.126 1.66382 670.613 1.59856 665.133 1.55104C659.653 1.50353 654.173 1.43897 648.693 1.39145C643.212 1.34394 637.765 1.31417 632.284 1.28371C621.356 1.22348 610.428 1.1462 599.533 1.08667C588.638 1.06125 577.709 1.03512 566.78 1.009C561.332 0.996284 555.851 0.982873 550.37 0.969462C544.889 0.973103 539.408 0.976744 533.926 0.980385C522.963 1.00472 511.936 0.976501 500.873 1.01579C489.811 1.05509 478.749 1.09438 467.587 1.13158C465.705 1.143 463.096 1.17319 459.926 1.19152C456.755 1.22691 452.957 1.24905 448.664 1.29484C440.077 1.36937 429.378 1.45043 417.257 1.55268C405.137 1.65492 391.596 1.81244 377.197 1.95185C373.597 1.99522 369.964 2.0379 366.264 2.07919C362.565 2.12047 358.866 2.17881 355.101 2.2187C347.604 2.31623 339.974 2.41097 332.311 2.52206C301.66 2.94939 270.348 3.44804 243.459 3.95484C230.016 4.18266 217.694 4.45124 207.057 4.65306C196.454 4.85558 187.568 5.04319 181.027 5.16093C179.442 5.19568 177.856 5.23043 176.304 5.26587C162.099 5.57997 146.341 5.91245 131.177 6.30865C116.013 6.70484 101.41 7.09583 89.4493 7.47439C78.5118 7.8575 67.409 8.25418 56.3395 8.6345C61.5582 8.55708 66.3804 8.48834 70.5753 8.42341C59.2432 8.72995 47.9118 9.00239 43.5821 9.20094C19.5924 10.0419 33.3661 9.82106 42.8104 9.78171C49.548 9.70225 40.6575 10.0945 51.1613 9.92398C43.6287 10.1231 39.8622 10.2312 32.2966 10.4297C31.5016 10.5493 55.491 9.72542 50.3666 10.0266C43.0661 10.1795 35.003 10.4868 27.4704 10.686C30.1767 10.7431 53.6032 9.99262 52.5428 10.1749C48.4785 10.3109 31.2365 10.5949 29.9116 10.7887C29.6465 10.8343 37.1795 10.6181 40.9459 10.51C17.7846 11.2149 5.12726 11.7323 26.4335 11.3123C19.099 11.5156 8.62718 11.738 0.895479 11.9841C0.895479 11.9841 0.928483 11.9848 0.961488 11.9855C4.85998 11.8802 11.5664 11.7148 15.1345 11.6196C10.7402 11.7485 6.31326 11.8597 1.88597 11.988C2.61207 12.0033 3.4049 11.9859 4.26338 11.987C7.56671 11.9203 10.9034 11.8373 14.3395 11.7392C11.4322 11.8143 8.49156 11.9057 5.55128 11.9801C7.79666 11.9763 10.3398 11.9448 13.147 11.9188C23.6511 11.7312 33.7577 11.6035 39.4076 11.4328C50.8056 11.1277 62.269 10.858 73.6997 10.5706C85.1305 10.2832 96.5942 9.99652 108.058 9.72687C119.521 9.45722 130.951 9.18687 142.415 8.91722C153.878 8.66463 165.308 8.41133 176.738 8.15804" fill="white"/>
</svg>
