<svg width="40" height="40" viewBox="0 0 40 40" fill="none" xmlns="http://www.w3.org/2000/svg">
<g clip-path="url(#clip0_274_10999)">
<path d="M8.75 33.582V36.1887C8.75 36.8517 9.01339 37.4876 9.48223 37.9565C9.95107 38.4253 10.587 38.6887 11.25 38.6887C11.913 38.6887 12.5489 38.4253 13.0178 37.9565C13.4866 37.4876 13.75 36.8517 13.75 36.1887V33.6887" stroke="white" stroke-width="2.5" stroke-linecap="round" stroke-linejoin="round"/>
<path d="M31.25 33.582V36.1887C31.25 36.8517 30.9866 37.4876 30.5178 37.9565C30.0489 38.4253 29.413 38.6887 28.75 38.6887C28.087 38.6887 27.4511 38.4253 26.9822 37.9565C26.5134 37.4876 26.25 36.8517 26.25 36.1887V33.6887" stroke="white" stroke-width="2.5" stroke-linecap="round" stroke-linejoin="round"/>
<path d="M6.25 8.68848H3.75C3.08696 8.68848 2.45107 8.95187 1.98223 9.42071C1.51339 9.88955 1.25 10.5254 1.25 11.1885V16.1885" stroke="white" stroke-width="2.5" stroke-linecap="round" stroke-linejoin="round"/>
<path d="M33.75 8.68848H36.25C36.913 8.68848 37.5489 8.95187 38.0178 9.42071C38.4866 9.88955 38.75 10.5254 38.75 11.1885V16.1885" stroke="white" stroke-width="2.5" stroke-linecap="round" stroke-linejoin="round"/>
<path d="M30.4167 1.18848H9.58333C7.74238 1.18848 6.25 2.68086 6.25 4.52181V30.3551C6.25 32.1961 7.74238 33.6885 9.58333 33.6885H30.4167C32.2576 33.6885 33.75 32.1961 33.75 30.3551V4.52181C33.75 2.68086 32.2576 1.18848 30.4167 1.18848Z" stroke="white" stroke-width="2.5" stroke-linecap="round" stroke-linejoin="round"/>
<path d="M33.75 23.6885H6.25" stroke="white" stroke-width="2.5" stroke-linecap="round" stroke-linejoin="round"/>
<path d="M23.75 28.6885H28.75" stroke="white" stroke-width="2.5" stroke-linecap="round" stroke-linejoin="round"/>
<path d="M11.25 28.6885H16.25" stroke="white" stroke-width="2.5" stroke-linecap="round" stroke-linejoin="round"/>
<path d="M16.25 6.18848H23.75" stroke="white" stroke-width="2.5" stroke-linecap="round" stroke-linejoin="round"/>
</g>
<defs>
<clipPath id="clip0_274_10999">
<rect width="40" height="40" fill="white"/>
</clipPath>
</defs>
</svg>
