<svg width="40" height="40" viewBox="0 0 40 40" fill="none" xmlns="http://www.w3.org/2000/svg">
<g clip-path="url(#clip0_274_11573)">
<path d="M38.75 7.5C38.75 10.3333 34.5217 16.9633 33.0217 19.2267C32.9647 19.3127 32.8873 19.3832 32.7963 19.4318C32.7055 19.4807 32.604 19.5062 32.5008 19.5062C32.3977 19.5062 32.2962 19.4807 32.2053 19.4318C32.1143 19.3832 32.037 19.3127 31.98 19.2267C30.4783 16.965 26.25 10.3333 26.25 7.5C26.25 5.8424 26.9085 4.25268 28.0805 3.08058C29.2527 1.90848 30.8423 1.25 32.5 1.25C34.1577 1.25 35.7473 1.90848 36.9195 3.08058C38.0915 4.25268 38.75 5.8424 38.75 7.5Z" stroke="white" stroke-width="2.5" stroke-linecap="round" stroke-linejoin="round"/>
<path d="M8.75 13.75C10.7391 13.75 12.6468 14.5402 14.0533 15.9467C15.4598 17.3532 16.25 19.2608 16.25 21.25C16.25 24.4517 11.77 30.5433 9.735 33.1467C9.61808 33.2963 9.46863 33.4173 9.29795 33.5005C9.12728 33.5838 8.93988 33.627 8.75 33.627C8.56012 33.627 8.37272 33.5838 8.20205 33.5005C8.03137 33.4173 7.88192 33.2963 7.765 33.1467C5.73 30.545 1.25 24.4517 1.25 21.25C1.25 19.2608 2.04018 17.3532 3.4467 15.9467C4.85322 14.5402 6.76088 13.75 8.75 13.75Z" stroke="white" stroke-width="2.5" stroke-linecap="round" stroke-linejoin="round"/>
<path d="M8.75 38.75H23.75C24.413 38.75 25.049 38.4867 25.5178 38.0178C25.9867 37.549 26.25 36.913 26.25 36.25V28.75C26.25 28.087 26.5133 27.451 26.9822 26.9822C27.451 26.5133 28.087 26.25 28.75 26.25H33.75" stroke="white" stroke-width="2.5" stroke-linecap="round" stroke-linejoin="round"/>
<path d="M8.75 21.875C8.40482 21.875 8.125 21.5952 8.125 21.25C8.125 20.9048 8.40482 20.625 8.75 20.625" stroke="white" stroke-width="2.5"/>
<path d="M8.75 21.875C9.09518 21.875 9.375 21.5952 9.375 21.25C9.375 20.9048 9.09518 20.625 8.75 20.625" stroke="white" stroke-width="2.5"/>
<path d="M32.5 8.125C32.1548 8.125 31.875 7.84518 31.875 7.5C31.875 7.15482 32.1548 6.875 32.5 6.875" stroke="white" stroke-width="2.5"/>
<path d="M32.5 8.125C32.8452 8.125 33.125 7.84518 33.125 7.5C33.125 7.15482 32.8452 6.875 32.5 6.875" stroke="white" stroke-width="2.5"/>
</g>
<defs>
<clipPath id="clip0_274_11573">
<rect width="40" height="40" fill="white"/>
</clipPath>
</defs>
</svg>
