<svg width="40" height="40" viewBox="0 0 40 40" fill="none" xmlns="http://www.w3.org/2000/svg">
<g clip-path="url(#clip0_274_11545)">
<path d="M28.125 21.25C33.6478 21.25 38.125 16.7728 38.125 11.25C38.125 5.72715 33.6478 1.25 28.125 1.25C22.6022 1.25 18.125 5.72715 18.125 11.25C18.125 16.7728 22.6022 21.25 28.125 21.25Z" stroke="white" stroke-width="2.5" stroke-linecap="round" stroke-linejoin="round"/>
<path d="M25.625 11.25H28.125C28.788 11.25 29.424 10.9866 29.8928 10.5178C30.3617 10.0489 30.625 9.41303 30.625 8.75C30.625 8.08697 30.3617 7.45107 29.8928 6.98223C29.424 6.5134 28.788 6.25 28.125 6.25H25.625V16.25" stroke="white" stroke-width="2.5" stroke-linecap="round" stroke-linejoin="round"/>
<path d="M5.54492 22.6783L8.46159 16.1783C8.73064 15.4646 9.21089 14.8498 9.83831 14.4159C10.4657 13.9821 11.2105 13.7498 11.9733 13.75H13.1249" stroke="white" stroke-width="2.5" stroke-linecap="round" stroke-linejoin="round"/>
<path d="M3.125 33.415V36.2484C3.125 36.9114 3.3884 37.5472 3.85723 38.016C4.32607 38.4849 4.96197 38.7484 5.625 38.7484C6.28803 38.7484 6.92393 38.4849 7.39277 38.016C7.8616 37.5472 8.125 36.9114 8.125 36.2484V33.7484" stroke="white" stroke-width="2.5" stroke-linecap="round" stroke-linejoin="round"/>
<path d="M35.625 33.415V36.2484C35.625 36.9114 35.3617 37.5472 34.8928 38.016C34.424 38.4849 33.788 38.7484 33.125 38.7484C32.462 38.7484 31.826 38.4849 31.3572 38.016C30.8883 37.5472 30.625 36.9114 30.625 36.2484V33.7484" stroke="white" stroke-width="2.5" stroke-linecap="round" stroke-linejoin="round"/>
<path d="M18.125 22.5H6.875C5.54892 22.5 4.27715 23.0268 3.33947 23.9645C2.40178 24.9022 1.875 26.174 1.875 27.5V31.25C1.875 31.913 2.1384 32.549 2.60723 33.0178C3.07607 33.4867 3.71197 33.75 4.375 33.75H34.375C35.038 33.75 35.674 33.4867 36.1428 33.0178C36.6117 32.549 36.875 31.913 36.875 31.25V27.5C36.8778 26.6223 36.6477 25.7597 36.2083 25" stroke="white" stroke-width="2.5" stroke-linecap="round" stroke-linejoin="round"/>
<path d="M7.5 28.75C7.15482 28.75 6.875 28.4702 6.875 28.125C6.875 27.7798 7.15482 27.5 7.5 27.5" stroke="white" stroke-width="2.5"/>
<path d="M7.5 28.75C7.84518 28.75 8.125 28.4702 8.125 28.125C8.125 27.7798 7.84518 27.5 7.5 27.5" stroke="white" stroke-width="2.5"/>
<path d="M31.25 28.75C30.9048 28.75 30.625 28.4702 30.625 28.125C30.625 27.7798 30.9048 27.5 31.25 27.5" stroke="white" stroke-width="2.5"/>
<path d="M31.25 28.75C31.5952 28.75 31.875 28.4702 31.875 28.125C31.875 27.7798 31.5952 27.5 31.25 27.5" stroke="white" stroke-width="2.5"/>
</g>
<defs>
<clipPath id="clip0_274_11545">
<rect width="40" height="40" fill="white"/>
</clipPath>
</defs>
</svg>
