<svg width="18" height="19" viewBox="0 0 18 19" fill="none" xmlns="http://www.w3.org/2000/svg">
<path fill-rule="evenodd" clip-rule="evenodd" d="M9.00526 1.62165C11.4113 1.62165 11.6963 1.63221 12.6425 1.67442C13.522 1.71311 13.9968 1.86086 14.3134 1.98398C14.732 2.14579 15.0346 2.34278 15.3476 2.65585C15.6642 2.97245 15.8577 3.27145 16.0195 3.69005C16.1426 4.00665 16.2904 4.48505 16.3291 5.36095C16.3713 6.31073 16.3818 6.59566 16.3818 8.99824C16.3818 11.4043 16.3713 11.6893 16.3291 12.6355C16.2904 13.515 16.1426 13.9898 16.0195 14.3064C15.8577 14.725 15.6607 15.0276 15.3476 15.3406C15.031 15.6572 14.732 15.8507 14.3134 16.0125C13.9968 16.1356 13.5184 16.2834 12.6425 16.3221C11.6928 16.3643 11.4078 16.3748 9.00526 16.3748C6.59916 16.3748 6.31423 16.3643 5.36798 16.3221C4.48856 16.2834 4.01367 16.1356 3.69708 16.0125C3.27848 15.8507 2.97596 15.6537 2.66288 15.3406C2.34629 15.024 2.15282 14.725 1.99101 14.3064C1.86789 13.9898 1.72014 13.5114 1.68145 12.6355C1.63924 11.6858 1.62868 11.4008 1.62868 8.99824C1.62868 6.59214 1.63924 6.30721 1.68145 5.36095C1.72014 4.48153 1.86789 4.00665 1.99101 3.69005C2.15282 3.27145 2.34981 2.96893 2.66288 2.65585C2.97947 2.33926 3.27848 2.14579 3.69708 1.98398C4.01367 1.86086 4.49208 1.71311 5.36798 1.67442C6.31423 1.63221 6.59916 1.62165 9.00526 1.62165ZM9.00526 0C6.56047 0 6.25443 0.0105531 5.29411 0.0527653C4.3373 0.0949775 3.67949 0.249756 3.10963 0.47137C2.51514 0.703537 2.01211 1.00958 1.5126 1.51261C1.00957 2.01212 0.703536 2.51515 0.471369 3.10612C0.249755 3.6795 0.0949773 4.33379 0.0527652 5.2906C0.010553 6.25445 0 6.56049 0 9.00528C0 11.4501 0.010553 11.7561 0.0527652 12.7164C0.0949773 13.6732 0.249755 14.3311 0.471369 14.9009C0.703536 15.4954 1.00957 15.9984 1.5126 16.4979C2.01211 16.9975 2.51514 17.307 3.10611 17.5357C3.67949 17.7573 4.33378 17.9121 5.29059 17.9543C6.25091 17.9965 6.55695 18.007 9.00174 18.007C11.4465 18.007 11.7526 17.9965 12.7129 17.9543C13.6697 17.9121 14.3275 17.7573 14.8974 17.5357C15.4883 17.307 15.9914 16.9975 16.4909 16.4979C16.9904 15.9984 17.2999 15.4954 17.5286 14.9044C17.7502 14.3311 17.905 13.6768 17.9472 12.72C17.9894 11.7596 18 11.4536 18 9.0088C18 6.564 17.9894 6.25796 17.9472 5.29764C17.905 4.34083 17.7502 3.68302 17.5286 3.11315C17.307 2.51515 17.0009 2.01212 16.4979 1.51261C15.9984 1.01309 15.4954 0.703537 14.9044 0.474888C14.331 0.253273 13.6767 0.0984952 12.7199 0.056283C11.7561 0.0105531 11.45 0 9.00526 0ZM9.00465 4.37988C6.45082 4.37988 4.37891 6.4518 4.37891 9.00564C4.37891 11.5595 6.45082 13.6314 9.00465 13.6314C11.5585 13.6314 13.6304 11.5595 13.6304 9.00564C13.6304 6.4518 11.5585 4.37988 9.00465 4.37988ZM9.00465 12.0062C7.34783 12.0062 6.00407 10.6625 6.00407 9.00564C6.00407 7.34881 7.34783 6.00505 9.00465 6.00505C10.6615 6.00505 12.0052 7.34881 12.0052 9.00564C12.0052 10.6625 10.6615 12.0062 9.00465 12.0062ZM13.8147 5.27741C14.4094 5.27741 14.8951 4.79529 14.8951 4.19705C14.8951 3.60233 14.4094 3.1167 13.8147 3.1167C13.22 3.1167 12.7344 3.59881 12.7344 4.19705C12.7344 4.79177 13.2165 5.27741 13.8147 5.27741Z" fill="#00436F"/>
</svg>
