<svg width="24" height="24" viewBox="0 0 24 24" fill="none" xmlns="http://www.w3.org/2000/svg">
<g clip-path="url(#clip0_274_8608)">
<path d="M3.75 15.7471C2.95435 15.7471 2.19129 15.431 1.62868 14.8684C1.06607 14.3058 0.75 13.5427 0.75 12.7471V3.74707C0.75 2.95142 1.06607 2.18836 1.62868 1.62575C2.19129 1.06314 2.95435 0.74707 3.75 0.74707H20.25C21.0456 0.74707 21.8087 1.06314 22.3713 1.62575C22.9339 2.18836 23.25 2.95142 23.25 3.74707V12.7471C23.251 13.4777 22.9846 14.1834 22.501 14.7311" stroke="#292929" stroke-width="1.5" stroke-linecap="round" stroke-linejoin="round"/>
<path d="M11.2505 23.247L7.40053 18.115C7.21028 17.8613 7.10332 17.5549 7.09436 17.238C7.08541 16.921 7.1749 16.609 7.35053 16.345C7.46627 16.1717 7.61611 16.0238 7.7909 15.9103C7.9657 15.7969 8.16178 15.7202 8.36718 15.685C8.57258 15.6498 8.783 15.6569 8.98559 15.7057C9.18819 15.7545 9.37871 15.8441 9.54553 15.969L11.2455 17.247V7.50001C11.2455 7.3026 11.2845 7.10714 11.3602 6.92483C11.4359 6.74251 11.5468 6.57693 11.6866 6.43758C11.8265 6.29822 11.9924 6.18784 12.175 6.11275C12.3575 6.03766 12.5531 5.99935 12.7505 6.00001C13.1484 6.00001 13.5299 6.15804 13.8112 6.43935C14.0925 6.72065 14.2505 7.10218 14.2505 7.50001V13.5L18.4245 14.428C19.1365 14.5862 19.7664 14.9983 20.1965 15.5873C20.6267 16.1762 20.8275 16.9017 20.7615 17.628L20.2505 23.25L11.2505 23.247Z" stroke="#292929" stroke-width="1.5" stroke-linecap="round" stroke-linejoin="round"/>
</g>
<defs>
<clipPath id="clip0_274_8608">
<rect width="24" height="24" fill="white"/>
</clipPath>
</defs>
</svg>
