<svg width="24" height="24" viewBox="0 0 24 24" fill="none" xmlns="http://www.w3.org/2000/svg">
<g clip-path="url(#clip0_274_8667)">
<path d="M0.75 23.2629C1.56444 23.3637 2.3911 23.2814 3.16964 23.0219C3.94818 22.7623 4.65893 22.3322 5.25 21.7629C5.67632 22.2351 6.19699 22.6126 6.77835 22.871C7.35971 23.1294 7.98881 23.2629 8.625 23.2629C9.26119 23.2629 9.89029 23.1294 10.4716 22.871C11.053 22.6126 11.5737 22.2351 12 21.7629C12.4263 22.2351 12.947 22.6126 13.5284 22.871C14.1097 23.1294 14.7388 23.2629 15.375 23.2629C16.0112 23.2629 16.6403 23.1294 17.2216 22.871C17.803 22.6126 18.3237 22.2351 18.75 21.7629C19.3411 22.3322 20.0518 22.7623 20.8304 23.0219C21.6089 23.2814 22.4356 23.3637 23.25 23.2629" stroke="#292929" stroke-width="1.5" stroke-linecap="round" stroke-linejoin="round"/>
<path d="M22.4791 20.8639C22.9025 19.9908 23.1628 19.0477 23.2471 18.0809C23.2565 17.9771 23.2443 17.8725 23.211 17.7737C23.1778 17.6749 23.1243 17.5842 23.054 17.5072C22.9837 17.4302 22.8982 17.3687 22.8028 17.3267C22.7074 17.2846 22.6043 17.2629 22.5001 17.2629H1.50009C1.39586 17.2629 1.29277 17.2846 1.1974 17.3267C1.10203 17.3687 1.01647 17.4302 0.94618 17.5072C0.875893 17.5842 0.822421 17.6749 0.789175 17.7737C0.755929 17.8725 0.743639 17.9771 0.753089 18.0809C0.828247 18.9302 1.03751 19.7622 1.37309 20.5459" stroke="#292929" stroke-width="1.5" stroke-linecap="round" stroke-linejoin="round"/>
<path d="M19.664 12.5769C19.6187 12.2142 19.4425 11.8805 19.1685 11.6386C18.8945 11.3966 18.5415 11.263 18.176 11.2629H5.824C5.45846 11.263 5.10554 11.3966 4.83154 11.6386C4.55754 11.8805 4.38133 12.2142 4.336 12.5769L3.75 17.2629H20.25L19.664 12.5769Z" stroke="#292929" stroke-width="1.5" stroke-linecap="round" stroke-linejoin="round"/>
<path d="M6.75 14.2629H8.25" stroke="#292929" stroke-width="1.5" stroke-linecap="round" stroke-linejoin="round"/>
<path d="M15.75 14.2629H17.25" stroke="#292929" stroke-width="1.5" stroke-linecap="round" stroke-linejoin="round"/>
<path d="M11.25 14.2629H12.75" stroke="#292929" stroke-width="1.5" stroke-linecap="round" stroke-linejoin="round"/>
<path d="M7.25 6.76294H9.25C9.38261 6.76294 9.50979 6.81562 9.60355 6.90939C9.69732 7.00315 9.75 7.13033 9.75 7.26294V11.2629H6.75V7.26294C6.75 7.13033 6.80268 7.00315 6.89645 6.90939C6.99021 6.81562 7.11739 6.76294 7.25 6.76294Z" stroke="#292929" stroke-width="1.5" stroke-linecap="round" stroke-linejoin="round"/>
<path d="M17.25 11.2629H14.25V7.26294C14.25 7.13033 14.3027 7.00315 14.3964 6.90939C14.4902 6.81562 14.6174 6.76294 14.75 6.76294H16.75C16.8826 6.76294 17.0098 6.81562 17.1036 6.90939C17.1973 7.00315 17.25 7.13033 17.25 7.26294V11.2629Z" stroke="#292929" stroke-width="1.5" stroke-linecap="round" stroke-linejoin="round"/>
<path d="M8.25 3.76294C8.25 2.26294 11.25 2.26294 11.25 0.762939" stroke="#292929" stroke-width="1.5" stroke-linecap="round" stroke-linejoin="round"/>
<path d="M15.75 3.76294C15.75 2.26294 18.75 2.26294 18.75 0.762939" stroke="#292929" stroke-width="1.5" stroke-linecap="round" stroke-linejoin="round"/>
</g>
<defs>
<clipPath id="clip0_274_8667">
<rect width="24" height="24" fill="white"/>
</clipPath>
</defs>
</svg>
