<svg width="24" height="24" viewBox="0 0 24 24" fill="none" xmlns="http://www.w3.org/2000/svg">
<g clip-path="url(#clip0_274_8618)">
<path d="M10.5605 18.11L12.6205 8.84C12.6569 8.67328 12.749 8.52396 12.8818 8.41669C13.0145 8.30942 13.1798 8.25062 13.3505 8.25H19.6505C19.8211 8.25062 19.9864 8.30942 20.1192 8.41669C20.2519 8.52396 20.3441 8.67328 20.3805 8.84L22.3805 17.95" stroke="#292929" stroke-width="1.5" stroke-linecap="round" stroke-linejoin="round"/>
<path d="M11.4199 14.25H21.5799" stroke="#292929" stroke-width="1.5" stroke-linecap="round" stroke-linejoin="round"/>
<path d="M18.75 8.25H14.25V4.5C14.25 3.90326 14.4871 3.33097 14.909 2.90901C15.331 2.48705 15.9033 2.25 16.5 2.25C17.0967 2.25 17.669 2.48705 18.091 2.90901C18.5129 3.33097 18.75 3.90326 18.75 4.5V8.25Z" stroke="#292929" stroke-width="1.5" stroke-linecap="round" stroke-linejoin="round"/>
<path d="M16.5 0.75V2.25" stroke="#292929" stroke-width="1.5" stroke-linecap="round" stroke-linejoin="round"/>
<path d="M0.75 0.75L2.25 2.25L3.75 0.75" stroke="#292929" stroke-width="1.5" stroke-linecap="round" stroke-linejoin="round"/>
<path d="M0.75 23.2501C1.48036 23.2502 2.20046 23.0782 2.85197 22.7481C3.50348 22.418 4.06807 21.9391 4.5 21.3501C4.93188 21.9391 5.49645 22.4181 6.14796 22.7483C6.79947 23.0785 7.5196 23.2506 8.25 23.2506C8.9804 23.2506 9.70053 23.0785 10.352 22.7483C11.0035 22.4181 11.5681 21.9391 12 21.3501C12.4319 21.9391 12.9965 22.4181 13.648 22.7483C14.2995 23.0785 15.0196 23.2506 15.75 23.2506C16.4804 23.2506 17.2005 23.0785 17.852 22.7483C18.5035 22.4181 19.0681 21.9391 19.5 21.3501C19.9319 21.9391 20.4965 22.418 21.148 22.7481C21.7995 23.0782 22.5196 23.2502 23.25 23.2501" stroke="#292929" stroke-width="1.5" stroke-linecap="round" stroke-linejoin="round"/>
<path d="M16.4941 11.6201C16.287 11.6201 16.1191 11.4522 16.1191 11.2451C16.1191 11.038 16.287 10.8701 16.4941 10.8701" stroke="#292929" stroke-width="1.5"/>
<path d="M16.4941 11.6201C16.7012 11.6201 16.8691 11.4522 16.8691 11.2451C16.8691 11.038 16.7012 10.8701 16.4941 10.8701" stroke="#292929" stroke-width="1.5"/>
<path d="M16.4941 17.6299C16.287 17.6299 16.1191 17.462 16.1191 17.2549C16.1191 17.0478 16.287 16.8799 16.4941 16.8799" stroke="#292929" stroke-width="1.5"/>
<path d="M16.4941 17.6299C16.7012 17.6299 16.8691 17.462 16.8691 17.2549C16.8691 17.0478 16.7012 16.8799 16.4941 16.8799" stroke="#292929" stroke-width="1.5"/>
</g>
<defs>
<clipPath id="clip0_274_8618">
<rect width="24" height="24" fill="white"/>
</clipPath>
</defs>
</svg>
