<svg width="26" height="26" viewBox="0 0 26 26" fill="none" xmlns="http://www.w3.org/2000/svg">
<path d="M9.00032 25H2.60006C2.1757 25 1.76872 24.8314 1.46865 24.5314C1.16858 24.2313 1 23.8243 1 23.4V2.6C1 2.17565 1.16858 1.76869 1.46865 1.46863C1.76872 1.16857 2.1757 1 2.60006 1H13.9392C14.3634 1.00037 14.7701 1.16919 15.0699 1.46933L21.3315 7.73067C21.4954 7.89677 21.622 8.09589 21.703 8.31476C21.7839 8.53363 21.8173 8.76723 21.8008 9" stroke="#292929" stroke-width="1.50003" stroke-linecap="round" stroke-linejoin="round"/>
<path d="M13.8008 1V7.4C13.8008 7.82435 13.9694 8.23131 14.2694 8.53137C14.5695 8.83143 14.9765 9 15.4008 9H21.8011" stroke="#292929" stroke-width="1.50003" stroke-linecap="round" stroke-linejoin="round"/>
<path d="M8.91603 10.4507L6.60127 13.48C6.53091 13.571 6.44245 13.6464 6.34146 13.7015C6.24048 13.7566 6.12918 13.7901 6.01458 13.8C5.90082 13.8059 5.78707 13.7881 5.68055 13.7477C5.57404 13.7073 5.4771 13.6452 5.39589 13.5654L4.20117 12.328" stroke="#292929" stroke-width="1.50003" stroke-linecap="round" stroke-linejoin="round"/>
<path d="M8.91603 17.6504L6.60127 20.6797C6.53091 20.7707 6.44245 20.8461 6.34146 20.9012C6.24048 20.9563 6.12918 20.9898 6.01458 20.9997C5.90082 21.0056 5.78707 20.9878 5.68055 20.9474C5.57404 20.907 5.4771 20.8449 5.39589 20.7651L4.20117 19.5277" stroke="#292929" stroke-width="1.50003" stroke-linecap="round" stroke-linejoin="round"/>
<path d="M12.1992 13.7998H16.1994" stroke="#292929" stroke-width="1.50003" stroke-linecap="round" stroke-linejoin="round"/>
<path d="M24.3384 16.0611L16.1994 24.1998L12.1992 24.9998L12.9993 20.9998L21.1382 12.8611C21.3476 12.6496 21.5967 12.4816 21.8714 12.367C22.146 12.2524 22.4407 12.1934 22.7383 12.1934C23.0359 12.1934 23.3306 12.2524 23.6052 12.367C23.8799 12.4816 24.1291 12.6496 24.3384 12.8611C24.5499 13.0704 24.7179 13.3196 24.8325 13.5943C24.9472 13.8689 25.0062 14.1635 25.0062 14.4611C25.0062 14.7587 24.9472 15.0534 24.8325 15.328C24.7179 15.6027 24.5499 15.8518 24.3384 16.0611Z" stroke="#292929" stroke-width="1.50003" stroke-linecap="round" stroke-linejoin="round"/>
</svg>
