<svg width="24" height="24" viewBox="0 0 24 24" fill="none" xmlns="http://www.w3.org/2000/svg">
<g clip-path="url(#clip0_274_8594)">
<path d="M7.5 15L9.173 13.745C9.34376 13.6171 9.5388 13.5254 9.74621 13.4754C9.95361 13.4254 10.169 13.4182 10.3793 13.4542C10.5896 13.4902 10.7903 13.5687 10.9693 13.6849C11.1482 13.8011 11.3016 13.9526 11.42 14.13C11.5917 14.3877 11.6833 14.6904 11.6833 15C11.6833 15.3096 11.5917 15.6124 11.42 15.87L9.775 18.337C9.26951 19.0948 8.54596 19.6813 7.7 20.019L5.25 21" stroke="#292929" stroke-width="1.5" stroke-linecap="round" stroke-linejoin="round"/>
<path d="M8.25 9.75L4.655 11.291C3.59266 11.7462 2.74618 12.5927 2.291 13.655L1.114 16.4C0.873704 16.9606 0.749864 17.5641 0.75 18.174V23.25" stroke="#292929" stroke-width="1.5" stroke-linecap="round" stroke-linejoin="round"/>
<path d="M8.25 19.755V21C8.25 21.5967 8.48705 22.169 8.90901 22.591C9.33097 23.0129 9.90326 23.25 10.5 23.25H21C21.5967 23.25 22.169 23.0129 22.591 22.591C23.0129 22.169 23.25 21.5967 23.25 21V3C23.25 2.40326 23.0129 1.83097 22.591 1.40901C22.169 0.987053 21.5967 0.75 21 0.75H18.75C18.75 1.54565 18.4339 2.30871 17.8713 2.87132C17.3087 3.43393 16.5456 3.75 15.75 3.75C14.9544 3.75 14.1913 3.43393 13.6287 2.87132C13.0661 2.30871 12.75 1.54565 12.75 0.75H10.5C9.90326 0.75 9.33097 0.987053 8.90901 1.40901C8.48705 1.83097 8.25 2.40326 8.25 3V14.438" stroke="#292929" stroke-width="1.5" stroke-linecap="round" stroke-linejoin="round"/>
<path d="M11.25 7.5H20.25" stroke="#292929" stroke-width="1.5" stroke-linecap="round" stroke-linejoin="round"/>
<path d="M19.5 10.5V20.25" stroke="#292929" stroke-width="1.5" stroke-linecap="round" stroke-linejoin="round"/>
<path d="M14.25 15.75C14.6149 15.7496 14.9745 15.838 15.2977 16.0076C15.6208 16.1771 15.8979 16.4228 16.105 16.7233C16.3121 17.0238 16.4429 17.3701 16.4863 17.7325C16.5297 18.0948 16.4843 18.4623 16.354 18.8032C16.2238 19.1441 16.0125 19.4482 15.7385 19.6893C15.4645 19.9303 15.136 20.1011 14.7813 20.1869C14.4266 20.2727 14.0563 20.271 13.7024 20.1818C13.3486 20.0926 13.0217 19.9187 12.75 19.675" stroke="#292929" stroke-width="1.5" stroke-linecap="round" stroke-linejoin="round"/>
</g>
<defs>
<clipPath id="clip0_274_8594">
<rect width="24" height="24" fill="white"/>
</clipPath>
</defs>
</svg>
