<svg width="24" height="24" viewBox="0 0 24 24" fill="none" xmlns="http://www.w3.org/2000/svg">
<path d="M12 0.800049C14.3869 0.800049 16.6761 1.74826 18.364 3.43609C20.0518 5.12392 21 7.4131 21 9.80005C21 17.7 14.068 22.131 12.371 23.1C12.2578 23.1645 12.1298 23.1984 11.9995 23.1984C11.8692 23.1984 11.7412 23.1645 11.628 23.1C9.931 22.132 3 17.7 3 9.80005C3 7.4131 3.94821 5.12392 5.63604 3.43609C7.32387 1.74826 9.61305 0.800049 12 0.800049Z" stroke="#292929" stroke-width="1.5" stroke-linecap="round" stroke-linejoin="round"/>
<path d="M12 8.24512V15.7451" stroke="#292929" stroke-width="1.5" stroke-linecap="round" stroke-linejoin="round"/>
<path d="M9 11.2449H7.5C7.5 12.4383 7.97411 13.5829 8.81802 14.4269C9.66193 15.2708 10.8065 15.7449 12 15.7449C13.1935 15.7449 14.3381 15.2708 15.182 14.4269C16.0259 13.5829 16.5 12.4383 16.5 11.2449H15" stroke="#292929" stroke-width="1.5" stroke-linecap="round" stroke-linejoin="round"/>
<path d="M12 8.24512C12.8284 8.24512 13.5 7.57354 13.5 6.74512C13.5 5.91669 12.8284 5.24512 12 5.24512C11.1716 5.24512 10.5 5.91669 10.5 6.74512C10.5 7.57354 11.1716 8.24512 12 8.24512Z" stroke="#292929" stroke-width="1.5" stroke-linecap="round" stroke-linejoin="round"/>
</svg>
