<svg width="18" height="18" viewBox="0 0 18 18" fill="none" xmlns="http://www.w3.org/2000/svg">
<path fill-rule="evenodd" clip-rule="evenodd" d="M4.342 2.00304C4.31695 0.866023 3.50386 0 2.18353 0C0.86319 0 0 0.866023 0 2.00304C0 3.11651 0.837677 4.00747 2.13342 4.00747H2.15809C3.50386 4.00747 4.342 3.11651 4.342 2.00304ZM4.08783 5.69885H0.228254V17.2953H4.08783V5.69885ZM13.5562 5.42673C16.096 5.42673 18 7.0845 18 10.6464L17.9999 17.2954H14.1405V11.0914C14.1405 9.53303 13.582 8.46966 12.1848 8.46966C11.1185 8.46966 10.4834 9.18652 10.2044 9.87891C10.1024 10.1271 10.0773 10.4728 10.0773 10.8194V17.2958H6.21729C6.21729 17.2958 6.26816 6.78749 6.21729 5.69934H10.0773V7.34188C10.5896 6.55228 11.507 5.42673 13.5562 5.42673Z" fill="#00436F"/>
</svg>
