<svg width="842" height="523" viewBox="0 0 842 523" fill="none" xmlns="http://www.w3.org/2000/svg">
<g clip-path="url(#clip0_1_63)">
<path d="M814.316 77.9758C817.441 76.8508 819.941 75.1009 822.316 73.851C834.19 71.976 835.94 61.1015 828.815 59.4766C825.941 61.1015 823.066 62.2264 820.066 63.2264C815.691 64.7263 811.441 66.2263 809.941 66.6013C806.316 67.3512 794.442 77.2258 790.192 78.9757C785.817 80.7257 769.568 97.35 757.693 104.85C753.444 107.475 748.944 108.6 744.694 110.724C732.694 116.849 720.195 124.474 706.571 128.474C688.196 133.848 683.821 135.973 666.572 145.223C665.572 145.723 662.947 147.098 661.572 147.723C655.948 150.473 649.073 152.473 645.198 152.723C644.448 152.723 643.698 150.473 640.573 151.098C621.324 154.848 612.449 157.347 603.075 160.222C599.075 161.347 592.825 156.722 578.826 155.723C573.701 155.348 564.451 155.598 556.827 156.722C570.576 137.848 557.202 128.349 552.452 126.099C553.702 125.599 554.702 124.849 554.702 124.849L550.077 107.975C550.077 107.975 551.452 107.225 552.577 105.85C558.452 103.475 559.577 99.4749 554.327 92.8502C579.451 77.3508 554.702 34.8526 545.577 27.4779C547.327 48.727 546.952 62.7264 538.703 63.9764C530.328 52.6018 517.203 41.6023 507.454 37.2275C497.329 39.2274 489.205 47.852 489.205 47.852C486.08 40.4773 485.33 16.6033 490.205 0.104006C451.956 26.1029 454.206 68.6012 461.331 81.4756C460.206 87.2254 459.331 91.8502 458.956 92.9751C458.581 94.1001 456.081 94.9751 455.706 96.725C455.331 98.4749 454.831 102.725 454.831 104.1C441.957 104.725 435.707 110.599 431.957 117.099C419.208 121.224 421.707 133.598 423.582 138.598C424.957 142.223 425.457 144.598 423.207 146.473C435.207 148.223 430.207 137.098 440.332 132.474C438.582 134.723 433.957 141.223 435.457 149.473C419.832 148.723 410.583 150.223 400.458 154.598C387.709 160.097 382.209 147.848 383.584 141.223C371.584 149.598 374.834 163.847 380.209 167.597C386.959 172.347 399.458 171.597 402.708 169.847C400.833 172.972 399.708 171.222 395.833 171.472C386.084 174.347 375.459 175.847 366.71 164.722C364.335 174.722 369.585 180.721 377.459 181.846C359.96 181.971 324.961 183.096 295.588 190.971C220.716 210.845 201.717 277.717 185.967 288.717C162.218 305.216 144.219 275.343 135.469 263.468C121.595 244.719 90.4712 252.968 85.8464 254.218C71.472 212.345 24.224 216.47 -0.0250244 249.344C79.8466 243.594 24.5989 341.84 110.72 342.84C139.719 343.215 172.843 325.09 186.967 318.841C212.966 307.216 257.089 275.593 325.461 263.468C330.961 271.343 358.335 299.842 358.335 299.842C363.21 316.466 362.835 325.465 377.709 322.216C392.209 317.841 392.084 305.716 392.084 305.716C393.459 302.591 484.83 275.718 485.33 276.842C485.83 277.967 488.955 304.216 488.955 304.216C551.577 278.842 554.452 251.094 554.452 251.094C559.952 278.967 540.827 298.467 540.827 298.467C561.327 291.217 580.701 257.843 587.575 247.594C607.45 241.094 640.823 234.594 643.573 236.219C653.698 242.219 661.072 232.094 663.197 225.97C664.572 221.97 666.447 213.47 665.822 201.096C672.947 198.221 679.572 192.971 686.946 190.221C694.321 187.471 714.57 183.471 729.945 170.597C741.694 160.722 750.694 155.473 753.944 154.598C757.193 150.223 757.443 148.723 755.444 144.598C764.068 138.473 768.568 132.224 772.193 128.849C772.943 128.224 776.818 127.099 778.943 127.099C789.692 126.974 794.442 122.099 795.567 121.349C795.567 123.224 798.692 123.349 801.692 123.099C805.566 122.724 811.316 122.599 812.191 120.474C812.941 118.474 813.691 116.599 814.191 114.849C816.691 112.349 819.191 110.474 820.066 108.724C820.941 106.975 819.941 104.85 819.941 104.85C819.941 104.85 821.941 103.1 823.191 101.1C823.816 100.1 823.691 96.35 823.566 93.8501C823.566 90.8502 823.191 89.3503 822.691 85.8504C822.316 83.8505 815.941 82.9756 810.441 81.9756C811.316 79.9757 814.316 77.9758 814.316 77.9758Z" fill="white"/>
<path d="M459.345 112.833C475.844 112.708 485.593 98.7087 496.093 94.5839C494.468 94.4589 492.843 94.0839 492.593 93.3339C500.843 91.834 508.218 89.9591 506.468 88.3341C505.468 88.2091 505.468 86.8342 505.468 85.2093C505.468 83.5843 505.593 81.8344 506.343 81.7094C507.718 81.5844 516.592 76.5846 537.591 82.7094C535.466 77.7096 536.716 75.0847 531.717 64.0852C524.717 48.3358 507.218 37.0863 507.218 37.0863L508.093 75.2097L489.093 82.3344C488.343 79.5845 487.343 78.0846 487.593 77.3346C489.093 75.8347 493.968 67.835 486.343 56.8355C476.219 42.0861 486.093 6.58754 486.093 6.58754C486.093 6.58754 476.219 16.2121 470.844 33.2114C467.469 44.086 467.594 82.9594 470.969 99.7087L470.344 101.459C466.219 103.459 462.969 104.708 459.345 105.833C454.845 107.333 451.095 107.833 446.595 110.458C439.095 114.958 441.595 116.958 441.595 116.958C441.595 116.958 442.97 112.958 459.345 112.833Z" fill="#B4BDB6"/>
<path d="M534.576 107.525C530.952 109.15 528.077 106.275 523.577 107.65C525.577 112.774 533.326 115.274 535.701 108.65C535.951 108.025 535.201 107.275 534.576 107.525Z" fill="#B4BDB6"/>
<path d="M555.909 83.3706L559.784 70.2461L553.159 59.7466C553.159 59.7466 545.91 70.2461 544.535 69.1212C543.16 67.9962 547.91 74.121 550.16 79.8707C552.534 85.7455 555.909 83.3706 555.909 83.3706Z" fill="#B4BDB6"/>
<path d="M811.597 88.3929C811.347 88.1429 801.098 87.1429 800.098 77.2683C794.973 77.6433 793.223 83.7681 784.349 88.7679C790.598 91.1428 801.973 87.8929 804.598 91.1427C807.223 94.3926 802.223 98.5174 788.973 100.392C781.974 101.392 772.599 108.267 761.475 107.767C757.225 109.267 754.6 109.017 747.35 113.892C743.85 116.267 732.351 120.017 729.976 131.891C727.726 128.141 728.601 124.391 727.351 125.141C707.727 137.141 688.353 138.016 673.228 152.765C672.103 151.64 671.978 149.89 672.228 146.765C667.103 150.015 662.854 158.14 647.854 163.015C642.604 164.765 640.355 154.515 649.229 151.89C644.104 152.765 644.229 151.39 642.604 150.89C640.105 150.14 639.105 154.265 638.605 159.515C637.23 172.139 636.855 194.013 638.48 198.263C631.23 185.889 633.73 160.39 633.73 160.39C633.73 160.39 616.856 164.89 605.481 178.264C605.731 175.014 606.356 171.514 607.856 168.89C585.482 177.764 589.732 206.763 570.857 213.638C561.108 217.138 561.983 219.387 561.983 195.638C561.983 171.764 544.359 262.636 521.359 273.135C500.235 282.76 501.36 247.011 486.486 235.512C491.736 247.636 485.361 248.761 480.361 239.637C475.861 231.512 471.487 230.387 471.487 230.387C471.487 230.387 405.364 286.635 391.24 297.759C391.99 303.384 390.365 305.759 389.74 306.509C389.115 312.134 372.241 307.509 357.866 298.884C376.491 281.51 385.49 287.01 385.49 287.01C385.49 287.01 410.989 209.638 432.238 189.764L441.363 196.388L442.363 208.763C442.363 208.763 459.237 206.638 460.362 206.638C461.487 206.638 483.236 208.138 483.986 208.138C484.736 208.138 526.734 194.638 526.734 194.638L533.609 180.014L547.733 167.39L553.608 147.265C553.608 147.265 556.858 144.141 555.233 135.016C553.733 126.391 547.108 125.141 547.108 125.141L543.234 100.017L538.609 103.392C538.609 103.392 539.359 109.017 537.984 114.517C537.359 117.392 533.234 117.267 532.234 119.142C529.734 120.892 527.234 123.891 525.984 124.141C511.235 127.141 502.61 140.891 502.61 140.891C502.61 140.891 502.11 141.891 499.61 141.391C514.235 127.391 508.86 114.642 503.86 111.392C499.235 108.392 500.36 97.2675 500.36 97.2675L500.235 96.1425L494.611 99.7674L490.361 113.017V127.891L488.861 145.89C488.611 146.14 488.361 146.265 488.111 146.515C481.486 152.265 477.861 153.515 469.737 153.015C460.112 151.765 465.612 147.765 467.362 143.891C477.486 141.641 484.361 132.266 484.361 132.266L488.861 128.891L489.111 122.516C489.111 122.516 486.611 127.266 483.486 124.516C481.111 122.516 480.486 119.767 480.861 117.892C482.736 115.517 478.111 120.142 478.111 120.142L475.111 116.267L467.112 133.141L463.112 152.265C455.862 152.14 446.488 150.015 432.988 151.515C426.988 152.14 422.489 155.39 422.489 155.39L414.239 160.265L400.49 176.764L423.864 183.764L426.238 185.514C297.244 183.139 272.495 219.887 230.122 258.636C210.997 276.135 193.998 286.76 179.999 295.759C147.75 318.008 78.003 337.507 83.1278 281.635C85.2527 258.636 76.3781 236.012 56.0039 230.137C46.2543 227.262 30.8799 228.387 18.6304 235.137C29.88 232.137 59.7537 242.136 59.7537 262.511C59.7537 274.76 60.2537 285.26 62.0036 294.634C63.0036 299.259 63.8786 303.509 65.1285 307.509C73.0032 330.508 87.0026 341.132 111.127 343.132C170.374 347.757 220.497 284.01 312.868 279.635C312.868 279.635 308.118 304.009 311.993 316.258C313.618 298.259 320.368 276.51 324.993 266.385C335.992 287.51 351.992 300.134 358.366 305.009C358.366 305.009 372.491 327.758 383.365 318.008C394.365 309.759 450.737 287.385 482.986 281.26C482.986 287.01 482.861 303.634 477.736 323.633C479.861 323.633 484.236 322.008 487.861 312.009C501.11 293.509 541.609 284.885 554.858 256.011C554.233 271.135 549.608 282.385 540.484 298.134C559.483 288.385 585.357 236.262 584.232 241.636C587.607 224.262 607.356 221.137 617.98 224.762C628.605 228.387 639.855 227.387 645.854 221.637C656.729 211.138 652.604 193.513 652.604 193.513L700.227 168.015L745.975 142.391L757.6 129.266L791.723 114.642C792.223 114.892 817.972 93.8926 811.597 88.3929ZM532.984 122.266C532.609 121.891 532.359 121.641 532.109 121.266C532.484 121.516 532.734 121.891 532.984 122.266ZM529.734 133.016C532.734 131.516 536.859 131.516 539.484 132.141C542.109 132.766 542.859 135.141 542.859 135.641C542.859 136.141 542.109 137.016 542.109 137.016C542.109 137.016 540.484 139.641 539.109 137.641C537.984 136.016 533.359 136.391 530.984 135.766C528.984 135.266 528.359 133.641 529.734 133.016Z" fill="#B4BDB6"/>
<path d="M73.1707 256.676C68.0459 227.302 32.4224 217.053 0.0487366 249.426C62.9211 246.301 56.7964 296.924 70.4208 318.798C63.5461 301.049 76.2956 274.675 73.1707 256.676Z" fill="#00436F"/>
<path d="M546.457 93.9226L550.207 108.797C550.207 108.797 552.707 106.922 553.582 103.422C554.207 101.422 553.457 99.5474 553.207 98.9224C552.457 97.0475 546.457 93.9226 546.457 93.9226Z" fill="#00436F"/>
<path d="M521.458 125.611C521.458 125.611 523.458 124.736 528.333 123.861C530.333 123.486 530.208 121.237 532.458 119.112C529.083 118.362 521.458 125.611 521.458 125.611Z" fill="#00436F"/>
<path d="M828.347 61.1728C830.972 61.5478 834.596 68.0475 821.722 72.1723C819.097 73.0473 817.597 74.2972 812.972 76.4221C809.722 78.547 807.973 79.547 806.098 81.6719C805.473 82.5469 805.723 84.2968 805.348 84.9218C809.222 85.9217 818.347 86.9217 818.847 87.9217C819.847 90.0466 820.097 95.2963 819.972 99.1712C819.847 101.171 817.972 102.421 816.597 103.671C817.472 107.171 816.597 107.796 815.097 109.296C813.597 110.921 812.472 112.171 810.972 113.921C810.472 115.795 810.097 117.42 809.597 118.17C808.972 119.045 805.348 119.67 802.348 119.92C800.098 120.045 797.848 120.42 797.848 117.545C791.598 120.545 785.473 125.42 775.849 124.92C774.474 124.92 773.099 125.295 772.349 125.67C766.849 129.17 764.724 132.545 761.224 135.795C756.6 140.169 752.475 143.669 750.35 145.044C752.475 147.919 752.85 149.294 752.475 152.919C739.225 155.544 728.351 168.668 712.976 176.293C702.352 181.543 690.102 184.168 681.853 186.918C670.353 190.792 670.978 193.167 661.354 197.417C659.604 209.667 660.604 223.416 654.104 228.916C650.979 231.541 648.729 230.541 646.604 229.916C644.479 229.416 639.605 230.166 636.98 230.541C634.355 230.916 586.107 240.415 583.982 243.54C579.357 250.29 564.983 275.164 556.108 284.913C563.608 273.789 562.983 243.29 575.732 232.416C597.106 214.166 587.107 177.793 608.231 169.043C606.231 177.793 606.731 193.292 609.231 193.042C611.856 192.792 618.23 173.418 630.73 165.793C626.48 189.042 634.23 216.291 636.23 219.166C638.355 222.041 644.229 220.541 643.104 217.541C636.98 200.917 635.355 176.043 639.73 155.044C640.48 191.917 648.479 199.917 649.229 192.167C649.979 184.418 651.479 174.668 651.854 176.668C653.354 186.918 659.479 186.418 659.854 177.668C660.354 165.293 670.103 151.794 670.103 151.794C670.103 151.794 667.853 168.293 680.728 164.168C704.102 156.544 709.727 150.419 720.101 139.545C720.101 139.794 718.601 146.044 721.226 151.794C725.226 145.044 724.351 138.295 727.226 130.795C727.351 135.795 729.726 140.544 730.851 145.169C733.976 140.044 729.851 129.67 738.1 120.42C736.726 129.67 738.85 133.42 741.1 138.295C748.475 128.545 765.224 121.17 775.724 115.421C772.099 115.296 769.224 114.546 766.599 110.921C789.348 106.546 782.474 103.921 797.473 101.421C807.473 99.6712 808.848 94.4214 808.098 92.0465C807.473 90.5465 805.473 89.6716 802.348 90.0466C798.973 90.5466 794.348 92.2965 790.973 92.6715C786.723 93.2964 781.724 92.4215 780.974 92.2965C779.224 91.9215 785.223 87.7967 787.973 86.2967C789.598 87.0467 789.723 88.4216 789.598 89.4216C795.598 86.2967 793.473 82.5469 795.348 79.922C797.223 77.2971 799.723 77.2971 802.348 75.4222C804.973 73.4223 807.473 71.0474 811.847 69.5474C814.597 68.6725 817.847 67.0475 820.222 65.6726C820.722 65.2976 826.847 63.6727 828.347 61.1728Z" fill="#00436F"/>
<path d="M555.263 87.1792C565.638 75.5546 564.888 58.0554 547.138 31.1815C550.263 50.9307 547.888 60.0553 544.639 63.9301C543.014 65.5551 542.514 66.055 540.889 66.805C547.638 76.8046 550.263 83.5543 552.263 89.3041C553.138 88.9291 554.138 88.3041 555.263 87.1792ZM547.513 71.0548C547.513 71.0548 550.388 69.3049 552.263 61.4302C559.763 70.0549 556.513 76.9296 552.763 81.4294C552.263 79.3045 547.513 71.0548 547.513 71.0548Z" fill="#00436F"/>
<path d="M559.18 235.599C580.805 204.351 575.18 184.851 588.429 168.977C574.305 163.977 558.305 167.727 558.305 167.727C558.305 167.727 554.681 209.975 532.432 244.224C547.306 201.976 539.556 181.726 539.556 181.726C551.431 174.227 553.056 160.102 552.181 152.603C562.43 139.728 557.305 130.604 550.806 126.979C558.18 133.728 552.556 144.228 552.556 144.228C553.931 136.853 551.681 130.229 546.931 127.354C546.931 126.729 546.806 125.979 546.806 125.979C546.806 125.979 549.681 124.479 550.306 123.854C550.556 123.604 551.306 124.229 551.806 123.979C552.431 123.729 553.556 122.979 553.556 122.979L548.806 120.479L544.306 101.73C542.806 96.23 542.056 93.3552 541.181 91.1053C533.432 86.8554 526.057 86.8554 516.807 86.9804C504.433 87.2304 476.434 95.1051 475.184 95.6051C473.934 95.9801 474.309 89.8553 475.684 89.2303C476.434 88.8554 520.682 72.1061 544.931 85.9805C538.431 76.7309 522.057 76.2309 522.057 76.2309C522.057 76.2309 521.432 50.8569 507.058 36.8575C504.808 37.6075 496.058 41.8573 490.308 51.4819C490.683 52.4819 491.058 53.6068 491.558 54.7318C494.433 61.6065 499.558 68.6062 487.433 77.1058C490.058 73.356 487.058 70.6061 487.058 70.6061C487.058 70.6061 462.309 51.3569 485.684 6.73377L485.808 6.48377C458.31 28.1079 455.685 67.9812 465.184 80.8557C463.434 85.6055 462.934 90.3553 462.059 94.2301C461.809 95.3551 460.185 95.8551 459.81 96.73C458.56 99.7299 459.06 105.855 459.06 105.855C459.06 105.855 467.684 102.98 472.434 100.98C483.184 96.355 490.058 95.2301 494.558 95.2301C486.183 102.23 482.184 109.854 471.684 115.479C462.934 120.104 451.435 118.604 441.06 124.229C445.935 117.979 452.685 113.854 462.809 112.729C454.685 111.729 448.56 113.354 443.185 115.104C444.435 112.979 449.185 108.855 454.685 107.355C441.81 110.604 439.06 113.854 433.561 120.104C424.936 125.354 423.811 131.354 424.811 136.228C425.561 139.728 427.561 142.103 422.686 146.978C430.811 147.978 430.186 140.103 432.436 136.353C435.311 131.479 440.435 130.104 444.31 130.229C439.56 134.978 437.81 141.603 437.935 146.978C440.06 144.728 442.435 142.228 449.935 143.603C447.685 143.603 443.435 148.228 443.31 151.603C454.435 151.728 462.059 153.478 471.934 153.603C468.809 153.228 466.309 151.853 464.684 150.978C469.059 148.353 470.059 139.728 471.809 132.104C479.434 128.854 480.184 132.104 483.434 132.229C487.808 132.354 488.933 128.479 488.933 128.479C488.933 128.479 485.809 149.603 474.434 153.603C481.309 153.353 488.433 150.978 494.058 145.728C492.058 152.853 484.809 158.102 484.809 158.102C484.809 158.102 491.683 157.353 498.933 152.228C497.183 158.102 491.683 163.477 479.309 168.727C487.933 168.227 511.057 161.227 516.432 151.228C521.807 141.228 522.432 134.103 528.307 132.979C530.182 132.604 535.306 132.854 536.931 132.854C538.056 132.854 538.431 133.728 539.056 133.853C541.681 134.103 541.681 135.603 541.681 135.603C541.681 135.603 541.806 137.353 538.806 137.353C534.181 135.353 530.432 137.853 529.807 139.853C528.807 142.978 534.181 146.603 534.806 149.353C535.681 145.228 534.181 142.353 534.181 142.353C534.181 142.353 537.306 144.103 539.181 148.603C540.056 144.353 538.556 142.353 540.181 140.353C540.681 139.728 541.306 139.103 541.806 138.603C542.431 144.353 560.43 158.227 534.681 177.227C537.181 173.227 538.431 166.852 536.431 163.102C534.181 170.602 529.182 176.352 522.307 178.852C524.307 175.977 530.807 165.852 526.807 159.602C516.432 179.852 502.433 186.476 490.433 189.976C499.683 192.226 515.057 190.476 526.557 183.476C517.807 206.85 480.934 199.976 470.309 202.851C474.309 199.976 478.559 199.476 485.309 197.851C472.559 197.226 451.935 197.476 443.185 206.725C456.56 179.477 498.933 195.726 513.557 166.352C503.558 175.602 471.434 189.476 443.685 174.477C444.81 175.977 447.81 181.351 451.935 184.101C441.31 183.351 431.436 169.727 406.812 172.102C427.936 162.352 456.685 172.852 456.685 172.852C456.685 172.852 451.06 166.477 439.185 165.477C450.56 160.977 456.81 164.727 465.684 165.352C453.935 162.727 450.935 154.853 428.436 156.228C432.811 152.228 441.185 151.353 441.185 151.353C407.312 151.103 387.063 172.102 382.063 154.103C374.813 169.727 395.937 170.602 399.062 171.102C391.937 171.852 388.438 173.352 383.188 174.477C380.438 174.977 374.438 175.852 370.313 171.727C369.813 177.852 377.188 180.352 381.563 180.227C389.562 179.977 391.812 183.601 391.812 183.601C319.565 186.476 268.193 196.976 220.82 252.724C209.445 266.098 198.695 277.597 188.446 287.347C122.199 317.096 148.823 240.849 86.8251 256.098C89.825 265.098 91.1999 273.098 93.6998 283.222C95.8248 292.222 99.5746 300.847 109.199 305.721C125.699 313.846 151.822 310.471 174.071 300.347C129.573 338.095 98.0747 341.845 83.5753 334.22C142.323 375.843 224.944 265.848 330.065 257.223C343.064 229.974 377.188 187.726 419.186 190.351C415.686 191.226 412.812 193.601 411.812 197.476C397.562 198.476 366.688 205.6 340.065 249.974C349.314 238.849 358.189 230.474 366.563 224.1C360.814 249.599 360.064 295.722 360.064 297.472C378.688 281.847 385.313 288.222 387.313 289.972C388.188 287.597 407.812 236.224 440.185 205.725C431.936 217.225 436.061 234.474 422.811 236.224C439.06 239.974 443.185 216.85 451.935 211.975C456.185 215.85 460.435 220.975 464.184 227.475C454.935 235.099 423.686 262.223 396.437 293.722C437.186 265.223 465.684 252.724 473.559 249.599C474.559 253.099 475.559 256.723 476.309 260.723C470.309 262.473 453.685 267.973 439.185 277.472C460.185 271.598 473.059 269.223 477.809 268.473C479.934 281.472 480.809 296.472 480.434 313.971C488.558 276.223 480.684 240.974 467.434 220.35C466.809 219.35 471.934 217.725 476.434 217.475C496.308 244.349 494.433 279.097 493.808 298.222C513.057 281.597 544.556 280.847 557.431 209.475C560.305 216.85 559.305 229.724 559.18 235.599ZM488.683 117.604C487.308 120.979 488.058 124.604 488.058 124.604C488.058 124.604 485.809 129.354 482.434 127.104C481.309 126.354 480.059 124.854 479.309 123.604C478.809 122.854 478.684 122.729 478.434 122.229C483.559 118.604 488.933 112.854 490.308 108.98C490.058 112.229 489.558 115.354 488.683 117.604ZM532.182 120.854C532.057 122.229 533.182 123.479 534.556 124.479C536.681 125.979 538.806 127.354 536.181 127.729C530.057 127.479 517.682 131.854 509.932 144.853C509.558 132.604 516.682 127.854 518.307 126.979C509.557 130.604 502.683 139.228 501.308 140.103C502.308 134.478 504.433 128.229 501.558 124.354C498.683 129.979 495.933 132.479 491.558 133.603C496.683 124.354 490.183 120.604 492.558 110.604C493.183 106.48 495.308 102.48 499.058 98.9799C496.558 110.104 502.308 112.979 502.308 121.604C504.683 118.479 503.433 112.854 504.058 113.854C507.183 118.729 508.933 123.354 508.183 129.604C512.807 125.229 512.307 121.854 511.057 117.854C512.307 117.979 513.682 118.104 514.557 118.229C514.182 114.854 503.558 108.48 503.558 101.73C503.558 98.4799 505.683 96.1051 507.808 94.3551C512.932 93.6052 517.432 93.8551 520.057 94.2301C523.557 94.7301 521.182 97.23 520.682 97.605C519.557 98.355 518.182 99.1049 515.932 99.9799C513.682 100.855 518.682 103.605 521.307 103.48C524.807 103.23 525.557 100.98 528.432 100.855C528.057 101.73 528.057 102.355 528.182 102.855C530.807 103.23 531.432 103.605 531.432 103.605C531.432 103.605 531.932 102.605 531.557 101.105C533.307 101.105 533.182 103.48 533.182 104.105C533.307 106.355 536.306 105.73 537.181 105.355C537.806 105.105 539.681 103.355 541.931 102.605C543.056 107.48 544.931 115.104 545.806 119.729C545.931 120.354 545.931 123.479 542.306 122.104C537.056 119.479 535.181 123.354 532.182 120.854ZM379.813 278.597C381.063 266.098 382.313 231.474 389.063 210.1C396.687 206.725 402.937 205.226 407.312 204.476C399.937 219.975 392.187 246.599 379.813 278.597Z" fill="#00436F"/>
<path d="M387.16 312.392C385.91 314.142 384.285 314.767 382.035 314.767C371.911 314.267 359.661 304.018 358.036 300.643C358.661 306.643 361.411 325.642 371.411 327.892C382.66 330.267 394.16 313.767 391.41 298.518C391.285 305.143 389.035 309.767 387.16 312.392Z" fill="#B4BDB6"/>
<path d="M588.81 327.252C612.18 327.252 612.554 344.248 610.555 355.495C609.68 360.244 600.682 410.106 598.683 421.104H644.796L641.047 441.723L571.565 441.848C571.565 441.848 587.186 354.495 587.811 351.121C590.185 338.749 591.185 332.626 588.81 327.252Z" fill="#00436F"/>
<path d="M651.371 441.757L661.494 385.272C664.493 368.901 663.993 365.776 662.368 362.527C671.991 362.527 685.737 365.776 681.738 387.896C676.865 415.264 671.991 441.882 671.991 441.882H651.371" fill="#00436F"/>
<path d="M379.24 441.955C379.24 441.955 387.363 396.841 389.487 385.469C391.486 374.097 391.112 370.598 389.987 365.974L389.112 362.725H392.736C398.61 362.725 403.109 364.224 406.108 367.099C407.982 369.098 409.232 371.597 409.732 374.472C417.605 367.723 428.102 363.225 439.224 362.725L441.724 362.6L438.1 382.47H435.725C430.977 382.47 423.978 385.594 417.98 390.843C411.981 396.091 406.983 403.339 405.483 411.587C405.483 411.962 399.984 441.955 399.984 441.955H379.24Z" fill="#00436F"/>
<path d="M735.709 418.847C737.958 406.1 740.082 394.728 741.957 383.856C718.713 390.104 714.839 408.474 714.089 412.598C713.339 416.722 708.84 441.966 708.84 441.966H688.096L698.593 383.606C701.467 367.86 700.467 365.36 699.218 362.611C704.591 362.611 715.839 363.486 718.588 374.733C725.961 368.609 742.332 360.611 766.451 362.736C764.201 375.483 757.703 411.349 755.454 423.596C753.204 435.967 753.204 441.341 754.954 444.59C736.583 444.59 733.334 432.593 735.709 418.847Z" fill="#00436F"/>
<path d="M537.009 418.757C539.258 406.01 541.382 394.638 543.382 383.766C520.013 390.014 516.264 408.259 515.514 412.508C514.764 416.632 510.265 441.876 510.265 441.876H489.52L507.141 344.151C510.015 328.405 509.016 325.905 507.766 323.156C521.263 323.156 530.385 329.904 527.136 348.15C525.386 357.897 525.262 358.772 522.762 372.643C531.385 366.645 546.756 360.896 568.001 362.646C565.751 375.393 559.253 411.259 557.004 423.506C554.754 435.877 554.754 441.251 556.504 444.5C537.758 444.5 534.509 432.503 537.009 418.757Z" fill="#00436F"/>
<path d="M792.844 410.911C791.969 415.785 787.221 441.654 787.221 441.654H766.476C766.476 441.654 783.596 346.927 784.096 344.178C786.596 330.307 786.221 326.807 784.721 323.433C794.469 323.433 808.09 326.807 804.091 348.677C803.217 353.426 800.092 370.671 799.717 372.921C804.341 369.797 814.964 362.548 836.208 362.548C835.583 365.798 833.209 379.419 832.584 382.543C826.461 382.543 815.213 383.543 806.966 389.792C810.965 398.539 814.214 405.288 821.087 418.659C831.709 439.279 839.582 440.654 841.582 442.153C834.084 444.653 826.961 444.653 826.961 444.653C817.838 444.653 808.465 440.154 801.717 427.782L792.844 410.911Z" fill="#00436F"/>
<path d="M495.41 362.316H478.29C479.539 344.57 467.167 341.821 458.295 341.821C459.794 344.945 460.294 347.945 457.795 362.316H449.297L445.673 382.311H454.171L443.423 441.671H464.168C464.168 441.671 470.042 409.054 474.915 382.311H491.786L495.41 362.316Z" fill="#00436F"/>
<path d="M376.444 403.892C372.07 427.886 355.324 444.632 333.955 444.632C312.71 444.632 301.963 427.636 306.212 404.017C310.96 377.398 337.329 363.402 348.951 361.028C359.698 363.402 381.193 377.398 376.444 403.892ZM345.327 381.148C334.579 386.146 328.081 395.394 326.457 404.517C324.332 416.264 330.331 425.011 337.454 425.011C344.827 425.011 353.95 415.764 355.949 404.517C357.574 395.394 354.2 386.021 345.327 381.148Z" fill="#00436F"/>
<path d="M219.793 364.643C216.669 381.764 205.922 441.873 205.922 441.873H182.178L198.924 348.772C200.548 339.649 199.673 333.901 198.049 328.777C201.548 326.902 218.294 325.028 231.291 335.275C247.411 348.147 262.283 399.134 270.281 406.132C273.405 389.137 284.152 329.152 284.152 329.152H307.771L291.15 421.504C289.526 431.501 288.776 434.875 291.525 444.123C281.028 447.122 269.281 442.998 264.032 440.249C242.913 429.377 228.541 371.016 219.793 364.643Z" fill="#00436F"/>
<path d="M686.273 350.092C682.649 355.09 675.526 356.59 670.153 353.341C664.779 350.217 663.404 343.593 667.028 338.594C670.652 333.596 677.776 332.096 683.149 335.22C688.398 338.469 689.773 345.093 686.273 350.092Z" fill="#00436F"/>
<path d="M316.324 521.486C314.7 521.486 312.325 521.361 310.451 520.986L319.323 471.374L319.948 470.999H351.315C351.315 472.248 351.19 474.123 350.94 475.498C350.191 479.372 347.941 480.996 343.692 480.996H329.321C328.946 482.871 328.696 484.87 328.321 486.745L327.446 491.369H343.067C343.192 492.743 343.067 494.868 342.817 496.242C342.568 497.617 341.943 499.616 341.318 500.991H325.697L322.073 521.111C320.073 521.361 317.949 521.486 316.324 521.486Z" fill="#00436F"/>
<path d="M398.848 515.606C397.599 519.23 394.599 521.23 390.35 521.23H370.855C366.731 521.23 364.607 518.605 365.357 514.482L373.105 471.617L373.73 471.117H405.347C405.347 472.867 405.222 474.367 404.972 475.741C404.722 477.116 403.972 479.24 402.972 480.99H382.977C382.602 482.989 382.477 484.364 382.103 486.239L381.103 491.237C382.977 491.112 385.102 491.112 386.102 491.112H397.349C397.599 492.487 397.349 494.612 397.099 495.861C396.849 497.236 396.349 499.11 395.599 500.61H379.353L378.353 506.109C377.979 507.983 377.729 509.358 377.354 511.357V511.482C379.103 511.357 380.728 511.357 382.852 511.357H399.848C399.598 512.357 399.223 514.107 398.848 515.606Z" fill="#00436F"/>
<path d="M451.611 499.908C454.236 500.907 455.485 503.532 455.985 506.656L457.11 512.904C457.485 515.154 458.36 517.028 459.734 518.278C457.86 520.278 454.486 521.777 451.361 521.777C447.112 521.777 446.113 519.528 445.363 515.029L444.113 507.406C443.738 504.906 442.614 502.907 438.74 502.907H435.74L432.491 521.277C430.492 521.652 428.117 521.777 426.493 521.777C425.118 521.777 422.619 521.652 420.744 521.277L429.742 471.665L430.367 471.165C436.74 471.04 442.489 470.915 447.987 470.915C458.11 470.915 464.858 475.789 462.858 486.786C461.609 493.534 455.985 498.283 451.611 499.908ZM437.365 493.659C439.614 493.534 441.864 493.534 442.864 493.534C448.487 493.534 450.362 490.16 450.986 486.411C451.736 482.662 450.986 479.413 445.363 479.413C443.863 479.413 441.989 479.413 439.989 479.288L437.365 493.659Z" fill="#00436F"/>
<path d="M511.295 499.908C513.919 500.907 515.169 503.532 515.669 506.656L516.794 512.904C517.169 515.154 518.043 517.028 519.543 518.278C517.668 520.278 514.294 521.777 511.17 521.777C506.921 521.777 505.921 519.528 505.172 515.029L503.922 507.406C503.547 504.906 502.422 502.907 498.548 502.907H495.549L492.3 521.277C490.3 521.652 487.926 521.777 486.426 521.777C485.052 521.777 482.552 521.652 480.678 521.277L489.675 471.665L490.3 471.165C496.674 471.04 502.422 470.915 507.921 470.915C518.043 470.915 524.792 475.789 522.792 486.786C521.293 493.534 515.669 498.283 511.295 499.908ZM497.049 493.659C499.298 493.534 501.547 493.534 502.547 493.534C508.046 493.534 510.045 490.16 510.67 486.411C511.295 482.662 510.67 479.413 505.047 479.413C503.547 479.413 501.672 479.413 499.673 479.288L497.049 493.659Z" fill="#00436F"/>
<path d="M549.282 471.081C551.281 470.706 553.781 470.581 555.155 470.581C556.78 470.581 559.154 470.706 561.029 471.081L552.031 521.069C550.032 521.443 547.657 521.568 546.033 521.568C544.658 521.568 542.034 521.443 540.284 521.069L549.282 471.081Z" fill="#00436F"/>
<path d="M612.643 515.606C611.394 519.23 608.394 521.23 604.145 521.23H584.65C580.526 521.23 578.402 518.605 579.152 514.482L586.9 471.617L587.525 471.117H619.142C619.142 472.867 619.017 474.367 618.767 475.741C618.517 477.116 617.767 479.24 616.767 480.99H596.772C596.397 482.989 596.272 484.364 595.898 486.239L595.023 491.362C596.897 491.237 599.022 491.237 600.022 491.237H611.269C611.519 492.612 611.269 494.736 611.019 495.986C610.769 497.361 610.144 499.235 609.519 500.735H593.398L592.398 506.234C592.024 508.108 591.774 509.483 591.399 511.482V511.607C593.148 511.482 594.773 511.482 596.897 511.482H613.893C613.393 512.357 613.018 514.107 612.643 515.606Z" fill="#00436F"/>
<path d="M637.045 507.936C640.669 510.435 645.792 512.684 651.041 512.684C655.29 512.684 657.415 510.31 657.789 507.811C658.039 506.311 657.914 504.187 654.165 502.437L646.167 498.813C640.669 496.064 636.92 492.315 638.169 485.316C639.794 476.194 648.792 470.07 658.664 470.07C665.662 470.07 671.661 472.32 675.16 474.194C674.285 477.568 672.286 480.942 669.661 482.942C666.287 481.192 661.039 479.318 657.165 479.318C652.916 479.318 650.916 481.692 650.541 483.692C650.166 485.566 651.041 486.941 654.04 488.316L662.163 492.065C668.662 495.189 671.786 500.188 670.661 506.561C669.037 515.434 661.414 522.182 648.542 522.182C642.668 522.182 635.795 520.183 631.046 516.808C631.796 513.434 634.42 509.935 637.045 507.936Z" fill="#00436F"/>
</g>
<defs>
<clipPath id="clip0_1_63">
<rect width="841.6" height="522.1" fill="white"/>
</clipPath>
</defs>
</svg>
