<svg width="863" height="522" viewBox="0 0 863 522" fill="none" xmlns="http://www.w3.org/2000/svg">
<g clip-path="url(#clip0_1_32)">
<path d="M548.828 103.74C545.08 105.427 542.082 102.428 537.511 103.853C539.647 109.139 547.628 111.763 549.989 104.827C550.177 104.265 549.427 103.478 548.828 103.74Z" fill="#00436F"/>
<path d="M570.749 78.9205L574.721 65.4234L567.864 54.6257C567.864 54.6257 560.369 65.4234 558.983 64.2237C557.596 63.0239 562.393 69.3226 564.791 75.3213C567.189 81.32 570.712 78.9205 570.712 78.9205" fill="white"/>
<path d="M75.1331 256.932C69.8494 226.751 33.2384 216.291 0 249.509C64.5283 246.322 58.2328 298.361 72.2852 320.818C65.2403 302.485 78.3932 275.416 75.1331 256.895" fill="#00436F"/>
<path d="M561.044 89.7557L564.941 105.09C564.941 105.09 567.452 103.14 568.388 99.616C568.988 97.404 568.313 95.5669 568.014 94.8546C567.227 93.0175 561.081 89.7182 561.081 89.7182" fill="#00436F"/>
<path d="M618.602 157.878C628.27 154.992 637.301 152.405 657.124 148.543C660.384 147.906 661.096 150.23 661.883 150.193C665.855 149.93 672.863 147.868 678.671 145.094C672.338 146.818 669.19 146.893 665.143 146.668C664.281 146.631 662.22 143.594 659.035 143.969C637.676 146.481 617.253 151.542 617.253 151.542C617.253 151.542 599.791 141.757 573.335 154.204C602.714 149.705 612.906 159.603 618.565 157.916" fill="#00436F"/>
<path d="M535.375 122.299C535.375 122.299 537.473 121.399 542.457 120.537C544.518 120.162 544.406 117.8 546.692 115.7C543.169 114.838 535.412 122.336 535.412 122.336" fill="#00436F"/>
<path d="M850.447 56.1254C838.867 58.5624 835.682 57.2877 828.15 59.7246C828.562 59.4622 819.494 65.2359 812.899 69.0601C810.126 70.6723 807.465 71.4596 806.678 72.097C799.296 78.0207 784.907 90.8054 776.812 96.4292C773.103 99.0162 764.784 101.041 760.999 103.328C736.117 118.512 701.679 120.611 683.88 142.507C701.567 132.984 706.064 130.809 724.912 125.298C738.89 121.211 751.743 113.338 764.072 107.039C768.344 104.865 773.065 103.778 777.374 101.041C789.628 93.2799 806.304 76.1836 810.688 74.384C815.072 72.5844 827.288 62.424 831.036 61.6367C833.771 61.0743 837.181 60.6619 840.666 59.9121C841.94 59.6496 842.203 60.7369 840.666 61.6742C838.268 63.1364 835.87 63.9987 833.097 64.936C828.525 66.4732 826.052 68.9851 823.316 71.0097C820.693 72.9593 818.07 72.8843 816.159 75.5837C814.323 78.2456 816.421 82.1073 810.313 85.3316C810.501 84.3568 810.276 82.8571 808.664 82.1448C805.929 83.6445 799.746 87.8436 801.544 88.256C802.256 88.4434 807.39 89.3432 811.812 88.6684C815.222 88.181 819.944 86.3439 823.466 85.894C826.614 85.4816 828.75 86.3439 829.349 87.9186C830.249 90.2805 828.712 95.7544 818.52 97.479C803.118 100.141 810.201 102.803 786.78 107.264C789.441 110.976 792.439 111.726 796.111 111.838C785.244 117.65 768.156 125.261 760.549 135.308C758.188 130.359 756.09 126.498 757.476 116.975C749.008 126.498 753.242 137.07 750.057 142.394C748.895 137.558 746.459 132.721 746.347 127.585C743.387 135.383 744.286 142.244 740.126 149.218C737.353 143.219 738.965 136.808 738.927 136.583C728.36 147.681 722.514 154.054 698.532 161.815C685.304 166.089 687.59 149.105 687.59 149.105C687.59 149.105 677.547 163.052 677.022 175.762C676.647 184.76 670.427 185.285 668.816 174.712C668.516 172.65 666.979 182.661 666.155 190.571C665.368 198.52 657.162 190.309 656.375 152.442C651.953 174 653.564 199.569 659.897 216.628C661.021 219.703 654.988 221.24 652.852 218.24C650.716 215.241 642.847 187.272 647.194 163.352C634.341 171.076 627.783 191.059 625.16 191.321C622.499 191.584 621.975 175.687 624.111 166.689C602.414 175.687 612.756 212.992 590.797 231.775C577.757 242.948 578.394 274.253 570.637 285.688C579.705 275.641 594.469 250.034 599.266 243.135C601.514 239.911 651.053 230.2 653.677 229.788C656.3 229.376 661.359 228.513 663.532 229.076C665.705 229.638 668.029 230.688 671.214 228.026C677.959 222.402 676.947 208.23 678.746 195.708C688.639 191.284 687.927 188.847 699.768 184.91C708.275 182.098 720.753 179.474 731.695 174.037C747.546 166.202 758.713 152.742 772.241 150.043C772.728 146.331 772.316 144.831 770.105 141.907C772.203 140.445 776.438 136.846 781.234 132.384C784.719 129.122 786.93 125.598 792.588 122.036C793.338 121.586 795.212 121.586 796.148 121.249C806.079 121.811 812.374 116.825 818.782 113.713C818.782 116.675 821.068 116.3 823.391 116.15C826.576 115.963 830.174 115.288 830.886 114.388C831.448 113.713 831.785 111.988 832.31 110.076C833.809 108.202 834.97 107.002 836.544 105.315C838.081 103.665 838.98 103.14 838.118 99.5036C839.579 98.2663 841.566 96.9541 841.64 94.9295C841.828 90.8804 841.565 85.4816 840.554 83.3445C840.104 82.3323 830.698 81.3575 826.726 80.2702C827.138 79.6328 826.876 77.9457 827.513 76.9709C829.462 74.7214 831.298 73.6716 834.596 71.5721C839.392 69.435 840.966 68.1228 843.627 67.2605C856.742 63.0239 853.032 56.3129 850.372 55.9379" fill="#00436F"/>
<path d="M562.093 66.2857C562.093 66.2857 565.053 64.4861 567.002 56.4628C574.684 65.236 571.349 72.2844 567.564 76.8959C566.927 74.7589 562.093 66.3232 562.093 66.3232M570.075 82.8572C580.792 70.8972 579.893 52.9011 561.756 25.382C563.892 47.2773 562.168 58.075 557.521 60.3245C555.011 56.7628 553.699 55.0756 540.996 46.34C560.032 65.6484 568.763 88.9683 568.763 88.9683C568.763 88.9683 569.812 86.3064 570.075 82.8946" fill="#00436F"/>
<path d="M389.98 279.427C391.217 266.53 392.528 231.063 399.498 209.055C407.33 205.606 413.738 204.031 418.235 203.319C410.59 219.178 402.646 246.584 389.98 279.427ZM546.392 117.462C546.242 118.887 547.404 120.162 548.828 121.211C551.001 122.786 553.212 124.136 550.439 124.511C544.106 124.248 531.403 128.747 523.458 142.169C523.121 129.647 530.391 124.698 532.077 123.798C523.084 127.51 516.001 136.358 514.615 137.258C515.589 131.522 517.8 125.073 514.877 121.099C511.954 126.91 509.144 129.497 504.572 130.547C509.856 121.024 503.148 117.162 505.621 106.889C506.221 102.578 508.432 98.4913 512.292 94.892C509.668 106.365 515.664 109.289 515.664 118.175C518.062 114.988 516.826 109.139 517.5 110.226C520.685 115.213 522.522 120.012 521.735 126.385C526.494 121.886 525.969 118.437 524.658 114.275C525.932 114.425 527.318 114.538 528.218 114.613C527.805 111.164 516.976 104.565 516.976 97.6664C516.976 94.3672 519.149 91.8177 521.397 90.0556C526.606 89.2308 531.253 89.5307 533.988 89.9431C537.586 90.468 535.15 92.98 534.588 93.3549C533.501 94.0672 532.077 94.8546 529.754 95.7544C527.393 96.6917 532.602 99.4661 535.3 99.3161C538.935 99.1286 539.647 96.8041 542.645 96.6167C542.195 97.479 542.195 98.1913 542.382 98.6412C545.118 99.0536 545.717 99.3536 545.717 99.3536C545.717 99.3536 546.279 98.3788 545.905 96.8041C547.666 96.8791 547.591 99.2786 547.591 99.841C547.741 102.09 550.776 101.491 551.638 101.116C552.313 100.816 554.149 99.0536 556.509 98.3038C557.709 103.365 559.507 111.126 560.482 115.925C560.594 116.525 560.631 119.824 556.922 118.287C551.263 116 549.39 119.974 546.354 117.387M501.649 113.975C500.263 117.425 500.975 121.136 500.975 121.136C500.975 121.136 498.726 126.048 495.166 123.648C494.005 122.861 492.731 121.324 491.981 120.087C491.532 119.337 491.344 119.224 491.044 118.699C496.253 114.913 501.837 109.101 503.261 105.127C503.073 108.427 502.511 111.763 501.612 113.975M574.009 235.224C596.156 203.094 590.422 183.073 603.988 166.802C589.448 161.665 573.035 165.489 573.035 165.489C573.035 165.489 569.325 208.905 546.579 244.11C561.831 200.694 553.924 179.961 553.924 179.961C566.103 172.275 567.751 157.803 566.889 150.043C577.457 136.808 572.173 127.398 565.54 123.686C573.073 130.622 567.377 141.42 567.377 141.42C568.801 133.884 566.44 127.023 561.643 124.098C561.606 123.423 561.493 122.749 561.493 122.749C561.493 122.749 564.416 121.174 565.016 120.611C565.316 120.387 566.028 120.949 566.515 120.799C567.077 120.611 568.276 119.824 568.276 119.824L563.442 117.275L558.87 98.0414C557.296 92.4551 556.584 89.4557 555.685 87.0937C547.741 82.6697 540.171 82.7072 530.653 82.8571C517.95 83.0821 489.208 91.2178 487.972 91.6677C486.735 92.1176 487.072 85.744 488.496 85.1441C489.321 84.8067 534.7 67.4854 559.545 81.8074C552.837 72.2844 536.087 71.7595 536.087 71.7595C536.087 71.7595 535.487 45.6651 520.76 31.3432C518.475 32.1306 509.556 36.3672 503.748 46.1525C505.584 54.2883 515.214 62.424 500.675 72.6218C503.41 68.7602 500.3 65.9108 500.3 65.9108C500.3 65.9108 474.894 46.1525 498.876 0.262429L499.064 -0.0375061C470.809 22.1202 468.111 63.1739 477.816 76.371C476.055 81.245 475.568 86.1189 474.631 90.0556C474.369 91.1429 472.645 91.7052 472.271 92.6425C471.034 95.6794 471.446 101.941 471.446 101.941C471.446 101.941 480.29 99.0162 485.124 96.9166C496.216 92.1176 503.186 91.0304 507.87 90.9554C499.326 98.1538 495.166 105.99 484.449 111.726C475.493 116.525 463.614 114.913 452.972 120.649C458.031 114.2 464.926 110.039 475.306 108.802C466.912 107.752 460.654 109.439 455.183 111.201C456.419 109.064 461.366 104.827 466.949 103.253C453.721 106.59 450.948 109.964 445.29 116.3C436.484 121.661 435.247 127.847 436.334 132.834C437.121 136.358 439.107 138.87 434.161 143.819C442.555 144.794 441.88 136.733 444.128 132.909C447.089 127.847 452.335 126.423 456.27 126.648C451.436 131.522 449.524 138.345 449.674 143.856C451.81 141.569 454.246 138.908 462.003 140.332C459.717 140.332 455.295 145.094 455.22 148.58C466.687 148.73 474.444 150.53 484.562 150.605C481.376 150.155 478.828 148.88 477.142 147.906C481.639 145.244 482.688 136.396 484.374 128.447C492.206 125.111 492.956 128.447 496.328 128.56C500.825 128.71 502.024 124.736 502.024 124.736C502.024 124.736 498.839 146.443 487.147 150.568C494.267 150.38 501.574 147.906 507.27 142.469C505.247 149.818 497.752 155.179 497.752 155.179C497.752 155.179 504.797 154.467 512.217 149.18C510.455 155.179 504.722 160.728 492.094 166.127C500.75 166.052 524.545 158.891 530.091 148.58C535.637 138.27 536.274 130.922 542.27 129.872C544.256 129.535 549.502 129.722 551.076 129.797C552.2 129.835 552.537 130.697 553.287 130.772C555.947 131.034 556.022 132.534 556.022 132.534C556.022 132.534 556.21 134.296 553.025 134.296C548.265 132.271 544.368 134.858 543.731 136.808C542.645 140.032 548.265 143.707 548.902 146.593C549.764 142.357 548.228 139.432 548.228 139.432C548.228 139.432 551.413 141.27 553.399 145.919C554.336 141.532 552.762 139.507 554.449 137.445C555.011 136.771 555.573 136.171 556.172 135.646C556.809 141.532 575.283 155.854 548.902 175.312C551.488 171.226 552.8 164.627 550.664 160.84C548.303 168.564 543.282 174.412 536.199 177.074C538.26 174.15 544.93 163.652 540.771 157.316C530.091 177.974 515.739 184.835 503.373 188.359C512.891 190.646 528.705 188.884 540.396 181.648C531.44 205.606 493.48 198.595 482.651 201.557C486.735 198.557 491.082 198.107 498.089 196.495C485.011 195.82 463.877 196.045 454.808 205.643C468.561 177.599 512.029 194.358 527.018 164.215C516.788 173.738 483.812 188.022 455.258 172.5C456.494 174 459.492 179.549 463.727 182.398C452.785 181.686 442.742 167.589 417.335 170.063C439.032 160.016 468.486 170.776 468.486 170.776C468.486 170.776 462.677 164.252 450.499 163.202C462.228 158.591 468.598 162.377 477.667 163.015C465.6 160.353 462.453 152.18 439.407 153.679C443.904 149.518 452.522 148.693 452.522 148.693C417.71 148.393 396.988 170.063 391.779 151.58C384.284 167.626 405.981 168.526 409.241 169.051C401.896 169.876 398.299 171.376 392.94 172.463C390.167 173.025 383.984 173.813 379.75 169.576C379.225 175.912 386.832 178.462 391.292 178.349C399.498 178.087 401.822 181.761 401.822 181.761C327.663 184.76 274.863 195.52 226.299 252.771C214.645 266.53 203.515 278.303 193.023 288.313C124.747 318.981 152.327 239.986 87.6865 256.482C97.2796 268.18 90.5344 296.749 111.669 307.171C128.569 315.532 155.4 312.12 178.296 301.622C132.616 340.314 100.24 344.213 85.3632 336.378C145.62 379.118 230.496 266.193 338.455 257.345C351.833 229.376 386.832 185.922 429.889 188.659C426.366 189.522 423.368 191.996 422.244 195.97C407.667 196.983 375.928 204.331 348.573 249.959C358.016 238.561 367.197 229.9 375.778 223.339C369.82 249.584 369.145 296.974 369.145 298.623C388.219 282.539 395.114 289.1 397.175 290.975C398.074 288.463 418.235 235.749 451.473 204.368C443.004 216.141 447.239 233.95 433.561 235.749C450.236 239.611 454.471 215.766 463.502 210.78C468.261 215.054 472.608 220.415 476.467 226.976C466.912 234.849 434.948 262.593 406.918 294.986C448.738 265.668 478.079 252.92 486.061 249.696C487.11 253.295 488.084 257.082 488.908 261.094C482.725 262.931 465.638 268.517 450.799 278.265C472.383 272.229 485.611 269.792 490.407 269.042C492.543 282.389 493.555 297.873 493.105 315.794C501.387 276.99 493.368 240.773 479.765 219.628C479.091 218.54 484.337 216.966 489.021 216.666C509.369 244.297 507.532 279.99 506.895 299.598C526.644 282.464 558.983 281.789 572.211 208.493C575.134 216.178 574.047 229.413 573.972 235.374" fill="#00436F"/>
<path d="M397.475 314.145C396.163 315.907 394.477 316.619 392.191 316.619C381.848 316.019 369.258 305.522 367.571 302.11C368.208 308.296 370.981 327.829 381.249 330.041C392.865 332.516 404.594 315.495 401.747 299.86C401.709 306.646 399.423 311.52 397.475 314.145Z" fill="#00436F"/>
<path d="M704.377 346.238C700.705 351.337 693.323 352.874 687.889 349.612C682.456 346.388 680.994 339.602 684.629 334.503C688.301 329.404 695.684 327.904 701.117 331.129C706.551 334.353 708.012 341.139 704.377 346.238Z" fill="#00436F"/>
<path d="M813.236 408.437C812.337 413.348 807.54 439.818 807.54 439.818H786.368C786.368 439.818 803.83 343.013 804.355 340.202C806.903 326.03 806.528 322.393 804.954 318.981C814.96 318.981 828.825 322.355 824.778 344.851C823.878 349.762 820.693 367.383 820.318 369.558C825.002 366.296 835.87 358.947 857.566 358.947C856.967 362.322 854.456 376.194 853.894 379.418C847.599 379.418 836.169 380.43 827.701 386.879C831.785 395.84 835.158 402.776 842.165 416.348C853.032 437.418 861.014 438.768 863.075 440.38C855.43 442.929 848.198 442.967 848.161 442.967C838.83 442.967 829.349 438.43 822.379 425.758L813.311 408.437H813.236Z" fill="#00436F"/>
<path d="M604.887 322.918C628.72 322.918 629.207 340.314 627.108 351.749C626.246 356.623 617.066 407.575 615.005 418.86H662.108L658.323 439.968L587.425 440.043C587.425 440.043 603.388 350.812 603.988 347.288C606.273 334.578 607.323 328.354 604.887 322.918Z" fill="#00436F"/>
<path d="M668.816 439.93L679.233 382.155C682.231 365.434 681.781 362.247 680.17 358.873C689.988 358.873 704.04 362.247 699.956 384.779C694.897 412.748 690.025 439.93 690.025 439.93H668.853H668.816Z" fill="#00436F"/>
<path d="M390.879 440.005C390.879 440.005 399.161 393.965 401.297 382.268C403.358 370.645 402.983 367.046 401.822 362.359L400.96 359.023H404.632C410.665 359.023 415.237 360.522 418.235 363.522C420.221 365.509 421.42 368.058 421.944 370.982C430.001 364.046 440.643 359.472 452.11 359.023L454.621 358.91L450.948 379.268H448.588C443.754 379.268 436.596 382.418 430.451 387.816C424.305 393.178 419.171 400.639 417.673 408.999C417.598 409.337 412.089 440.043 412.089 440.043H390.917L390.879 440.005Z" fill="#00436F"/>
<path d="M754.928 416.498C757.252 403.488 759.35 391.865 761.374 380.73C737.578 387.104 733.719 405.812 732.969 410.087C732.22 414.361 727.573 440.08 727.573 440.08H706.401L717.156 380.468C720.041 364.421 719.029 361.797 717.755 359.06C723.264 359.06 734.73 359.997 737.541 371.507C745.073 365.246 761.823 357.11 786.443 359.21C784.082 372.257 777.487 408.812 775.239 421.409C772.953 434.006 772.953 439.518 774.676 442.817C755.753 442.817 752.418 430.52 754.928 416.498Z" fill="#00436F"/>
<path d="M551.9 416.348C554.261 403.338 556.322 391.716 558.346 380.581C534.55 386.954 530.691 405.663 529.941 409.937C529.192 414.211 524.545 439.93 524.545 439.93H503.373L521.36 340.127C524.245 324.08 523.234 321.456 521.959 318.719C535.749 318.719 545.08 325.58 541.708 344.176C539.909 354.111 539.797 355.049 537.248 369.22C546.092 363.147 561.756 357.186 583.415 359.023C581.054 372.07 574.459 408.624 572.211 421.222C569.925 433.819 569.925 439.33 571.648 442.63C552.725 442.63 549.39 430.332 551.9 416.31" fill="#00436F"/>
<path d="M509.444 358.76H491.944C493.18 340.689 480.589 337.802 471.521 337.802C473.057 341.026 473.545 344.101 470.996 358.76H462.303L458.63 379.193H467.324L456.382 439.855H477.554C477.554 439.855 483.587 406.525 488.496 379.193H505.734L509.406 358.76H509.444Z" fill="#00436F"/>
<path d="M387.994 401.201C383.572 425.721 366.41 442.817 344.638 442.817C322.866 442.817 311.924 425.421 316.271 401.276C321.18 374.057 348.048 359.847 359.927 357.373C370.831 359.81 392.828 374.132 387.956 401.163M356.105 377.956C345.088 383.13 338.53 392.465 336.844 401.876C334.67 413.873 340.778 422.871 348.01 422.871C355.243 422.871 364.836 413.386 366.897 401.876C368.583 392.428 365.21 382.98 356.105 377.956Z" fill="#00436F"/>
<path d="M227.947 361.085C224.8 378.556 213.745 439.968 213.745 439.968H189.5L206.625 344.851C208.312 335.515 207.375 329.666 205.763 324.418C209.398 322.543 226.448 320.518 239.751 331.091C256.277 344.213 271.453 396.402 279.548 403.525C282.658 386.204 293.712 324.867 293.712 324.867H317.882L300.945 419.272C299.258 429.47 298.509 432.994 301.282 442.367C290.49 445.479 278.611 441.242 273.215 438.468C251.593 427.295 236.828 367.646 227.91 361.085" fill="#00436F"/>
<path d="M326.576 521.325C324.927 521.325 322.454 521.25 320.505 520.875L329.649 470.224L330.248 469.774H362.25C362.325 471.049 362.1 472.998 361.875 474.348C361.163 478.322 358.84 479.972 354.493 479.972H339.766C339.429 481.921 339.129 483.946 338.792 485.821L337.93 490.544H353.931C354.044 491.969 353.894 494.144 353.631 495.493C353.369 496.843 352.77 498.943 352.17 500.367H336.169L332.459 520.95C330.361 521.325 328.187 521.4 326.538 521.4" fill="#00436F"/>
<path d="M410.777 515.327C409.503 519.076 406.431 521.1 402.121 521.1H382.223C377.951 521.1 375.815 518.401 376.602 514.127L384.509 470.299L385.146 469.774H417.373C417.448 471.574 417.223 473.148 416.96 474.498C416.698 475.848 415.949 478.022 414.937 479.822H394.514C394.14 481.846 393.99 483.271 393.615 485.221L392.678 490.47C394.627 490.395 396.725 490.395 397.774 490.395H409.204C409.391 491.819 409.204 493.994 409.016 495.268C408.754 496.618 408.192 498.643 407.48 500.142H390.954L389.943 505.841C389.605 507.791 389.268 509.215 388.893 511.24V511.315C390.617 511.24 392.341 511.165 394.439 511.165H411.789C411.602 512.14 411.302 513.939 410.815 515.439" fill="#00436F"/>
<path d="M464.701 499.243C467.362 500.292 468.673 502.917 469.235 506.104L470.322 512.477C470.659 514.727 471.633 516.751 473.057 518.026C471.184 520.051 467.624 521.55 464.476 521.55C460.129 521.55 459.155 519.226 458.405 514.652L457.131 506.778C456.682 504.229 455.632 502.129 451.623 502.129H448.55L445.178 520.838C443.079 521.213 440.756 521.288 439.107 521.288C437.683 521.288 435.172 521.213 433.299 520.838L442.442 470.111L443.079 469.586C449.524 469.437 455.408 469.287 461.066 469.287C471.446 469.287 478.341 474.235 476.318 485.521C475.006 492.794 469.273 497.555 464.738 499.205M450.236 492.906C452.56 492.831 454.808 492.756 455.782 492.756C461.478 492.756 463.427 489.307 464.101 485.483C464.813 481.584 464.064 478.285 458.368 478.285C456.869 478.285 454.921 478.285 452.859 478.21L450.236 492.869V492.906Z" fill="#00436F"/>
<path d="M525.632 499.243C528.292 500.292 529.604 502.917 530.129 506.104L531.215 512.477C531.553 514.727 532.527 516.751 533.951 518.026C532.077 520.051 528.517 521.55 525.407 521.55C521.06 521.55 520.048 519.226 519.336 514.652L518.062 506.778C517.613 504.229 516.563 502.129 512.554 502.129H509.481L506.108 520.838C504.01 521.213 501.687 521.288 500.038 521.288C498.614 521.288 496.103 521.213 494.23 520.838L503.373 470.111L504.01 469.586C510.455 469.437 516.339 469.287 521.997 469.287C532.377 469.287 539.272 474.235 537.248 485.521C535.937 492.794 530.203 497.555 525.669 499.205M511.167 492.906C513.491 492.831 515.739 492.756 516.713 492.756C522.409 492.756 524.358 489.307 525.07 485.483C525.782 481.584 525.032 478.285 519.336 478.285C517.837 478.285 515.889 478.285 513.828 478.21L511.205 492.869L511.167 492.906Z" fill="#00436F"/>
<path d="M564.529 469.774C566.552 469.399 569.175 469.324 570.599 469.324C572.248 469.324 574.646 469.399 576.595 469.774L567.377 520.875C565.278 521.25 562.88 521.325 561.231 521.325C559.807 521.325 557.221 521.25 555.348 520.875L564.566 469.774H564.529Z" fill="#00436F"/>
<path d="M629.132 515.327C627.858 519.076 624.823 521.1 620.476 521.1H600.578C596.306 521.1 594.17 518.401 594.957 514.127L602.863 470.299L603.463 469.774H635.69C635.727 471.574 635.54 473.148 635.277 474.498C635.053 475.848 634.266 478.022 633.291 479.822H612.869C612.494 481.846 612.307 483.271 611.969 485.221L611.032 490.47C612.981 490.395 615.08 490.395 616.129 490.395H627.558C627.745 491.819 627.558 493.994 627.371 495.268C627.108 496.618 626.546 498.643 625.834 500.142H609.309L608.297 505.841C607.96 507.791 607.622 509.215 607.248 511.24V511.315C608.971 511.24 610.695 511.165 612.794 511.165H630.144C629.956 512.14 629.656 513.939 629.169 515.439" fill="#00436F"/>
<path d="M654.126 507.491C657.836 510.04 663.045 512.365 668.441 512.365C672.788 512.365 674.924 509.89 675.373 507.416C675.673 505.841 675.448 503.666 671.664 501.867L663.532 498.118C657.911 495.343 654.051 491.444 655.325 484.283C657.012 474.948 666.23 468.649 676.31 468.649C683.43 468.649 689.576 470.974 693.098 472.923C692.236 476.372 690.138 479.784 687.44 481.884C683.955 480.084 678.596 478.209 674.624 478.209C670.277 478.209 668.216 480.684 667.841 482.634C667.504 484.583 668.366 486.008 671.401 487.358L679.683 491.182C686.278 494.331 689.463 499.467 688.302 505.991C686.69 515.027 678.821 522 665.743 522C659.672 522 652.74 519.975 647.831 516.451C648.73 513.077 651.391 509.478 654.089 507.453" fill="#00436F"/>
</g>
<defs>
<clipPath id="clip0_1_32">
<rect width="863" height="522" fill="white"/>
</clipPath>
</defs>
</svg>
