<svg width="20" height="16" viewBox="0 0 20 16" fill="none" xmlns="http://www.w3.org/2000/svg">
<path fill-rule="evenodd" clip-rule="evenodd" d="M0.000106289 3.01365C-5.30489e-05 3.00271 -3.33754e-05 2.99176 0.000166229 2.98081C0.0104768 1.33279 1.34963 0 3.00008 0H16.9999C18.6503 0 19.9895 1.33273 19.9998 2.9807C20 2.99172 20.0001 3.00274 19.9999 3.01374V12.9999C19.9999 14.6567 18.6568 15.9999 16.9999 15.9999H3.00008C1.34323 15.9999 0.000106289 14.6567 0.000106289 12.9999V3.01365ZM2.00009 4.86848V12.9999C2.00009 13.5522 2.4478 13.9999 3.00008 13.9999H16.9999C17.5522 13.9999 17.9999 13.5522 17.9999 12.9999V4.86848L10.5547 9.83198C10.2188 10.0559 9.7812 10.0559 9.4453 9.83198L2.00009 4.86848ZM17.8878 2.53952C17.7212 2.21895 17.3862 1.99998 16.9999 1.99998H3.00008C2.61384 1.99998 2.27875 2.21895 2.11217 2.53952L10 7.7981L17.8878 2.53952Z" fill="#00436F"/>
</svg>
