<svg width="20" height="20" viewBox="0 0 20 20" fill="none" xmlns="http://www.w3.org/2000/svg">
<path fill-rule="evenodd" clip-rule="evenodd" d="M5 0C4.44772 0 4 0.447715 4 1V5H3C1.43497 5 0 6.17419 0 7.81818V14.1818C0 15.8258 1.43497 17 3 17H4V19C4 19.5523 4.44772 20 5 20H15C15.5523 20 16 19.5523 16 19V17H17C18.565 17 20 15.8258 20 14.1818V7.81818C20 6.17419 18.565 5 17 5H16V1C16 0.447715 15.5523 0 15 0H5ZM16 15H17C17.6441 15 18 14.5461 18 14.1818V7.81818C18 7.45387 17.6441 7 17 7L15 7H5L3 7C2.35589 7 2 7.45387 2 7.81818V14.1818C2 14.5461 2.35589 15 3 15H4V13C4 12.4477 4.44772 12 5 12H15C15.5523 12 16 12.4477 16 13V15ZM14 5V2H6V5H14ZM16 9C16 9.55228 15.5523 10 15 10H11C10.4477 10 10 9.55228 10 9C10 8.44772 10.4477 8 11 8H15C15.5523 8 16 8.44772 16 9ZM6 18V14H14V18H6Z" fill="#00436F"/>
</svg>
