<svg width="58" height="18" viewBox="0 0 58 18" fill="none" xmlns="http://www.w3.org/2000/svg">
<g clip-path="url(#clip0_0_3)">
<path d="M38.8594 12.74C37.1465 12.7518 35.4991 12.0827 34.2794 10.88C33.0874 9.68578 32.418 8.06737 32.418 6.38004C32.418 4.6927 33.0874 3.07429 34.2794 1.88004C34.8817 1.28091 35.5963 0.806468 36.3822 0.483871C37.1681 0.161274 38.0099 -0.00314254 38.8594 3.55949e-05C39.7138 -0.0280735 40.5645 0.124904 41.3556 0.448918C42.1467 0.772932 42.8602 1.26065 43.4494 1.88004L41.7894 3.58004C41.4423 3.14863 40.9996 2.80389 40.4963 2.57306C39.993 2.34223 39.4428 2.23164 38.8894 2.25004C38.3504 2.23388 37.8141 2.33203 37.3157 2.53803C36.8174 2.74403 36.3683 3.0532 35.998 3.44522C35.6277 3.83724 35.3446 4.30322 35.1673 4.8125C34.99 5.32178 34.9226 5.86282 34.9694 6.40004C34.9226 6.93725 34.99 7.4783 35.1673 7.98758C35.3446 8.49686 35.6277 8.96283 35.998 9.35485C36.3683 9.74687 36.8174 10.056 37.3157 10.262C37.8141 10.468 38.3504 10.5662 38.8894 10.55C39.4406 10.56 39.9871 10.4466 40.4888 10.2182C40.9905 9.98981 41.4349 9.6522 41.7894 9.23003L43.4794 10.9C42.8926 11.5225 42.1794 12.0123 41.3878 12.3365C40.5961 12.6608 39.7443 12.812 38.8894 12.78" fill="#3E3E3E"/>
<path d="M56.4586 15.9999C56.4586 16.8999 53.7386 17.6299 50.3786 17.6299C47.0186 17.6299 44.3086 16.8999 44.3086 15.9999C44.3086 15.0999 47.0286 14.4299 50.3786 14.4299C53.7286 14.4299 56.4586 15.0999 56.4586 15.9999Z" fill="#3E3E3E"/>
<path d="M17.2786 12.74C15.7244 12.7221 14.2332 12.123 13.0987 11.0607C11.9641 9.99831 11.2684 8.54966 11.1486 7C11.1486 6.78 11.1486 6.55 11.1486 6.33C11.1371 4.67072 11.7636 3.07047 12.8986 1.86C13.5506 1.18054 14.3512 0.661535 15.2377 0.343756C16.1241 0.0259769 17.0721 -0.0819139 18.0073 0.0285613C18.9424 0.139037 19.8393 0.464868 20.6272 0.980452C21.4152 1.49604 22.0729 2.18733 22.5486 3C23.0734 3.97736 23.345 5.07065 23.3386 6.18C23.3386 6.45 23.3386 6.73 23.3386 7H13.6186C13.6628 7.96914 14.0878 8.88163 14.8014 9.53896C15.5149 10.1963 16.4591 10.5453 17.4286 10.51C18.0279 10.5135 18.6203 10.3824 19.162 10.1262C19.7038 9.87003 20.1811 9.4954 20.5586 9.03L22.3186 10.6C21.6844 11.2853 20.9087 11.8245 20.0453 12.1802C19.1819 12.536 18.2515 12.6997 17.3186 12.66M13.7086 5.13H20.7986C20.7419 4.64324 20.5853 4.17344 20.3386 3.75C20.0184 3.22969 19.5673 2.80253 19.0303 2.51122C18.4934 2.21991 17.8893 2.07467 17.2786 2.09C16.4557 2.07031 15.6518 2.33965 15.0069 2.85121C14.362 3.36277 13.9167 4.08418 13.7486 4.89C13.7365 4.96954 13.7365 5.05046 13.7486 5.13" fill="#3E3E3E"/>
<path d="M5 12.74C4.08081 12.7382 3.17067 12.5582 2.32 12.21C1.4697 11.8603 0.722774 11.2992 0.15 10.58L0 10.41L1.82 8.82L2 9C2.32237 9.49137 2.7535 9.90197 3.26 10.2C3.81306 10.5081 4.43693 10.6667 5.07 10.66C5.35517 10.6591 5.63967 10.6323 5.92 10.58C6.17355 10.5262 6.41669 10.4316 6.64 10.3C6.85151 10.1817 7.02758 10.0091 7.15 9.8C7.29029 9.55768 7.35635 9.27952 7.34 9C7.34364 8.75801 7.27522 8.52041 7.14345 8.31741C7.01168 8.11441 6.82251 7.95519 6.6 7.86C5.85966 7.52649 5.08505 7.27499 4.29 7.11C3.89 7.01 3.48 6.89 3.07 6.75C2.66053 6.60732 2.27589 6.4015 1.93 6.14C1.55189 5.86775 1.24713 5.50605 1.04296 5.08724C0.838793 4.66843 0.741576 4.20556 0.76 3.74C0.747488 3.15182 0.885158 2.57017 1.16 2.05C1.41937 1.59006 1.77808 1.19376 2.21 0.89C2.65106 0.586981 3.14182 0.363602 3.66 0.23C4.20819 0.0834353 4.77259 0.0061662 5.34 0C6.20329 0.00118685 7.0573 0.178113 7.85 0.52C8.60999 0.819967 9.26656 1.33411 9.74 2V2.06L8 3.57V3.48C7.72111 3.06131 7.34329 2.71784 6.9 2.48C6.40865 2.17872 5.84621 2.0131 5.27 2C5.00413 2.00032 4.73913 2.03051 4.48 2.09C4.23652 2.1355 4.00296 2.22351 3.79 2.35C3.60344 2.4653 3.44329 2.61863 3.32 2.8C3.19534 3.00074 3.13273 3.23382 3.14 3.47C3.1434 3.67965 3.20506 3.88422 3.31808 4.06083C3.43111 4.23743 3.59105 4.37911 3.78 4.47C4.41633 4.77079 5.08842 4.98922 5.78 5.12C6.32036 5.24761 6.85155 5.41131 7.37 5.61C7.83428 5.77373 8.26967 6.00999 8.66 6.31C9.02093 6.5743 9.31819 6.91597 9.53 7.31C9.74687 7.74051 9.85339 8.21814 9.84 8.7C9.85794 9.33463 9.717 9.96369 9.43 10.53C9.16255 11.0162 8.78603 11.4338 8.33 11.75C7.86437 12.0722 7.34177 12.3029 6.79 12.43C6.2058 12.5618 5.60888 12.6289 5.01 12.63" fill="#3E3E3E"/>
<path d="M50.3809 12.7398C48.668 12.7515 47.0206 12.0825 45.8009 10.8798C44.6089 9.68553 43.9395 8.06713 43.9395 6.37979C43.9395 4.69246 44.6089 3.07405 45.8009 1.87979C47.0256 0.68801 48.667 0.0211725 50.3759 0.0211725C52.0848 0.0211725 53.7262 0.68801 54.9509 1.87979C56.1429 3.07405 56.8124 4.69246 56.8124 6.37979C56.8124 8.06713 56.1429 9.68553 54.9509 10.8798C54.3492 11.4754 53.6357 11.9464 52.8514 12.2656C52.0672 12.5848 51.2276 12.7459 50.3809 12.7398ZM50.3809 2.21979C49.8415 2.2038 49.3048 2.30197 48.806 2.50787C48.3072 2.71378 47.8575 3.02278 47.4865 3.4146C47.1154 3.80643 46.8313 4.27225 46.6529 4.78153C46.4744 5.29081 46.4056 5.83206 46.4509 6.36979C46.424 6.9019 46.5057 7.43391 46.6908 7.9335C46.8759 8.43308 47.1607 8.88981 47.5278 9.27593C47.8949 9.66204 48.3367 9.96948 48.8263 10.1796C49.3159 10.3896 49.8431 10.498 50.3759 10.498C50.9087 10.498 51.4359 10.3896 51.9255 10.1796C52.4151 9.96948 52.8569 9.66204 53.224 9.27593C53.5912 8.88981 53.8759 8.43308 54.0611 7.9335C54.2462 7.43391 54.3278 6.9019 54.3009 6.36979C54.3461 5.83292 54.2776 5.29255 54.0997 4.78398C53.9218 4.27542 53.6387 3.8101 53.2687 3.41843C52.8987 3.02676 52.4503 2.71755 51.9527 2.51101C51.4551 2.30446 50.9195 2.20523 50.3809 2.21979Z" fill="#3E3E3E"/>
<path d="M32.54 0.31C32.1045 0.117922 31.6358 0.0126225 31.16 0C30.4236 0.030035 29.7072 0.247952 29.0788 0.633026C28.4505 1.0181 27.9311 1.55753 27.57 2.2V0.31H25.17V12.44H27.54V6.64C27.54 4 28.79 2.48 31 2.48C31.3392 2.494 31.6752 2.55113 32 2.65L32.57 0.32L32.54 0.31Z" fill="#3E3E3E"/>
</g>
<defs>
<clipPath id="clip0_0_3">
<rect width="57.98" height="18" fill="white"/>
</clipPath>
</defs>
</svg>
