<svg width="40" height="40" viewBox="0 0 40 40" fill="none" xmlns="http://www.w3.org/2000/svg">
<path d="M16.8749 13.7478C16.8749 13.1297 17.0582 12.5255 17.4015 12.0115C17.7449 11.4976 18.233 11.097 18.804 10.8605C19.3752 10.6239 20.0035 10.562 20.6099 10.6826C21.216 10.8032 21.7729 11.1008 22.21 11.5379C22.647 11.975 22.9447 12.5319 23.0654 13.1381C23.1859 13.7444 23.124 14.3727 22.8874 14.9438C22.6509 15.5149 22.2504 16.003 21.7364 16.3464C21.2224 16.6898 20.6182 16.873 20 16.873" stroke="#00436F" stroke-width="2.5" stroke-linecap="round" stroke-linejoin="round"/>
<path d="M35.0024 16.2482C35.0019 13.4099 34.1961 10.6299 32.6787 8.23128C31.1612 5.83263 28.9944 3.9137 26.43 2.69735C23.8655 1.48099 21.0086 1.01712 18.1911 1.35963C15.3734 1.70215 12.7108 2.83697 10.5124 4.6323C8.31405 6.42763 6.67013 8.80982 5.77157 11.5021C4.87302 14.1945 4.75672 17.0865 5.43617 19.8423C6.11562 22.598 7.56293 25.1045 9.61003 27.0707C11.6571 29.0367 14.22 30.3817 17.001 30.9493L20.0012 38.75L23.0014 30.9493C26.3899 30.2577 29.4352 28.4167 31.622 25.7377C33.809 23.0587 35.0032 19.7063 35.0024 16.2482Z" stroke="#00436F" stroke-width="2.5" stroke-linecap="round" stroke-linejoin="round"/>
<path d="M20 23.1237C19.6548 23.1237 19.375 22.8438 19.375 22.4987C19.375 22.1535 19.6548 21.8735 20 21.8735" stroke="#00436F" stroke-width="2.5"/>
<path d="M20.0001 23.1237C20.3453 23.1237 20.6251 22.8438 20.6251 22.4987C20.6251 22.1535 20.3453 21.8735 20.0001 21.8735" stroke="#00436F" stroke-width="2.5"/>
</svg>
