<svg width="18" height="14" viewBox="0 0 18 14" fill="none" xmlns="http://www.w3.org/2000/svg">
<path d="M18 1.61538C17.325 1.93846 16.65 2.04615 15.8625 2.15385C16.65 1.72308 17.2125 1.07692 17.4375 0.215385C16.7625 0.646153 15.975 0.861539 15.075 1.07692C14.4 0.430769 13.3875 0 12.375 0C10.0125 0 8.21248 2.15385 8.77498 4.30769C5.73749 4.2 3.03749 2.8 1.125 0.646154C0.1125 2.26154 0.674999 4.30769 2.24999 5.38462C1.6875 5.38462 1.125 5.16923 0.562502 4.95385L0.562499 4.95385C0.562499 6.56923 1.8 8.07692 3.48749 8.50769C2.92499 8.61539 2.36249 8.72308 1.8 8.61539C2.24999 10.0154 3.59999 11.0923 5.28749 11.0923C3.93749 12.0615 1.9125 12.6 0 12.3846C1.6875 13.3538 3.59999 14 5.62499 14C12.4875 14 16.3125 8.50769 16.0875 3.44615C16.875 3.01539 17.55 2.36923 18 1.61538Z" fill="#00436F"/>
</svg>
