<svg width="2098" height="851" viewBox="0 0 2098 851" fill="none" xmlns="http://www.w3.org/2000/svg">
<path fill-rule="evenodd" clip-rule="evenodd" d="M959.042 686.904C959.623 680.852 960.21 672.779 960.9 663.3C963.822 623.125 968.581 557.701 982.449 513.934C1001.71 505.456 1017.47 501.586 1028.53 499.835C1017.84 521.995 1006.91 553.329 993.75 591.077C983.76 619.727 972.482 652.072 959.042 686.904ZM1343.69 288.806C1343.32 292.307 1346.17 295.441 1349.68 298.021C1350.15 298.364 1350.63 298.703 1351.09 299.037C1355.89 302.461 1359.85 305.291 1353.64 306.13C1338.07 305.485 1306.83 316.543 1287.29 349.534C1286.46 318.755 1304.34 306.591 1308.48 304.379C1291.55 311.364 1277.37 325.75 1270.13 333.102L1270.13 333.104C1267.91 335.353 1266.34 336.944 1265.54 337.462C1266 334.773 1266.57 332.02 1267.14 329.258C1269.55 317.538 1272 305.649 1266.19 297.744C1259 312.028 1252.09 318.387 1240.84 320.967C1248.06 307.96 1246.18 299.25 1244.12 289.746C1242.48 282.146 1240.72 274.038 1243.42 262.819C1244.9 252.221 1250.34 242.177 1259.83 233.33C1256.02 249.955 1259.59 259.277 1263.16 268.604C1265.64 275.097 1268.12 281.593 1268.12 290.557C1271.96 285.454 1272.01 277.576 1272.04 273.442C1272.05 271.229 1272.06 270.089 1272.64 271.02C1280.47 283.276 1284.99 295.072 1283.05 310.738C1294.75 299.68 1293.46 291.202 1290.24 280.973C1293.18 281.319 1296.36 281.583 1298.57 281.767L1298.58 281.767L1298.99 281.802C1298.59 278.425 1294.12 273.819 1288.89 268.428C1280.99 260.285 1271.35 250.351 1271.35 240.149C1271.35 232.04 1276.69 225.773 1282.22 221.442C1295.03 219.415 1306.46 220.152 1313.18 221.166C1322.03 222.456 1316.04 228.63 1314.66 229.552C1311.99 231.303 1308.48 233.238 1302.77 235.449C1296.97 237.753 1309.77 244.572 1316.41 244.204C1321.12 243.961 1323.83 242.263 1326.42 240.641C1328.75 239.183 1330.98 237.787 1334.47 237.569C1333.37 239.688 1333.37 241.439 1333.83 242.545C1340.55 243.559 1342.03 244.296 1342.03 244.296C1342.03 244.296 1343.41 241.9 1342.49 238.03C1346.67 238.207 1346.64 243.701 1346.64 245.33L1346.64 245.494C1347 251.023 1354.47 249.549 1356.59 248.627C1357.1 248.401 1357.88 247.834 1358.88 247.105C1361.14 245.463 1364.55 242.992 1368.57 241.716C1371.52 254.156 1375.94 273.232 1378.34 285.027C1378.61 286.502 1378.7 294.611 1369.58 290.833C1362.45 287.952 1357.76 289.113 1353.88 290.074C1350.19 290.988 1347.23 291.721 1343.59 288.621L1343.69 288.806ZM1233.66 280.235C1230.25 288.713 1232 297.837 1232 297.837C1232 297.837 1226.47 309.909 1217.71 304.011C1214.86 302.076 1211.72 298.297 1209.88 295.256C1209.3 294.293 1208.9 293.757 1208.54 293.281C1208.22 292.847 1207.93 292.462 1207.58 291.847C1220.39 282.539 1234.12 268.256 1237.62 258.488C1237.16 266.597 1235.78 274.798 1233.56 280.235H1233.66ZM1411.6 578.256C1441.45 534.983 1450.7 500.646 1458.46 471.865C1464.86 448.121 1470.24 428.158 1485.32 410.078C1449.57 397.453 1409.21 406.853 1409.21 406.853C1409.21 406.853 1400.08 513.565 1344.15 600.096C1381.65 493.384 1362.21 442.424 1362.21 442.424C1392.16 423.532 1396.21 387.962 1394.09 368.886C1420.08 336.356 1407.09 313.226 1390.78 304.103C1409.3 321.151 1395.29 347.691 1395.29 347.691C1398.79 329.168 1392.99 312.304 1381.19 305.117C1381.1 303.458 1380.82 301.799 1380.82 301.799C1380.82 301.799 1388.01 297.929 1389.49 296.546C1389.86 296.267 1390.49 296.481 1391.17 296.714C1391.85 296.943 1392.58 297.19 1393.17 297.007C1394.55 296.546 1397.5 294.611 1397.5 294.611L1385.62 288.345L1374.37 241.071C1373.22 236.964 1372.25 233.427 1371.4 230.33L1371.4 230.326C1369.41 223.069 1368.09 218.231 1366.54 214.162C1347 203.288 1328.39 203.38 1304.98 203.749C1273.74 204.302 1203.06 224.299 1200.02 225.405C1196.98 226.511 1197.81 210.845 1201.31 209.37C1203.34 208.541 1314.94 165.966 1376.03 201.169C1359.54 177.762 1318.34 176.472 1318.34 176.472C1318.34 176.472 1316.87 112.334 1280.65 77.1316C1275.03 79.0668 1253.1 89.48 1238.82 113.532C1239.89 118.27 1242.03 123.007 1244.21 127.813C1251.22 143.289 1258.54 159.465 1231.26 178.591C1237.99 169.1 1230.34 162.096 1230.34 162.096C1230.34 162.096 1167.86 113.532 1226.84 0.737219L1227.3 0C1157.82 54.4621 1151.18 155.369 1175.05 187.807C1172.14 195.848 1170.64 203.89 1169.28 211.235C1168.61 214.832 1167.97 218.262 1167.21 221.442C1166.87 222.882 1165.48 223.947 1164.12 224.983C1162.97 225.871 1161.83 226.738 1161.41 227.801C1158.37 235.265 1159.38 250.655 1159.38 250.655C1159.38 250.655 1181.13 243.467 1193.02 238.306C1220.29 226.511 1237.43 223.838 1248.95 223.654C1241.2 230.182 1234.92 236.924 1228.75 243.541C1218.2 254.857 1207.99 265.809 1191.36 274.706C1180.84 280.337 1168.69 282.377 1156.02 284.505C1142.14 286.835 1127.63 289.27 1113.95 296.639C1126.39 280.788 1143.35 270.559 1168.87 267.518C1148.23 264.938 1132.84 269.085 1119.39 273.416C1122.43 268.164 1134.59 257.75 1148.32 253.88C1116.53 261.896 1109.3 270 1095.99 284.902C1095.69 285.247 1095.37 285.596 1095.06 285.949C1073.4 299.127 1070.36 314.332 1073.04 326.588C1073.35 328.005 1073.75 329.355 1074.13 330.675L1074.13 330.677C1076.11 337.431 1077.86 343.415 1067.69 353.589C1082.91 355.356 1086.01 345.045 1088.8 335.739C1089.79 332.426 1090.75 329.24 1092.2 326.772C1099.48 314.332 1112.38 310.83 1122.06 311.383C1110.17 323.363 1105.47 340.134 1105.84 353.681L1105.93 353.589C1111.16 347.988 1117.19 341.536 1136.16 345.019C1130.54 345.019 1119.66 356.722 1119.48 365.292C1133.81 365.479 1145.78 366.713 1157.35 367.906C1168.56 369.061 1179.39 370.178 1191.64 370.268C1183.8 369.163 1177.54 366.029 1173.39 363.633C1182.8 358.063 1186.07 341.47 1189.4 324.604L1189.4 324.594C1189.98 321.654 1190.56 318.706 1191.17 315.806C1204.48 310.141 1209.47 312.303 1214.02 314.272C1216.06 315.154 1218.01 315.997 1220.57 316.083C1231.63 316.451 1234.58 306.683 1234.58 306.683C1234.58 306.683 1226.75 360.039 1197.99 370.176C1215.5 369.715 1233.47 363.633 1247.48 350.271C1242.5 368.333 1224.07 381.511 1224.07 381.511C1224.07 381.511 1241.4 379.76 1259.64 366.767C1255.31 381.511 1241.21 395.15 1210.16 408.419C1231.45 408.235 1289.96 390.634 1303.6 365.292C1307.85 357.402 1310.92 350.217 1313.59 343.986C1319.49 330.204 1323.4 321.085 1333.55 319.308C1338.43 318.479 1351.34 318.939 1355.21 319.124C1356.76 319.176 1357.7 319.87 1358.56 320.499C1359.22 320.989 1359.84 321.439 1360.64 321.52C1367.19 322.165 1367.37 325.851 1367.37 325.851C1367.37 325.851 1367.83 330.182 1360 330.182C1348.29 325.206 1338.71 331.564 1337.14 336.356C1335.56 341.063 1339.79 346.16 1343.81 351.01C1346.57 354.326 1349.22 357.527 1349.86 360.408C1351.98 349.995 1348.2 342.807 1348.2 342.807C1348.2 342.807 1356.03 347.322 1360.92 358.749C1361.95 353.924 1361.74 350.262 1361.57 347.233V347.232C1361.36 343.494 1361.21 340.723 1363.5 337.923C1364.88 336.264 1366.26 334.79 1367.74 333.5C1368.07 336.585 1370.4 340.613 1373.23 345.506C1383.67 363.555 1400.9 393.369 1349.86 430.997C1356.22 420.952 1359.44 404.733 1354.19 395.426C1348.39 414.409 1336.04 428.785 1318.62 435.328C1323.69 428.14 1340.09 402.337 1329.86 386.764C1303.6 437.54 1268.31 454.404 1237.9 463.066C1261.3 468.687 1300.19 464.356 1328.94 446.571C1312.46 490.634 1256.04 492.076 1217.53 493.06C1204.57 493.392 1193.64 493.671 1186.94 495.503C1195.12 489.496 1203.74 487.649 1215.97 485.027L1215.97 485.026C1218.75 484.431 1221.71 483.796 1224.9 483.063C1192.74 481.404 1140.77 481.957 1118.47 505.548C1135.08 471.691 1169.32 464.402 1204.23 456.97C1240.4 449.271 1277.29 441.418 1296.04 403.72C1270.89 427.126 1189.79 462.236 1119.57 424.085C1120.3 424.967 1121.27 426.418 1122.48 428.211C1126.31 433.915 1132.48 443.085 1140.4 448.414C1130.7 447.783 1121.29 442.878 1110.29 437.147C1090.78 426.977 1066.27 414.206 1026.31 418.095C1079.67 393.399 1152.1 419.846 1152.1 419.846C1152.1 419.846 1137.82 403.812 1107.87 401.232C1128.64 393.068 1142.58 395.612 1157.09 398.26C1162.72 399.288 1168.44 400.333 1174.68 400.771C1164.68 398.566 1157.17 394.823 1149.44 390.97C1134.23 383.389 1118.17 375.381 1080.59 377.825C1091.65 367.596 1112.84 365.569 1112.84 365.569C1076.15 365.253 1045.82 374.858 1022.13 382.36C990.558 392.36 970.785 398.622 963.466 372.664C946.623 408.708 989.732 413.66 1003.4 415.23C1004.69 415.378 1005.72 415.496 1006.41 415.607C994.587 416.934 986.713 418.972 978.989 420.97C974.911 422.026 970.875 423.07 966.323 423.993C959.503 425.375 944.298 427.311 933.885 416.897C932.595 432.471 951.302 438.738 962.268 438.461C982.449 437.816 988.163 446.847 988.163 446.847C805.793 454.219 675.95 480.667 556.521 621.384C527.861 655.204 500.492 684.139 474.689 708.744C387.313 747.973 363.775 714.203 338.893 678.502C315.961 645.601 291.887 611.061 215.649 630.507C224.701 641.539 227.837 658.676 231.202 677.057C236.605 706.579 242.595 739.308 274.627 755.097C316.187 775.647 382.168 767.261 438.474 741.458C326.14 836.56 246.52 846.143 209.936 826.884C290.946 884.316 390.051 827.393 506.634 760.432C603.301 704.909 711.985 642.485 832.333 632.626C865.231 563.881 951.302 457.076 1057.18 463.803C1048.52 465.923 1041.15 472.005 1038.39 481.773C1002.54 484.261 924.485 502.323 857.214 614.472C880.436 586.458 903.014 565.171 924.117 549.044C909.464 613.551 907.806 730.031 907.806 734.086C954.319 694.883 971.382 710.414 976.606 715.169L976.736 715.287C978.947 709.113 1028.53 579.546 1110.26 502.415C1102.06 513.809 1098.71 527.503 1095.6 540.19C1090.81 559.722 1086.61 576.865 1066.22 579.546C1092.55 585.642 1106.27 563.65 1118.6 543.886C1125.46 532.876 1131.9 522.558 1139.85 518.173C1151.55 528.678 1162.24 541.856 1171.73 557.983C1148.23 577.335 1069.63 645.528 1000.7 725.147C1103.54 653.084 1175.69 621.752 1195.32 613.827C1197.9 622.674 1200.3 631.981 1202.32 641.841C1187.12 646.357 1145.1 660.088 1108.61 684.047C1161.69 669.211 1194.22 663.221 1206.01 661.378C1211.26 694.184 1213.75 732.243 1212.65 776.292C1233.01 680.914 1213.29 591.895 1179.84 539.921C1178.18 537.249 1191.08 533.378 1202.6 532.641C1251.18 598.57 1248.34 683.169 1246.7 732.151C1246.67 733.087 1246.64 734.011 1246.61 734.921L1246.56 736.482C1257.34 727.132 1269.65 719.775 1282.63 712.017C1328.12 684.832 1381.87 652.709 1407.18 512.552C1413.17 528.293 1412.31 553.503 1411.75 569.95L1411.75 569.965C1411.64 573.25 1411.54 576.185 1411.51 578.625L1411.6 578.256ZM1381.47 62.4797C1426.07 130.12 1428.28 174.353 1401.93 203.749V203.842C1401.28 212.227 1398.7 218.77 1398.7 218.77C1398.7 218.77 1377.23 161.451 1330.42 113.993C1361.66 135.464 1364.88 139.611 1371.06 148.366C1382.48 142.837 1386.72 116.297 1381.47 62.4797ZM1336.39 255.433C1340.84 256.33 1345.02 257.173 1349.68 255.079C1351.15 254.434 1353 256.369 1352.53 257.752C1346.73 274.8 1327.1 268.349 1321.85 255.356C1327.41 253.622 1332.03 254.553 1336.39 255.433ZM184.766 631.612C171.772 557.43 81.7392 531.719 0 613.366C118.924 607.496 140.028 677.863 157.683 736.73C163.586 756.412 169.103 774.809 177.762 788.64C168.13 763.585 173.852 731.893 179.454 700.865C183.928 676.087 188.325 651.733 184.766 631.52V631.612ZM1389.28 258.395L1379.7 220.705L1379.79 220.613C1379.79 220.613 1394.9 228.722 1396.84 233.237C1397.57 234.988 1399.23 239.504 1397.76 244.941C1395.45 253.603 1389.28 258.395 1389.28 258.395ZM1521.25 388.145C1545.03 381.049 1567.23 374.69 1615.98 365.199C1621.48 364.124 1624.03 366.476 1625.72 368.028C1626.49 368.739 1627.08 369.282 1627.69 369.254C1637.45 368.608 1654.69 363.54 1668.97 356.721C1653.4 360.96 1645.66 361.144 1635.7 360.591C1635.02 360.562 1634.04 359.773 1632.76 358.746C1630.05 356.573 1626 353.33 1620.68 353.956C1568.16 360.13 1517.93 372.571 1517.93 372.571C1517.93 372.571 1474.99 348.519 1409.93 379.114C1457.98 371.759 1485.16 380.058 1502.07 385.221C1510.59 387.821 1516.5 389.626 1521.16 388.237L1521.25 388.145ZM1316.77 300.62L1316.7 300.648C1316.63 300.678 1316.59 300.693 1316.59 300.693L1316.68 300.785C1316.68 300.785 1316.76 300.708 1316.92 300.563C1318.22 300.06 1323.51 298.177 1334.01 296.362C1336.86 295.843 1338.02 293.773 1339.5 291.141C1340.64 289.103 1341.97 286.727 1344.42 284.474C1336.32 282.492 1319.12 298.479 1316.92 300.563C1316.86 300.584 1316.81 300.603 1316.77 300.62ZM2091.41 138.043C2078 140.864 2069.17 141.661 2061.65 142.341C2053.19 143.105 2046.38 143.72 2036.58 146.89C2036.62 146.862 2036.62 146.862 2036.58 146.889C2035.65 147.48 2014.58 160.849 1999.07 169.836C1995.37 171.986 1991.76 173.539 1988.91 174.76C1986.51 175.79 1984.66 176.584 1983.78 177.3C1977.65 182.216 1969.55 189.054 1960.76 196.488L1960.75 196.49C1943.49 211.074 1923.52 227.952 1910.33 237.107C1905.41 240.535 1897.2 243.561 1889.22 246.502C1882.39 249.018 1875.73 251.472 1871.44 254.063C1847.54 268.645 1820.04 278.317 1792.81 287.899C1750.33 302.844 1708.46 317.571 1681.79 350.363C1725.29 326.956 1736.35 321.611 1782.7 308.065C1809.24 300.308 1834.14 287 1858.07 274.211L1858.07 274.21L1858.07 274.209L1858.08 274.202C1865.13 270.433 1872.1 266.71 1879 263.186C1883.32 260.991 1887.82 259.246 1892.36 257.486C1898.87 254.962 1905.47 252.406 1911.71 248.442C1928.2 238.005 1947.94 220.699 1964.21 206.44C1977.67 194.639 1988.75 184.925 1993.64 182.922C1998.54 180.91 2007.43 174.646 2016.53 168.233L2016.53 168.232L2016.53 168.231C2027.44 160.545 2038.65 152.645 2043.68 151.59C2046.67 150.975 2049.98 150.434 2053.5 149.86C2057.89 149.143 2062.6 148.375 2067.36 147.351C2070.49 146.706 2071.14 149.378 2067.36 151.682C2061.46 155.276 2055.56 157.395 2048.74 159.699C2039.85 162.689 2034.18 167.18 2028.87 171.391C2027.47 172.5 2026.1 173.59 2024.69 174.628C2022.14 176.526 2019.58 177.644 2017.13 178.713C2013.41 180.344 2009.93 181.864 2007.09 185.87C2005.59 188.046 2005.16 190.547 2004.7 193.208C2003.78 198.551 2002.74 204.54 1992.72 209.83C1993.18 207.434 1992.62 203.748 1988.66 201.997C1981.93 205.683 1966.73 216.004 1971.15 217.018C1972.9 217.479 1985.53 219.69 1996.4 218.032C2000.45 217.453 2005.25 216.101 2010.11 214.732C2015.32 213.267 2020.58 211.784 2025.06 211.212C2032.8 210.199 2038.05 212.318 2039.53 216.189C2041.74 221.994 2037.96 235.448 2012.9 239.688C1995.69 242.66 1989.89 245.633 1983.29 249.021C1975.36 253.09 1966.27 257.756 1934.84 263.739C1941.39 272.862 1948.76 274.705 1957.79 274.982C1953.5 277.275 1948.82 279.681 1943.9 282.208L1943.89 282.21C1918.17 295.427 1886.04 311.938 1870.34 332.669L1869.97 331.907L1869.64 331.219C1864.13 319.722 1859.51 310.076 1862.78 287.607C1849.79 302.203 1848.95 317.803 1848.26 330.652C1847.85 338.407 1847.48 345.161 1844.53 350.086C1843.55 345.989 1842.19 341.892 1840.83 337.764L1840.83 337.763C1838.23 329.916 1835.59 321.959 1835.41 313.686C1832.33 321.791 1830.95 329.484 1829.61 336.96C1827.78 347.165 1826.02 356.965 1820.11 366.858C1814.14 353.937 1816.44 340.237 1817.04 336.674C1817.09 336.401 1817.12 336.188 1817.14 336.039C1817.16 335.966 1817.16 335.908 1817.17 335.867C1817.17 335.837 1817.17 335.816 1817.17 335.802L1816.14 336.875C1790.79 363.493 1776.03 378.997 1717.83 397.821C1685.3 408.326 1690.92 366.581 1690.92 366.581C1690.92 366.581 1666.22 400.862 1664.93 432.102C1664.01 454.218 1648.71 455.508 1644.75 429.521C1644.01 424.453 1640.23 449.058 1638.21 468.502C1636.27 488.038 1616.09 467.857 1614.15 374.783C1603.28 427.771 1607.24 490.619 1622.82 532.548C1625.58 540.104 1610.74 543.883 1605.49 536.51C1600.24 529.138 1580.89 460.393 1591.58 401.599C1571.03 413.938 1557.03 439.009 1547.97 455.224C1543.09 463.955 1539.65 470.119 1537.39 470.345C1530.85 470.99 1529.56 431.917 1534.81 409.801C1507.44 421.144 1500.8 450.789 1493.54 483.208C1486.65 513.997 1479.19 547.288 1452.89 569.777C1434.07 585.889 1426.84 619.034 1420.21 649.356C1415.55 670.717 1411.19 690.676 1403.31 702.293C1418.99 684.922 1441.61 648.63 1457.75 622.728L1457.75 622.724L1457.76 622.722L1457.77 622.702C1464.57 611.79 1470.22 602.725 1473.71 597.7C1479.24 589.775 1601.07 565.907 1607.52 564.893C1607.92 564.831 1608.33 564.765 1608.77 564.695C1615.47 563.632 1626.74 561.845 1631.75 563.142C1632.3 563.282 1632.84 563.435 1633.39 563.589C1638.28 564.954 1643.61 566.442 1650.65 560.562C1662.95 550.309 1664.76 528.496 1666.68 505.353V505.352C1667.34 497.294 1668.03 489.075 1669.17 481.127C1679.51 476.504 1685.14 472.764 1690.43 469.248C1697.59 464.493 1704.13 460.149 1720.87 454.587C1726.91 452.589 1733.78 450.629 1741.13 448.53C1759.21 443.368 1780.25 437.362 1799.38 427.863C1815.77 419.765 1830.12 409.223 1843.73 399.23L1843.73 399.23C1862.48 385.458 1879.81 372.73 1899.09 368.885C1900.29 359.762 1899.27 356.076 1893.84 348.888C1899 345.294 1909.41 336.448 1921.21 325.481C1923.84 323.014 1926.18 320.486 1928.56 317.913C1933.92 312.124 1939.49 306.108 1949.13 300.047C1950.17 299.423 1952.09 299.151 1953.98 298.884C1955.44 298.677 1956.88 298.473 1957.88 298.112C1977.31 299.212 1991.08 291.678 2003.84 284.7C2007.11 282.908 2010.32 281.153 2013.54 279.59C2013.54 286.382 2018.44 286.035 2023.73 285.658C2024.11 285.631 2024.49 285.604 2024.88 285.579C2032.71 285.119 2041.56 283.46 2043.31 281.248C2044.39 279.953 2045.13 277.083 2046.02 273.649L2046.02 273.648L2046.02 273.647L2046.02 273.646C2046.27 272.684 2046.53 271.679 2046.81 270.651C2050.01 266.646 2052.59 263.895 2055.75 260.521L2055.75 260.517L2055.76 260.513L2055.8 260.466C2056.26 259.975 2056.73 259.471 2057.22 258.947C2057.54 258.605 2057.85 258.283 2058.14 257.974C2061.34 254.621 2063.03 252.849 2061.09 244.664C2061.56 244.269 2062.05 243.872 2062.54 243.467L2062.58 243.438L2062.6 243.424C2065.91 240.724 2069.6 237.729 2069.76 233.421C2070.22 223.469 2069.57 210.199 2067.08 204.946C2066.42 203.451 2057.8 201.989 2048.91 200.481C2043.01 199.479 2036.98 198.456 2033.08 197.39C2033.53 196.692 2033.65 195.481 2033.79 194.142C2033.96 192.475 2034.15 190.609 2035.01 189.28C2039.33 184.302 2043.42 181.714 2050.11 177.48C2050.85 177.012 2051.62 176.524 2052.43 176.01C2057.9 173.576 2061.66 171.577 2064.78 169.922C2068.39 168.005 2071.13 166.55 2074.64 165.413C2106.89 154.999 2097.77 138.504 2091.23 137.583L2091.41 138.043ZM964.466 778.319C970.087 778.319 974.234 776.568 977.46 772.237C982.251 765.786 987.873 753.807 987.965 737.127C994.969 775.555 966.125 817.392 937.557 811.31C912.308 805.873 905.488 757.861 903.922 742.656C908.069 751.042 939.032 776.845 964.466 778.319Z" fill="black" fill-opacity="0.1"/>
</svg>
