<svg width="19" height="13" viewBox="0 0 19 13" fill="none" xmlns="http://www.w3.org/2000/svg">
<path d="M18.8107 2.80505C18.8107 2.80505 18.6252 1.53069 18.0537 0.971119C17.33 0.234657 16.5211 0.231047 16.15 0.187726C13.4929 -1.03286e-07 9.50369 0 9.50369 0H9.49627C9.49627 0 5.50702 -1.03286e-07 2.84999 0.187726C2.4789 0.231047 1.66992 0.234657 0.946287 0.971119C0.374804 1.53069 0.192968 2.80505 0.192968 2.80505C0.192968 2.80505 0 4.30325 0 5.79783V7.19856C0 8.69314 0.189257 10.1913 0.189257 10.1913C0.189257 10.1913 0.374804 11.4657 0.942576 12.0253C1.66621 12.7617 2.61621 12.7365 3.03925 12.8159C4.56073 12.9567 9.49998 13 9.49998 13C9.49998 13 13.4929 12.9928 16.15 12.8087C16.5211 12.7653 17.33 12.7617 18.0537 12.0253C18.6252 11.4657 18.8107 10.1913 18.8107 10.1913C18.8107 10.1913 19 8.69675 19 7.19856V5.79783C19 4.30325 18.8107 2.80505 18.8107 2.80505ZM7.5369 8.89892V3.70397L12.6691 6.31047L7.5369 8.89892Z" fill="#00436F"/>
</svg>
