<svg width="1750" height="1116" xmlns="http://www.w3.org/2000/svg">
    <path d="M886.322 1935.643c-90.098 191.598-229.235 312.005-425.617 368.165l-24.062 6.87 13.928 20.645c58.942 87.913 122.173 175.368 188.194 259.96l7.943 10.386 12.444-4.522c48.581-17.467 95.96-38.181 140.515-61.546 239.703-125.53 414.25-328.254 478.681-556.601l6.25-22.006-22.842-1.06c-125.581-5.37-245.581-15.664-356.652-30.517l-13.186-1.854-5.596 12.08zm710.001-1664.135c-155.025 101.813-311.002 209.046-463.377 318.823-199.243 143.474-398.718 295.263-592.559 451.063l-13.063 10.384 9.533 13.952c49.551 73.397 84.696 154.598 104.731 241.293l3.902 16.972 16.964-3.18c198.962-36.132 405.583-79.223 614.288-128.25 265.371-62.022 540.166-134.782 816.498-216.373l18.571-5.492-6.709-18.19c-77.513-208.816-192.553-393.58-342.192-549.007-45.721-45.935-94.565-89.857-145.104-130.917l-10.379-8.3-11.104 7.222zm526.221 790.178c-281.24 83.146-560.75 157.16-830.39 220.313-210.083 48.97-418.064 92.309-618.226 128.707l-15.376 2.774 1.714 57.784c0 80.956-20.884 184.623-57.389 284.526l-6.938 18.932 19.525 4.875c65.79 16.636 136.206 31.01 209.199 42.967 370.931 60.964 834.415 64.124 1377.07 9.412l15.18-1.465 1.06-15.258c3.813-54.341 5.771-109.69 5.771-164.1 0-203.36-26.39-397.623-78.64-577.281l-5.101-17.308-17.459 5.122zm-292.361 936.97c-96.664 400.058-422.9 747.35-860.611 914.186-58.731-62.075-114.406-123.622-165.28-183.225 0 0-16.489-19.638-31.368-37.193 28.807-12.486 57.105-25.555 83.724-39.436 276.227-144.602 473.97-379.308 545.462-645.75 89.886.247 248.653-.988 428.073-8.582zM2364.947-144.55c14.67 13.544 44.291 40.758 44.291 40.758 216.525 214.82 380.11 476.389 486.75 776.773-224.893 79.402-452.098 154.245-676.551 222.61-83.743-221.867-207.011-418.833-367.135-585.424l-1.113-.971c-30.75-30.87-63.707-61.157-97.389-90.597 205.881-131.27 411.179-253.373 611.147-363.15zM-20.945-43.552C-196.234 19.69-352.229 114.333-484.657 237.9l-5.489 5.14-.248 7.453c-8.191 221.477 20.248 426.885 84.45 610.677l7.573 21.74 19.293-12.434c65.667-42.28 137.195-72.408 212.624-89.68l13.434-3.02.617-13.81c3.884-90.243 12.941-182.077 26.727-273.17C-100.063 320.799-57.096 148.77 2.233-20.505l12.569-36.027-35.747 12.98zm-588.358 417.12c-127.661 168.286-221.642 352.818-279.243 548.406l-2.189 7.7 4.131 6.835c27.344 44.47 57.476 86.606 89.587 124.93 38.465 45.687 81.29 87.93 127.909 125.918l18.571 15.117 9.515-21.951c38.324-88.797 93.153-167.21 162.949-232.905l8.791-8.283-5.119-13.458-8.686-23.17c-56.628-158.625-88.118-333.162-93.734-518.897l-1.447-51.25-31.035 41.008zm-318.184 712.79c-16.117 88.407-24.185 177.892-24.185 265.822 0 40.072 1.712 80.62 5.12 120.444l1.006 11.69 10.981 3.816c69.197 24.777 142.191 41.997 216.895 51.163l20.883 2.525-2.596-78.606c0-53 6.127-106.351 17.972-158.768l2.56-11.372-9.286-7.064a1062.207 1062.207 0 0 1-171.846-163.022l-60.195-75.676-7.309 39.048zm.228 527.302c13.93 74.12 34.177 147.022 59.931 216.745l6.46 17.695 17.355-7.046c61.271-25.166 121.943-51.073 180.035-77.106l15.005-6.674-5.225-15.665c-10.397-30.622-19.063-62.27-26.002-94.005l-2.717-12.84-13.293-1.378c-70.786-6.8-141.096-20.467-208.582-40.513l-28.456-8.423 5.489 29.21zM905.723-73.01C718.113 136.814 554.067 351.087 417.95 564.195c-52.462 82.173-101.52 165.6-145.738 247.775l-8.774 16.228 16.469 8.53c66.903 34.332 127.558 79.4 180.302 134.113l11.456 11.956 12.834-10.49c195.889-157.424 397.181-310.786 598.454-455.76 139.984-100.7 283.675-199.986 427.085-294.875l22.33-14.764-21.941-15.277C1330.283 65.873 1132.946-24.972 923.764-78.483l-10.626-2.667-7.415 8.14zm-472.75-57.748c-103.974 4.149-206.641 18.438-305.018 42.384l-9.163 2.19-3.406 8.919C42.022 112.724-10.229 305.929-39.637 496.89c-12.817 82.809-21.36 166.59-25.738 248.993l-.988 19.55 46.884-1.22c63.09 0 126.197 9.272 187.24 27.463l14.122 4.292 6.973-13.07c46.019-85.97 97.054-173.406 152.093-260.12C468.506 321.683 620.83 119.313 793.189-78.482l21.342-24.426-31.987-5.368c-116.294-19.655-233.948-27.25-349.571-22.481zM-629.178 1848.1c-57.864 25.909-117.92 51.552-178.342 76.188l-17.813 7.205 8.438 17.466c29.285 60.716 63.337 119.56 101.044 174.768l14.155 20.874 15.253-20.044c41.396-54.466 84.716-109.036 128.67-162.37l8.544-10.314-7.467-11.108c-17.935-27.444-34.282-55.79-48.915-84.363l-7.714-15.348-15.853 7.046zm600.29 493.219c11.598 73.626 26.603 148.4 44.909 222.113l21.111 80.956 11.51 1.854c161.466 29.405 323.289 25.75 480.766-10.72l27.466-6.392-17.086-22.34c-66.904-87.684-130.859-178.034-190.171-268.545l-6.09-9.517-11.368 1.465c-49.322 6.587-102.155 9.907-156.966 9.907-61.149 0-122.543-6.482-182.228-19.321l-25.753-5.598 3.9 26.138zm-295.997-131.023c-19.788 78.89-37.229 162.512-51.616 248.746l-1.853 11.126 9.162 6.57c29.037 20.875 58.712 40.814 88.121 59.109l.742.477.724.389c61.024 30.535 125.209 56.177 190.911 76.168l30.75 9.414-11.845-46.764c-22.453-92.7-40.14-186.09-52.463-277.816l-1.358-10.72-10.257-3.815c-57.001-21.846-112.059-49.925-163.427-83.621l-21.376-13.792-6.215 24.529zm-183.216-169.132c-44.077 53.987-87.501 109.282-129.127 164.576l-8.684 11.514 9.179 11.127c47.468 56.902 100.302 110.995 157.178 160.674l23.813 20.875 5.878-31.26c15.024-79.842 32.71-158.13 52.604-232.603 0 .104.971-3.427.971-3.427l4.026-14.164-8.546-7.824-41.499-39.046-52.251-56.09-13.542 15.648zM1331.837-678.67c-81.203 72.513-158.909 144.92-231.337 215.792-79.152 77.616-156.559 157.6-230.435 237.866-146.709-30.428-295.254-43.11-442.088-37.157-66.621 2.719-132.801 10.28-197.868 20.522 36.135-78.025 74.953-155.801 117.443-231.138 42.224-75.005 88.968-150.926 138.87-225.93 274.181-49.203 565.146-41.89 845.415 20.045zM-578.409-121.822c1.588-1.625 3.301-3.407 4.767-5.033-12.816 67.39-23.073 133.865-30.275 198.325-4.272 36.875-7.327 74.458-9.762 112.108-24.025 24.39-47.239 49.555-68.826 74.862l-.883.83c-.337.477-1.219 1.608-1.219 1.608-110.097 139.18-198.819 290.724-264.469 451.062-17.124-46.993-32.127-96.442-44.555-147.852 97.265-246.31 236.791-477.095 415.222-685.91zm-502.531 955.777c16.487 39.065 34.317 77.53 54.086 114.068-33.927 134.042-51.262 269.709-51.262 404.052 0 8.212.249 16.336.37 24.53-22.718-13.07-45.065-27.11-67.254-42.225.229-165.85 21.712-333.886 64.06-500.425zM250.375-641.07c-17.564 29.457-34.775 58.86-50.875 87.576C134.17-437.041 76.075-316.987 26.171-196.58c-165.88 48.849-318.593 123.217-454.8 221.532 16.1-113.821 41.008-232.268 74.812-353.542C-174.751-468.053 28.236-572.71 250.375-641.07zM-926.516 2015.044c34.404 70.553 74.81 138.828 120.337 203.288-20.001 27.992-39.436 56.089-58.711 84.275-53.436-82.066-99.844-168.727-138.272-258.9 23.652-8.777 55.78-20.875 76.646-28.663zm-206.763-473.58c23.689 12.84 47.466 24.937 71.279 35.816 1.943 12.432 4.873 31.01 4.873 31.01v-.23c14.175 84.436 35.888 167.634 64.22 248.005-20.776 7.807-47.503 17.944-69.814 26.226-34.319-109.513-57.866-223.827-70.558-340.826zm2355.158-1885.17c96.011-94.166 199.631-189.055 307.453-282.443 251.812 80.214 485.055 202.812 694.731 364.226-201.255 112.498-406.466 235.819-610.987 367.69-170.875-124.417-357.781-218.92-556.354-281.824 54.298-57.06 109.479-113.574 165.157-167.65zM289.193 2797.909c105.72-2.207 210.929-17.801 313.436-45.81 14.422 17.465 70.203 84.61 70.203 84.61 37.249 43.85 76.648 88.072 116.933 132.01-191.142 47.878-386.573 59.605-581.864 34.333-30.15-70.465-57.245-141.671-81.517-212.613 53.929 5.65 108.491 8.565 162.809 7.47zm-649.701-158.642c7.662 5.12 16.841 11.02 16.841 11.02.105 0 3.16 1.943 3.16 1.943l3.3 1.57c88.722 44.717 181.609 79.224 275.733 103.33 21.218 68.859 45.878 138.194 72.5 207.105-112.907-29.546-223.745-71.101-329.819-125.176-1.467-1.078-42.456-28.681-57.619-38.818a4020.726 4020.726 0 0 1 15.904-160.974zm-335.555-283.025c54.935 61.14 115.465 118.784 180.514 171.553-7.078 49.45-13.186 100.01-18.411 150.924-82.527-70.817-158.325-147.993-225.334-230.644 20.512-30.781 41.73-61.458 63.231-91.833z" style="mix-blend-mode:soft-light" fill="#000" fill-rule="evenodd" fill-opacity=".25"/>
</svg>
