<svg width="136" height="59" viewBox="0 0 136 59" fill="none" xmlns="http://www.w3.org/2000/svg">
<path d="M73.1125 13.938C71.2213 13.938 69.8828 15.3858 69.8828 17.4995V34.728C69.8828 36.8707 71.2213 38.2895 73.1125 38.2895C75.0038 38.2895 76.3422 36.8417 76.3422 34.728V17.4995C76.3713 15.3858 74.9747 13.938 73.1125 13.938Z" fill="#00D287"/>
<path d="M82.2766 3.54321C80.3853 3.54321 79.0469 4.99098 79.0469 7.10473V34.7311C79.0469 36.8738 80.3853 38.2926 82.2766 38.2926C84.1678 38.2926 85.5063 36.8449 85.5063 34.7311V7.10473C85.5063 4.96203 84.1388 3.54321 82.2766 3.54321Z" fill="#00D287"/>
<path d="M126.186 13.6483C124.149 13.6483 121.646 14.2564 120.279 15.8779H120.163V7.07543C120.163 4.93273 118.824 3.51392 116.933 3.51392C115.042 3.51392 113.703 4.96169 113.703 7.07543V34.7018C113.703 36.8445 115.042 38.2633 116.933 38.2633C118.824 38.2633 120.163 36.8156 120.163 34.7018V23.4671C120.163 20.948 121.646 19.008 124.323 19.008C126.68 19.008 128.542 20.4557 128.542 23.4671V34.7597C128.542 36.9024 129.881 38.3213 131.772 38.3213C133.663 38.3213 135.002 36.8735 135.002 34.7597V22.3668C135.06 16.9232 131.277 13.6512 126.186 13.6512V13.6483Z" fill="#00D287"/>
<path d="M109.711 29.1692C108.227 28.011 106.132 28.3005 104.968 29.7772C103.863 31.1382 102.291 31.9489 100.546 31.9489C97.4615 31.9489 94.9592 29.4298 94.9592 26.3895C94.9592 23.3491 97.4906 20.83 100.546 20.83C102.175 20.83 103.717 21.5249 104.794 22.77C106.016 24.1599 108.14 24.3336 109.595 23.1175C110.991 21.9014 111.166 19.7876 109.944 18.3398C107.587 15.647 104.183 14.0544 100.575 14.0544C93.7371 14.0544 88.1797 19.5849 88.1797 26.3895C88.1797 33.194 93.7371 38.7245 100.575 38.7245C104.416 38.7245 107.994 36.9872 110.351 33.9468C111.457 32.4412 111.195 30.3274 109.711 29.1692Z" fill="#00D287"/>
<path d="M66.1873 19.4105C66.2067 19.3912 66.2261 19.3719 66.2455 19.3526C66.2746 19.3236 66.3037 19.2947 66.3619 19.2368C66.391 19.2078 66.4201 19.1789 66.4783 19.121C66.5074 19.092 66.5365 19.0631 66.5947 19.0051C66.6238 18.9762 66.6529 18.9472 66.7111 18.8604C66.7402 18.8314 66.7402 18.8025 66.7693 18.7445C66.7984 18.7156 66.8275 18.6866 66.8275 18.5998C66.8566 18.5708 66.8566 18.5419 66.8857 18.4839C66.9148 18.455 66.9148 18.426 66.9439 18.3392C66.973 18.3102 66.973 18.2233 67.002 18.1944C67.002 18.1654 67.0311 18.1365 67.0311 18.0496C67.0311 18.0207 67.0602 17.9338 67.0602 17.9048C67.0602 17.8759 67.0893 17.8469 67.0893 17.7601C67.0893 17.7311 67.1184 17.6442 67.1184 17.6153C67.1184 17.5863 67.1184 17.4995 67.1475 17.4705C67.1475 17.4415 67.1475 17.3547 67.1766 17.3257V16.6887C67.1766 16.6308 67.1766 16.5729 67.1475 16.515C67.1475 16.486 67.1475 16.4571 67.1184 16.3702C67.1184 16.3412 67.0893 16.2544 67.0893 16.2254C67.0893 16.1965 67.0602 16.1096 67.0602 16.0806C67.0602 16.0517 67.0311 15.9648 67.0311 15.9359C67.0311 15.9069 67.002 15.82 67.002 15.7911C66.973 15.7621 66.973 15.7332 66.9439 15.6753C66.9148 15.6463 66.9148 15.5594 66.8857 15.5305C66.8566 15.5015 66.8566 15.4726 66.8275 15.4147C66.7984 15.3568 66.7693 15.2988 66.7111 15.2699C66.682 15.2409 66.682 15.212 66.6529 15.1541C66.6238 15.1251 66.5947 15.0382 66.5365 15.0093L66.5074 14.9803C66.488 14.961 66.4686 14.9417 66.4492 14.9224C66.4201 14.8935 66.391 14.8645 66.3328 14.8066C66.3037 14.7776 66.2746 14.7487 66.2164 14.6908C66.1873 14.6618 66.1582 14.6329 66.1001 14.575C66.071 14.546 66.0419 14.517 65.9546 14.4591C65.9255 14.4302 65.8964 14.4302 65.8382 14.4012C65.8091 14.3723 65.7218 14.3433 65.6927 14.3433C65.6636 14.3144 65.6345 14.3144 65.5763 14.2854C65.5472 14.2564 65.4599 14.2564 65.4308 14.2275C65.4017 14.1985 65.3145 14.1985 65.2854 14.1696C65.2563 14.1696 65.2272 14.1406 65.1399 14.1406C65.1108 14.1406 65.0235 14.1117 64.9944 14.1117C64.9653 14.1117 64.9362 14.0827 64.8489 14.0827C64.8198 14.0827 64.7325 14.0538 64.7034 14.0538C64.6743 14.0538 64.587 14.0538 64.5579 14.0248C64.5288 14.0248 64.4416 14.0248 64.4125 13.9958H50.4171C48.7586 13.9958 47.4492 15.3278 47.4492 16.9493C47.4492 18.5708 48.7877 19.9028 50.4171 19.9028H56.8183C50.0679 27.4022 47.7402 33.9751 47.5947 34.3226V34.3515C47.5656 34.4094 47.5656 34.4673 47.5656 34.5253C47.5656 34.5542 47.5365 34.5832 47.5365 34.6411C47.5365 34.67 47.5074 34.7569 47.5074 34.7859C47.5074 34.8148 47.4783 34.9017 47.4783 34.9306V35.6256C47.4783 35.6835 47.4783 35.7414 47.5074 35.7993C47.5074 35.8283 47.5365 35.9151 47.5365 35.9441C47.5365 35.973 47.5656 36.0599 47.5656 36.0889C47.5656 36.1178 47.5947 36.2047 47.5947 36.2336C47.5947 36.2626 47.6238 36.2915 47.6238 36.3494C47.6529 36.3784 47.6529 36.4653 47.682 36.4942C47.682 36.5232 47.7111 36.5521 47.7111 36.61C47.7402 36.639 47.7402 36.7259 47.7693 36.7548C47.7984 36.7838 47.7984 36.8127 47.8275 36.8706C47.8566 36.8996 47.8857 36.9286 47.8857 36.9865C47.9148 37.0154 47.9439 37.0444 47.9439 37.1023C47.973 37.1312 48.002 37.1602 48.002 37.2181L48.1184 37.3339L48.1766 37.3918C48.2057 37.4208 48.2348 37.4498 48.3221 37.5077C48.3512 37.5366 48.3803 37.5366 48.4385 37.5656C48.4676 37.5945 48.4967 37.6235 48.584 37.6814C48.6131 37.7104 48.6422 37.7104 48.7004 37.7393C48.7295 37.7683 48.7586 37.7683 48.8458 37.7972C48.8749 37.8262 48.9622 37.8262 48.9913 37.8551C49.0204 37.8841 49.0495 37.8841 49.1077 37.8841C49.1659 37.913 49.2241 37.913 49.2823 37.942C49.3114 37.942 49.3114 37.971 49.3405 37.971H49.3696C49.3987 37.971 49.4278 37.9999 49.5151 37.9999C49.5442 37.9999 49.6315 38.0289 49.6605 38.0289C49.6896 38.0289 49.7187 38.0289 49.7769 38.0578C49.8351 38.0578 49.9224 38.0868 49.9515 38.0868H63.976C65.6345 38.0868 66.9439 36.7548 66.9439 35.1333C66.9439 33.5118 65.6054 32.1799 63.976 32.1799H55.0143C57.1092 29.2264 60.5135 24.2461 66.1873 19.4105Z" fill="#00D287"/>
<path d="M1.01061 15.2125C8.95395 10.3798 16.9264 5.5124 24.8406 0.679732C25.4808 0.303311 26.2955 0.361222 26.8483 0.853465C30.0198 3.6911 33.2204 6.52873 36.3919 9.36636C36.9448 9.85861 37.1193 10.6694 36.8284 11.3353C33.3368 18.8348 29.8452 26.3343 26.3536 33.7758C25.9754 34.6155 26.47 35.6 27.3429 35.8027C30.8054 36.6134 34.2388 37.3663 37.7013 38.177C38.836 38.4087 39.0979 39.8564 38.1959 40.5224C30.369 46.2266 22.542 51.9309 14.7151 57.664C13.9003 58.2721 12.8238 58.3011 11.98 57.722C8.25563 55.3186 4.53128 52.8864 0.777836 50.4831C0.0795208 50.0198 -0.211444 49.1222 0.16681 48.3404C3.36742 41.5938 6.59713 34.8182 9.79774 28.1005C10.1178 27.4056 9.97232 26.5949 9.44859 26.0447C6.56804 23.1781 3.68748 20.3115 0.777836 17.4739C0.0795208 16.8079 0.225003 15.7076 1.01061 15.2154V15.2125Z" fill="#00D287"/>
</svg>
